<?xml version="1.0" encoding="UTF-8"?>
<svg id="Layer_1" data-name="Layer 1" xmlns="http://www.w3.org/2000/svg" xmlns:xlink="http://www.w3.org/1999/xlink" viewBox="0 0 54 54">
  <defs>
    <style>
      .cls-1 {
        mask: url(#mask);
      }

      .cls-2, .cls-3 {
        fill: #fff;
      }

      .cls-4 {
        fill: #295ac2;
      }

      .cls-5 {
        opacity: .8;
      }

      .cls-3 {
        fill-rule: evenodd;
      }
    </style>
    <mask id="mask" x="14" y="17" width="26" height="22.18" maskUnits="userSpaceOnUse">
      <g id="mask0_0_7937" data-name="mask0 0 7937">
        <path class="cls-3" d="m14,17h26v22.18H14v-22.18Z"/>
      </g>
    </mask>
  </defs>
  <g>
    <g class="cls-5">
      <circle class="cls-4" cx="27" cy="27" r="25"/>
    </g>
    <path class="cls-2" d="m27,54C12.11,54,0,41.89,0,27S12.11,0,27,0s27,12.11,27,27-12.11,27-27,27Zm0-52C13.21,2,2,13.21,2,27s11.21,25,25,25,25-11.21,25-25S40.79,2,27,2Z"/>
  </g>
  <g class="cls-1">
    <path class="cls-3" d="m35,17h-16c-2.76,0-5,2.24-5,5v8c0,2.76,2.24,5,5,5h11l3.59,3.59c.41.41.91.59,1.4.59,1.03,0,2.01-.8,2.01-2v-2.59c1.76-.77,3-2.53,3-4.58v-8c0-2.76-2.24-5-5-5Zm0,2c1.65,0,3,1.35,3,3v8c0,1.19-.71,2.27-1.8,2.75l-1.2.52v3.9l-3.59-3.59-.59-.59h-11.83c-1.65,0-3-1.35-3-3v-8c0-1.65,1.35-3,3-3h16Z"/>
  </g>
</svg>