<svg width="32" height="32" viewBox="0 0 32 32" fill="none" xmlns="http://www.w3.org/2000/svg">
<rect width="32" height="32" fill="#F2F2F2"/>
<g clip-path="url(#clip0_0_1)">
<rect width="1400" height="7215" transform="translate(-684 -1069)" fill="#FAFAFF"/>
<path fill-rule="evenodd" clip-rule="evenodd" d="M-4 -16H36C42.627 -16 48 -10.627 48 -4V36C48 42.627 42.627 48 36 48H-4C-10.627 48 -16 42.627 -16 36V-4C-16 -10.627 -10.627 -16 -4 -16" fill="#FFEDED"/>
<path fill-rule="evenodd" clip-rule="evenodd" d="M27.651 2.77663L29.226 4.35263L25.989 7.59163L23.919 8.08763L24.414 6.01563L27.651 2.77663ZM11.982 9.73963L11.691 10.3626L13.952 12.6226L12.32 14.2566L10.056 11.9946L9.43501 12.2836C7.44001 13.2116 5.05401 12.7906 3.49801 11.2356C2.30201 10.0416 1.77701 8.35863 2.01801 6.73963L4.78101 9.49763L9.19101 5.09063L6.43101 2.33463C8.05201 2.09363 9.73701 2.61963 10.932 3.81363C12.487 5.36763 12.909 7.74863 11.982 9.73963V9.73963ZM2.63001 26.7306L15.34 14.0106L18.003 16.6716L5.29001 29.3926C4.93501 29.7496 4.46401 29.9446 3.96001 29.9456C3.45701 29.9456 2.98501 29.7496 2.62901 29.3946C2.27401 29.0386 2.07801 28.5656 2.07801 28.0626C2.07801 27.5596 2.27401 27.0866 2.63001 26.7306V26.7306ZM20.019 21.9526L17.758 19.6926L19.391 18.0586L21.654 20.3206L22.275 20.0316C24.27 19.1036 26.656 19.5256 28.212 21.0806C29.408 22.2746 29.933 23.9576 29.692 25.5766L26.93 22.8186L22.519 27.2246L25.279 29.9806C23.658 30.2216 21.974 29.6956 20.778 28.5016C19.223 26.9486 18.801 24.5666 19.729 22.5756L20.019 21.9526ZM32 4.35263L27.651 -0.000366211L22.635 5.01963L21.704 8.91563L17.365 13.2586L14.024 9.91963C14.934 7.32863 14.288 4.39263 12.318 2.42463C10.937 1.04563 9.08101 0.315634 7.20201 0.315634C6.17301 0.315634 5.13701 0.534634 4.16801 0.984634L2.89401 1.57663L6.41401 5.09163L4.78001 6.72363L1.26201 3.21063L0.670007 4.47963C-0.604993 7.21663 -0.0259926 10.4896 2.11201 12.6246C4.08201 14.5936 7.02201 15.2386 9.61401 14.3276L10.932 15.6456L1.24301 25.3416C0.517007 26.0686 0.117007 27.0336 0.116007 28.0616C0.116007 29.0896 0.516007 30.0566 1.24301 30.7836C1.96901 31.5096 2.93301 31.9086 3.96001 31.9086H3.96401C4.99101 31.9076 5.95501 31.5066 6.67901 30.7796L16.371 21.0806L17.686 22.3956C16.776 24.9866 17.422 27.9226 19.392 29.8916C21.529 32.0256 24.804 32.6046 27.542 31.3306L28.816 30.7386L25.296 27.2246L26.93 25.5916L30.448 29.1056L31.04 27.8366C32.315 25.0996 31.736 21.8256 29.598 19.6906C28.218 18.3116 26.362 17.5816 24.482 17.5816C23.679 17.5816 22.872 17.7146 22.096 17.9876L18.753 14.6466L23.092 10.3036L26.984 9.37263L32 4.35263Z" fill="#FF5555"/>
</g>
<defs>
<clipPath id="clip0_0_1">
<rect width="1400" height="7215" fill="white" transform="translate(-684 -1069)"/>
</clipPath>
</defs>
</svg>
