<svg width="40" height="40" viewBox="0 0 40 40" fill="none" xmlns="http://www.w3.org/2000/svg">
<path fill-rule="evenodd" clip-rule="evenodd" d="M35 13H16C13.239 13 11 15.239 11 18V29C11 31.761 13.239 34 16 34H30L33.586 37.586C33.993 37.993 34.494 38.176 34.986 38.176C36.014 38.176 37 37.377 37 36.172V33.578C38.764 32.806 40 31.049 40 29V18C40 15.239 37.761 13 35 13ZM35 15C36.654 15 38 16.346 38 18V29C38 30.189 37.293 31.267 36.198 31.746L35 32.27V33.578V36.172L31.414 32.586L30.828 32H30H16C14.346 32 13 30.654 13 29V18C13 16.346 14.346 15 16 15H35Z" fill="black"/>
<path fill-rule="evenodd" clip-rule="evenodd" d="M7.01457 30.1758C5.35257 30.1758 3.99957 28.8278 3.99957 27.1718V25.1918C2.15857 24.1278 0.999573 22.1548 0.999573 19.9998V8.99982C0.999573 5.69182 3.69157 2.99982 6.99957 2.99982H25.9996C29.3086 2.99982 31.9996 5.69182 31.9996 8.99982V19.9998C31.9996 23.3088 29.3086 25.9998 25.9996 25.9998H12.4136L9.12057 29.2928C8.55157 29.8628 7.80357 30.1758 7.01457 30.1758Z" fill="black"/>
<path fill-rule="evenodd" clip-rule="evenodd" d="M26 2H7C3.14 2 0 5.14 0 9V20C0 22.314 1.144 24.447 3 25.739V27.172C3 29.379 4.801 31.176 7.014 31.176C8.071 31.176 9.07 30.758 9.828 30L12.828 27H26C29.86 27 33 23.86 33 20V9C33 5.14 29.86 2 26 2ZM26 4C28.761 4 31 6.239 31 9V20C31 22.761 28.761 25 26 25H12L8.414 28.586C8.007 28.993 7.506 29.176 7.014 29.176C5.986 29.176 5 28.377 5 27.172V24.578C3.236 23.806 2 22.049 2 20V9C2 6.239 4.239 4 7 4H26Z" fill="white"/>
<path fill-rule="evenodd" clip-rule="evenodd" d="M16.5 21C16.088 21 15.742 20.862 15.464 20.586C15.185 20.31 15.046 19.967 15.046 19.559C15.046 19.139 15.185 18.794 15.464 18.524C15.742 18.254 16.088 18.119 16.5 18.119C16.912 18.119 17.258 18.254 17.537 18.524C17.815 18.794 17.955 19.139 17.955 19.559C17.955 19.967 17.815 20.31 17.537 20.586C17.258 20.862 16.912 21 16.5 21ZM15.501 16.12C15.501 15.868 15.524 15.64 15.573 15.436C15.621 15.232 15.703 15.034 15.818 14.842C15.934 14.65 16.085 14.455 16.273 14.257C16.461 14.058 16.7 13.84 16.991 13.599C17.452 13.203 17.812 12.837 18.073 12.501C18.334 12.165 18.464 11.811 18.464 11.439C18.464 10.959 18.288 10.554 17.936 10.223C17.585 9.894 17.107 9.729 16.5 9.729C15.894 9.729 15.415 9.899 15.064 10.241C14.713 10.584 14.537 11.043 14.537 11.619H12.5C12.5 11.115 12.597 10.641 12.791 10.196C12.985 9.752 13.255 9.368 13.6 9.044C13.946 8.72 14.364 8.465 14.855 8.279C15.346 8.093 15.894 8 16.5 8C17.118 8 17.676 8.087 18.173 8.261C18.67 8.435 19.091 8.678 19.437 8.99C19.782 9.303 20.046 9.668 20.228 10.089C20.409 10.509 20.5 10.959 20.5 11.439C20.5 12.135 20.327 12.729 19.982 13.221C19.637 13.714 19.197 14.194 18.664 14.662C18.264 15.01 17.97 15.298 17.782 15.526C17.594 15.754 17.5 16.042 17.5 16.39V16.751H15.501V16.12Z" fill="white"/>
</svg>
