<svg width="18" height="18" viewBox="0 0 18 18" fill="none" xmlns="http://www.w3.org/2000/svg">
<g clip-path="url(#clip0_174_24587)">
<path d="M9.00024 9C11.2063 9 13.0002 7.2061 13.0002 5C13.0002 2.7939 11.2062 1 9.00024 1C6.79424 1 5.00024 2.7939 5.00024 5C5.00024 7.2061 6.79414 9 9.00024 9ZM9.00024 3C10.1027 3 11.0002 3.8975 11.0002 5C11.0002 6.1025 10.1027 7 9.00024 7C7.89774 7 7.00024 6.1025 7.00024 5C7.00024 3.8975 7.89774 3 9.00024 3Z" fill="black"/>
<path d="M2.50218 16.8672C2.98168 17.1406 3.59198 16.9756 3.86738 16.4981L6.27448 12.3028C6.38188 12.1163 6.58018 12.0001 6.79208 12.0001H11.208C11.4199 12.0001 11.6181 12.1163 11.7256 12.3028L14.1327 16.4981C14.3173 16.8194 14.6542 17.0001 15.0008 17.0001C15.1697 17.0001 15.3406 16.9571 15.4979 16.8673C15.9764 16.5929 16.1424 15.9816 15.867 15.5021L13.4599 11.3068C12.997 10.5011 12.1338 10.0002 11.208 10.0002H6.79208C5.86638 10.0002 5.00308 10.5012 4.54018 11.3068L2.13308 15.502C1.85768 15.9815 2.02368 16.5928 2.50218 16.8672Z" fill="black"/>
</g>
<defs>
<clipPath id="clip0_174_24587">
<rect width="14" height="16" fill="white" transform="translate(2 1)"/>
</clipPath>
</defs>
</svg>
