<svg width="33" height="32" viewBox="0 0 33 32" fill="none" xmlns="http://www.w3.org/2000/svg">
<path fill-rule="evenodd" clip-rule="evenodd" d="M11.6113 5.5625C12.3017 5.5625 12.8613 5.0029 12.8613 4.3125C12.8613 3.3131 13.6745 2.5 14.6738 2.5H17.9238C18.9232 2.5 19.7363 3.3131 19.7363 4.3125C19.7363 5.0029 20.296 5.5625 20.9863 5.5625C21.6767 5.5625 22.2363 5.0029 22.2363 4.3125C22.2363 1.9346 20.3018 0 17.9238 0H14.6738C12.2959 0 10.3613 1.9346 10.3613 4.3125C10.3613 5.0029 10.921 5.5625 11.6113 5.5625ZM32.2988 16.3125V15.5C32.2988 11.3644 28.9343 8 24.7988 8H7.7988C3.6633 8 0.298798 11.3645 0.298798 15.5V24.5C0.298798 28.6355 3.6633 32 7.7988 32H16.1113C16.8017 32 17.3613 31.4404 17.3613 30.75C17.3613 30.0596 16.8017 29.5 16.1113 29.5H7.7988C5.0418 29.5 2.7988 27.257 2.7988 24.5V15.5C2.7988 12.743 5.0418 10.5 7.7988 10.5H24.7988C27.5558 10.5 29.7988 12.743 29.7988 15.5V16.3125C29.7988 17.0029 30.3585 17.5625 31.0488 17.5625C31.7392 17.5625 32.2988 17.0029 32.2988 16.3125ZM8.9238 16.75C8.9238 19.1279 10.8584 21.0625 13.2363 21.0625H15.6113C16.3017 21.0625 16.8613 21.6221 16.8613 22.3125C16.8613 23.0029 16.3017 23.5625 15.6113 23.5625H13.2363C9.4799 23.5625 6.4238 20.5064 6.4238 16.75C6.4238 16.0596 6.9835 15.5 7.6738 15.5C8.3642 15.5 8.9238 16.0596 8.9238 16.75ZM14.7363 16.1875C14.7363 15.3246 15.4359 14.625 16.2988 14.625C17.1618 14.625 17.8613 15.3246 17.8613 16.1875C17.8613 17.0504 17.1618 17.75 16.2988 17.75C15.4359 17.75 14.7363 17.0504 14.7363 16.1875ZM32.1207 28.3306C31.8863 28.7212 31.4723 28.9376 31.0476 28.9376C30.8287 28.9376 30.607 28.8801 30.4057 28.7593L29.5576 28.2504C28.8778 28.9317 28.0141 29.4287 27.0488 29.6625V30.7499C27.0488 31.4403 26.4892 31.9999 25.7988 31.9999C25.1085 31.9999 24.5488 31.4403 24.5488 30.7499V29.6625C23.5615 29.4234 22.6813 28.9081 21.9946 28.2027L21.067 28.7593C20.8656 28.8801 20.6438 28.9376 20.425 28.9376C20.0004 28.9376 19.5864 28.7212 19.352 28.3306C18.9968 27.7386 19.1888 26.9707 19.7807 26.6156L20.7185 26.053C20.5679 25.5615 20.4863 25.0401 20.4863 24.5C20.4863 23.9599 20.5679 23.4385 20.7185 22.947L19.7807 22.3844C19.1887 22.0292 18.9968 21.2614 19.352 20.6694C19.7073 20.0774 20.4752 19.8856 21.067 20.2406L21.9946 20.7972C22.6813 20.0919 23.5615 19.5766 24.5488 19.3374V18.25C24.5488 17.5596 25.1085 17 25.7988 17C26.4892 17 27.0488 17.5596 27.0488 18.25V19.3374C28.0142 19.5712 28.8778 20.0682 29.5576 20.7495L30.4057 20.2406C30.9975 19.8854 31.7655 20.0773 32.1206 20.6694C32.4759 21.2614 32.2839 22.0292 31.692 22.3844L30.8592 22.884C31.0224 23.3939 31.1113 23.9367 31.1113 24.5C31.1113 25.0633 31.0225 25.6061 30.8592 26.116L31.692 26.6156C32.284 26.9707 32.4759 27.7386 32.1207 28.3306ZM25.7988 21.6875C27.3496 21.6875 28.6113 22.9492 28.6113 24.5C28.6113 26.0508 27.3496 27.3125 25.7988 27.3125C24.248 27.3125 22.9863 26.0508 22.9863 24.5C22.9863 22.9492 24.248 21.6875 25.7988 21.6875Z" fill="#B13ED6"/>
</svg>
