<svg width="520" height="366" viewBox="0 0 520 366" fill="none" xmlns="http://www.w3.org/2000/svg">
<g clip-path="url(#clip0_15_65765)">
<path d="M519.443 190.24C517.031 164.643 506.094 138.251 485.342 120.679C454.514 94.5738 406.913 86.0987 365.185 91.5311C347.731 93.8034 330.564 99.1931 312.765 97.6517C286.805 95.4037 263.938 79.9923 240.303 68.6952C208.13 53.3174 171.25 45.0409 137.045 51.7323C98.2644 59.3192 66.4675 87.9781 62.6734 126.003C60.9543 143.232 78.4232 173.586 72.91 189.915C67.318 206.476 26.4918 257.204 27.4983 295.789C28.5011 334.23 37.9039 346.186 51.1913 365.722H485.092C493.366 345.927 499.848 330.094 490.161 304.099C482.421 283.329 503.449 266.223 511.585 246.889C518.825 229.682 521.209 208.989 519.443 190.24Z" fill="#E9D9CA"/>
<path d="M469.362 292.506V325.482C469.362 327.952 468.283 330.17 466.571 331.688C466.036 332.164 465.44 332.57 464.797 332.894C463.675 333.462 462.407 333.781 461.064 333.781H402.784C401.181 333.781 399.683 333.326 398.414 332.538C397.814 332.165 397.265 331.718 396.781 331.209C395.358 329.721 394.485 327.703 394.485 325.482V292.506C394.485 291.15 394.809 289.872 395.386 288.741C395.704 288.12 396.096 287.542 396.556 287.024C398.075 285.298 400.302 284.208 402.784 284.208H461.064C463.606 284.208 465.881 285.351 467.403 287.151C467.851 287.68 468.232 288.266 468.536 288.896C469.066 289.987 469.362 291.212 469.362 292.506Z" fill="#C8B9A0"/>
<path d="M344.256 365.722H323.917C323.917 365.722 304.032 329.175 313.117 323.533C324.828 316.26 340.036 337.026 344.256 365.722Z" fill="#068980"/>
<path d="M336.134 365.722H335.029L319.752 328.722C319.668 328.574 319.824 328.418 320.102 328.372C320.381 328.327 320.677 328.41 320.761 328.559L336.134 365.722Z" fill="#004F4C"/>
<path d="M348.236 365.722H370.756C370.756 365.722 388.46 329.175 379.375 323.533C367.664 316.26 352.456 337.026 348.236 365.722Z" fill="#068980"/>
<path d="M357.185 365.722H358.289L372.74 328.722C372.824 328.574 372.667 328.418 372.39 328.372C372.11 328.327 371.815 328.41 371.73 328.559L357.185 365.722Z" fill="#004F4C"/>
<path d="M350.234 365.722H344.256C331.043 332.12 336.323 303.976 349.706 309.257C363.088 314.536 350.234 365.722 350.234 365.722Z" fill="#068980"/>
<path d="M346.73 316.095L346.016 365.722H344.961L345.675 316.091C345.678 315.936 345.917 315.816 346.207 315.813C346.497 315.814 346.733 315.941 346.73 316.095Z" fill="#004F4C"/>
<path d="M203.264 213.72H34.4817L0 365.723H168.782L203.264 213.72Z" fill="#1D2F5D"/>
<path d="M209.597 213.72H38.2732L3.7915 365.723H175.115L209.597 213.72Z" fill="#355389"/>
<path d="M17.8906 190.086H251.628C256.121 190.086 260.205 193.728 260.751 198.221L280.101 357.45C280.646 361.942 277.447 365.584 272.955 365.584H39.2169C34.7244 365.584 30.64 361.942 30.0941 357.45L10.7447 198.221C10.1988 193.728 13.3982 190.086 17.8906 190.086Z" fill="#1D2F5D"/>
<path d="M18.3725 198.22L21.376 222.915L37.721 357.449C38.2716 361.945 42.3517 365.585 46.8417 365.585H285.992C290.482 365.585 293.681 361.945 293.136 357.449L290.916 339.177L282.431 269.326L280.706 255.158L273.788 198.22C273.243 193.724 269.157 190.09 264.661 190.09H25.5173C21.0212 190.09 17.828 193.724 18.3725 198.22Z" fill="#355389"/>
<path d="M215.543 357.832L146.919 357.88C145.34 357.881 143.742 356.47 143.35 354.73C142.959 352.989 143.922 351.576 145.501 351.575L214.125 351.528C215.704 351.527 217.302 352.937 217.693 354.678C218.085 356.419 217.122 357.831 215.543 357.832Z" fill="#6684D3"/>
<path d="M27.4239 204.699L30.1087 226.784L44.4383 344.704H279.341L277.365 328.414L262.327 204.699C261.909 201.227 258.752 198.408 255.28 198.408H32.9589C29.4789 198.408 26.9987 201.227 27.4239 204.699Z" fill="white"/>
<path d="M255.277 198.408H32.9525C29.4789 198.408 27.0052 201.224 27.4273 204.698L28.189 210.966H263.092L262.33 204.698C261.908 201.224 258.75 198.408 255.277 198.408Z" fill="#AFD4E6"/>
<path d="M249.625 204.688C249.794 206.079 251.058 207.206 252.449 207.206C253.84 207.206 254.831 206.079 254.662 204.688C254.493 203.297 253.228 202.169 251.837 202.169C250.446 202.169 249.456 203.297 249.625 204.688Z" fill="white"/>
<path d="M239.851 204.688C240.02 206.079 241.285 207.206 242.676 207.206C244.067 207.206 245.057 206.079 244.888 204.688C244.719 203.297 243.455 202.169 242.064 202.169C240.673 202.169 239.682 203.297 239.851 204.688Z" fill="white"/>
<path d="M230.078 204.688C230.247 206.079 231.511 207.206 232.902 207.206C234.293 207.206 235.284 206.079 235.115 204.688C234.946 203.297 233.681 202.169 232.29 202.169C230.899 202.169 229.909 203.297 230.078 204.688Z" fill="white"/>
<path d="M283.218 344.703H279.289L262.276 204.697C261.854 201.223 258.697 198.408 255.223 198.408H259.15C262.625 198.408 265.781 201.223 266.203 204.697L283.218 344.703Z" fill="#96C3D3"/>
<g style="mix-blend-mode:multiply" opacity="0.7">
<path d="M204.802 290.839H92.3448L91.3247 283.094H203.782L204.802 290.839Z" fill="#DFE9EE"/>
<path d="M243.283 319.345H96.0991L95.0791 311.599H242.262L243.283 319.345Z" fill="#AFD4E6"/>
<path d="M206.679 305.092H94.2218L93.2017 297.346H205.659L206.679 305.092Z" fill="#DFE9EE"/>
<path d="M236.631 268.841L237.651 276.586H90.4678L89.4478 268.841H236.631Z" fill="#AFD4E6"/>
<path d="M245.16 333.597H97.9762L96.9561 325.852H244.139L245.16 333.597Z" fill="#AFD4E6"/>
<path d="M87.5581 254.495H234.742L235.774 262.333H88.5904L87.5581 254.495Z" fill="#AFD4E6"/>
<path d="M104.78 293.136H48.9717L38.5825 217.18H94.3911L104.78 293.136Z" fill="#AFD4E6"/>
</g>
<path d="M496.799 300.158H324.548C318.108 300.158 312.88 294.93 312.88 288.49V162.965L508.467 162.965V288.49C508.467 294.93 503.239 300.158 496.799 300.158Z" fill="#AFD4E6"/>
<path d="M316.814 149.791L421.644 149.629C422.073 149.628 422.488 149.675 422.884 149.754L504.282 149.629C506.957 149.625 509.128 151.287 509.132 153.341L509.148 164.284L426.51 164.067L426.51 164.284L311.993 163.983L311.977 153.518C311.973 151.463 314.139 149.795 316.814 149.791Z" fill="#355389"/>
<path d="M498.953 158.876C498.547 158.472 498.323 157.933 498.321 157.358C498.32 156.176 499.281 155.212 500.464 155.21H500.467C501.649 155.21 502.611 156.171 502.613 157.353C502.614 157.925 502.391 158.464 501.986 158.87C501.58 159.276 501.042 159.5 500.467 159.501C499.895 159.501 499.358 159.279 498.953 158.876Z" fill="white"/>
<path d="M489.515 157.372C489.515 156.19 490.476 155.226 491.658 155.224H491.66C492.842 155.224 493.804 156.185 493.806 157.367C493.808 158.55 492.847 159.513 491.661 159.515C490.479 159.515 489.516 158.554 489.515 157.372Z" fill="white"/>
<path d="M480.875 157.386C480.873 156.814 481.095 156.275 481.5 155.868C481.905 155.463 482.444 155.238 483.017 155.238H483.019C484.201 155.238 485.164 156.198 485.166 157.38C485.168 158.562 484.206 159.526 483.019 159.529C481.838 159.529 480.876 158.567 480.875 157.386Z" fill="white"/>
<path d="M483.654 179.482H333.055C329.053 179.482 325.81 182.726 325.81 186.727V278.947C325.81 282.949 329.053 286.193 333.055 286.193H483.654C487.655 286.193 490.899 282.949 490.899 278.947V186.727C490.899 182.726 487.655 179.482 483.654 179.482Z" fill="#D6EBFF"/>
<path d="M55.2696 133.696H86.3729C87.3658 133.696 88.3159 134.1 89.0048 134.815L96.7426 142.847C97.6435 143.783 99.225 143.145 99.225 141.846V99.1016C99.225 94.7931 95.7324 91.3005 91.4238 91.3005H54.0322C50.526 91.3005 47.6836 94.1428 47.6836 97.649V126.11C47.6836 130.299 51.08 133.696 55.2696 133.696Z" fill="#E66672"/>
<path d="M82.8159 113.44C82.8159 114.911 84.0082 116.103 85.4791 116.103C86.95 116.103 88.1423 114.911 88.1423 113.44C88.1423 111.969 86.9499 110.777 85.4791 110.777C84.0083 110.777 82.8159 111.969 82.8159 113.44Z" fill="white"/>
<path d="M70.334 113.44C70.334 114.911 71.5264 116.103 72.9972 116.103C74.4679 116.103 75.6603 114.911 75.6603 113.44C75.6603 111.969 74.4679 110.777 72.9972 110.777C71.5264 110.777 70.334 111.969 70.334 113.44Z" fill="white"/>
<path d="M57.5591 113.44C57.5591 114.911 58.7515 116.103 60.2223 116.103C61.6931 116.103 62.8854 114.911 62.8854 113.44C62.8854 111.969 61.6932 110.777 60.2223 110.777C58.7513 110.777 57.5591 111.969 57.5591 113.44Z" fill="white"/>
<path d="M346.84 252.254C349.101 270.245 384.08 270.885 378.402 245.608L346.84 252.254Z" fill="#455AB1"/>
<path d="M349.468 244.7L370.304 263.933C372.738 263.492 377.422 260.682 379.505 253.35C383.886 237.926 403.535 215.354 407.049 202.462C409.071 195.038 405.057 187.284 397.805 184.697C394.795 183.625 383.25 178.744 376.689 189.139L349.468 244.7Z" fill="#6F7DCF"/>
<path d="M321.369 205.715L326.476 209.342C327.562 210.113 329.067 209.858 329.838 208.772L332.894 204.47C333.665 203.384 333.41 201.879 332.324 201.107L327.217 197.48C326.131 196.709 324.626 196.964 323.855 198.05L320.799 202.352C320.028 203.438 320.283 204.944 321.369 205.715Z" fill="#450000"/>
<path d="M310.349 201.487C319.467 207.243 327.48 240.186 346.357 254.245C347.418 255.031 348.529 255.658 349.661 256.142C359.42 260.224 371.077 253.033 371.077 241.636L357.091 228.861L325.591 200.088L310.349 201.487Z" fill="#EAA69B"/>
<path d="M349.661 256.142C359.421 260.224 371.077 253.033 371.077 241.636L357.091 228.861C366.176 245.911 361.238 258.506 349.676 256.134C349.671 256.134 349.666 256.137 349.661 256.142Z" fill="#ECB298"/>
<path d="M325.59 200.085L329.059 208.584C313.949 216.056 303.162 209.034 296.481 208.034L305.319 190.123L325.59 200.085Z" fill="#EAA69B"/>
<path d="M299.874 198.191C300.208 198.403 300.511 198.679 300.753 199.02C300.819 199.114 300.877 199.202 300.93 199.299C301.509 200.291 301.492 201.499 300.947 202.455C300.743 202.825 300.46 203.156 300.113 203.425L297.919 205.125L294.816 207.519C294.37 207.861 293.867 208.063 293.354 208.133C292.632 208.237 291.897 208.082 291.273 207.687C290.939 207.475 290.64 207.191 290.398 206.85C289.514 205.601 289.691 203.912 290.763 202.863L290.767 202.856C290.825 202.799 290.889 202.746 290.954 202.693L296.122 198.424C296.17 198.381 296.225 198.343 296.281 198.305C297.37 197.508 298.797 197.508 299.874 198.191Z" fill="#EAA69B"/>
<path d="M279.153 190.171C278.895 188.635 280.015 187.209 281.569 187.096L294.96 186.123L308.108 189.916L305.884 201.213L291.396 192.681L281.677 192.375C280.418 192.336 279.362 191.413 279.153 190.171Z" fill="#EAA69B"/>
<path d="M308.108 189.916L305.415 189.139L295.229 190.929L293.508 193.925L306.514 201.244L308.108 189.916Z" fill="#E89076"/>
<path d="M293.012 212.321C293.661 213.211 294.759 213.727 295.933 213.577L302.58 212.682C304.287 212.449 305.515 210.897 305.339 209.18C305.286 208.689 305.116 208.236 304.872 207.835C304.829 207.754 304.784 207.692 304.738 207.629C304.7 207.576 304.654 207.513 304.605 207.469C303.904 206.616 302.78 206.152 301.615 206.358L295.009 207.465C294.073 207.633 293.287 208.206 292.849 208.991C292.785 209.101 292.729 209.223 292.673 209.344C292.475 209.777 292.387 210.273 292.437 210.782C292.494 211.367 292.699 211.891 293.012 212.321Z" fill="#EAA69B"/>
<path d="M292.849 208.991C293.31 209.36 293.885 209.599 294.528 209.644L301.204 210.155C302.873 210.287 304.89 209.212 304.872 206.959C304.171 206.107 302.78 206.151 301.615 206.358L295.01 207.465C294.073 207.633 293.287 208.206 292.849 208.991Z" fill="#E89076"/>
<path d="M295.05 205.81C295.505 206.55 296.27 207.099 297.197 207.244L301.77 207.872C303.477 208.146 305.087 207.003 305.403 205.316C305.535 204.565 305.413 203.848 305.079 203.231C305.057 203.169 305.016 203.103 304.982 203.048C304.485 202.242 303.661 201.669 302.654 201.542L298.052 201.115C297.264 201.021 296.496 201.235 295.894 201.666C295.263 202.1 294.811 202.775 294.649 203.575C294.486 204.375 294.649 205.159 295.05 205.81Z" fill="#E89076"/>
<path d="M303.787 203.789C303.825 203.844 303.87 203.905 303.903 203.967C303.951 204.039 303.987 204.114 304.028 204.181L304.023 204.189C304.315 204.729 304.449 205.355 304.381 206.02C304.202 207.729 302.681 208.993 300.956 208.856L294.276 208.354C293.951 208.324 293.642 208.253 293.354 208.133C292.815 207.916 292.35 207.548 292.018 207.087C291.568 206.468 291.346 205.702 291.445 204.89C291.507 204.43 291.657 204.014 291.885 203.638C292.064 203.356 292.288 203.103 292.546 202.892C293.109 202.416 293.857 202.141 294.648 202.174L300.947 202.455L301.352 202.473C302.363 202.521 303.228 203.029 303.787 203.789Z" fill="#EAA69B"/>
<path d="M300.891 202.419L301.296 202.437C302.307 202.485 303.172 202.992 303.73 203.753C303.768 203.808 303.814 203.868 303.847 203.931C303.895 204.003 303.93 204.078 303.971 204.145L303.966 204.153C303.296 205.373 301.859 206.044 300.44 205.705L297.862 205.089L292.276 203.751C292.121 203.715 291.964 203.668 291.828 203.602C291.388 203.427 291.016 203.159 290.706 202.827L290.711 202.82C290.768 202.763 290.833 202.71 290.897 202.657L296.066 198.387C296.114 198.345 296.169 198.307 296.224 198.269L300.874 199.263C301.452 200.255 301.435 201.463 300.891 202.419Z" fill="#E89076"/>
<path d="M300.24 193.518C300.708 193.815 301.1 194.231 301.37 194.756C302.161 196.3 301.576 198.189 300.068 199.022L298.174 200.07L294.196 202.252C293.601 202.582 292.937 202.692 292.313 202.609C291.863 202.563 291.433 202.404 291.047 202.159C290.579 201.862 290.192 201.439 289.934 200.91C289.223 199.47 289.743 197.717 291.119 196.893L292.987 195.788L294.966 194.607L296.885 193.471C297.963 192.823 299.253 192.891 300.24 193.518Z" fill="#EAA69B"/>
<path d="M294.743 200.643C295.08 201.444 295.752 202.104 296.645 202.389L301.068 203.711C302.713 204.243 304.479 203.359 305.051 201.741C305.295 201.019 305.285 200.292 305.05 199.631C305.036 199.566 305.006 199.495 304.981 199.435C304.614 198.562 303.887 197.87 302.911 197.59L298.429 196.463C297.664 196.25 296.874 196.343 296.212 196.678C295.522 197.01 294.972 197.607 294.689 198.373C294.406 199.139 294.447 199.938 294.743 200.643Z" fill="#E89076"/>
<path d="M291.505 201.397C291.903 202.17 292.623 202.775 293.536 202.991L300.067 204.512C301.748 204.914 303.441 203.896 303.884 202.238C304.072 201.499 304.006 200.775 303.72 200.135C303.701 200.072 303.666 200.002 303.636 199.945C303.202 199.103 302.423 198.469 301.429 198.267L294.854 196.943C294.076 196.791 293.295 196.945 292.661 197.33C291.999 197.715 291.497 198.353 291.274 199.139C291.052 199.924 291.154 200.717 291.505 201.397Z" fill="#EAA69B"/>
<path d="M321.83 201.691L306.99 193.129L296.735 195.169L300.346 200.302L304.577 200.72C304.577 200.72 310.92 213.218 321.83 201.691Z" fill="#E89076"/>
<path d="M296.735 195.169L294.188 200.674C293.634 201.87 294.143 203.289 295.33 203.861C296.385 204.369 297.653 204.047 298.336 203.096L300.347 200.302L296.735 195.169Z" fill="#E89076"/>
<path d="M325.59 200.085L308.108 189.916L295.994 192.283L300.236 198.356L305.228 198.867C305.228 198.867 312.664 213.647 325.59 200.085Z" fill="#EAA69B"/>
<path d="M294.966 194.607L298.921 198.482L298.174 200.07L297.186 202.15C297.135 202.264 297.077 202.372 297.015 202.469C296.351 203.516 295.082 204.022 293.859 203.684C293.209 203.51 292.676 203.12 292.313 202.608C291.827 201.946 291.635 201.084 291.853 200.233L292.987 195.788L294.966 194.607Z" fill="#E89076"/>
<path d="M295.994 192.283L292.965 198.77C292.306 200.179 292.901 201.857 294.3 202.537C295.543 203.141 297.041 202.766 297.852 201.647L300.236 198.356L295.994 192.283Z" fill="#EAA69B"/>
<path d="M325.913 199.714L317.246 212.694L320.042 217.056L330.613 203.47L325.913 199.714Z" fill="#450000"/>
<path d="M450.971 286.199L431.177 286.163L376.688 286.069L382.02 265.317L382.113 264.957L385.611 251.331L389.096 237.784L389.111 237.705L389.19 237.344C383.931 232.641 381.421 227.282 380.548 221.886C380.397 220.978 380.296 220.04 380.26 219.138C380.18 218.511 380.166 217.883 380.173 217.291C380.151 215.156 380.354 213.071 380.664 211.03C380.765 210.432 380.873 209.819 381.002 209.234C382.568 201.43 387.029 187.531 388.033 184.091L411.226 174.323C409.848 173.025 432.748 173.991 440.713 180.064C444.169 182.7 440.706 211.333 440.713 215.474C440.721 221.994 439.927 228.357 439.682 234.409C439.264 244.536 441.578 256.207 444.219 265.909C447.363 277.456 450.971 286.199 450.971 286.199Z" fill="#6F7DCF"/>
<path d="M450.97 286.199L431.177 286.163L429.201 279.462L382.02 265.317L381.947 265.064C382.005 265.029 382.055 264.992 382.113 264.957L385.611 251.331L392.344 248.124L430.748 239.386L427.21 206.575L440.713 215.474C440.721 221.994 439.926 228.357 439.682 234.409C439.264 244.536 441.578 256.207 444.219 265.909C447.363 277.456 450.97 286.199 450.97 286.199Z" fill="#455AB1"/>
<path d="M448.425 264.145L471.537 260.233C469.439 231.686 459.45 218.827 448.913 188.998C446.508 182.189 432.417 176.494 426.335 180.39C421.091 183.748 418.744 190.2 420.603 196.144L448.425 264.145Z" fill="#6F7DCF"/>
<path d="M350.034 223.662L351.579 221.708L351.584 221.718C351.763 221.508 352.01 221.349 352.326 221.307L382.017 217.386C382.884 217.272 383.749 217.615 384.303 218.292L416.197 257.346C416.755 258.03 416.403 259.063 415.543 259.264L395.09 264.032C394.251 264.228 393.371 263.983 392.755 263.382L351.975 223.662H350.034Z" fill="#AFD4E6"/>
<path d="M414.685 259.259L382.791 220.205C382.238 219.527 381.373 219.184 380.505 219.299L350.815 223.22C349.827 223.35 349.424 224.562 350.138 225.258L391.243 265.295C391.86 265.895 392.74 266.14 393.578 265.945L414.032 261.176C414.892 260.975 415.244 259.943 414.685 259.259Z" fill="#6594B3"/>
<path d="M375.085 240.079C376.806 242.944 380.213 245.224 382.693 245.17C385.174 245.117 385.79 242.751 384.069 239.885C382.348 237.019 378.942 234.74 376.461 234.793C373.98 234.847 373.364 237.213 375.085 240.079Z" fill="#507790"/>
<path d="M379.444 223.456C379.846 224.125 380.642 224.657 381.221 224.645C381.8 224.633 381.944 224.08 381.542 223.411C381.14 222.741 380.345 222.209 379.765 222.221C379.186 222.234 379.042 222.787 379.444 223.456Z" fill="#6396B1"/>
<path d="M392.344 260.741L365.334 242.307L400.029 244.92L402.969 256.537L392.344 260.741Z" fill="#EAA69B"/>
<path d="M386.568 245.911L365.336 242.311L365.083 241.686C364.092 239.228 362.073 237.334 359.56 236.508C359.157 236.371 358.898 235.991 358.907 235.585C358.909 235.521 358.921 235.457 358.933 235.393C359.313 233.703 360.824 232.562 362.49 232.6C362.767 232.606 363.044 232.655 363.331 232.726L364.592 233.16L364.72 233.206C366.893 233.96 368.551 235.728 369.163 237.943L386.018 245.664L386.568 245.911Z" fill="#EAA69B"/>
<path d="M378.683 246.803L369.002 243.462C367.635 239.321 365.312 237.728 362.798 236.902C362.396 236.764 362.137 236.385 362.146 235.979C362.148 235.915 362.16 235.851 362.172 235.787C362.458 234.49 363.42 233.518 364.592 233.16L364.72 233.206C366.893 233.96 368.551 235.728 369.164 237.943L370.996 242.435L378.683 246.803Z" fill="#E89076"/>
<path d="M370.996 242.435L370.745 241.812C369.756 239.358 367.737 237.464 365.224 236.635C364.759 236.481 364.487 236 364.594 235.523C365.037 233.546 367.033 232.333 368.991 232.85L370.38 233.334C372.55 234.09 374.213 235.861 374.83 238.075L392.233 246.041L370.996 242.435Z" fill="#EAA69B"/>
<path d="M441.775 246.802L398.982 251.136L392.344 260.741C392.344 260.741 434.134 274.019 461.56 272.195C473.421 271.406 475.313 257.623 465.455 250.981L463.906 249.937C460.422 247.59 445.955 246.379 441.775 246.802Z" fill="#EAA69B"/>
<path d="M457.361 182.982C456.011 184.001 454.194 184.213 452.479 184.329C452.15 184.35 448.99 184.343 444.246 184.312C439.985 184.283 434.446 184.234 428.534 184.169C423.998 184.117 416.223 183.868 411.419 183.921C400.288 184.046 390.483 184.11 388.032 184.091C387.731 184.09 387.542 184.087 387.474 184.082C385.759 183.966 383.943 183.754 382.592 182.735C381.229 181.709 380.574 179.974 380.663 178.324C380.728 177.157 381.129 176.035 381.719 175.018C381.867 174.763 382.025 174.516 382.195 174.276C383.023 173.1 383.702 171.751 383.321 170.298C383.057 169.299 382.434 168.408 382.053 167.449C380.771 164.223 381.691 159.03 384.231 156.57C386.467 154.405 387.955 154.036 391.324 152.413C391.832 152.169 392.771 142.288 394.21 138.107C391.76 139.203 389.323 140.409 387.437 142.054C380.535 135.871 385.7 123.586 397.173 117.464C399.372 116.29 401.906 116.12 404.2 116.844C405.238 116.284 406.417 115.952 407.676 115.927L417.134 115.738C423.338 115.615 429.064 117.585 433.56 120.959C434.57 119.544 435.857 118.228 437.401 117.103C443.469 112.678 448.827 114.398 452.228 119.063C455.629 123.727 453.176 130.405 449.718 133.995C448.355 135.409 446.434 135.985 444.733 136.513C444.744 136.547 444.761 136.58 444.772 136.615C446.772 137.97 448.015 152.364 448.629 152.659C451.998 154.282 453.486 154.652 455.722 156.817C458.264 159.276 459.182 164.469 457.9 167.696C457.519 168.654 456.896 169.547 456.634 170.544C456.251 171.997 456.931 173.347 457.759 174.523C457.928 174.763 458.087 175.011 458.234 175.265C458.826 176.282 459.226 177.405 459.29 178.57C459.379 180.222 458.725 181.955 457.361 182.982Z" fill="#231F20"/>
<path d="M446.514 182.298C446.037 183.059 445.264 183.727 444.246 184.312C439.985 184.283 434.447 184.234 428.534 184.169C423.998 184.118 416.223 183.868 411.42 183.921C400.288 184.046 390.483 184.11 388.032 184.091C384 169.972 393.6 168.267 394.017 160.627C394.573 150.44 411.6 129.289 425.073 132.585C438.547 135.883 439.645 153.514 440.195 160.429C440.744 167.342 452.559 172.662 446.514 182.298Z" fill="black"/>
<path d="M382.471 146.148C383.098 147.366 383.805 148.563 384.526 149.745C384.922 150.399 385.325 151.046 385.719 151.689C387.749 154.994 399.021 159.068 402.002 161.551L404.901 163.883L416.315 173.062L420.294 165.203C420.294 165.203 440.731 168.386 441.938 145.04C442.641 131.448 429.928 129.287 429.428 129.195C429.417 129.193 429.41 129.192 429.41 129.192C429.01 127.439 428.282 125.784 427.299 124.288C425.174 121.045 421.862 118.545 418.143 117.379C412.707 115.676 406.585 116.698 401.726 119.668C396.865 122.638 387.792 122.967 382.47 131.679C379.88 135.919 380.198 141.731 382.471 146.148Z" fill="#231F20"/>
<path d="M394.487 152.775C396.516 156.08 399.021 159.068 402.001 161.551L404.901 163.883C406.305 162.727 407.383 160.708 407.808 157.88C409.107 149.266 401.592 137.498 401.592 137.498C401.592 137.498 399.962 133.596 397.742 134.503C391.637 136.997 394.092 152.132 394.487 152.775Z" fill="#470E0D"/>
<path d="M424.669 183.638C424.669 183.638 424.669 184.096 424.669 184.102C424.14 199.051 409.842 203.326 399.609 199.968C393.158 197.85 391.324 192.764 390.85 189.293C390.578 187.302 391.633 185.365 393.448 184.501L399.289 181.724L399.814 172.557L417.431 172.562L417.192 181.782L424.669 183.638Z" fill="#EAA69B"/>
<path d="M404.08 131.152C392.629 124.984 382.303 133.125 385.185 146.942C388.35 162.117 403.059 158.548 403.059 158.548L404.08 131.152Z" fill="black"/>
<path d="M420.565 156.678L421.735 184.341C421.735 184.341 414.827 186.31 407.869 185.858C399.488 185.314 397.772 183.086 397.772 183.086L397.842 182.298L398.587 173.75L399.214 166.557L400.083 157.74L420.565 156.678Z" fill="#EAA69B"/>
<path d="M422.665 131.022L417.056 166.711C416.801 168.305 415.62 169.583 414.054 169.972L398.383 173.8C397.054 174.122 395.643 173.739 394.654 172.787L387.635 165.98C386.702 165.079 386.26 163.778 386.46 162.495L386.657 161.27L388.902 146.997L390.199 138.71C391.289 131.811 397.759 127.105 404.659 128.184L422.665 131.022Z" fill="#EAA69B"/>
<path d="M392.915 154.239C392.683 157.82 390.024 160.66 386.657 161.27L388.902 146.997C391.464 148.366 393.116 151.147 392.915 154.239Z" fill="#D76B5E"/>
<path d="M397.658 158.32C397.576 158.32 397.493 158.301 397.415 158.26L392.315 155.6C392.071 155.472 391.967 155.179 392.075 154.927L397.448 142.416C397.562 142.149 397.871 142.026 398.138 142.14C398.404 142.255 398.528 142.564 398.413 142.83L393.233 154.893L397.901 157.329C398.158 157.463 398.258 157.78 398.124 158.037C398.03 158.217 397.847 158.32 397.658 158.32Z" fill="#DE7360"/>
<path d="M420.197 151.9C420.158 151.9 420.118 151.895 420.078 151.885C411.242 149.673 405.392 145.715 402.692 140.118C399.074 132.619 402.452 125.007 402.597 124.686C402.709 124.439 403 124.33 403.247 124.442C403.494 124.555 403.603 124.846 403.491 125.092C403.449 125.185 400.163 132.63 403.581 139.701C406.151 145.018 411.781 148.797 420.316 150.933C420.579 150.999 420.739 151.265 420.673 151.528C420.617 151.751 420.417 151.9 420.197 151.9Z" fill="black"/>
<path d="M423.303 152.115C423.303 152.115 401.09 145.891 401.441 127.926L403.337 123.382L428.45 128.285L423.303 152.115Z" fill="#231F20"/>
<path d="M423.419 148.879C423.28 148.8 419.984 146.908 416.348 142.87C412.996 139.147 408.732 132.825 407.46 123.85L408.571 123.692C409.801 132.368 413.916 138.484 417.152 142.087C420.669 146.002 423.94 147.884 423.972 147.903L423.419 148.879Z" fill="#414042"/>
<path d="M414.18 156.808C413.55 160.814 416.287 164.572 420.294 165.202C424.3 165.832 428.058 163.095 428.688 159.089C429.318 155.083 426.581 151.324 422.574 150.694C418.568 150.064 414.81 152.802 414.18 156.808Z" fill="#EAA69B"/>
<path d="M389.401 138.23C389.782 139.738 395.024 139.557 394.955 138.114C394.842 135.718 388.797 135.841 389.401 138.23Z" fill="#281C1C"/>
<path d="M412.191 141.941C411.286 143.206 406.472 141.125 407.063 139.806C408.043 137.617 413.626 139.937 412.191 141.941Z" fill="#281C1C"/>
<path d="M417.019 157.662C416.745 161.883 413.101 165.083 408.88 164.809C404.659 164.535 401.46 160.891 401.734 156.67C402.008 152.449 405.651 149.249 409.872 149.523C414.093 149.797 417.293 153.441 417.019 157.662Z" fill="#D76B5E"/>
<path d="M406.324 150.359C406.109 151.723 405.291 152.728 404.497 152.603C403.702 152.478 403.232 151.271 403.446 149.907C403.661 148.543 404.479 147.538 405.273 147.663C406.068 147.788 406.538 148.995 406.324 150.359Z" fill="#281C1C"/>
<path d="M392.946 148.256C392.731 149.62 391.913 150.625 391.119 150.5C390.324 150.375 389.854 149.168 390.068 147.803C390.283 146.439 391.101 145.435 391.895 145.56C392.69 145.684 393.16 146.892 392.946 148.256Z" fill="#281C1C"/>
<path d="M421.828 161.21C421.653 159.864 421.608 158.587 421.969 157.402C422.318 156.213 423.038 155.165 423.87 154.085L423.589 153.756C422.355 154.442 421.324 155.641 420.91 157.093C420.494 158.546 420.735 160.111 421.417 161.346L421.828 161.21Z" fill="#D76B5E"/>
<path d="M402.089 165.386C401.907 165.579 401.705 165.741 401.489 165.9C400.063 166.927 397.968 167.259 396.174 166.676C395.382 166.424 394.665 165.986 394.085 165.453C393.156 164.577 392.557 163.43 392.518 162.266C392.495 161.597 392.76 160.808 393.497 160.638C393.663 160.602 393.848 160.609 394.017 160.627C394.326 160.684 394.648 160.81 394.947 160.918C396.588 161.54 398.368 161.841 400.132 161.794C400.762 161.764 401.365 161.809 401.842 161.963C402.332 162.12 402.695 162.386 402.853 162.827C403.18 163.725 402.75 164.683 402.089 165.386Z" fill="#383939"/>
<path d="M401.842 161.963C401.749 162.398 401.578 162.819 401.238 163.075C400.866 163.366 400.377 163.422 399.91 163.429C398.223 163.49 396.513 163.175 394.961 162.503C394.592 162.342 394.204 162.138 394.017 161.784C393.829 161.431 393.892 161.017 394.017 160.627C394.326 160.684 394.648 160.81 394.947 160.919C396.588 161.54 398.367 161.841 400.131 161.794C400.762 161.764 401.365 161.809 401.842 161.963Z" fill="white"/>
<path d="M401.489 165.901C400.063 166.927 397.968 167.259 396.174 166.676C395.382 166.424 394.665 165.986 394.085 165.454C394.87 164.734 396.053 164.446 397.156 164.45C398.712 164.445 400.3 164.923 401.489 165.901Z" fill="#D76B5E"/>
<path d="M414.053 169.972C414.053 169.972 407.404 180.803 397.842 182.298L398.587 173.75L414.053 169.972Z" fill="#D76B5E"/>
<path d="M414.198 121.896C414.198 121.896 429.558 127.832 427.842 140.643C427.842 140.643 422.157 137.59 419.224 133.786C419.224 133.786 422.085 143.508 430.748 147.476C430.748 147.476 416.984 145.612 413.671 128.315L420.953 130.964C420.953 130.964 418.997 125.511 414.198 121.896Z" fill="#414042"/>
<path d="M387.768 243.997C387.768 243.997 390.594 238.291 394.227 234.864C395.697 233.477 397.658 232.731 399.679 232.731H399.98C401.062 232.731 401.819 233.801 401.456 234.82C400.533 237.412 399.254 241.862 400.029 244.92L387.768 243.997Z" fill="#EAA69B"/>
<path d="M417.549 45.5156H329.503C325.778 45.5156 322.759 48.5351 322.759 52.2598V101.628C322.759 105.352 325.778 108.372 329.503 108.372H417.549C421.274 108.372 424.293 105.352 424.293 101.628V52.2598C424.293 48.5351 421.274 45.5156 417.549 45.5156Z" fill="#D8E9F0"/>
<path d="M333.001 83.5379H328.122C328.122 72.6905 336.947 63.8655 347.794 63.8655V68.7452C339.637 68.7452 333.001 75.3812 333.001 83.5379Z" fill="#FFCD94"/>
<path d="M367.466 83.5379H362.587C362.587 75.3812 355.951 68.7452 347.794 68.7452V63.8655C358.641 63.8655 367.466 72.6905 367.466 83.5379Z" fill="#85CDE4"/>
<path d="M347.794 103.21C336.947 103.21 328.122 94.3853 328.122 83.5378H333.001C333.001 91.6946 339.637 98.3306 347.794 98.3306C355.951 98.3306 362.587 91.6946 362.587 83.5378H367.466C367.466 94.3853 358.641 103.21 347.794 103.21Z" fill="#E98C95"/>
<path d="M329.503 48.2549H417.549C421.271 48.2549 424.293 51.2768 424.293 54.999V59.7819H322.759V54.999C322.759 51.2768 325.781 48.2549 329.503 48.2549Z" fill="#96C3D3"/>
<path d="M417.549 45.5156H329.503C325.778 45.5156 322.759 48.5351 322.759 52.2598V57.0427H424.293V52.2598C424.293 48.5351 421.274 45.5156 417.549 45.5156Z" fill="#70A4B4"/>
<path d="M392.944 52.4991H355.095C354.422 52.4991 353.875 51.953 353.875 51.2792C353.875 50.6055 354.422 50.0593 355.095 50.0593H392.944C393.618 50.0593 394.164 50.6055 394.164 51.2792C394.164 51.953 393.618 52.4991 392.944 52.4991Z" fill="#E6E4E7"/>
<path d="M417.25 52.4991H397.621C396.948 52.4991 396.401 51.953 396.401 51.2792C396.401 50.6055 396.948 50.0593 397.621 50.0593H417.25C417.923 50.0593 418.469 50.6055 418.469 51.2792C418.469 51.953 417.923 52.4991 417.25 52.4991Z" fill="#E6E4E7"/>
<path d="M332.691 51.2792C332.691 52.3618 331.813 53.2395 330.731 53.2395C329.648 53.2395 328.771 52.3618 328.771 51.2792C328.771 50.1965 329.648 49.3188 330.731 49.3188C331.813 49.3188 332.691 50.1965 332.691 51.2792Z" fill="white"/>
<path d="M340.503 51.2792C340.503 52.3618 339.625 53.2395 338.542 53.2395C337.46 53.2395 336.582 52.3618 336.582 51.2792C336.582 50.1965 337.46 49.3188 338.542 49.3188C339.625 49.3188 340.503 50.1965 340.503 51.2792Z" fill="white"/>
<path d="M348.314 51.2792C348.314 52.3618 347.436 53.2395 346.354 53.2395C345.271 53.2395 344.394 52.3618 344.394 51.2792C344.394 50.1965 345.271 49.3188 346.354 49.3188C347.436 49.3188 348.314 50.1965 348.314 51.2792Z" fill="white"/>
<path d="M375.094 97.4484C371.379 93.7329 369.333 88.7927 369.333 83.5379C369.333 72.6905 378.158 63.8655 389.005 63.8655V68.7452C380.848 68.7452 374.212 75.3812 374.212 83.5379C374.212 87.4892 375.751 91.204 378.545 93.9979L375.094 97.4484Z" fill="#FFCD94"/>
<path d="M389.005 103.21C383.75 103.21 378.81 101.164 375.094 97.4483L378.545 93.9978C381.339 96.7918 385.054 98.3306 389.005 98.3306V103.21Z" fill="#E98C95"/>
<path d="M389.005 103.21V98.3307C397.162 98.3307 403.798 91.6947 403.798 83.5379C403.798 75.3812 397.162 68.7452 389.005 68.7452V63.8655C399.852 63.8655 408.677 72.6905 408.677 83.5379C408.677 94.3854 399.852 103.21 389.005 103.21Z" fill="#85CDE4"/>
<path d="M417.433 69.1201H414.918C413.746 69.1201 412.797 70.0696 412.797 71.2408V73.7565C412.797 74.9277 413.746 75.8771 414.918 75.8771H417.433C418.604 75.8771 419.554 74.9277 419.554 73.7565V71.2408C419.554 70.0696 418.604 69.1201 417.433 69.1201Z" fill="#E98C95"/>
<path d="M417.433 80.1594H414.918C413.746 80.1594 412.797 81.1089 412.797 82.2801V84.7958C412.797 85.967 413.746 86.9164 414.918 86.9164H417.433C418.604 86.9164 419.554 85.967 419.554 84.7958V82.2801C419.554 81.1089 418.604 80.1594 417.433 80.1594Z" fill="#FFCD94"/>
<path d="M417.433 91.199H414.918C413.746 91.199 412.797 92.1484 412.797 93.3197V95.8353C412.797 97.0065 413.746 97.956 414.918 97.956H417.433C418.604 97.956 419.554 97.0065 419.554 95.8353V93.3197C419.554 92.1484 418.604 91.199 417.433 91.199Z" fill="#85CDE4"/>
<path d="M398.819 84.7579H379.191C378.517 84.7579 377.971 84.2118 377.971 83.538C377.971 82.8643 378.517 82.3181 379.191 82.3181H398.819C399.493 82.3181 400.039 82.8643 400.039 83.538C400.039 84.2118 399.493 84.7579 398.819 84.7579Z" fill="white"/>
<path d="M394.818 89.2804H383.191C382.517 89.2804 381.971 88.7342 381.971 88.0605C381.971 87.3867 382.517 86.8406 383.191 86.8406H394.818C395.492 86.8406 396.038 87.3867 396.038 88.0605C396.038 88.7342 395.492 89.2804 394.818 89.2804Z" fill="white"/>
<path d="M357.609 84.7579H337.98C337.306 84.7579 336.76 84.2118 336.76 83.538C336.76 82.8643 337.306 82.3181 337.98 82.3181H357.609C358.282 82.3181 358.828 82.8643 358.828 83.538C358.828 84.2118 358.282 84.7579 357.609 84.7579Z" fill="white"/>
<path d="M391.344 80.5036H386.665C385.991 80.5036 385.445 79.9574 385.445 79.2837V74.6039C385.445 73.9302 385.991 73.384 386.665 73.384H391.344C392.018 73.384 392.564 73.9302 392.564 74.6039V79.2837C392.564 79.9574 392.018 80.5036 391.344 80.5036ZM387.885 78.0638H390.125V75.8238H387.885V78.0638Z" fill="white"/>
<path d="M349.764 80.5036H345.084C344.41 80.5036 343.864 79.9574 343.864 79.2837V74.6039C343.864 73.9302 344.41 73.384 345.084 73.384H349.764C350.438 73.384 350.984 73.9302 350.984 74.6039V79.2837C350.984 79.9574 350.438 80.5036 349.764 80.5036ZM346.304 78.0638H348.544V75.8238H346.304V78.0638Z" fill="white"/>
<path d="M124.753 41.2065H300.976V153.149C300.976 159.589 295.748 164.817 289.308 164.817H136.421C129.982 164.817 124.753 159.589 124.753 153.149V41.2065Z" fill="#AFD4E6"/>
<path d="M297.064 29.3363L202.912 29.1904C202.526 29.1899 202.154 29.2317 201.798 29.3037L128.69 29.1904C126.288 29.1868 124.338 30.6841 124.335 32.535L124.32 42.3946L198.541 42.199L198.541 42.3946L301.395 42.1236L301.409 32.6943C301.412 30.8435 299.467 29.3401 297.064 29.3363Z" fill="#355389"/>
<path d="M130.564 37.5455C130.191 37.1716 129.986 36.6761 129.987 36.1499C129.988 35.0633 130.875 34.1792 131.963 34.1792H131.964C133.051 34.1811 133.935 35.0677 133.934 36.1554C133.933 36.6837 133.727 37.1792 133.354 37.5506C132.981 37.9213 132.487 38.1258 131.958 38.1258C131.432 38.125 130.937 37.919 130.564 37.5455Z" fill="white"/>
<path d="M137.922 36.1621C137.924 35.0755 138.81 34.1914 139.896 34.1914H139.899C140.985 34.1934 141.869 35.0795 141.869 36.1673C141.868 37.2539 140.983 38.138 139.892 38.138C138.805 38.1364 137.921 37.2503 137.922 36.1621Z" fill="white"/>
<path d="M145.707 36.174C145.708 35.0874 146.595 34.2036 147.683 34.2036C148.21 34.204 148.706 34.41 149.079 34.7835C149.45 35.1569 149.655 35.6529 149.654 36.1791C149.653 37.2661 148.768 38.1502 147.678 38.1502C146.59 38.1483 145.706 37.2617 145.707 36.174Z" fill="white"/>
<path d="M283.231 53.8823H147.628C143.627 53.8823 140.383 57.1262 140.383 61.1276V143.655C140.383 147.656 143.627 150.9 147.628 150.9H283.231C287.233 150.9 290.477 147.656 290.477 143.655V61.1276C290.477 57.1262 287.233 53.8823 283.231 53.8823Z" fill="#D6EBFF"/>
<path d="M241.212 96.0604C233.906 94.7414 226.6 93.4224 219.294 92.1034C208.993 90.2438 195.695 84.9762 186.062 90.4882C180.738 93.5341 176.78 98.4745 173.325 103.542C160.712 122.041 155.12 143.919 147.917 164.817C147.917 164.817 270.837 167.023 271.808 164.182C272.888 161.026 273.114 157.593 272.386 154.212L266.209 125.543C269.494 107.109 260.436 99.5308 241.212 96.0604Z" fill="#70A4B4"/>
<path d="M177.202 165.169L189.698 121.768L184.398 165.337L177.202 165.169Z" fill="#518798"/>
<path d="M286.206 133.57L284.026 146.413C283.735 149.274 281.221 164.866 281.221 164.866C281.221 164.866 249.141 165.464 249.262 165.013C249.848 162.826 250.412 160.79 250.87 159.003C252.715 151.802 254.56 144.601 256.406 137.4C257.156 134.471 258.495 128.899 259.671 124.059C260.533 120.508 264.465 118.676 267.739 120.297L283.064 127.885C285.194 128.94 286.446 131.206 286.206 133.57Z" fill="#70A4B4"/>
<path d="M251.595 98.7202C248.56 97.6287 245.094 96.7608 241.211 96.0598C239.11 95.6798 237.007 95.301 234.906 94.921C234.757 91.0731 234.653 86.0929 235.111 86.0929C235.856 86.0929 249.456 84.6936 249.456 84.6936C249.456 84.6936 247.408 93.3258 251.595 98.7202Z" fill="#633C30"/>
<path d="M222.614 69.9998L218.926 94.7257C218.926 94.7257 222.461 98.2022 228.92 99.0588C236.7 100.091 238.679 98.3616 238.679 98.3616L240.375 82.9511L241.19 74.7128L222.614 69.9998Z" fill="#EAA69B"/>
<path d="M225.374 46.105L223.998 79.8343C223.941 81.3421 224.789 82.7285 226.153 83.3708L239.816 89.7402C240.974 90.2782 242.338 90.1845 243.418 89.4931L251.092 84.5369C252.113 83.8815 252.754 82.7696 252.805 81.5573L252.849 80.3991L253.397 66.9092L253.722 59.0784C253.983 52.5567 248.913 47.0633 242.393 46.7916L225.374 46.105Z" fill="#EAA69B"/>
<path d="M248.397 72.8131C247.957 76.1371 249.875 79.2249 252.849 80.3991L253.397 66.9092C250.8 67.6958 248.778 69.9425 248.397 72.8131Z" fill="#D76B5E"/>
<path d="M243.401 75.6962C243.189 75.6962 242.993 75.557 242.93 75.3428C242.854 75.0826 243.004 74.81 243.264 74.734L247.987 73.3548L245.442 61.3541C245.386 61.0888 245.555 60.8282 245.82 60.7721C246.085 60.7157 246.346 60.8852 246.402 61.1503L249.042 73.5964C249.095 73.8477 248.946 74.0975 248.699 74.1695L243.539 75.6763C243.493 75.6898 243.447 75.6962 243.401 75.6962Z" fill="#DE7360"/>
<path d="M216.44 60.8672L216.052 59.695C216.085 59.6841 219.417 58.5588 223.344 55.6198C226.954 52.9172 231.826 48.0791 234.528 40.3779L235.693 40.7867C232.88 48.8018 227.805 53.8308 224.043 56.6383C219.962 59.6839 216.581 60.8203 216.44 60.8672Z" fill="#AF1D46"/>
<path d="M254.541 58.7841C253.916 60.0965 249.146 58.9734 249.472 57.6633C250.013 55.4889 255.531 56.7051 254.541 58.7841Z" fill="#281C1C"/>
<path d="M232.978 58.0236C233.577 59.3483 238.368 58.3196 238.068 57.0035C237.57 54.8188 232.03 55.9255 232.978 58.0236Z" fill="#281C1C"/>
<path d="M249.461 67.3243C249.409 68.6137 249.975 69.6837 250.726 69.7144C251.477 69.7449 252.128 68.7245 252.181 67.4352C252.233 66.1459 251.667 65.0759 250.916 65.0453C250.165 65.0147 249.514 66.035 249.461 67.3243Z" fill="#281C1C"/>
<path d="M237.955 81.3532C238.087 81.5628 238.243 81.7484 238.411 81.9341C239.53 83.1356 241.39 83.8224 243.141 83.6154C243.912 83.5288 244.649 83.2583 245.278 82.8764C246.289 82.2432 247.048 81.301 247.296 80.2414C247.439 79.6325 247.34 78.8611 246.696 78.5708C246.551 78.5075 246.38 78.4807 246.221 78.4662C245.928 78.4619 245.61 78.5184 245.316 78.5631C243.699 78.8331 242.013 78.7843 240.405 78.4189C239.833 78.2763 239.272 78.2071 238.806 78.2614C238.329 78.3156 237.948 78.4934 237.722 78.869C237.259 79.6322 237.478 80.5886 237.955 81.3532Z" fill="#383939"/>
<path d="M238.807 78.2614C238.813 78.677 238.892 79.0936 239.157 79.3908C239.445 79.7249 239.883 79.8656 240.31 79.9574C241.844 80.3216 243.469 80.3451 245.014 80.0129C245.382 79.9328 245.774 79.8162 246.011 79.5263C246.247 79.2365 246.265 78.8456 246.222 78.4662C245.928 78.4619 245.61 78.5184 245.316 78.5631C243.699 78.8331 242.013 78.7843 240.405 78.4189C239.833 78.2763 239.272 78.2071 238.807 78.2614Z" fill="white"/>
<path d="M238.411 81.9341C239.53 83.1355 241.39 83.8223 243.141 83.6154C243.912 83.5287 244.649 83.2583 245.278 82.8763C244.691 82.0735 243.659 81.5942 242.647 81.3963C241.222 81.1069 239.68 81.2558 238.411 81.9341Z" fill="#D76B5E"/>
<path d="M225.621 82.9617L238.679 98.3616L239.816 89.7404L225.621 82.9617Z" fill="#D76B5E"/>
<path d="M186.372 109.457C189.796 107.647 195.493 107 200.88 107.007C209.65 107.02 217.536 101.658 220.662 93.4637C222.76 87.9649 224.234 82.2506 224.339 77.8675C206.852 75.1939 217.208 61.252 224.865 65.7922C224.944 63.6894 224.027 55.1159 227.972 55.1241C230.232 55.4407 234.008 55.3324 238.136 55.1733C239.191 52.3439 238.08 47.1395 238.08 47.1395C240.267 49.9902 240.4 55.0831 240.4 55.0831V55.0847C246.355 54.8502 252.598 54.6485 255.865 55.526C256.428 55.6769 256.193 54.2893 256.11 53.7135C255.052 47.5086 251.55 39.8733 245.83 35.2331C244.686 34.3031 243.45 33.4928 242.13 32.8384C239.786 31.6787 237.167 31.0062 234.283 31.0243C226.251 31.0735 219.885 33.6831 215.224 37.9099C213.118 39.8192 211.361 42.0581 209.957 44.5397C208.146 47.7316 206.918 51.3254 206.28 55.1356C204.908 63.3269 207.607 72.1251 204.493 79.8259C200.357 90.056 184.23 97.2107 186.372 109.457Z" fill="#633C30"/>
<path d="M228.441 71.2848C228.287 75.0711 225.092 78.0154 221.306 77.8612C217.519 77.7068 214.575 74.5124 214.729 70.726C214.884 66.9397 218.078 63.9952 221.865 64.1496C225.651 64.3038 228.595 67.4984 228.441 71.2848Z" fill="#EAA69B"/>
<path d="M220.628 73.9218C221.035 72.7208 221.309 71.5591 221.195 70.4069C221.092 69.2533 220.623 68.1613 220.058 67.0205L220.376 66.77C221.382 67.624 222.107 68.9106 222.221 70.3175C222.337 71.7247 221.831 73.1147 220.98 74.1217L220.628 73.9218Z" fill="#D76B5E"/>
<path d="M225.683 71.5489C225.163 75.467 227.919 79.0646 231.837 79.5842C235.755 80.1039 239.352 77.3488 239.872 73.4307C240.392 69.5124 237.637 65.9149 233.719 65.3952C229.8 64.8756 226.203 67.6306 225.683 71.5489Z" fill="#D76B5E"/>
<path d="M236.818 66.8092C236.765 68.0986 237.331 69.1686 238.082 69.1992C238.833 69.2299 239.485 68.2094 239.537 66.9201C239.59 65.6308 239.024 64.5608 238.273 64.5302C237.522 64.4996 236.87 65.52 236.818 66.8092Z" fill="#281C1C"/>
<path d="M241.189 35.8581C241.189 35.8581 248.771 33.493 254.659 41.0072C260.547 48.5214 255.865 55.5261 255.865 55.5261L241.844 45.6168L241.189 35.8581Z" fill="#633C30"/>
<path d="M209.957 44.5397C211.646 45.0417 213.19 43.9476 213.971 43.3227C215.012 42.4895 217.722 43.1144 219.493 45.5157C221.265 47.917 226.162 45.4074 227.412 42.4895C228.662 39.5715 232.83 40.3014 238.863 40.5819C244.895 40.864 245.981 35.653 245.981 35.653C245.981 35.653 245.927 35.4955 245.83 35.2331C244.686 34.3031 243.45 33.4928 242.13 32.8384C240.606 36.2763 235.107 37.0013 233.663 36.5502C231.997 36.0286 225.433 36.4469 224.629 39.0515C223.825 41.6562 220.951 41.1346 218.035 39.1549C217.199 38.5874 216.216 38.1904 215.224 37.91C213.118 39.8192 211.361 42.0581 209.957 44.5397Z" fill="#885648"/>
<path d="M268.187 120.645L282.092 127.654C282.092 127.654 282.456 124.187 283.663 123.291C284.868 122.395 291.585 121.511 292.962 118.386C294.338 115.261 294.56 112.521 294.56 112.521C294.56 112.521 299.193 106.433 302.524 103.84C305.856 101.247 303.908 100.367 301.221 100.597C298.533 100.827 294.261 104.301 294.261 104.301C294.261 104.301 295.65 93.7411 294.405 93.4898C293.162 93.239 291.621 93.4323 290.52 99.0815C290.52 99.0815 290.549 94.8026 288.35 95.1651C286.15 95.529 285.931 107.896 285.931 107.896L279.963 109.245C279.963 109.245 280.857 101.788 278.606 100.737C276.354 99.6859 275.326 100.893 275.778 102.766C276.23 104.64 276.661 108.52 273.965 110.061C271.271 111.601 269.133 114.251 268.187 120.645Z" fill="#EAA69B"/>
<path d="M291.114 112.533C291.086 112.533 291.057 112.529 291.028 112.521C290.869 112.478 290.769 112.325 290.788 112.166C290.8 111.715 290.439 104.123 290.191 99.0983C290.182 98.9169 290.322 98.7627 290.503 98.7538C290.686 98.7456 290.839 98.8846 290.848 99.066C291.489 112.078 291.449 112.227 291.431 112.291C291.392 112.437 291.259 112.533 291.114 112.533Z" fill="#F5927E"/>
<path d="M286.274 113.656C286.102 113.656 285.957 113.522 285.946 113.348L285.603 107.916C285.592 107.735 285.729 107.578 285.911 107.567C286.091 107.556 286.248 107.693 286.259 107.874L286.602 113.306C286.614 113.488 286.476 113.644 286.295 113.655C286.288 113.656 286.281 113.656 286.274 113.656Z" fill="#F5927E"/>
<path d="M274.725 118.067C274.694 118.067 274.663 118.063 274.632 118.053C274.457 118.002 274.358 117.819 274.409 117.645C276.038 112.109 281.6 112.828 281.656 112.836C281.836 112.861 281.961 113.027 281.936 113.207C281.91 113.387 281.744 113.512 281.565 113.487C281.359 113.458 276.507 112.846 275.04 117.831C274.998 117.974 274.867 118.067 274.725 118.067Z" fill="#F5927E"/>
<path d="M294.261 104.301L294.56 112.521C294.56 112.521 299.193 106.433 302.524 103.84C305.856 101.247 303.908 100.367 301.221 100.598C298.533 100.827 294.261 104.301 294.261 104.301Z" fill="#F3AA7F"/>
<path d="M266.841 119.942C263.781 119.021 260.456 120.828 259.671 124.059C258.494 128.899 249.726 164.768 249.529 165.507L243.187 165.492L253.731 124.889C253.731 124.889 257.049 114.982 266.841 119.942Z" fill="#518798"/>
<path d="M199.032 249.387L197.061 344.558H87.6908L65.7014 344.298C56.6418 342.631 50.8634 333.73 53.0687 324.838L82.7527 242.851C87.8933 228.266 100.109 217.685 112.445 217.685H160.455C161.5 217.685 162.535 217.719 163.558 217.786C165.666 217.924 169.73 217.935 173.855 217.9C182.101 217.829 189.652 222.529 193.22 229.964C196.2 236.172 199.032 243.596 199.032 249.387Z" fill="#C31F4B"/>
<path d="M116.805 261.783L111.227 291.703C109.664 300.082 114.408 308.358 122.427 311.246L154.056 322.636L148.55 323.354L98.3242 311.27L116.805 261.783Z" fill="#AD1842"/>
<path d="M153.338 323.498L166.361 324.97C168.668 325.23 170.694 326.62 171.768 328.678L178.104 340.82C179.382 343.269 178.337 346.289 175.818 347.423L173.197 348.603L171.597 339.707L173.88 352.403C174.135 353.823 172.918 355.07 171.483 354.857C170.202 354.668 169.109 353.832 168.594 352.649L163.189 340.23L167.436 355.058C167.74 356.12 166.619 357.022 165.638 356.506C161.9 354.538 158.952 351.352 157.289 347.485L155.845 344.124C155.845 344.124 148.156 349.072 138.601 345.666C136.948 345.076 135.733 343.653 135.352 341.94C134.172 336.634 133.956 325.187 153.338 323.498Z" fill="#EAA69B"/>
<path d="M173.984 348.274C174.147 348.146 174.232 347.933 174.184 347.716L172.149 338.542C172.082 338.241 171.783 338.05 171.48 338.116C171.176 338.182 170.987 338.478 171.053 338.78L173.088 347.954C173.155 348.255 173.454 348.446 173.758 348.381C173.843 348.362 173.919 348.325 173.984 348.274Z" fill="#D76B5E"/>
<path d="M165.306 341.083C165.492 340.937 165.571 340.683 165.484 340.449C165.375 340.161 165.052 340.013 164.761 340.12C164.761 340.12 163.692 340.515 162.506 340.98C162.213 341.093 162.076 341.417 162.191 341.702C162.304 341.99 162.63 342.131 162.918 342.018C164.094 341.559 165.153 341.168 165.155 341.167C165.211 341.146 165.261 341.118 165.306 341.083Z" fill="#D76B5E"/>
<path d="M172.778 338.351C172.965 338.205 173.044 337.952 172.956 337.718C172.847 337.429 172.524 337.282 172.233 337.389C172.233 337.389 171.164 337.783 169.979 338.247C169.693 338.357 169.55 338.683 169.664 338.97C169.778 339.258 170.104 339.398 170.391 339.285C171.566 338.827 172.625 338.436 172.628 338.436C172.683 338.414 172.733 338.386 172.778 338.351Z" fill="#D76B5E"/>
<path d="M156.732 344.983C156.93 344.828 157.004 344.554 156.896 344.315C156.534 343.517 156.392 342.364 156.39 342.353C156.354 342.046 156.075 341.826 155.768 341.862C155.459 341.898 155.24 342.175 155.276 342.479C155.283 342.534 155.439 343.814 155.873 344.772C156.001 345.053 156.334 345.179 156.615 345.053C156.658 345.033 156.697 345.01 156.732 344.983Z" fill="#D76B5E"/>
<path d="M145.905 237.799C134.604 238.343 129.157 232.761 126.19 227.314C124.166 223.596 124.73 219.751 125.292 217.685H160.456C161.5 217.685 162.535 217.719 163.558 217.786C167.383 227.598 156.293 237.299 145.905 237.799Z" fill="#D75574"/>
<path d="M199.033 249.387L204.207 298.018L221.59 264.783L251.142 292.401L231.299 344.558H187.747L199.033 249.387Z" fill="#C31F4B"/>
<path d="M158.539 194.478V225.116C158.539 225.116 155.097 232.082 144.909 232.867C136.34 233.527 129.932 224.186 129.932 224.186L131.279 190.812L158.539 194.478Z" fill="#EAA69B"/>
<path d="M158.542 225.268L139.21 208.401L158.542 216.471V225.268Z" fill="#D76B5E"/>
<path d="M177.83 164.074V204.201C177.83 205.963 176.973 207.629 175.53 208.644L164.629 216.308C163.106 217.387 161.122 217.609 159.409 216.879L139.131 208.422C137.116 207.581 135.783 205.598 135.783 203.392V164.074H177.83Z" fill="#EAA69B"/>
<path d="M177.83 184.289V200.092C173.467 200.092 169.929 196.554 169.929 192.19C169.929 187.827 173.467 184.289 177.83 184.289Z" fill="#D76B5E"/>
<path d="M167.83 192.797H161.741C161.406 192.797 161.134 192.525 161.134 192.19C161.134 191.855 161.406 191.583 161.741 191.583H167.158L165.458 175.1C165.424 174.767 165.666 174.469 165.999 174.435C166.332 174.4 166.63 174.643 166.665 174.976L168.433 192.128C168.451 192.299 168.395 192.469 168.28 192.596C168.165 192.724 168.002 192.797 167.83 192.797Z" fill="#DE7360"/>
<path d="M134.514 187.526C143.866 178.739 139.324 164.559 139.324 164.559C158.025 168.028 169.719 167.231 177.028 164.802C186.498 161.655 187.172 148.533 178.134 144.303C161.923 136.715 135.443 131.392 131.645 153.39C125.4 154.703 121.35 160.768 122.532 167.04L125.264 181.542L134.514 187.526Z" fill="#0F111D"/>
<path d="M132.369 199.926C137.472 197.812 139.895 191.962 137.782 186.86C135.668 181.757 129.818 179.334 124.715 181.447C119.613 183.561 117.189 189.411 119.303 194.514C121.417 199.616 127.267 202.04 132.369 199.926Z" fill="#EAA69B"/>
<path d="M153.59 170.549C153.548 172.85 145.936 174.353 145.549 172.251C144.907 168.762 153.657 166.904 153.59 170.549Z" fill="#0E0D0B"/>
<path d="M180.29 171.816C179.235 173.653 172.429 171.486 173.05 169.619C174.081 166.52 181.962 168.906 180.29 171.816Z" fill="#0E0D0B"/>
<path d="M147.448 199.549C151.802 199.239 155.081 195.458 154.772 191.104C154.462 186.749 150.681 183.47 146.327 183.78C141.972 184.089 138.693 187.87 139.003 192.225C139.312 196.579 143.093 199.858 147.448 199.549Z" fill="#D76B5E"/>
<path d="M156.802 180.499C156.765 182.094 155.982 183.369 155.053 183.347C154.125 183.326 153.402 182.016 153.439 180.421C153.476 178.827 154.259 177.552 155.187 177.574C156.116 177.595 156.839 178.905 156.802 180.499Z" fill="#281C1C"/>
<path d="M173.874 180.499C173.837 182.094 173.055 183.369 172.126 183.347C171.197 183.326 170.475 182.016 170.512 180.421C170.549 178.827 171.331 177.552 172.26 177.574C173.189 177.595 173.911 178.905 173.874 180.499Z" fill="#281C1C"/>
<path d="M130.694 196.633C130.563 196.633 130.431 196.59 130.32 196.504C130.056 196.297 130.01 195.916 130.216 195.652C130.924 194.748 131.383 193.534 131.581 192.045C131.862 189.925 131.034 188.274 129.12 187.138C127.613 186.243 125.975 186.006 125.958 186.004C125.627 185.958 125.395 185.652 125.441 185.32C125.487 184.988 125.792 184.757 126.124 184.802C126.199 184.812 127.991 185.067 129.707 186.075C132.068 187.463 133.132 189.583 132.783 192.205C132.557 193.912 132.014 195.323 131.172 196.4C131.052 196.553 130.874 196.633 130.694 196.633Z" fill="#DE7360"/>
<path d="M132.183 192.732C131.985 192.732 131.791 192.635 131.675 192.457C129.796 189.591 127.275 191.09 126.994 191.27C126.713 191.45 126.338 191.37 126.156 191.09C125.975 190.809 126.053 190.435 126.333 190.253C126.37 190.228 130.109 187.854 132.69 191.792C132.873 192.073 132.795 192.449 132.515 192.632C132.412 192.699 132.297 192.732 132.183 192.732Z" fill="#DE7360"/>
<path d="M159.696 200.313C159.696 200.313 163.34 200.682 166.667 200.133C169.993 199.584 169.365 204.692 164.384 205.747C159.403 206.801 156.918 200.616 159.696 200.313Z" fill="white"/>
<path d="M262.629 259.505C262.629 259.505 257.752 270.931 254.821 270.929C251.892 270.927 251.196 269.995 251.196 269.995L248.34 275.802L243.552 285.539L243.55 285.539C237.658 279.59 230.054 272.704 227.401 270.325C227.401 270.325 228.904 267.386 230.503 264.033C232.045 260.807 233.673 257.196 234.134 255.458C235.075 251.914 240.29 244.668 246.441 239.078C252.592 233.488 255.217 230.969 257.532 232.013C259.848 233.055 252.554 243.888 252.554 243.888C252.554 243.888 264.503 248.704 262.629 259.505Z" fill="#EAA69B"/>
<path d="M249.096 271.148C249.019 271.148 248.941 271.126 248.872 271.078C248.693 270.955 248.648 270.709 248.772 270.53C252.343 265.353 249.117 259.751 249.084 259.695L249.038 259.617L249.03 259.528C249.006 259.239 249.308 258.171 252.627 254.514C254.106 252.886 254.793 251.384 254.67 250.051C254.56 248.866 253.836 248.218 253.601 248.038C253.136 247.897 250.937 249.312 248.996 250.561C246.875 251.925 244.234 253.623 241.417 255.05C235.494 258.049 235.762 261.658 235.765 261.694C235.785 261.91 235.628 262.103 235.412 262.125C235.196 262.147 235.003 261.991 234.98 261.776C234.962 261.607 234.614 257.611 241.06 254.346C243.842 252.937 246.463 251.251 248.57 249.897C251.953 247.721 253.354 246.86 254.069 247.402C254.359 247.622 255.314 248.457 255.455 249.978C255.6 251.541 254.845 253.245 253.212 255.045C250.499 258.033 249.951 259.142 249.842 259.436C250.07 259.859 250.726 261.191 251.056 263.012C251.424 265.033 251.438 268.055 249.421 270.978C249.345 271.089 249.221 271.148 249.096 271.148Z" fill="#D76B5E"/>
<path d="M244.205 253.075C244.107 253.075 244.01 253.039 243.933 252.966C243.775 252.816 243.769 252.566 243.919 252.408L252.268 243.616C252.418 243.458 252.668 243.452 252.826 243.602C252.984 243.752 252.99 244.002 252.84 244.16L244.491 252.952C244.414 253.033 244.309 253.075 244.205 253.075Z" fill="#D76B5E"/>
<path d="M253.467 271.245C253.335 271.245 253.206 271.178 253.131 271.058C252.783 270.494 252.568 269.114 254.708 263.649C255.858 260.713 257.163 257.965 257.176 257.938C257.27 257.741 257.505 257.658 257.702 257.751C257.898 257.845 257.982 258.08 257.888 258.277C257.875 258.304 256.581 261.03 255.441 263.94C253.361 269.254 253.661 270.414 253.802 270.643C253.917 270.828 253.859 271.071 253.674 271.186C253.609 271.226 253.538 271.245 253.467 271.245Z" fill="#D76B5E"/>
<path d="M250.754 264.022C250.709 264.022 250.663 264.014 250.618 263.998C250.414 263.923 250.309 263.696 250.384 263.492L253.197 255.828C253.272 255.623 253.499 255.518 253.703 255.593C253.908 255.668 254.013 255.895 253.938 256.099L251.124 263.764C251.066 263.923 250.915 264.022 250.754 264.022Z" fill="#D76B5E"/>
<path d="M248.34 275.802L243.552 285.539L243.55 285.539C237.658 279.59 230.054 272.704 227.401 270.325C227.401 270.325 228.904 267.386 230.503 264.033C232.391 267.35 235.94 272.399 240.182 273.538C243.605 274.457 246.309 274.925 248.34 275.802Z" fill="#F3AA7F"/>
<path d="M204.207 298.019L197.805 308.617L202.542 282.367L204.207 298.019Z" fill="#AD1842"/>
<path d="M138.348 154.749C138.348 154.749 157.428 167.036 181.879 158.122C181.879 158.122 166.145 158.936 159.46 155.001C159.46 155.001 165.892 155.001 170.461 153.236C170.461 153.236 154.915 154.892 146.174 148.51C146.174 148.51 149.071 154.236 155.019 156.687L138.348 154.749Z" fill="#303735"/>
<path d="M192.333 344.558L184.022 267.79L180.522 344.558H192.333Z" fill="#AD1842"/>
<path d="M235.289 167.933L231.744 157.928C231.144 156.233 229.74 154.947 227.999 154.497L215.429 155.755C211.975 155.57 209.462 155.609 207.624 155.853C203.901 155.335 191.819 165.417 191.819 165.417L203.157 165.453C203.873 166.72 205.027 167.731 206.474 168.252C208.028 168.812 209.524 169.075 210.892 169.156C211.389 171.039 215.008 176.476 215.81 176.577C219.556 177.045 217.853 168.051 217.853 168.051L218.597 170.786C219.453 173.933 220.633 177.607 222.834 178.579C224.666 179.388 225.457 176.959 225.339 176.112L223.91 165.86L226.71 175.973C226.976 176.937 227.724 177.697 228.687 177.981C229.764 178.3 230.833 177.475 230.791 176.358L229.162 166.172C229.162 166.172 231.928 175.516 234.654 176.679C236.621 177.519 236.003 169.949 235.289 167.933Z" fill="#EAA69B"/>
<path d="M234.269 176.791C234.192 176.791 234.115 176.765 234.053 176.71C232.448 175.303 230.965 172.549 229.647 168.525C228.672 165.551 228.153 162.945 228.148 162.919C228.113 162.741 228.229 162.568 228.407 162.533C228.585 162.498 228.758 162.614 228.793 162.792C228.813 162.894 230.852 173.03 234.486 176.215C234.623 176.335 234.636 176.543 234.517 176.679C234.452 176.753 234.361 176.791 234.269 176.791Z" fill="#F5927E"/>
<path d="M229.024 178.381C227.535 178.381 226.16 176.068 224.822 171.318C223.846 167.856 223.257 164.319 223.251 164.283C223.221 164.104 223.343 163.935 223.522 163.905C223.7 163.875 223.87 163.997 223.9 164.176C224.771 169.447 226.924 177.723 229.023 177.723C229.043 177.723 229.063 177.723 229.082 177.721C229.263 177.707 229.421 177.844 229.435 178.025C229.448 178.206 229.312 178.364 229.131 178.377C229.095 178.38 229.059 178.381 229.024 178.381Z" fill="#F5927E"/>
<path d="M223.799 179.081C219.012 179.081 217.286 166.232 217.214 165.676C217.19 165.496 217.317 165.331 217.497 165.307C217.677 165.283 217.842 165.411 217.866 165.591C218.345 169.269 220.379 178.737 223.986 178.414C224.167 178.396 224.327 178.531 224.343 178.712C224.36 178.893 224.226 179.053 224.045 179.069C223.963 179.077 223.88 179.081 223.799 179.081Z" fill="#F5927E"/>
<path d="M216.254 176.895C214.936 176.895 213.594 175.638 212.26 173.151C211.424 171.592 210.846 170.024 210.652 169.468C205.325 169.041 203.405 166.5 202.965 165.781L191.818 165.746C191.636 165.746 191.49 165.598 191.49 165.416C191.491 165.235 191.638 165.089 191.819 165.089H191.82L203.363 165.125L203.453 165.31C203.467 165.34 205.062 168.43 210.915 168.828L211.135 168.843L211.205 169.053C211.894 171.144 214.176 176.506 216.43 176.227C216.61 176.204 216.774 176.332 216.797 176.512C216.819 176.692 216.692 176.857 216.511 176.879C216.426 176.89 216.34 176.895 216.254 176.895Z" fill="#F5927E"/>
<path d="M129.134 146.377L129.097 145.47C129.704 145.445 130.324 145.438 130.941 145.449L130.924 146.358C130.326 146.347 129.723 146.353 129.134 146.377Z" fill="white"/>
<path d="M104.637 192.716C103.979 191.642 103.393 190.491 102.894 189.295L103.732 188.945C104.213 190.098 104.778 191.208 105.411 192.242L104.637 192.716ZM102.219 187.498C101.821 186.308 101.495 185.06 101.252 183.79L102.144 183.619C102.38 184.85 102.695 186.058 103.081 187.209L102.219 187.498ZM100.951 181.898C100.792 180.651 100.706 179.367 100.695 178.08L101.603 178.073C101.614 179.323 101.698 180.572 101.852 181.783L100.951 181.898ZM101.64 176.211L100.733 176.168C100.793 174.906 100.924 173.626 101.124 172.363L102.021 172.505C101.827 173.735 101.699 174.982 101.64 176.211ZM102.361 170.672L101.473 170.483C101.738 169.24 102.072 167.998 102.467 166.792L103.331 167.074C102.946 168.25 102.62 169.461 102.361 170.672ZM103.958 165.32L103.111 164.991C103.572 163.8 104.102 162.628 104.684 161.508L105.491 161.927C104.923 163.018 104.408 164.16 103.958 165.32ZM106.395 160.3L105.614 159.837C106.269 158.733 106.989 157.667 107.755 156.667L108.476 157.219C107.732 158.191 107.032 159.227 106.395 160.3ZM109.65 155.779L108.964 155.183C109.807 154.213 110.712 153.295 111.653 152.457L112.257 153.136C111.345 153.948 110.468 154.837 109.65 155.779ZM113.685 151.948L113.128 151.231C114.141 150.444 115.212 149.725 116.311 149.094L116.764 149.882C115.701 150.492 114.665 151.187 113.685 151.948ZM118.402 149.016L118.007 148.198C119.153 147.644 120.35 147.166 121.567 146.778L121.843 147.643C120.667 148.018 119.51 148.48 118.402 149.016ZM123.627 147.142L123.412 146.26C124.638 145.961 125.907 145.742 127.186 145.608L127.281 146.512C126.042 146.641 124.813 146.854 123.627 147.142Z" fill="white"/>
<path d="M106.863 195.77C106.463 195.306 106.075 194.818 105.71 194.319L106.443 193.783C106.794 194.262 107.166 194.731 107.551 195.176L106.863 195.77Z" fill="white"/>
<path d="M108.106 190.39C110.901 190.946 112.716 193.662 112.161 196.457C111.606 199.252 108.889 201.068 106.094 200.512C103.299 199.957 101.484 197.241 102.039 194.446C102.594 191.65 105.31 189.835 108.106 190.39Z" fill="#FFBC73"/>
<path d="M270.181 296.508C269.849 296 269.525 295.471 269.219 294.936L270.008 294.484C270.305 295.004 270.619 295.518 270.942 296.012L270.181 296.508Z" fill="white"/>
<path d="M294.481 309.313C293.224 309.313 291.965 309.241 290.74 309.1L290.844 308.197C292.035 308.335 293.259 308.405 294.481 308.405L294.557 308.405L294.559 309.313L294.481 309.313ZM296.471 309.255L296.417 308.348C297.645 308.275 298.889 308.133 300.116 307.925L300.268 308.82C299.009 309.034 297.731 309.18 296.471 309.255ZM288.846 308.821C287.58 308.596 286.329 308.289 285.126 307.91L285.399 307.043C286.565 307.411 287.778 307.708 289.005 307.927L288.846 308.821ZM302.143 308.45L301.944 307.564C303.15 307.292 304.357 306.951 305.529 306.552L305.822 307.412C304.619 307.822 303.382 308.171 302.143 308.45ZM283.318 307.273C282.123 306.806 280.957 306.255 279.851 305.635L280.296 304.843C281.365 305.442 282.493 305.975 283.649 306.427L283.318 307.273ZM307.614 306.748L307.276 305.905C308.432 305.442 309.568 304.913 310.653 304.334L311.081 305.135C309.966 305.73 308.8 306.273 307.614 306.748ZM278.212 304.637C277.147 303.937 276.122 303.153 275.165 302.306L275.767 301.626C276.692 302.444 277.682 303.202 278.711 303.879L278.212 304.637ZM312.743 304.187L312.271 303.411C313.339 302.761 314.369 302.049 315.33 301.295L315.891 302.01C314.901 302.786 313.842 303.518 312.743 304.187ZM273.774 300.987C272.89 300.087 272.05 299.109 271.279 298.078L272.007 297.534C272.753 298.532 273.566 299.479 274.421 300.35L273.774 300.987ZM317.361 300.781L316.757 300.103C317.694 299.269 318.569 298.379 319.361 297.457L320.05 298.049C319.232 299.001 318.328 299.921 317.361 300.781ZM321.247 296.549L320.517 296.008C321.261 295.004 321.923 293.95 322.487 292.876L323.291 293.298C322.706 294.414 322.019 295.507 321.247 296.549Z" fill="white"/>
<path d="M324.114 291.562L323.278 291.207C323.51 290.661 323.722 290.101 323.907 289.543L324.769 289.829C324.576 290.41 324.356 290.994 324.114 291.562Z" fill="white"/>
<path d="M319.513 291.518C318.558 288.833 319.96 285.882 322.645 284.927C325.33 283.972 328.281 285.374 329.236 288.059C330.191 290.744 328.789 293.695 326.104 294.65C323.419 295.605 320.468 294.203 319.513 291.518Z" fill="#E66672"/>
<path d="M334.45 186.195L333.587 185.913C333.773 185.344 333.943 184.766 334.093 184.196L334.972 184.427C334.817 185.014 334.642 185.609 334.45 186.195Z" fill="white"/>
<path d="M335.4 182.559L334.508 182.385C334.748 181.161 334.905 179.923 334.977 178.704L335.884 178.757C335.81 180.017 335.647 181.296 335.4 182.559ZM335.021 176.85C335.007 175.616 334.905 174.374 334.717 173.159L335.615 173.02C335.809 174.278 335.915 175.563 335.929 176.84L335.021 176.85ZM334.37 171.338C334.098 170.143 333.736 168.949 333.296 167.789L334.146 167.467C334.601 168.666 334.974 169.901 335.255 171.137L334.37 171.338ZM332.579 166.076C332.07 164.966 331.477 163.867 330.817 162.809L331.587 162.328C332.268 163.418 332.88 164.552 333.405 165.698L332.579 166.076ZM329.784 161.264C329.073 160.269 328.287 159.295 327.448 158.371L328.121 157.761C328.984 158.711 329.792 159.712 330.523 160.737L329.784 161.264ZM326.158 157.03C325.282 156.168 324.341 155.34 323.364 154.57L323.926 153.856C324.93 154.647 325.895 155.497 326.795 156.382L326.158 157.03ZM321.87 153.456C320.859 152.743 319.797 152.076 318.714 151.474L319.156 150.68C320.266 151.298 321.356 151.982 322.393 152.713L321.87 153.456ZM317.061 150.612C315.942 150.065 314.787 149.577 313.629 149.16L313.936 148.306C315.126 148.733 316.311 149.234 317.459 149.795L317.061 150.612ZM311.857 148.579C310.658 148.223 309.44 147.937 308.237 147.73L308.391 146.834C309.629 147.048 310.883 147.342 312.116 147.708L311.857 148.579ZM297.195 148.068L296.968 147.189C298.188 146.875 299.461 146.651 300.751 146.525L300.839 147.429C299.596 147.551 298.369 147.766 297.195 148.068ZM306.397 147.471C305.386 147.361 304.372 147.306 303.382 147.306H303.38C303.15 147.306 302.92 147.309 302.69 147.315L302.666 146.406C302.904 146.4 303.142 146.397 303.38 146.397H303.382C304.405 146.397 305.452 146.455 306.495 146.568L306.397 147.471Z" fill="white"/>
<path d="M293.769 149.252L293.403 148.42C293.964 148.173 294.544 147.945 295.128 147.743L295.425 148.602C294.865 148.796 294.308 149.014 293.769 149.252Z" fill="white"/>
<path d="M298.181 151.186C296.831 153.695 293.701 154.634 291.192 153.284C288.683 151.933 287.743 148.804 289.094 146.295C290.445 143.785 293.574 142.846 296.083 144.196C298.592 145.547 299.532 148.676 298.181 151.186Z" fill="#6F7DCF"/>
<path d="M472.158 289.068V322.044C472.158 324.514 471.079 326.732 469.366 328.251C468.832 328.726 468.236 329.132 467.593 329.456C466.471 330.024 465.203 330.343 463.86 330.343H405.58C403.977 330.343 402.479 329.888 401.21 329.1C400.61 328.727 400.06 328.28 399.577 327.771C398.153 326.283 397.281 324.265 397.281 322.044V289.068C397.281 287.712 397.605 286.434 398.181 285.303C398.5 284.682 398.892 284.104 399.352 283.586C400.871 281.86 403.098 280.77 405.58 280.77H463.86C466.402 280.77 468.677 281.913 470.199 283.713C470.647 284.242 471.028 284.828 471.332 285.458C471.862 286.549 472.158 287.774 472.158 289.068Z" fill="#F58220"/>
<path d="M470.2 283.713L436.169 308.523C435.303 309.154 434.143 309.151 433.281 308.517L399.353 283.586C400.871 281.86 403.098 280.77 405.58 280.77H463.86C466.402 280.77 468.677 281.913 470.2 283.713Z" fill="#FFBC73"/>
<path d="M467.593 329.456C466.471 330.024 465.203 330.342 463.86 330.342H405.58C403.977 330.342 402.479 329.888 401.21 329.1L426.801 306.334L432.051 310.191C432.85 310.78 433.79 311.073 434.728 311.073C435.662 311.073 436.594 310.783 437.392 310.202L442.044 306.809L467.593 329.456Z" fill="#FFBC73"/>
<path d="M425.089 305.076L399.577 327.771C398.153 326.283 397.281 324.265 397.281 322.044V289.068C397.281 287.712 397.605 286.434 398.181 285.303L425.089 305.076Z" fill="#FFBC73"/>
<path d="M472.158 289.068V322.044C472.158 324.513 471.078 326.732 469.366 328.25L443.763 305.557L471.332 285.458C471.862 286.548 472.158 287.774 472.158 289.068Z" fill="#FFBC73"/>
<path d="M297.755 21.1886C295.824 20.6029 292.056 22.4241 293.765 25.9092C295.474 29.3942 294.428 33.5421 295.767 34.8766C297.106 36.211 299.162 35.7962 300.668 33.6095C302.173 31.4228 303.133 22.8204 297.755 21.1886Z" fill="#FFCE9F"/>
<path d="M272.684 47.7865C272.863 47.6013 275.1 42.9021 274.551 38.9479C274.002 34.9935 269.743 29.1828 276.106 19.6026C282.469 10.0225 293.503 12.5743 297.325 14.574C301.147 16.5738 308.674 22.1395 306.367 32.6602C304.06 43.1806 298.204 45.0758 295.428 46.3661C292.652 47.6564 288.327 49.7404 286.313 54.7262C279.338 51.405 272.684 47.7865 272.684 47.7865Z" fill="#F58220"/>
<path d="M303.633 37.0406C307.324 29.29 304.087 20.0272 296.407 16.2496C288.618 12.4189 279.115 15.7053 275.363 23.5319C273.47 27.479 273.378 31.822 274.757 35.6345C276.163 39.5234 275.909 43.8201 274.131 47.5539L272.967 49.9987L284.616 55.5455L285.78 53.1008C287.579 49.3237 290.831 46.4651 294.769 45.0552C298.53 43.7087 301.78 40.9325 303.633 37.0406Z" fill="#FFBC73"/>
<path d="M296.556 35.9107C298.627 31.5618 296.811 26.3643 292.501 24.2446C288.131 22.0952 282.798 23.9392 280.693 28.3309C279.631 30.5456 279.579 32.9825 280.353 35.1219C281.142 37.304 280.999 39.715 280.002 41.8099L275.359 51.5609L281.896 54.6733L286.538 44.9225C287.548 42.8031 289.372 41.1991 291.582 40.4079C293.693 39.6524 295.516 38.0946 296.556 35.9107Z" fill="#F58220"/>
<path d="M294.532 33.9786C294.468 31.7559 291.645 31.345 289.998 30.9109C288.878 30.6156 287.757 30.3204 286.637 30.0251C285.648 29.7645 284.649 29.4567 283.615 29.4827C281.837 29.5277 280.249 30.9047 280.707 32.7778C281.153 34.6004 283.185 35.5754 283.441 37.4452C283.579 38.4537 283.248 39.4499 282.849 40.3623C282.379 41.4356 281.811 42.47 281.283 43.5157C280.066 45.9286 278.841 48.3376 277.616 50.7467C277.393 51.1855 278.081 51.5113 278.306 51.0744C279.321 49.1017 280.333 47.1277 281.353 45.1582C282.249 43.4309 283.323 41.704 283.96 39.8584C284.501 38.2896 284.507 36.7463 283.505 35.3609C282.722 34.2785 280.545 32.3427 282.124 31.0035C282.876 30.3658 283.918 30.414 284.825 30.5932C285.846 30.7949 286.851 31.1038 287.856 31.3687C288.91 31.6467 289.965 31.9256 291.019 32.2024C291.926 32.4403 293.156 32.6924 293.506 33.7016C293.813 34.5866 292.991 34.9896 292.281 35.1775C291.525 35.3777 290.744 35.449 290.023 35.773C288.54 36.4396 287.495 37.7224 286.65 39.069C285.45 40.9792 284.477 43.048 283.423 45.0405C282.263 47.2322 281.119 49.4318 279.97 51.629C279.694 52.1559 280.526 52.5419 280.804 52.0201C281.923 49.9225 283.048 47.8277 284.157 45.7248C285.185 43.7755 286.152 41.7769 287.274 39.8798C288.154 38.3924 289.314 36.8858 291.056 36.41C292.416 36.0387 294.586 35.8944 294.532 33.9786Z" fill="white"/>
<path d="M287.495 54.2719L283.924 61.7714C283.743 62.1522 283.537 62.514 283.307 62.8548C282.834 63.564 282.266 64.1817 281.627 64.7036C279.16 66.7162 275.659 67.2524 272.593 65.7927C270.473 64.7834 268.963 63.0098 268.234 60.9605C267.909 60.045 267.74 59.0759 267.743 58.0928C267.746 57.2681 267.867 56.4374 268.118 55.6226C268.237 55.2294 268.388 54.8415 268.57 54.4607L272.141 46.9612L287.495 54.2719Z" fill="#068980"/>
<path d="M271.29 48.7474L270.262 50.907L285.616 58.2176L286.644 56.058L271.29 48.7474Z" fill="#00AAAD"/>
<path d="M269.663 52.1646L268.635 54.3252L283.989 61.6357L285.017 59.4751L269.663 52.1646Z" fill="#00AAAD"/>
<path d="M283.308 62.8543C282.834 63.5639 282.265 64.1824 281.627 64.7029L267.743 58.0925C267.745 57.2686 267.866 56.4374 268.118 55.6218L283.308 62.8543Z" fill="#00AAAD"/>
<path d="M283.308 0.81395C283.308 0.81395 284.627 9.91553 286.052 9.82073C287.477 9.72592 285.58 0.150301 284.68 0.0554871C283.78 -0.0393264 283.16 -0.125164 283.308 0.81395Z" fill="#F58220"/>
<path d="M303.549 2.77459C303.549 2.77459 298.339 10.353 299.45 11.251C300.561 12.149 305.668 3.82981 305.072 3.14918C304.475 2.46856 304.078 1.9849 303.549 2.77459Z" fill="#F58220"/>
<path d="M317.766 15.157C317.766 15.157 309.184 18.4611 309.592 19.8299C310.001 21.1988 318.917 17.2255 318.81 16.3269C318.703 15.4282 318.649 14.805 317.766 15.157Z" fill="#F58220"/>
<path d="M298.354 26.4553C297.271 26.2901 296.878 29.283 298.449 30.4404C300.019 31.5979 300.45 26.7751 298.354 26.4553Z" fill="white"/>
</g>
<defs>
<clipPath id="clip0_15_65765">
<rect width="520" height="365.722" fill="white"/>
</clipPath>
</defs>
</svg>
