<svg width="60" height="60" viewBox="0 0 60 60" fill="none" xmlns="http://www.w3.org/2000/svg">
<mask id="mask0_0_28" style="mask-type:luminance" maskUnits="userSpaceOnUse" x="0" y="0" width="60" height="60">
<path fill-rule="evenodd" clip-rule="evenodd" d="M0 0H60V60H0V0Z" fill="white"/>
</mask>
<g mask="url(#mask0_0_28)">
<path d="M29.9998 0C13.4313 0 0 13.4316 0 30.0002C0 46.5684 13.4313 60 29.9998 60C46.5684 60 60 46.5684 60 30.0002C60 13.4316 46.5684 0 29.9998 0Z" fill="black"/>
</g>
<path fill-rule="evenodd" clip-rule="evenodd" d="M47.6147 21.7778C43.068 21.7778 39.382 25.4638 39.382 30.0105C39.382 34.5572 43.068 38.2432 47.6147 38.2432C51.7338 38.2384 55.2158 35.1895 55.764 31.1078H51.0655C50.6003 32.5714 49.2316 33.6315 47.6147 33.6315C45.6149 33.6315 43.9944 32.0102 43.9944 30.0112C43.9944 28.0115 45.6157 26.3909 47.6147 26.3902C49.2316 26.3902 50.601 27.4503 51.0655 28.9139H55.7647C55.2158 24.8308 51.7338 21.7826 47.6147 21.7778ZM12.3468 33.6308C10.347 33.6308 8.72645 32.0095 8.72645 30.0098C8.72645 28.01 10.3477 26.3895 12.3468 26.3895C14.3465 26.3895 15.967 28.0107 15.967 30.0098C15.967 32.0102 14.3458 33.6308 12.3468 33.6308ZM20.5794 38.1039V30.0105C20.5794 25.4638 16.8935 21.7778 12.3468 21.7778C7.80005 21.7778 4.11407 25.4638 4.11407 30.0105C4.11407 34.5572 7.80005 38.2432 12.3468 38.2432C13.6883 38.241 15.079 37.6713 16.0591 36.7235V38.1039H20.5794ZM29.9626 26.3902C31.9624 26.3902 33.5829 28.0115 33.5829 30.0112C33.5829 32.0112 31.9616 33.6315 29.9626 33.6315C27.9629 33.6315 26.3423 32.0102 26.3423 30.0112C26.3423 28.0107 27.9629 26.3902 29.9626 26.3902ZM21.7299 17.7261V30.0105C21.7299 34.5572 25.4159 38.2432 29.9626 38.2432C34.5098 38.2432 38.1953 34.5572 38.1953 30.0105C38.1953 25.4638 34.5098 21.7778 29.9626 21.7778C28.7074 21.7797 27.4078 22.1793 26.3423 22.9012V17.7261H21.7299Z" fill="#F0F0F0"/>
</svg>
