<svg width="105" height="33" viewBox="0 0 105 33" fill="none" xmlns="http://www.w3.org/2000/svg">
<path fill-rule="evenodd" clip-rule="evenodd" d="M30.2507 23.378C30.103 22.9634 29.9304 22.5622 29.7662 22.1905C29.5133 21.6188 29.2486 21.0459 28.9925 20.4922L28.9722 20.4482C26.688 15.5018 24.2364 10.4878 21.6855 5.54545L21.5772 5.33561L21.571 5.32365L21.571 5.32355C21.3127 4.82261 21.0458 4.30499 20.7719 3.79633C20.4445 3.14743 20.0473 2.53606 19.5872 1.97305C19.0693 1.35523 18.4219 0.858346 17.6908 0.517438C16.9596 0.17653 16.1623 -0.000101246 15.3552 4.35392e-08C14.5482 0.000101421 13.751 0.176932 13.0198 0.518025C12.2887 0.859117 11.6414 1.35617 11.1237 1.97411C10.6642 2.53725 10.2672 3.14849 9.93971 3.79707C9.66125 4.31442 9.38973 4.8411 9.12718 5.35044L9.02662 5.5454C6.47563 10.4881 4.024 15.5021 1.73986 20.4481L1.70658 20.5201C1.45491 21.0649 1.1947 21.6281 0.946105 22.1903C0.781828 22.5617 0.609421 22.9626 0.461542 23.3783C0.0379918 24.5107 -0.0969747 25.7305 0.0687748 26.9279C0.244549 28.1379 0.733979 29.2813 1.48859 30.2445C2.2432 31.2078 3.23682 31.9575 4.37103 32.4195C5.22771 32.7661 6.14371 32.9432 7.06811 32.9412C7.35848 32.9411 7.64861 32.9242 7.93704 32.8906C9.10618 32.7417 10.2338 32.3612 11.2536 31.7717C12.5915 31.0201 13.9127 29.9186 15.356 28.3446C16.7994 29.9186 18.1206 31.0201 19.4585 31.7717C20.4783 32.3613 21.6059 32.7417 22.775 32.8906C23.0635 32.9242 23.3536 32.9411 23.644 32.9412C24.5684 32.9432 25.4842 32.7661 26.3409 32.4195C27.4751 31.9575 28.4688 31.2078 29.2235 30.2445C29.9781 29.2813 30.4676 28.138 30.6434 26.9279C30.809 25.7304 30.674 24.5106 30.2507 23.378ZM15.356 25.094C13.5693 22.8292 12.4227 20.726 12.0204 18.9628C11.8556 18.3021 11.8167 17.6164 11.9058 16.9413C11.9761 16.4465 12.1579 15.974 12.4375 15.5594C12.7815 15.1132 13.2236 14.7519 13.7297 14.5033C14.2357 14.2548 14.7922 14.1255 15.3563 14.1255C15.9204 14.1256 16.4768 14.2549 16.9828 14.5036C17.4889 14.7522 17.9309 15.1135 18.2749 15.5597C18.5545 15.9745 18.7363 16.447 18.8066 16.942C18.8955 17.6174 18.8565 18.3032 18.6913 18.9641C18.2886 20.7271 17.1424 22.8297 15.356 25.094ZM27.5637 28.9487C28.0913 28.2753 28.4336 27.4758 28.5565 26.6298C28.6746 25.7696 28.574 24.8936 28.2641 24.0825C28.1466 23.7524 28.0084 23.427 27.8374 23.0403C27.5932 22.4879 27.3341 21.9273 27.0832 21.3845L27.0783 21.3738L27.0578 21.3295C24.7862 16.4104 22.3482 11.4243 19.8112 6.50913L19.7027 6.29854L19.6963 6.28613C19.4422 5.79345 19.1796 5.28439 18.9148 4.7923C18.6573 4.27629 18.3451 3.78923 17.9839 3.3394C17.664 2.95304 17.2625 2.642 16.8081 2.4285C16.3539 2.215 15.8578 2.1043 15.3556 2.10434C14.8535 2.10439 14.3575 2.21515 13.9031 2.42873C13.4489 2.6423 13.0474 2.95341 12.7275 3.33982C12.3665 3.79 12.0545 4.27722 11.7968 4.79325C11.5273 5.29393 11.2601 5.81207 11.0018 6.31321L10.9009 6.50891C8.36378 11.4246 5.92574 16.4108 3.65437 21.3291L3.62105 21.4013C3.37294 21.9383 3.11644 22.4937 2.87474 23.0401C2.70388 23.4263 2.56597 23.7514 2.44813 24.0827C2.1381 24.8938 2.03754 25.7697 2.1557 26.6298C2.27855 27.4758 2.62073 28.2753 3.14833 28.9488C3.67595 29.6223 4.37069 30.1465 5.16374 30.4696C5.9657 30.7908 6.83596 30.9047 7.69377 30.8005C8.58537 30.6857 9.44452 30.3923 10.2197 29.9379C11.4105 29.2688 12.616 28.2417 13.9724 26.7353C11.8123 24.0718 10.4638 21.6169 9.96482 19.43C9.7406 18.5111 9.69216 17.5583 9.82203 16.6214C9.93991 15.8142 10.2396 15.0442 10.6987 14.3695C11.2365 13.6413 11.9382 13.0493 12.7472 12.6415C13.5562 12.2336 14.45 12.0212 15.3562 12.0212C16.2626 12.0212 17.1563 12.2337 17.9653 12.6417C18.7742 13.0496 19.4759 13.6417 20.0137 14.3699C20.4728 15.0449 20.7726 15.8151 20.8904 16.6224C21.0202 17.5596 20.9715 18.5129 20.7468 19.4322C20.2475 21.6182 18.8991 24.0724 16.7397 26.7351C18.0961 28.2417 19.3016 29.2687 20.4924 29.9378C21.2675 30.3923 22.1268 30.6856 23.0184 30.8005C23.8761 30.9047 24.7463 30.7908 25.5483 30.4696C26.3413 30.1465 27.0361 29.6222 27.5637 28.9487Z" fill="#FF385C"/>
<path fill-rule="evenodd" clip-rule="evenodd" d="M55.2168 8.70446C55.2168 9.06717 55.151 9.39692 54.9864 9.66071C54.8219 9.92451 54.5917 10.1553 54.2955 10.3202C53.9993 10.485 53.6703 10.551 53.3413 10.551C53.0122 10.551 52.6832 10.485 52.3871 10.3202C52.0909 10.1553 51.8606 9.92451 51.6961 9.66071C51.5315 9.36394 51.4657 9.06717 51.4657 8.70446C51.4657 8.34175 51.5315 8.012 51.6961 7.74821C51.8606 7.45144 52.0909 7.2536 52.3871 7.08872C52.6832 6.92385 53.0122 6.85791 53.3413 6.85791C53.6703 6.85791 53.9993 6.92385 54.2955 7.08872C54.5917 7.2536 54.8219 7.48442 54.9864 7.74821C55.1181 8.012 55.2168 8.30877 55.2168 8.70446ZM40.6404 24.3342C41.3314 24.6639 42.0881 24.8289 42.9107 24.8289C43.7663 24.8289 44.5559 24.631 45.214 24.2682C45.9379 23.8725 46.4973 23.345 46.925 22.6855L47.0237 24.499H50.0509V12.0679H47.0237L46.925 13.6835C46.4973 13.057 45.9708 12.5625 45.3127 12.2327C44.6546 11.87 43.9308 11.7051 43.1082 11.7051C42.2527 11.7051 41.4959 11.87 40.772 12.1997C40.0481 12.5294 39.423 13.0241 38.8965 13.6176C38.37 14.2441 37.9423 14.9366 37.6461 15.7279C37.35 16.5193 37.1854 17.4097 37.1854 18.333C37.1854 19.2562 37.3171 20.1135 37.6133 20.9049C37.9094 21.6633 38.3042 22.3558 38.8306 22.9493C39.3572 23.5428 39.9494 24.0045 40.6404 24.3342ZM45.3127 21.3995C44.8191 21.6963 44.2927 21.8612 43.7005 21.8612C43.1082 21.8612 42.5817 21.6963 42.0881 21.3995C41.6276 21.0698 41.2327 20.6411 40.9695 20.1135C40.7062 19.586 40.5746 18.9595 40.5746 18.267C40.5746 17.5745 40.7062 16.948 40.9695 16.4204C41.2656 15.8928 41.6276 15.4642 42.0881 15.1345C42.5817 14.8377 43.1082 14.6728 43.7005 14.6728C44.2927 14.6728 44.8521 14.8047 45.3127 15.1345C45.7734 15.4642 46.1683 15.8928 46.4315 16.4204C46.6947 16.948 46.8263 17.5745 46.8263 18.267C46.8263 18.9595 46.6947 19.586 46.4315 20.1135C46.1353 20.6411 45.7734 21.0698 45.3127 21.3995ZM51.6961 12.0348V24.4661H54.9864V12.0348H51.6961ZM63.7719 15.2993V15.3322C63.6301 15.2754 63.4639 15.2431 63.3153 15.2141L63.2453 15.2004C63.048 15.1674 62.8834 15.1674 62.686 15.1674H62.686C61.7647 15.1674 61.0737 15.4311 60.613 15.9918C60.1195 16.5523 59.8891 17.3437 59.8891 18.3659V24.4661H56.5988V12.0348H59.6259L59.7246 13.9144C60.0537 13.2549 60.4485 12.7602 61.0079 12.3976C61.5343 12.0348 62.1595 11.87 62.8834 11.87C63.1137 11.87 63.344 11.9029 63.5415 11.9359C63.5848 11.9504 63.6219 11.9585 63.6553 11.9659C63.698 11.9753 63.7349 11.9834 63.7719 12.0019V15.2993ZM65.088 6.92385V24.4661L68.1151 24.4331L68.2139 22.8174C68.6416 23.4439 69.168 23.9385 69.8261 24.2682C70.4842 24.631 71.2081 24.7958 72.0307 24.7958C72.8862 24.7958 73.643 24.631 74.3669 24.3013C75.0907 23.9715 75.7159 23.4769 76.2424 22.8834C76.7689 22.2569 77.1966 21.5644 77.4928 20.773C77.7888 19.9817 77.9533 19.0913 77.9533 18.168C77.9533 17.2448 77.8218 16.3875 77.5256 15.5961C77.2295 14.8377 76.8347 14.1452 76.3082 13.5516C75.7817 12.9581 75.1895 12.4965 74.4984 12.1668C73.8075 11.837 73.0507 11.6721 72.2282 11.6721C71.4056 11.6721 70.6817 11.87 70.0236 12.1997C69.3655 12.5624 68.839 13.0241 68.3784 13.6176V6.92385H65.088ZM71.4384 21.8612C72.0307 21.8612 72.5572 21.6963 73.0507 21.3995C73.5113 21.0698 73.8733 20.6411 74.1694 20.1135C74.4326 19.586 74.5643 18.9595 74.5643 18.267C74.5643 17.5745 74.4326 16.948 74.1694 16.4204C73.8733 15.8928 73.5113 15.4642 73.0507 15.1345C72.5901 14.8047 72.0307 14.6728 71.4384 14.6728C70.8462 14.6728 70.3197 14.8377 69.8261 15.1345C69.3655 15.4642 69.0035 15.8928 68.7074 16.4204C68.4441 16.948 68.3126 17.5745 68.3126 18.267C68.3126 18.9595 68.4441 19.586 68.7074 20.1135C68.9706 20.6411 69.3655 21.0698 69.8261 21.3995C70.3197 21.6963 70.8462 21.8612 71.4384 21.8612ZM79.2038 12.0348V24.4661H82.4612V17.3437C82.4612 16.8491 82.56 16.3544 82.7902 15.9588C83.0206 15.5301 83.3167 15.2333 83.6786 15.0025C84.0735 14.7717 84.5012 14.6728 84.9948 14.6728C85.6858 14.6728 86.2123 14.9366 86.6071 15.4312C87.002 15.9258 87.1994 16.6183 87.1994 17.4756V24.499H90.4897V17.0469C90.4897 15.9587 90.2924 15.0025 89.9304 14.2112C89.5685 13.4198 89.042 12.7933 88.351 12.3646C87.6929 11.9359 86.9032 11.7051 85.9819 11.7051C85.1593 11.7051 84.4354 11.87 83.8103 12.2327C83.1851 12.5954 82.6915 13.057 82.3296 13.6506L82.2309 12.0348H79.2038ZM92.1349 24.4661V6.92385H95.4253V13.6176C95.886 13.0241 96.4124 12.5624 97.0705 12.1997C97.7286 11.87 98.4525 11.6721 99.2751 11.6721C100.098 11.6721 100.854 11.837 101.545 12.1668C102.236 12.4965 102.829 12.9581 103.355 13.5516C103.882 14.1452 104.276 14.8377 104.573 15.5961C104.869 16.3875 105 17.2448 105 18.168C105 19.0913 104.836 19.9817 104.54 20.773C104.243 21.5644 103.816 22.2569 103.289 22.8834C102.763 23.4769 102.138 23.9715 101.414 24.3013C100.69 24.631 99.9331 24.7958 99.0777 24.7958C98.2551 24.7958 97.5312 24.631 96.8731 24.2682C96.215 23.9385 95.6886 23.4439 95.2608 22.8174L95.1621 24.4331L92.1349 24.4661ZM100.131 21.3995C99.6371 21.6963 99.1105 21.8612 98.5183 21.8612C97.8931 21.8612 97.3995 21.6963 96.906 21.3995C96.4454 21.0698 96.0505 20.6411 95.7873 20.1135C95.5241 19.586 95.3924 18.9595 95.3924 18.267C95.3924 17.5745 95.4911 16.948 95.7873 16.4204C96.0834 15.8928 96.4454 15.4642 96.906 15.1345C97.3995 14.8377 97.926 14.6728 98.5183 14.6728C99.1105 14.6728 99.6699 14.8047 100.131 15.1345C100.591 15.4642 100.986 15.8928 101.249 16.4204C101.513 16.948 101.644 17.5745 101.644 18.267C101.644 18.9595 101.513 19.586 101.249 20.1135C100.953 20.6411 100.591 21.0698 100.131 21.3995Z" fill="#FF385C"/>
</svg>
