<svg width="45" height="56" viewBox="0 0 45 56" fill="none" xmlns="http://www.w3.org/2000/svg">
<path fill-rule="evenodd" clip-rule="evenodd" d="M33.571 1.11515C33.571 3.95667 32.3527 6.79819 30.6331 8.84845C28.8056 11.1146 25.653 12.8051 23.1449 12.8055C22.8583 12.8055 22.5715 12.7692 22.3925 12.7334C22.3567 12.5895 22.2849 12.1577 22.2849 11.7262C22.2849 8.84845 23.754 6.00693 25.3304 4.20847C27.3368 1.87055 30.6688 0.107963 33.4635 0C33.5353 0.323889 33.571 0.719522 33.571 1.11515ZM43.4273 19.0144C43.4969 18.9685 43.5447 18.9371 43.567 18.9197C39.8409 13.5605 34.1798 13.4163 32.6031 13.416C30.1942 13.416 28.0379 14.2741 26.2252 14.9955C24.9106 15.5186 23.7767 15.9698 22.858 15.9698C21.8445 15.9698 20.6841 15.499 19.389 14.9736C17.7541 14.3102 15.9046 13.5598 13.8653 13.5598C6.98659 13.5598 0 19.2791 0 30.0698C0 36.7959 2.57956 43.8818 5.76827 48.45C8.52683 52.3346 10.9274 55.5 14.3669 55.5C15.998 55.5 17.1941 54.9903 18.4517 54.4544C19.8461 53.8603 21.3162 53.2338 23.539 53.2338C25.7834 53.2338 27.1252 53.8219 28.4194 54.3892C29.625 54.9176 30.7893 55.4279 32.6035 55.4279C36.3653 55.4279 38.8377 52.0111 41.2021 48.5938C43.8535 44.7093 44.9643 40.8964 45 40.7167C44.7849 40.645 37.5836 37.7314 37.5836 29.4945C37.5836 22.8648 42.4892 19.6325 43.4273 19.0144Z" fill="black"/>
</svg>
