<svg width="60" height="60" viewBox="0 0 60 60" fill="none" xmlns="http://www.w3.org/2000/svg">
<path fill-rule="evenodd" clip-rule="evenodd" d="M30 0.5C35.6667 0.5 40.6667 2 45.1667 4.66667C46.3333 5.33333 47 5.83333 46.8333 6.33333C46.8333 9.16667 38.8333 12.1667 28.6667 12.1667C18.3333 12.1667 12.5 9.5 12.5 7C12.5 6.16667 13.3333 5.5 14.6667 4.83333C19.1667 2 24.3333 0.5 30 0.5ZM49.5 7.83333C49.6667 8 49.6667 8.16667 49.6667 8.5C49.6667 11.8333 39.6667 17.5 23.6667 17.5C11.8333 17.5 9.66667 13.1667 9.66667 10.3333C9.66667 9.33333 10 8.33333 10.8333 7.33333L10.8333 7.33334L10.8333 7.33334C9.33333 8.83334 8 10.1667 6.66667 11.8333C6.16667 12.5 5.83333 13.1667 5.83333 13.5C5.83333 19.3333 20.3333 23.3333 33.6667 23.3333C48 23.3333 54.5 18.6667 54.5 14.5C54.5 13 54 12.1667 52.5 10.5C51.5 9.5 50.5 8.66667 49.5 7.83333ZM1 23.5C1.33333 22 2.33333 19 3.16667 17.3333C3.16667 17.729 3.06231 18.229 2.93617 18.8333C2.9029 18.9927 2.86812 19.1594 2.83333 19.3333C2.83333 25.1667 12.6667 29.8333 24.3333 29.8333C35.1667 29.8333 56.5 24.8333 56.3333 17.1667C57.1667 18.6667 57.8333 20.6667 58.3333 22.3333C58.6667 23.8333 58.6667 25 58.3333 26C56.6667 31.8333 46.5 35 33.5 35C12.1667 35 3 28.8333 1.16667 25C1.14767 24.943 1.12867 24.8882 1.11016 24.8348C0.966332 24.4197 0.852333 24.0907 1 23.5ZM24 41.8333C8.83333 41.8333 1.66667 34.8333 0.5 30C0.5 31.6667 0.666667 33.6667 1 35.1667C1.16667 35.8333 1.66667 36.8333 2.5 37.8333C6.16667 41.6667 15.3333 47 31.1667 47C52.6667 47 57.6667 39.8333 58.6667 37.5C59.3333 35.8333 59.8333 32.8333 59.8333 30.1667V28.5C58.3333 34.1667 40 41.8333 24 41.8333ZM52 48.8333C47.3333 52.8333 39.3333 54.8333 32 54.8333C18.1667 54.8333 7 50.6667 3.33333 42.6667C7.33333 48.5 17.5 51.5 26.8333 51.5C40.1667 51.5 53 47.3333 57.5 40.8333C57 42 56.3333 43.3333 55.6667 44.5C54.5 46.3333 53.3333 47.8333 52 48.8333ZM30 59.5C23.1667 59.5 16.8333 57.1667 11.8333 53.3333C15 55.1667 20.8333 57.1667 30 57.1667C40.5 57.1667 47.1667 53.6667 49.5 52.1667C44.3333 56.6667 37.5 59.5 30 59.5Z" fill="#009FDB"/>
</svg>
