<svg width="178" height="18" viewBox="0 0 178 18" fill="none" xmlns="http://www.w3.org/2000/svg">
<path fill-rule="evenodd" clip-rule="evenodd" d="M164.814 16.3232C164.394 16.3232 164.073 16.6438 164.073 17.0383C164.073 17.4575 164.394 17.778 164.814 17.778C165.233 17.778 165.554 17.4328 165.554 17.0383C165.554 16.6438 165.233 16.3232 164.814 16.3232ZM164.838 17.6301C164.493 17.6301 164.221 17.3589 164.221 17.0383C164.221 16.7424 164.468 16.4712 164.838 16.4712C165.159 16.4712 165.431 16.7178 165.431 17.0383C165.431 17.3835 165.159 17.6301 164.838 17.6301Z" fill="#E31837"/>
<path fill-rule="evenodd" clip-rule="evenodd" d="M164.789 17.0879L165.036 17.4577H165.184L164.937 17.0879C165.085 17.0879 165.209 17.0139 165.209 16.866C165.209 16.792 165.184 16.718 165.11 16.6934C165.061 16.644 164.987 16.644 164.913 16.644H164.542V17.4577H164.641V17.0879H164.789ZM164.836 16.99C164.82 16.9896 164.804 16.9892 164.789 16.9892H164.641V16.7427H164.863C164.962 16.7427 165.061 16.7673 165.061 16.866C165.061 16.9955 164.947 16.9927 164.836 16.99Z" fill="#E31837"/>
<path d="M161.283 17.778C166.468 13.3396 173.751 9.02457 177.75 7.47115C177.133 7.07663 176.17 6.5095 175.084 5.89307C169.924 7.59444 163.9 11.367 158.518 15.6328C159.432 16.3232 160.395 17.0383 161.283 17.778Z" fill="#E31837"/>
<path d="M158.913 5.72043C158.148 5.35057 157.309 5.00536 156.667 4.70947C154.717 5.67112 152.174 7.12591 148.964 9.41906C149.656 9.78893 150.396 10.2328 151.186 10.6766C153.655 8.85194 156.148 7.12591 158.913 5.72043Z" fill="#012169"/>
<path d="M163.53 3.59979C162.592 3.08198 159.333 1.87377 157.087 1.35596C156.42 1.60253 155.482 1.9724 154.84 2.24363C155.655 2.46555 158.691 3.27924 161.283 4.58609C161.95 4.26555 162.888 3.87103 163.53 3.59979Z" fill="#E31837"/>
<path d="M152.495 3.2793C149.606 4.6108 146.57 6.43546 144.916 7.49574C145.508 7.76697 146.101 7.98889 146.915 8.38341C150.569 5.91765 153.433 4.41354 154.568 3.92039C153.754 3.6245 152.988 3.42724 152.495 3.2793Z" fill="#012169"/>
<path fill-rule="evenodd" clip-rule="evenodd" d="M167.081 2.42518C166.616 2.55605 166.138 2.69057 165.703 2.83562C162.897 1.61102 160.721 1.0154 159.661 0.725201C159.462 0.670652 159.302 0.626895 159.185 0.591781C159.693 0.434358 160.362 0.25212 160.832 0.124282C161.024 0.0719076 161.183 0.0286645 161.283 0C163.456 0.542466 165.875 1.40548 167.801 2.21918C167.57 2.2875 167.327 2.35583 167.081 2.42518ZM155.063 13.1286C154.545 12.7647 154.029 12.4016 153.532 12.1068C160.617 6.5589 166.616 4.16712 170.122 3.27945C170.988 3.7004 171.677 4.0548 172.44 4.44785C172.482 4.46922 172.524 4.49071 172.566 4.51233C166.715 6.33699 161.382 9.56712 155.976 13.7589C155.674 13.5577 155.368 13.343 155.063 13.1286Z" fill="#E31837"/>
<path fill-rule="evenodd" clip-rule="evenodd" d="M129.856 14.097L129.881 14.0796H129.856V14.097ZM129.856 14.097C129.027 14.6753 128.293 14.8687 127.536 14.8687C125.857 14.8687 124.672 13.7098 124.672 11.9838C124.672 10.2577 125.832 9.09883 127.462 9.09883C128.202 9.09883 128.943 9.29609 129.757 9.88787V7.84129C129.017 7.42211 128.153 7.24951 127.19 7.24951C124.203 7.24951 122.327 9.32074 122.302 11.9591C122.327 14.6221 124.153 16.6687 127.19 16.6687C128.202 16.6687 129.066 16.4961 129.856 16.0769V14.097ZM47.005 11.9838C47.0297 9.3454 48.8812 7.27417 51.8191 7.27417C54.7569 7.27417 56.6084 9.3454 56.6331 11.9838C56.6084 14.6221 54.7569 16.6933 51.8191 16.6933C48.8812 16.6933 47.0297 14.6221 47.005 11.9838ZM12.64 7.47143H14.8619L18.2688 16.4961H15.9975L15.3803 14.6221H12.1216L11.5044 16.4961H9.25781L12.64 7.47143ZM3.95 16.4961H0.0246878V7.49609H3.70313C5.70281 7.49609 6.64094 8.5317 6.64094 9.8139C6.64094 10.8249 6.1225 11.5153 4.98688 11.7865C6.27063 12.0331 6.88781 12.8221 6.88781 14.0057C6.88781 15.4605 5.94969 16.4961 3.95 16.4961ZM4.69063 13.7838C4.69063 13.044 4.17219 12.6742 3.43156 12.6742V12.6495H2.14781V14.8933H3.43156C4.19688 14.8933 4.69063 14.5728 4.69063 13.7838ZM3.18469 9.07417C3.92531 9.07417 4.44375 9.39472 4.44375 10.1344C4.44375 10.8742 3.95 11.1947 3.18469 11.1947H2.14781V9.07417H3.18469ZM13.7509 9.64129L14.8125 12.9701H12.64L13.7509 9.64129ZM27.4772 7.47143H29.5263V16.4961H27.2303L23.3791 10.4796V16.4961H21.33V7.47143H23.6259L27.4772 13.5125V7.47143ZM38.9816 16.4961L36.0191 11.9098V16.4961H33.8219V7.47143H36.0191V11.8112L38.8334 7.47143H41.2775L38.315 11.8112L41.5491 16.4961H38.9816ZM51.8191 14.8933C50.4119 14.8933 49.3256 13.7838 49.3256 11.9838C49.3256 10.1838 50.4119 9.07417 51.8191 9.07417C53.2262 9.07417 54.3125 10.1838 54.3125 11.9838C54.3125 13.7838 53.2262 14.8933 51.8191 14.8933ZM61.8422 16.4961H59.645V7.47143H65.6934L65.2984 9.19746H61.8422V11.2194H64.7059V12.9454H61.8422V16.4961ZM75.9388 7.47143H73.7169L70.3347 16.4961H72.5813L73.1984 14.6221H76.4572L77.0744 16.4961H79.3456L75.9388 7.47143ZM75.8894 12.9701L74.8278 9.64129L73.7169 12.9701H75.8894ZM92.3806 7.47143H89.8131L87.4678 12.3536L85.1225 7.47143H82.555V16.4961H84.53V10.455L87.4431 16.4961L90.3562 10.455V16.4961H92.4053L92.3806 7.47143ZM102.823 16.4961H96.6516V7.47143H102.873L102.478 9.19746H98.8487V11.0714H101.984V12.7481H98.8487V14.7701H102.823V16.4961ZM111.192 16.4961H113.587L111.341 12.6742C112.575 12.329 113.167 11.466 113.167 10.2084C113.167 8.58102 112.18 7.49609 109.958 7.49609H106.477V16.5207H108.625V12.9701H109.217L111.192 16.4961ZM110.921 10.307C110.921 9.54266 110.452 9.14814 109.538 9.14814H108.6V11.466H109.538C110.452 11.466 110.921 11.0714 110.921 10.307ZM116.871 16.4961H119.068V7.49609H116.871V16.4961ZM137.929 7.47143H135.707L132.325 16.4961H134.572L135.189 14.6221H138.447L139.065 16.4961H141.336L137.929 7.47143ZM137.88 12.9701L136.818 9.64129L135.707 12.9701H137.88Z" fill="#012169"/>
</svg>
