<svg width="120" height="25" viewBox="0 0 120 25" fill="none" xmlns="http://www.w3.org/2000/svg">
<path fill-rule="evenodd" clip-rule="evenodd" d="M34.4079 3.98096H31.1158V10.5604H21.9121V3.98096H18.5V21.0028H21.9121V13.5167H31.1158V21.0028H34.5352V3.98096H34.4079Z" fill="black"/>
<path fill-rule="evenodd" clip-rule="evenodd" d="M90.6124 3.98096H76.216V21.0028H91.2754L89.313 17.981H79.6293V13.5422H88.7578V10.604H79.6293V6.90944H89.0633L90.9166 3.98096H90.6124Z" fill="black"/>
<path fill-rule="evenodd" clip-rule="evenodd" d="M15.9455 3.9751H5.39151C3.47151 3.9751 0 4.53267 0 9.95449V15.1945C0 19.1036 1.88 21.003 5.29333 21.003L16.1988 21.0018L14.1818 17.8684L5.77091 17.8599C4.25455 17.8599 3.51879 17.0999 3.51879 15.0151V9.78601C3.51879 7.76661 4.27515 6.99449 5.77091 6.99449H14.2667L16.1794 3.9751H15.9455Z" fill="black"/>
<path fill-rule="evenodd" clip-rule="evenodd" d="M72.3993 3.97168L61.2562 3.97532C58.6017 3.97532 57.3435 5.71107 57.3435 9.05653V8.91592C57.3435 12.1426 58.7059 13.5862 61.249 13.5996H68.5581C69.2672 13.5996 69.6962 13.9596 69.6962 15.1014L69.695 16.3074C69.6756 17.4468 69.3787 17.9814 68.5581 17.9814H59.1847L57.2587 21.0032H68.3944C71.432 21.0032 73.0356 19.568 73.0356 16.0965V15.2553C73.0356 11.8905 71.6005 10.5171 68.3944 10.5171H61.9884C61.5411 10.5171 60.8296 10.4553 60.8102 9.07713L60.8078 8.20683C60.8078 6.88926 61.4805 6.90986 61.9884 6.90986L70.7762 6.90501L72.6332 3.97168H72.3993Z" fill="black"/>
<path fill-rule="evenodd" clip-rule="evenodd" d="M47.7163 3.9458H44.423L36.377 20.9688H40.1345C40.1345 20.9688 41.6436 17.5713 41.7079 17.4258H50.4315C50.497 17.5713 52.0073 20.9688 52.0073 20.9688H55.863L47.7963 3.9458H47.7163ZM46.0909 7.58216C46.2994 8.05732 48.9151 14.0028 49.057 14.3276C48.7042 14.3276 43.4242 14.3482 43.0715 14.3482C43.2133 14.0222 45.88 8.0561 46.0909 7.58216Z" fill="black"/>
<path fill-rule="evenodd" clip-rule="evenodd" d="M105.122 1.2124C104.685 1.2124 104.332 1.56513 104.332 1.99907V7.53604H118.956L112.295 1.2124H105.122Z" fill="#0079C1"/>
<path fill-rule="evenodd" clip-rule="evenodd" d="M119.49 9.20925C119.49 8.7741 119.137 8.41895 118.699 8.41895H113.166V23.0432L119.488 16.385L119.49 9.20925Z" fill="#0079C1"/>
<path fill-rule="evenodd" clip-rule="evenodd" d="M111.488 23.5756C111.923 23.5756 112.277 23.2204 112.277 22.7841V17.2495H97.6552L104.313 23.5719L111.488 23.5756Z" fill="#0079C1"/>
<path fill-rule="evenodd" clip-rule="evenodd" d="M97.1202 15.5764C97.1202 16.0115 97.4742 16.3667 97.9093 16.3667H103.444V1.74121L97.1215 8.40182L97.1202 15.5764Z" fill="#0079C1"/>
</svg>
