<svg width="159" height="25" viewBox="0 0 159 25" fill="none" xmlns="http://www.w3.org/2000/svg">
<path d="M109.333 12.5816C109.333 9.7689 110.911 8.24805 113.02 8.24805C114.972 8.24805 115.901 9.32572 116.277 10.8573L114.926 11.2423C114.608 10.1318 114.121 9.56347 113.009 9.56347C111.59 9.56347 110.763 10.664 110.763 12.5708C110.763 14.5681 111.613 15.6673 113.032 15.6673C114.121 15.6673 114.733 15.1228 115.052 13.8632L116.401 14.1704C115.993 15.8384 114.959 16.9611 113.02 16.9611C110.865 16.9611 109.333 15.475 109.333 12.5816Z" fill="#231F20"/>
<path fill-rule="evenodd" clip-rule="evenodd" d="M120.112 10.6641C118.639 10.6641 117.175 11.5719 117.175 13.7952C117.175 15.9974 118.65 16.9268 120.112 16.9268C121.577 16.9268 123.052 15.9974 123.052 13.7952C123.052 11.5719 121.577 10.6641 120.112 10.6641ZM120.112 11.8561C121.169 11.8561 121.645 12.673 121.645 13.7952C121.645 15.0318 121.123 15.7582 120.112 15.7582C119.047 15.7582 118.582 14.9408 118.582 13.7952C118.582 12.5816 119.104 11.8561 120.112 11.8561Z" fill="#231F20"/>
<path d="M124.034 16.8021V10.7785H125.429V11.6057C125.896 11.095 126.576 10.6641 127.495 10.6641C128.505 10.6641 128.901 11.0613 129.14 11.6511C129.616 11.1292 130.332 10.6641 131.25 10.6641C132.475 10.6641 133.009 11.4022 133.009 12.4798V16.8021H131.613V12.8305C131.613 12.1619 131.42 11.8561 130.762 11.8561C130.194 11.8561 129.742 12.1736 129.22 12.6388V16.8021H127.824V12.8305C127.824 12.1619 127.631 11.8561 126.973 11.8561C126.417 11.8561 125.952 12.1736 125.429 12.6388V16.8021H124.034Z" fill="#231F20"/>
<path fill-rule="evenodd" clip-rule="evenodd" d="M134.295 10.7785V19.0714H135.691V16.1334C136.133 16.6314 136.769 16.8931 137.415 16.8931C138.958 16.8931 139.99 15.8727 139.99 13.7845C139.99 11.6971 138.981 10.6636 137.608 10.6636C136.712 10.6636 136.088 11.095 135.691 11.572V10.7785H134.295ZM137.155 11.8561C138.051 11.8561 138.596 12.5248 138.596 13.7952C138.596 15.1345 138.164 15.7807 137.108 15.7807C136.609 15.7807 136.066 15.5195 135.691 15.0318V12.6148C136.02 12.2191 136.576 11.8561 137.155 11.8561Z" fill="#231F20"/>
<path fill-rule="evenodd" clip-rule="evenodd" d="M144.533 12.853C141.72 13.171 140.608 14.0456 140.608 15.3502C140.608 16.3477 141.335 16.8926 142.309 16.8926C143.206 16.8926 143.921 16.6549 144.533 16.0307C144.533 16.3706 144.591 16.5526 144.67 16.8017H146.077C145.952 16.4954 145.907 16.0527 145.907 15.3268V12.8418C145.907 11.4364 145.351 10.6636 143.739 10.6636C142.492 10.6636 141.482 11.1625 140.836 11.7524L141.516 12.6261C142.026 12.2191 142.708 11.8102 143.546 11.8102C144.217 11.8102 144.533 12.0704 144.533 12.673V12.853ZM144.533 13.7947V15.1223C144.092 15.543 143.535 15.814 142.821 15.814C142.31 15.814 141.981 15.565 141.981 15.089C141.981 14.4306 142.865 14.0217 144.533 13.7947Z" fill="#231F20"/>
<path d="M147.165 16.8021V10.7785H148.562V11.7417C149.015 11.2202 149.718 10.6641 150.717 10.6641C151.816 10.6641 152.498 11.231 152.498 12.4226V16.8021H151.103V12.8203C151.103 12.1619 150.83 11.8219 150.195 11.8219C149.582 11.8219 149.071 12.1276 148.562 12.6051V16.8021H147.165Z" fill="#231F20"/>
<path d="M152.836 18.9571L153.153 17.8345C153.323 17.8795 153.686 17.9597 154.174 17.9597C154.674 17.9597 154.934 17.7655 155.128 17.2778L155.297 16.8356L152.983 10.7783H154.435L155.99 15.1675H156.012L157.555 10.7783H158.939L156.375 17.4598C155.978 18.5144 155.456 19.1391 154.265 19.1391C153.551 19.1391 153.131 19.0369 152.836 18.9571Z" fill="#231F20"/>
<path d="M2.99491 16.7881V9.70894H0.408691V8.39209H7.0002V9.70894H4.413V16.7881H2.99491Z" fill="#231F20"/>
<path d="M7.8381 16.7882V8.39209H9.24548V11.58C9.63045 11.1726 10.3568 10.6506 11.4467 10.6506C12.5014 10.6506 13.1823 11.2752 13.1823 12.4649V16.7882H11.7749V12.8166C11.7749 12.1489 11.4917 11.8417 10.8788 11.8417C10.2668 11.8417 9.75563 12.1592 9.24548 12.6244V16.7882H7.8381Z" fill="#231F20"/>
<path fill-rule="evenodd" clip-rule="evenodd" d="M17.0026 10.6509C15.7543 10.6509 14.1317 11.4898 14.1317 13.7821C14.1317 15.9951 15.5273 16.9137 17.0359 16.9137C18.1141 16.9137 18.9422 16.517 19.5669 15.8233L18.8287 15.0974C18.3757 15.5406 17.9218 15.8014 17.1391 15.8014C16.2532 15.8014 15.5841 15.3244 15.5273 14.236H19.6456V13.9058C19.6456 11.4556 18.3527 10.6509 17.0026 10.6509ZM16.9909 11.7848C17.8308 11.7848 18.2838 12.2725 18.364 13.1921H15.5498C15.6863 12.1702 16.31 11.7848 16.9909 11.7848Z" fill="#231F20"/>
<path fill-rule="evenodd" clip-rule="evenodd" d="M29.8628 15.3405C29.7992 15.2343 29.7185 15.093 29.7185 15.093C29.7185 15.093 30.4674 14.5358 30.8543 14.2071C31.932 13.2894 32.6789 11.9349 32.9029 10.4923C33.0522 9.53845 33.0184 8.09103 32.4892 7.17381C32.1844 6.6465 31.5837 6.39409 31.0036 6.40778C30.3055 6.42637 29.512 6.7952 29.0155 7.21882C28.5005 7.65805 28.0881 8.18883 27.7819 8.72988C27.3974 9.40488 27.2076 10.056 27.1112 10.9062C26.9944 11.9432 27.122 13.4498 27.4395 14.3944C27.5549 14.7344 27.7315 15.1869 27.7315 15.1869C27.7315 15.1869 27.5026 15.2901 27.3416 15.3551C26.7355 15.5958 26.2665 15.6163 25.7602 15.2573C25.2793 14.9173 24.9589 14.1889 24.8293 13.6509C24.7339 13.2517 24.6713 12.6388 24.6556 12.2137C24.5813 10.1553 25.3498 7.50108 26.3173 5.82568C26.4181 5.64909 27.1851 4.50004 27.3559 4.26915C27.5114 4.05294 28.2652 3.12891 28.3982 2.98509C28.4229 2.95885 28.4508 2.92979 28.4806 2.89865L28.4806 2.89865C28.6367 2.73589 28.8471 2.51647 28.9383 2.34771C29.0068 2.21808 29.0097 2.13835 28.9173 2.04002C28.7397 1.85023 28.4325 1.95051 28.2016 2.0591C28.0739 2.1178 27.4498 2.48076 27.3348 2.56392C26.3115 3.29473 25.4539 4.31367 24.7926 5.34531C23.7448 6.98255 23.0419 8.8321 22.7909 10.7844C22.6442 11.9349 22.673 13.0551 23.0335 14.1366C23.2781 14.8659 23.8314 15.6702 24.4854 16.0932C25.387 16.6783 26.4847 16.7644 27.4659 16.3985C27.616 16.3428 27.8993 16.2111 27.9658 16.1652C28.0421 16.1118 28.1121 16.0644 28.1307 16.0688C28.1478 16.0717 28.2799 16.3011 28.386 16.49C28.5494 16.7844 28.9573 17.1978 29.199 17.3964C29.8291 17.9085 30.4747 18.1693 31.2613 18.2661C32.6917 18.4413 33.9948 17.8068 35.2011 16.8387C35.4422 16.6446 35.9583 16.1975 36.1672 15.9774C36.242 15.8971 36.8496 15.0807 36.9484 14.9271C37.3651 14.2726 37.7653 13.4963 38.0245 12.742C38.6184 11.0231 38.7617 9.07615 38.5377 7.36165C38.3601 6.01449 38.0284 4.95105 37.3818 3.73058C37.2761 3.53198 36.6984 2.58153 36.5546 2.37021C35.9847 1.53325 35.3557 0.950653 34.3935 0.366098C34.1973 0.247719 33.804 0.0334659 33.6245 0.13668C33.4543 0.23598 33.4812 0.360716 33.5927 0.508934C33.6596 0.598683 33.8312 0.769018 34.0105 0.946941C34.1185 1.05412 34.2293 1.16406 34.3216 1.26079C35.1458 2.12758 35.8111 3.57698 36.153 4.73484C36.7424 6.72965 36.7199 8.90403 36.2254 10.9653C35.8057 12.7234 35.0357 14.5578 33.5726 15.5752C33.0605 15.9314 32.1628 16.3364 31.4638 16.3011C30.7815 16.2674 30.2164 15.9299 29.8628 15.3405ZM75.0135 8.28813C74.9732 8.33048 74.9312 8.41242 74.8878 8.49725C74.8625 8.54671 74.8366 8.59716 74.8103 8.6413C74.7726 8.7049 74.7022 8.7871 74.6562 8.81935C74.4933 8.9392 74.3559 8.9446 74.1973 8.80615C73.9772 8.61243 73.8501 8.30965 73.8408 8.01618C73.839 7.96814 73.8407 7.91848 73.8425 7.8694C73.8454 7.787 73.8483 7.70625 73.8339 7.63758C73.8077 7.52011 73.7222 7.40062 73.6386 7.2837C73.5926 7.21946 73.5472 7.156 73.5125 7.09408C73.3971 6.88717 73.3036 6.52959 73.2924 6.2987C73.2518 5.57767 73.6324 4.91436 74.1265 4.38997C74.6234 3.86021 75.2737 3.41996 75.981 3.12108C76.6492 2.83834 77.6295 2.64659 78.3637 2.90145C78.6022 2.98363 78.936 3.18712 79.1032 3.39892C79.1121 3.41019 79.1205 3.42171 79.1288 3.433L79.1288 3.43303C79.1536 3.46682 79.177 3.49861 79.2045 3.51583C79.2284 3.53141 79.2833 3.53996 79.3382 3.5485C79.3557 3.55123 79.3732 3.55397 79.3897 3.55693C79.6245 3.59753 79.962 3.77461 80.1 3.89249C80.3752 4.1317 80.5275 4.36013 80.5972 4.6913C80.7382 5.35705 80.355 6.08836 79.9185 6.53252C79.1692 7.29904 78.4297 7.83663 77.472 8.2123C77.0527 8.3767 76.398 8.52978 75.9202 8.48673C75.8475 8.48071 75.7735 8.46829 75.6999 8.45595C75.624 8.44322 75.5486 8.43056 75.4755 8.42508C75.4027 8.41878 75.1335 8.35075 75.105 8.32923C75.069 8.30328 75.0232 8.27883 75.0135 8.28813ZM74.7873 5.97928C74.6131 6.21603 74.4058 6.52714 74.4058 6.52714C74.4058 6.52714 74.3612 6.43469 74.3319 6.36425C74.1357 5.87508 74.5711 5.3233 74.9673 4.9848C75.2077 4.77838 75.6885 4.45894 76.0163 4.39486C76.1542 4.36649 76.398 4.34106 76.398 4.34106C76.398 4.34106 76.2427 4.46971 76.11 4.58221C75.6787 4.95202 75.105 5.54881 74.7873 5.97928ZM78.3675 6.59122C77.8223 6.89304 77.235 7.07452 76.6087 7.11658C76.3643 7.13419 75.7185 7.14104 75.6997 7.07109C75.6945 7.05397 75.7365 6.99087 75.792 6.92386C75.835 6.86873 75.8845 6.8006 75.937 6.72832L75.937 6.72827L75.9372 6.72804C75.9889 6.65673 76.0437 6.58139 76.098 6.51051C76.5705 5.90052 77.4412 5.13693 78.0563 4.77984C78.2655 4.66 78.3645 4.62086 78.5858 4.55531C78.8918 4.4658 79.0155 4.44721 79.2555 4.5514C79.4393 4.63015 79.584 4.79843 79.6102 5.02002C79.6905 5.70778 78.903 6.29185 78.3675 6.59122ZM53.1329 10.0775C52.8223 10.212 52.5757 10.2311 52.1781 10.2555C52.1506 10.2555 52.1492 10.2404 52.1546 10.2258C52.2969 9.81625 52.5968 9.5101 53.0131 9.4822C53.1358 9.4729 53.3462 9.51543 53.4054 9.63775C53.5032 9.83733 53.3046 10.0047 53.1329 10.0775ZM53.9185 9.22683C54.1504 9.51693 54.2551 9.85735 54.281 10.2311C54.3069 10.6077 54.1866 10.9702 53.9767 11.2574C53.6167 11.7465 53.016 11.9907 52.4134 12.0357C52.3306 12.041 51.8391 12.0557 51.7129 12.0165C51.7069 12.0144 51.7016 12.0122 51.6967 12.0102L51.6966 12.0102C51.6826 12.0045 51.6724 12.0003 51.663 12.0029C51.6488 12.0043 51.5661 12.3438 51.5509 12.4622C51.5194 12.7063 51.4838 12.9086 51.4501 13.1002L51.4501 13.1003C51.4263 13.2354 51.4035 13.3652 51.3836 13.5007C51.3436 13.761 51.3147 14.0403 51.2917 14.3181C51.1557 15.9372 51.2026 16.737 51.3367 18.3214C51.346 18.4182 51.3508 18.5283 51.3367 18.5949C51.3005 18.7851 51.185 18.9177 50.9992 18.9657C50.4406 19.1124 49.9063 18.5596 49.6324 18.1174C48.9926 17.0838 49.2015 14.9716 49.3859 13.9282C49.4612 13.4963 49.6579 12.537 49.7944 12.1917C49.8667 12.0058 49.9827 11.6404 49.9739 11.6228C49.9666 11.6078 49.7137 11.5105 49.463 11.414L49.4055 11.3919C49.3047 11.3552 48.9667 11.1796 48.8219 11.0896C48.524 10.9027 48.32 10.7506 48.1141 10.5183C48.0514 10.4459 47.8431 10.1362 47.8123 10.0672C47.6459 9.6886 47.6362 9.3589 47.7839 8.9563C47.8216 8.8531 48.0289 8.41825 48.1669 8.43198C48.3077 8.44442 48.3268 8.61332 48.3446 8.77123C48.352 8.83603 48.3591 8.89897 48.3743 8.9485C48.3914 9.00723 48.4472 9.10503 48.4912 9.1579C48.7661 9.4822 49.6892 9.84123 50.0673 9.95425C50.1216 9.97135 50.713 10.1514 50.7996 10.1118C50.8178 10.1032 50.8916 9.977 50.9572 9.86476L50.9573 9.86467L50.9573 9.8646L50.9577 9.86388C50.9751 9.83413 50.9919 9.80538 51.007 9.7801C51.0457 9.71208 51.0892 9.66168 51.1366 9.61038C51.4962 9.22345 52.0274 8.857 52.5562 8.74848C52.789 8.70145 53.2454 8.7406 53.4763 8.87223C53.4828 8.87592 53.4911 8.8802 53.5012 8.88535C53.572 8.92177 53.7278 9.00186 53.9185 9.22683ZM48.3953 13.8357C48.3733 13.8265 48.3479 13.8182 48.3313 13.8172C48.0955 13.7976 47.8362 13.8813 47.6278 13.9586C47.3313 14.0694 46.9031 14.2544 46.5571 14.4039C46.2541 14.5348 46.0141 14.6385 45.9803 14.6415C45.8213 14.6541 45.7817 14.5494 45.7538 14.3401C45.7034 13.974 45.8297 13.2815 45.9001 12.8954L45.9153 12.8119C45.9769 12.4705 46.2367 11.2799 46.4176 10.5183L46.4231 10.495C46.5249 10.0639 46.6492 9.53763 46.604 9.13878C46.5683 8.82325 46.4098 8.40115 46.0498 8.52835C45.6878 8.656 45.2984 9.44748 45.2192 9.6172C44.6302 10.8837 44.1518 13.0996 44.2203 14.6165C44.2443 15.1448 44.3768 15.7068 44.6772 16.1613C45.0094 16.6636 45.5592 16.828 46.1799 16.7086C46.5766 16.6328 47.1313 16.3755 47.4023 16.1946C47.8563 15.8864 48.4252 15.267 48.6013 14.6673C48.6668 14.4394 48.6668 13.9546 48.3953 13.8357ZM40.7952 13.1177C40.7952 13.1177 40.9111 13.1196 41.0305 13.1177C41.4106 13.1128 42.0479 13.0428 42.0479 13.0428C42.0479 13.0428 41.9765 12.4818 41.9188 12.1237C41.8796 11.8845 41.8483 11.7368 41.797 11.5475L41.7849 11.5029L41.7849 11.5029L41.7849 11.5029C41.7569 11.3978 41.7066 11.2097 41.6542 11.1292C41.6434 11.1102 41.6278 11.0901 41.6278 11.0901C41.6278 11.0901 41.32 11.6839 41.1478 12.0978C41.0843 12.25 41.0355 12.3843 40.9919 12.5044L40.9918 12.5046L40.9917 12.5048L40.9917 12.5048L40.9917 12.5049L40.9917 12.505C40.9413 12.6435 40.8979 12.7631 40.8466 12.8697C40.8235 12.9162 40.7981 12.9798 40.7952 13.0345C40.7923 13.0727 40.7952 13.1177 40.7952 13.1177ZM39.0806 12.4622C38.9388 12.7723 38.7563 13.1823 38.7563 13.1823L38.0842 13.2141C38.0495 13.2155 38.0441 13.2174 38.025 13.2331C37.9639 13.2816 37.9208 13.3985 37.9306 13.4435C37.9375 13.4885 37.9747 13.5477 38.0108 13.6039C38.0659 13.6901 38.1164 13.7637 38.1611 13.8289L38.1611 13.8289L38.1611 13.8289C38.3437 14.095 38.4298 14.2205 38.3352 14.4912C38.2869 14.629 38.2389 14.7592 38.1929 14.8838L38.1929 14.8838L38.1929 14.8838L38.1929 14.8838C37.9714 15.4838 37.7979 15.9536 37.8797 16.513C37.936 16.9097 38.0872 17.2941 38.4188 17.4762C38.5949 17.5716 38.7622 17.5539 39.0058 17.5221C39.2254 17.4927 39.3076 17.3612 39.401 17.1352C39.4366 17.0492 39.5628 16.5915 39.6615 16.2335C39.6863 16.1436 39.7093 16.0599 39.7288 15.99C39.7768 15.8169 39.8878 15.5087 40.0115 15.2005C40.0687 15.0567 40.1387 14.8841 40.1387 14.8841L40.8788 14.8719L42.2074 14.8185C42.2074 14.8185 42.2861 15.7113 42.3419 16.0224C42.4069 16.3799 42.61 16.6719 42.9148 16.9596C43.0248 17.0623 43.2762 17.2369 43.401 17.2413C43.4934 17.2428 43.5893 17.1816 43.6392 17.1083C43.7742 16.9155 43.781 16.5252 43.7742 16.2899C43.7668 15.9549 43.672 14.4668 43.6417 14.1811C43.5247 13.0927 43.1681 10.9742 42.838 9.8398C42.7768 9.63625 42.494 8.78418 42.3282 8.48478C42.2421 8.32728 42.044 8.1859 41.8528 8.19715C41.68 8.2084 41.5025 8.25588 41.4306 8.36838C41.3423 8.50343 41.3187 8.67058 41.3044 8.77182L41.3024 8.7856C41.2985 8.80587 40.9364 9.30627 40.6089 9.75888L40.6084 9.75961L40.6081 9.76002L40.608 9.7602L40.6076 9.7608C40.4933 9.91873 40.3833 10.0707 40.2943 10.1944C39.9836 10.6224 39.2299 12.1364 39.0806 12.4622ZM31.1694 8.8081C31.1694 8.8081 31.1522 8.3791 31.1165 8.13993C31.0867 7.93743 31.0461 7.78525 30.9497 7.63068C30.8441 7.46095 30.7633 7.35432 30.5965 7.32889C30.3921 7.29904 30.2791 7.43845 30.1514 7.639C29.9817 7.91148 29.8124 8.41675 29.7127 8.73618C29.5684 9.19015 29.5072 9.469 29.4299 9.98553C29.3022 10.8328 29.1731 12.2739 29.3105 13.2542C29.3359 13.4229 29.378 13.6699 29.378 13.6699C29.378 13.6699 29.5825 13.4406 29.7317 13.2801C29.7953 13.2106 30.0986 12.7572 30.1255 12.7097L30.1562 12.6564C30.2194 12.5474 30.3213 12.3712 30.3378 12.3301C30.3676 12.2778 30.5863 11.8086 30.6244 11.6986C30.6978 11.4882 30.8044 11.1645 30.8866 10.9062C31.0093 10.5265 31.0398 10.2995 31.0782 10.0133C31.0999 9.85104 31.1243 9.66975 31.1694 9.43083C31.1836 9.355 31.1958 8.8081 31.1821 8.8081C31.1762 8.80615 31.1694 8.8081 31.1694 8.8081ZM75.8692 9.7654C75.8985 9.7708 75.9435 9.784 75.9825 9.79773C76.3177 9.92583 76.4557 10.237 76.5382 10.5774C76.7302 11.3699 76.8127 13.1216 76.8435 13.8089C76.8572 14.1031 76.8673 14.3955 76.8773 14.6872L76.8773 14.6875L76.8773 14.6879L76.8774 14.6882L76.8774 14.6885L76.8774 14.6888L76.8774 14.6892L76.8774 14.6895C76.8849 14.9063 76.8923 15.1226 76.9012 15.339L76.9059 15.4466C76.924 15.8619 76.9465 16.376 76.8645 16.7478C76.8322 16.893 76.7355 17.0604 76.596 17.1479C76.4355 17.2497 76.0732 17.2575 75.8745 17.2164C75.3825 17.1147 75.2227 16.7986 75.153 16.3129C74.9864 15.1531 75.066 12.877 75.165 11.9163C75.1965 11.6007 75.3172 10.5843 75.483 10.1587C75.5385 10.0139 75.6592 9.7243 75.8692 9.7654ZM59.5009 11.613C60.0008 11.5572 60.7287 11.5059 60.7287 11.5059C60.7287 11.5059 60.712 12.2343 60.7091 12.9719C60.7018 14.3675 60.739 15.7846 60.739 15.7846C60.739 15.7846 60.241 15.6066 59.9416 15.4818C59.0645 15.1149 57.8758 14.3592 57.2893 13.8705C57.1499 13.7536 56.651 13.2737 56.563 13.1705C56.4098 12.991 56.2738 12.8193 56.311 12.5972C56.3477 12.3849 56.7688 12.2083 56.9767 12.1359C57.6665 11.8879 58.8635 11.681 59.5009 11.613ZM74.0638 12.0699C74.1059 12.4505 74.0071 13.1705 73.9909 13.2654C73.9596 13.4841 73.7943 13.9884 73.7679 14.0505C73.6343 14.3562 73.5037 14.6091 73.3638 14.8591C73.1251 15.2886 72.5587 15.969 72.2212 16.2601C70.9699 17.3421 69.0318 17.9585 67.3686 18.1614C66.2411 18.2979 64.9448 18.2769 63.7488 18.0563C63.3379 17.9805 62.7265 17.8406 62.7265 17.8406C62.7265 17.8406 62.7279 18.0852 62.7079 18.2578C62.6986 18.3351 62.6389 18.5425 62.6061 18.6096C62.5186 18.789 62.3762 18.8815 62.1693 18.9207C61.9188 18.9686 61.6532 18.9828 61.4213 18.885C61.0417 18.724 60.9048 18.3679 60.8392 17.9599C60.7854 17.6312 60.7291 17.0604 60.7291 17.0604C60.7291 17.0604 60.4454 16.9263 60.2082 16.8079C59.4803 16.4489 58.7881 16.0155 58.184 15.5674C58.0168 15.4437 57.2967 14.8401 57.1372 14.6894C56.6916 14.2682 56.2909 13.8465 55.9857 13.3065C55.7485 12.8848 55.6805 12.5097 55.8605 12.063C56.11 11.4403 57.0027 10.9702 57.6142 10.7027C58.0637 10.5045 59.4583 10.0491 60.0385 9.96498C60.3119 9.92583 60.7365 9.85053 60.7624 9.8329C60.7732 9.8251 60.781 9.81828 60.7883 9.80898C60.8016 9.78985 60.8241 9.17253 60.8197 8.94753C60.8148 8.72545 60.984 7.2692 61.0383 6.96152C61.0677 6.79374 61.1938 6.15244 61.323 5.98465C61.4067 5.87117 61.5559 5.87899 61.6771 5.95482C62.3419 6.36718 62.5435 7.80145 62.5929 8.53128C62.6227 8.97543 62.6374 9.64413 62.6374 9.64413C62.6374 9.64413 63.4 9.62208 63.8696 9.6343C64.325 9.64555 64.8274 9.718 65.3009 9.7933C65.907 9.88915 67.0879 10.1469 67.7648 10.4909C68.323 10.7731 68.8444 11.25 69.0132 11.7543C69.1707 12.2166 69.1467 12.5355 68.9075 12.9528C68.6389 13.4244 68.1298 13.7736 67.6137 13.8025C67.4596 13.8128 66.8819 13.7355 66.7043 13.5981C66.6339 13.5423 66.6378 13.4435 66.6886 13.3764C66.7057 13.3546 66.9232 13.2391 67.0834 13.1541L67.1372 13.1255C67.2169 13.082 67.2835 13.0355 67.3451 12.9788C67.4782 12.8609 67.597 12.7327 67.5838 12.583C67.5652 12.3873 67.3593 12.2665 67.1617 12.1893C66.2371 11.8224 64.3911 11.5167 63.4978 11.4638C63.1486 11.4432 62.6526 11.4257 62.6526 11.4257L62.7572 16.3525C62.7572 16.3525 63.1681 16.4313 63.4915 16.4841C63.6778 16.5115 64.4644 16.5825 64.6733 16.5878C66.2656 16.6299 68.0427 16.488 69.5038 15.7968C70.1451 15.495 70.7336 15.1198 71.1787 14.6116C71.7667 13.9371 72.0744 13.0164 71.9927 12.0547C71.9032 11.002 71.1631 9.75565 70.5731 8.99598C69.0122 6.98794 66.337 5.33798 63.9841 4.37041C61.5808 3.38278 59.2064 2.81339 56.6554 2.71849C55.9984 2.69502 54.5642 2.72828 53.8408 2.92884C53.8044 2.93887 53.7681 2.94966 53.7323 2.96034C53.6649 2.9804 53.5989 3.00006 53.536 3.01346C53.4597 3.03205 53.3413 3.08244 53.308 3.10836C53.2904 3.12451 53.2714 3.14358 53.2714 3.14358C53.2714 3.14358 53.3164 3.16804 53.3589 3.18712C53.4046 3.20721 53.5378 3.22211 53.6733 3.23727C53.7654 3.24758 53.8587 3.25801 53.9263 3.27028C54.0751 3.29865 54.232 3.37838 54.2927 3.48844C54.3514 3.59215 54.3598 3.67384 54.2888 3.76042C54.1244 3.96147 53.5061 3.92625 53.2347 3.88418C52.9519 3.8382 52.6002 3.75259 52.5352 3.50605C52.4608 3.21598 52.5973 2.93177 52.7464 2.6686C53.0458 2.14275 53.4733 1.86881 54.1015 1.6981C54.9917 1.45351 56.1163 1.28182 56.9577 1.24953C58.862 1.1786 60.6636 1.51026 62.5078 2.07133C63.5634 2.38978 64.9468 2.92541 65.9578 3.41311C66.6828 3.76237 67.8274 4.4071 68.4702 4.82827C68.6727 4.96181 69.859 5.83301 70.0429 5.98612C70.4274 6.30016 70.9307 6.75166 71.2936 7.11316C71.998 7.8112 72.8742 8.88048 73.3007 9.72873C73.3365 9.80096 73.3696 9.87265 73.4033 9.94554L73.4034 9.94578L73.4035 9.94589L73.4037 9.94623C73.4652 10.0794 73.5287 10.2167 73.6133 10.3686C73.6588 10.4488 73.854 10.9321 73.8862 11.072C73.918 11.2099 73.965 11.4129 73.9719 11.4203C73.9743 11.439 73.9818 11.4791 73.9914 11.5311L73.9915 11.5315C74.0203 11.6871 74.069 11.9493 74.0638 12.0699ZM82.337 12.4366C82.3101 12.4326 82.2998 12.4311 82.2675 12.428L79.5795 12.1095C79.5435 12.1061 79.536 12.1046 79.5023 12.0978C79.4872 12.0945 79.4651 12.0907 79.4384 12.0861L79.4384 12.086C79.2573 12.0548 78.8653 11.9871 79.0312 11.8072C79.0806 11.7518 79.2224 11.7115 79.3192 11.6841L79.3455 11.6766C80.2725 11.4233 81.3896 11.3851 82.4341 11.3493H82.4342C82.7596 11.3382 83.0779 11.3273 83.3812 11.3102L83.3966 11.3092C83.6889 11.2912 84.3205 11.2522 84.6285 11.1542C84.9262 11.0613 85.1745 10.8499 85.2435 10.5217C85.2787 10.3466 85.194 10.2648 85.0305 10.1778C83.9715 9.61473 82.2277 9.6133 81.1493 9.74778C80.0348 9.88578 78.5445 10.2326 77.9078 11.1483C77.6648 11.4985 77.5215 12.0357 77.6333 12.473C77.697 12.7151 77.9093 12.9342 78.1253 13.032C78.3413 13.1294 78.6128 13.1788 78.8618 13.2141C79.0889 13.247 79.9893 13.3239 80.6294 13.3786L80.63 13.3786L80.6302 13.3787L80.7533 13.3892C81.3652 13.4395 82.551 13.5696 83.193 13.8372C83.247 13.8603 83.523 13.9791 83.592 14.0628C83.6003 14.0735 83.6091 14.0857 83.6179 14.0979C83.6415 14.131 83.6654 14.1642 83.6812 14.1689C83.684 14.1695 83.6872 14.1691 83.6907 14.1687C83.6957 14.1682 83.7011 14.1675 83.706 14.1699C83.766 14.1889 83.7975 14.3739 83.7975 14.3958C83.7952 14.5676 83.6677 14.7045 83.5365 14.797C82.5832 15.472 81.2745 15.6633 80.1113 15.6457C79.716 15.6393 79.3898 15.5782 78.9893 15.4045C78.8183 15.3306 78.5948 15.1526 78.6278 14.9613C78.6915 14.5901 79.101 14.4966 79.44 14.5289C79.6297 14.5465 79.8765 14.6268 80.0618 14.6991C80.2179 14.7608 80.3563 14.8204 80.4835 14.8752C80.9649 15.0826 81.2867 15.2212 81.807 15.1419C82.0522 15.1052 82.9012 14.9208 83.0168 14.571C83.0452 14.4844 83.0033 14.3929 82.941 14.3283C82.8517 14.2383 82.3402 14.0388 82.2007 13.9884C81.6997 13.8113 80.7518 13.6474 80.2245 13.6279C79.5322 13.6034 78.615 13.7325 78.1868 14.3186C77.9175 14.6865 77.9108 15.1898 78.132 15.5782C78.4328 16.107 79.0283 16.5169 79.5158 16.7551C80.3408 17.1543 81.3315 17.3431 82.2465 17.2428C82.7707 17.1831 83.2267 17.0765 83.6917 16.8515C84.138 16.6362 84.627 16.2307 84.8505 15.7479C85.149 15.0983 85.1265 14.2408 84.7965 13.6279C84.5798 13.2234 84.3412 12.9973 83.9355 12.8173C83.499 12.6216 82.9275 12.517 82.3447 12.4377L82.337 12.4366ZM86.2515 17.2047C85.7355 17.0154 85.6193 16.1828 85.5952 15.7616C85.5135 14.3905 85.8758 12.4827 86.3363 11.1977L86.3569 11.1398C86.4875 10.7722 86.6782 10.2357 87.066 10.2678C87.348 10.2927 87.549 10.5099 87.7073 10.733C88.1115 11.3028 88.6425 12.0753 88.995 12.6129C89.1448 12.8422 89.2924 13.0721 89.4381 13.2993C89.6754 13.6691 89.908 14.0316 90.138 14.3719L90.147 14.385C90.1894 14.4468 90.2298 14.5057 90.2767 14.5441C90.3443 14.5984 90.405 14.6013 90.432 14.5509C90.4447 14.5314 90.4208 13.8387 90.4035 13.6998C90.388 13.5826 90.3771 13.4772 90.3667 13.3757C90.3574 13.2856 90.3484 13.1985 90.3368 13.1088C90.2678 12.5547 90.0915 11.7749 89.9528 11.2476C89.8858 10.988 89.8121 10.7236 89.7387 10.4603L89.7385 10.4595C89.6452 10.1246 89.5523 9.79134 89.4743 9.47193C89.43 9.28653 89.3887 9.09918 89.3903 8.92255C89.391 8.66725 89.5553 8.52588 89.8215 8.62128C90.3457 8.80615 91.041 9.94443 91.2435 10.3397C91.3125 10.4733 91.5855 11.1522 91.6462 11.3425C91.8638 11.9946 91.9958 12.6129 92.0557 13.3236C92.1135 14.0143 92.0655 15.0205 91.773 15.7014C91.6657 15.9519 91.446 16.2889 91.263 16.4587C90.9758 16.7248 90.4035 16.9327 90.009 16.7076C89.5778 16.4631 88.869 15.2352 88.7483 15.0254C88.5307 14.6461 88.2308 14.0752 87.9799 13.5978L87.9798 13.5976C87.7558 13.1714 87.571 12.8197 87.519 12.7454C87.495 12.7107 87.4642 12.6774 87.4095 12.6608C87.3675 12.6486 87.351 12.7351 87.3405 12.7914C87.27 13.2003 87.2213 15.113 87.2205 15.1663C87.2191 15.2032 87.2177 15.2462 87.2161 15.2941V15.2942C87.2039 15.664 87.1821 16.3223 87.0997 16.6665C87.0397 16.9205 86.9775 17.1288 86.7442 17.2355C86.5785 17.3103 86.4525 17.279 86.2515 17.2047ZM93.1478 16.874C93.213 16.9479 93.303 17.0398 93.3593 17.0823C93.4058 17.1191 93.5445 17.211 93.5445 17.211C93.5423 17.2237 93.7972 17.3431 93.8678 17.3612C93.9076 17.3716 93.9444 17.3814 93.9787 17.3906L93.9789 17.3907C94.2627 17.4666 94.3852 17.4994 94.7617 17.457C95.6745 17.3553 96.8992 16.7615 97.6155 16.2136C97.842 16.0404 98.0272 15.8795 98.0175 15.6364C98.0055 15.3781 97.9193 15.1991 97.7535 14.9853C97.5622 14.7437 97.3785 14.7696 97.014 14.8278C96.8421 14.8548 96.6606 14.8828 96.4765 14.9113L96.4762 14.9114L96.4761 14.9114C95.9341 14.9952 95.3687 15.0826 94.9545 15.1585C94.8525 15.1761 94.722 15.1947 94.5938 15.1937C94.5173 15.1937 94.425 15.1898 94.425 15.1898C94.425 15.1898 94.524 14.8215 94.6387 14.46C94.7535 14.1132 94.8855 13.7697 94.8855 13.7697C94.8855 13.7697 95.0482 13.7453 95.202 13.7286C95.3275 13.714 95.8575 13.704 96.3708 13.6944L96.3709 13.6944C96.8699 13.685 97.353 13.6759 97.4333 13.6631C97.7475 13.6103 97.8217 13.4288 97.8052 13.0345C97.7925 12.6975 97.6875 12.4637 97.383 12.3962C97.302 12.379 97.1572 12.3712 97.0125 12.3712C96.417 12.3737 95.3565 12.3849 95.3565 12.3849L95.6572 11.3777C95.6572 11.3777 96.255 11.385 96.687 11.3806C96.9585 11.3777 98.4382 11.3567 98.895 11.0793C99.1927 10.8969 99.0585 10.5603 98.8612 10.2771C98.4945 9.74635 98.088 9.48805 97.461 9.46998C97.0492 9.45918 95.757 9.60888 95.475 9.64315C95.151 9.6832 94.8307 9.7258 94.4902 9.77568C94.2173 9.8143 93.3532 9.98013 93.2438 10.0154C92.9453 10.1079 92.8508 10.2663 92.9948 10.552C93.1155 10.7961 93.3165 10.9257 93.5827 11.026C93.8205 11.116 94.266 11.2188 94.266 11.2188C94.266 11.2188 94.0988 11.681 93.9915 11.9843L93.9826 12.0094L93.9826 12.0095C93.908 12.2204 93.8196 12.4703 93.684 12.5033C93.6672 12.5082 93.6501 12.5093 93.6297 12.5107C93.6218 12.5112 93.6135 12.5118 93.6045 12.5126C93.252 12.5498 93.042 12.742 93.051 13.013C93.0552 13.1029 93.0912 13.2888 93.1247 13.4613L93.1247 13.4615C93.1573 13.6297 93.1874 13.785 93.183 13.8255C93.1777 13.8617 93.171 13.89 93.1568 13.9228C93.0679 14.1611 93.0014 14.3078 92.948 14.4254C92.8671 14.6037 92.8165 14.7152 92.7645 14.9784C92.6708 15.4466 92.6663 15.8756 92.835 16.3114C92.8528 16.3587 92.8715 16.4011 92.8938 16.4516L92.9153 16.5003C92.952 16.5858 93.1373 16.8637 93.1478 16.874ZM104.876 12.0205C104.406 12.4137 103.8 13.2155 103.51 13.6318C103.318 13.9068 103.13 14.2017 102.948 14.489L102.948 14.4892C102.764 14.7783 102.586 15.0596 102.411 15.3052C102.336 15.4153 102.112 15.8091 102.119 15.8223C102.135 15.8502 102.361 15.8414 102.593 15.8022C103.088 15.7191 103.76 15.3717 104.119 15.0851C104.667 14.6463 105.048 14.0436 105.228 13.3388C105.307 13.0184 105.349 12.3468 105.121 12.0479C105.077 11.9907 104.963 11.9457 104.876 12.0205ZM100.888 18.5577C100.998 18.2153 101.146 17.7789 101.146 17.7789C101.146 17.7789 101.292 17.7863 101.416 17.7892C102.339 17.8107 103.279 17.4492 104.081 16.918C104.866 16.3985 105.442 15.8046 105.865 14.9799C106.22 14.2887 106.385 13.3809 106.306 12.5737C106.239 11.8982 105.978 11.0652 105.378 10.6713C105 10.4214 104.652 10.4713 104.264 10.6719C103.774 10.9257 103.574 11.1052 103.122 11.5372C102.907 11.7421 102.158 12.5194 101.964 12.7386C101.773 12.9543 101.607 13.1544 101.377 13.4571C100.956 14.0085 100.318 14.9016 100.318 14.9016C100.318 14.9016 100.282 14.6894 100.273 14.5211C100.27 14.4624 100.347 14.0046 100.378 13.9067L100.38 13.8998C100.57 13.278 100.657 12.9963 101.047 12.3154C101.11 12.2052 101.178 12.0908 101.249 11.9732C101.567 11.4381 101.927 10.8346 102.019 10.2404C102.053 10.0203 102.016 9.75663 101.791 9.74583C101.565 9.73413 101.068 10.329 100.993 10.4238C99.981 11.6712 99.0787 13.2243 99.0765 14.794C99.0765 15.2901 99.2055 15.9039 99.444 16.4122C99.4597 16.4425 99.4597 16.4504 99.447 16.4846C98.6812 18.4872 98.403 19.3722 98.1277 21.3841C98.0497 21.9594 97.9537 22.9396 98.355 23.4606C98.5545 23.7243 98.7885 23.8671 99.054 24.007C99.2595 24.1166 99.327 24.1494 99.4965 24.0501C99.5662 24.0055 99.585 23.9879 99.6142 23.9322C99.6352 23.8911 100.045 21.9681 100.19 21.2344C100.286 20.7399 100.7 19.1486 100.888 18.5577Z" fill="#231F20"/>
</svg>
