<svg width="135" height="27" viewBox="0 0 135 27" fill="none" xmlns="http://www.w3.org/2000/svg">
<path fill-rule="evenodd" clip-rule="evenodd" d="M15.6667 5L7.83333 10L15.6667 15L7.83333 20L0 14.9583L7.83333 9.95833L0 5L7.83333 0L15.6667 5ZM15.6667 5L23.4583 0L31.2917 5L23.4583 10L31.2917 15L23.4583 20L15.6667 14.9583L23.5 9.95833L15.6667 5ZM7.79167 21.5833L15.625 16.5833L23.4583 21.5833L15.625 26.5833L7.79167 21.5833Z" fill="#0061FF"/>
<path fill-rule="evenodd" clip-rule="evenodd" d="M95.9167 21.5832L96.2083 19.1248C96.9167 20.8748 98.375 21.9165 100.625 21.9582C104.042 21.9582 106.292 19.4165 106.292 14.9582V14.5415C106.292 10.0832 103.917 7.87484 100.708 7.83317C98.5833 7.83317 97.0833 8.7915 96.3333 10.5415V3.6665H92.9167V21.5832H95.9167ZM43.75 4.99984H37.4167V21.5832H43.875C48 21.5832 51.125 19.1665 51.125 13.7915V12.6665C51.125 7.33317 47.7917 4.99984 43.75 4.99984ZM40.9583 18.5415V7.99984H43.5417C45.875 7.99984 47.5 9.49984 47.5 12.8332V13.7082C47.5 17.0415 45.9583 18.5415 43.6667 18.5415H40.9583ZM53.0417 8.1665H55.8333L56.2917 11.2915C56.8333 9.1665 58.2083 8.0415 60.7083 8.0415H61.5833V11.6248H60.125C57.25 11.6248 56.5417 12.6248 56.5417 15.4582V21.6248H53.0417V8.1665ZM62.2917 14.7915V15.1665C62.2917 19.5832 64.75 21.9165 69.0833 21.9582C73.1667 21.9582 75.875 19.5832 75.875 15.1665V14.7915C75.875 10.2915 73.0833 7.83317 69.0833 7.83317C65.1667 7.83317 62.2917 10.2915 62.2917 14.7915ZM72.2917 15.1248V14.7915C72.2917 12.2915 71.0417 10.7915 69.0417 10.7915C67.0833 10.7915 65.7917 12.1665 65.7917 14.7915V15.1248C65.7917 17.5415 67.0417 18.9165 69.0417 18.9165C71.0417 18.8748 72.2917 17.5415 72.2917 15.1248ZM80.625 8.1665H77.7083L77.6667 26.2498H81.0833V19.4582C81.7917 20.9998 83.25 21.9582 85.375 21.9582C88.5417 21.9582 91.0417 19.6248 91.0417 15.2082V14.8332C91.0417 10.2915 88.7917 7.83317 85.375 7.83317C83.1667 7.83317 81.6667 8.99984 80.9583 10.7082L80.625 8.1665ZM87.5 15.1248V14.8332C87.5 12.1665 86.125 10.8332 84.2917 10.8332C82.3333 10.8332 81.0417 12.3332 81.0417 14.8332V15.0832C81.0417 17.4582 82.2917 18.9582 84.25 18.9582C86.25 18.9165 87.5 17.6248 87.5 15.1248ZM102.708 14.6248C102.708 12.1665 101.375 10.7915 99.5 10.7915C97.5833 10.7915 96.25 12.3332 96.25 14.6665V14.9582C96.25 17.4582 97.5417 18.9165 99.4583 18.9165C101.5 18.9165 102.708 17.6248 102.708 14.9582V14.6248ZM107.792 14.7915V15.1665C107.792 19.5832 110.25 21.9165 114.583 21.9582C118.625 21.9582 121.375 19.5832 121.375 15.1665V14.7915C121.375 10.2915 118.583 7.83317 114.583 7.83317C110.667 7.83317 107.792 10.2915 107.792 14.7915ZM117.833 14.7915C117.833 12.2915 116.583 10.7915 114.583 10.7915C112.625 10.7915 111.333 12.1665 111.333 14.7915V15.1248C111.333 17.5415 112.583 18.9165 114.583 18.9165C116.583 18.8748 117.833 17.5415 117.833 15.1248V14.7915ZM121.25 8.1665L125.958 14.6248L120.833 21.5832H124.958L127.958 17.1248L131.042 21.5832H135L129.958 14.5832L134.75 8.1665H130.75L128 12.2082L125.292 8.1665H121.25Z" fill="black"/>
</svg>
