<svg width="60" height="60" viewBox="0 0 60 60" fill="none" xmlns="http://www.w3.org/2000/svg">
<path fill-rule="evenodd" clip-rule="evenodd" d="M29.4791 58.9541C13.2273 58.9541 0 45.8059 0 29.475C0 13.2273 13.2273 0 29.4791 0C45.7255 0 58.9555 13.2273 58.9555 29.475C58.9555 45.8059 45.7255 58.9541 29.4791 58.9541ZM29.4791 1.38545C13.9636 1.38545 1.38682 13.9623 1.38682 29.475C1.38682 44.9891 13.9636 57.5645 29.4791 57.5645C44.9918 57.5645 57.5659 44.9891 57.5659 29.475C57.5659 14.0441 44.9932 1.38545 29.4791 1.38545ZM54.3055 37.9105L54.4582 37.8791C54.4718 37.8532 55.8164 34.245 55.77 29.4764C55.6868 20.1695 51.0355 10.5327 40.8286 7.43045C38.7041 6.77591 36.9082 6.36818 34.8668 6.36818C32.0527 6.36818 30.8534 7.3206 29.8805 8.09324C29.2166 8.62053 28.658 9.06409 27.7636 9.06409C26.5391 9.06409 25.7223 8.16545 25.7223 7.10318C25.7223 5.22409 27.9259 3.75409 31.4373 3.75545C34.8863 3.75545 37.2615 4.63062 37.6637 4.77882L37.6638 4.77887C37.6998 4.79213 37.7199 4.79955 37.7236 4.8L37.8314 4.71818L37.8055 4.57091C37.6623 4.45636 33.8427 3.15 29.4791 3.18273C20.0877 3.255 10.5341 8.00182 7.43045 18.1255C6.77727 20.2486 6.36955 22.0445 6.36955 24.0859C6.36955 26.902 7.32218 28.1303 8.09488 29.1266C8.62204 29.8063 9.06546 30.378 9.06546 31.2723C9.06546 32.4164 8.16545 33.2318 7.10318 33.2318C5.22545 33.2318 3.75682 31.11 3.75682 27.5168C3.75682 24.3518 4.56306 21.7789 4.72032 21.2771L4.73318 21.2359L4.64727 21.1295L4.50136 21.1541C4.47955 21.1909 3.18818 24.8632 3.18409 29.475C3.17591 38.9468 8.00182 48.5032 18.1282 51.6041C20.2541 52.2573 22.0486 52.665 24.09 52.665C26.9041 52.665 28.1034 51.6846 29.0763 50.8893C29.7402 50.3466 30.2988 49.89 31.1932 49.89C32.3373 49.89 33.2359 50.7886 33.2359 51.9273C33.2359 53.7273 31.1127 55.1959 27.5195 55.1959C24.2523 55.1959 21.6109 54.3668 21.24 54.2195L21.1214 54.3027C21.0927 54.375 21.1241 54.4473 21.1609 54.4664C22.0773 54.8768 25.1523 55.7659 29.4818 55.7659C38.8691 55.7659 48.5059 51.03 51.5277 40.8259C52.1809 38.7818 52.5886 36.9082 52.5886 34.9473C52.5886 32.0736 51.63 30.8558 50.8563 29.873C50.3329 29.2081 49.8941 28.6507 49.8941 27.7609C49.8941 26.5377 50.7095 25.7195 51.8523 25.7195C53.73 25.7195 55.1891 27.9232 55.2014 31.5164C55.2089 34.5703 54.3841 37.2642 54.2407 37.7327L54.2407 37.7327L54.2405 37.7332L54.2404 37.7335C54.2274 37.7762 54.22 37.8002 54.2195 37.8041L54.3055 37.9105ZM40.4195 30.8659C37.6445 30.8659 35.52 32.9086 35.52 35.3564C35.52 37.3977 36.7432 39.0286 38.3782 39.0286C38.9509 39.0286 39.5209 38.7014 39.5209 37.9677C39.5209 37.5012 39.2481 37.1896 38.952 36.8514C38.5756 36.4216 38.1617 35.9488 38.2227 35.0605C38.2923 34.0132 39.2782 33.3136 40.2559 33.3136C42.2168 33.3136 43.1332 35.2132 43.1332 37.1714C43.05 40.1932 40.8286 42.2959 38.2159 42.2959C34.7836 42.2959 32.5827 39.0286 32.5827 35.5186C32.5827 30.2918 36.0109 28.2505 37.8068 27.7623C37.8074 27.7622 37.8122 27.7629 37.821 27.7643L37.8359 27.7667L37.836 27.7667C38.2312 27.8293 42.4967 28.5054 42.3573 26.535C42.2932 25.6295 40.9445 25.2805 39.9655 25.2409C38.8827 25.1986 37.7918 25.5886 37.7918 25.5886C37.2205 25.3009 36.8264 24.7391 36.5836 24.0873C39.9314 21.5564 42.2973 19.1073 42.2973 16.3309C42.2973 14.8609 41.3168 13.5532 39.4391 13.5532C36.0914 13.5532 33.5591 17.7995 33.5591 21.6368C33.5591 22.29 33.5591 22.9432 33.7241 23.5173C31.5995 25.0677 30.0218 26.0305 27.1623 27.7459C27.1623 27.3873 27.2373 26.4668 27.4759 25.2695C28.4564 24.2073 29.8009 22.6186 29.8009 21.3941C29.8009 20.8227 29.4764 20.3318 28.8205 20.3318C27.1882 20.3318 25.9623 22.7823 25.6377 24.4964C24.9014 25.395 23.4327 26.5405 22.2068 26.5405C21.2264 26.5405 20.9018 25.6405 20.8173 25.3159C23.9209 24.2523 27.7595 20.0059 27.7595 16.1686C27.7595 15.3518 27.4336 13.5559 24.9832 13.5559C21.3082 13.5559 18.2045 19.0268 18.2045 23.2718C16.8982 23.2718 16.4086 21.8836 16.4086 20.8241C16.4086 20.14 16.5777 19.4558 16.6981 18.9688C16.7647 18.6995 16.8164 18.4905 16.8164 18.375C16.8164 18.0464 16.6527 17.6386 16.1632 17.6386C14.9373 17.6386 14.2023 19.2709 14.2023 21.15C14.2855 23.7641 15.9995 25.3964 18.2864 25.56C18.6109 27.1118 20.0005 28.5805 21.7145 28.5805C22.7768 28.5805 24.0832 28.2545 24.9818 27.4391C24.8986 28.0105 24.8182 28.5 24.7364 28.9895C24.5184 29.1035 24.3041 29.2154 24.0932 29.3255L24.092 29.3261C20.8266 31.0304 18.3865 32.3039 16.1618 34.2968C14.2895 36.0095 13.2273 38.295 13.2273 40.0923C13.2273 42.5414 14.7805 44.8268 17.9645 44.8268C21.72 44.8268 24.5795 41.805 25.9664 37.6418C26.6223 35.6823 26.8827 32.8309 27.0464 30.2168C30.8018 28.095 32.5827 26.865 34.5409 25.4755C34.785 25.8832 35.0332 26.2118 35.3591 26.4559C33.6436 27.3545 29.5623 29.8855 29.5623 35.8459C29.5623 40.0936 32.4218 44.8268 38.0536 44.8268C42.7091 44.8268 45.8932 40.9909 45.8932 37.3173C45.8905 33.9682 44.0114 30.8659 40.4195 30.8659ZM15.9245 40.2641C15.9245 41.5691 16.74 42.3518 17.9645 42.2959C22.1591 42.1036 23.8132 36.5045 24.4664 31.6036C20.7914 33.4023 15.9245 36.7527 15.9245 40.2641ZM20.6591 23.0264C20.6591 20.3305 23.3182 15.2086 24.945 15.75C26.8636 16.3895 23.3536 21.5564 20.6591 23.0264ZM36.0927 21.8005C36.0927 18.4527 38.3591 15.1964 39.5973 15.8155C41.0073 16.5218 38.5432 19.6773 36.0927 21.8005Z" fill="#0870D8"/>
</svg>
