<svg width="92" height="31" viewBox="0 0 92 31" fill="none" xmlns="http://www.w3.org/2000/svg">
<path fill-rule="evenodd" clip-rule="evenodd" d="M31.6097 23.3936C35.7534 23.3936 39.13 20.2132 39.13 15.897C39.13 11.5505 35.7534 8.40039 31.6097 8.40039C27.4659 8.40039 24.0894 11.5505 24.0894 15.897C24.0894 20.2132 27.4659 23.3936 31.6097 23.3936ZM31.6097 11.3544C33.881 11.3544 35.8379 13.1999 35.8379 15.897C35.8379 18.5638 33.881 20.4396 31.6097 20.4396C29.3384 20.4396 27.3815 18.5672 27.3815 15.897C27.3815 13.1999 29.3384 11.3544 31.6097 11.3544Z" fill="#EA4335"/>
<path fill-rule="evenodd" clip-rule="evenodd" d="M47.8332 23.3936C51.9769 23.3936 55.3534 20.2132 55.3534 15.897C55.3534 11.5505 51.9769 8.40039 47.8332 8.40039C43.6894 8.40039 40.3129 11.5538 40.3129 15.897C40.3129 20.2132 43.6894 23.3936 47.8332 23.3936ZM47.8332 11.3544C50.1045 11.3544 52.0615 13.1999 52.0615 15.897C52.0615 18.5638 50.1045 20.4396 47.8332 20.4396C45.5619 20.4396 43.6049 18.5672 43.6049 15.897C43.6049 13.1999 45.5619 11.3544 47.8332 11.3544Z" fill="#FBBC05"/>
<path fill-rule="evenodd" clip-rule="evenodd" d="M70.901 22.3121V8.85669H67.7746V10.0769H67.6597C66.9195 9.19472 65.5 8.40039 63.712 8.40039C59.9636 8.40039 56.5297 11.6924 56.5297 15.9241C56.5297 20.1253 59.9636 23.3903 63.712 23.3903C65.5033 23.3903 66.9229 22.596 67.6597 21.6868H67.7746V22.765C67.7746 25.6345 66.2435 27.1589 63.7728 27.1589C61.7584 27.1589 60.5078 25.719 59.9974 24.4988L57.1313 25.692C57.956 27.6794 60.1428 30.1095 63.7762 30.1095C67.636 30.1095 70.901 27.8483 70.901 22.3121ZM64.006 11.3544C66.2469 11.3544 68.0078 13.2844 68.0078 15.9241C68.0078 18.5367 66.2469 20.4396 64.006 20.4396C61.7347 20.4396 59.8318 18.5367 59.8318 15.9241C59.8318 13.2844 61.7347 11.3544 64.006 11.3544Z" fill="#4285F4"/>
<path d="M76.0552 0.964355V22.9337H72.8445V0.964355H76.0552Z" fill="#34A853"/>
<path fill-rule="evenodd" clip-rule="evenodd" d="M91.1228 20.0678L88.5675 18.3643C87.7163 19.6149 86.553 20.4396 84.8768 20.4396C83.2035 20.4396 82.011 19.6723 81.2438 18.1683L91.2653 14.0178L90.9233 13.166C90.3015 11.493 88.3988 8.39697 84.5085 8.39697C80.6453 8.39697 77.4375 11.4355 77.4375 15.8936C77.4375 20.0982 80.6183 23.3902 84.8768 23.3902C88.311 23.3902 90.2985 21.2879 91.1228 20.0678ZM87.402 12.8855L80.703 15.6672C80.6183 12.774 82.947 11.2969 84.6203 11.2969C85.9245 11.2969 87.033 11.9493 87.402 12.8855Z" fill="#EA4335"/>
<path d="M11.9353 13.9467V10.7662H22.6529C22.7577 11.3205 22.8118 11.9762 22.8118 12.686C22.8118 15.0722 22.1595 18.0228 20.0572 20.1252C18.0123 22.2545 15.3997 23.3901 11.9387 23.3901C5.52359 23.3901 0.129272 18.1648 0.129272 11.7498C0.129272 5.3347 5.52359 0.109375 11.9387 0.109375C15.4876 0.109375 18.0157 1.5019 19.9152 3.3169L17.671 5.56116C16.3088 4.28356 14.4635 3.28986 11.9353 3.28986C7.25072 3.28986 3.58691 7.06521 3.58691 11.7498C3.58691 16.4343 7.25072 20.2097 11.9353 20.2097C14.9738 20.2097 16.7043 18.9895 17.813 17.8809C18.712 16.9818 19.3034 15.6975 19.5367 13.9433L11.9353 13.9467Z" fill="#4285F4"/>
</svg>
