<svg width="91" height="28" viewBox="0 0 91 28" fill="none" xmlns="http://www.w3.org/2000/svg">
<path d="M56.2356 21.224C51.0291 25.0617 43.4825 27.1092 36.9851 27.1092C27.8745 27.1092 19.6727 23.7395 13.4678 18.1352C12.9803 17.6945 13.4171 17.0938 14.0021 17.437C20.6984 21.3332 28.9782 23.6771 37.531 23.6771C43.2991 23.6771 49.6445 22.4837 55.479 20.0072C56.3604 19.6328 57.0975 20.5844 56.2356 21.224Z" fill="#FF9900"/>
<path d="M58.4002 18.7479C57.7372 17.8977 54.0009 18.3462 52.3239 18.5451C51.813 18.6075 51.735 18.1629 52.1952 17.8431C55.1709 15.7488 60.0538 16.3533 60.6232 17.0553C61.1926 17.7612 60.475 22.6557 57.6787 24.9919C57.2497 25.3507 56.8401 25.1596 57.0312 24.6838C57.6592 23.1159 59.0671 19.602 58.4002 18.7479Z" fill="#FF9900"/>
<path d="M52.4409 3.05795V1.02213C52.4409 0.714026 52.6749 0.507324 52.9557 0.507324H62.0701C62.3626 0.507324 62.5966 0.717927 62.5966 1.02213V2.76545C62.5927 3.05795 62.347 3.44015 61.9102 4.04466L57.1872 10.7879C58.9423 10.745 60.7948 11.0063 62.386 11.9033C62.7448 12.1061 62.8423 12.4025 62.8696 12.695V14.8673C62.8696 15.1637 62.542 15.5108 62.1988 15.3314C59.3947 13.8611 55.6701 13.7012 52.5696 15.347C52.2537 15.5186 51.9222 15.1754 51.9222 14.879V12.8159C51.9222 12.4844 51.9261 11.9189 52.2576 11.4158L57.7294 3.56886H52.9674C52.6749 3.56886 52.4409 3.36216 52.4409 3.05795Z" fill="#221F1F"/>
<path d="M19.193 15.7604H16.4201C16.1549 15.7409 15.9443 15.542 15.9248 15.2885V1.0573C15.9248 0.772603 16.1627 0.546397 16.4591 0.546397H19.0448C19.3139 0.55809 19.5284 0.764803 19.5479 1.0222V2.88253H19.5986C20.2733 1.0846 21.5408 0.246094 23.2491 0.246094C24.9846 0.246094 26.0688 1.0846 26.8488 2.88253C27.5196 1.0846 29.0445 0.246094 30.6787 0.246094C31.8409 0.246094 33.1123 0.725799 33.8884 1.80221C34.7659 2.99953 34.5865 4.73894 34.5865 6.26386L34.5826 15.2456C34.5826 15.5303 34.3447 15.7604 34.0483 15.7604H31.2793C31.0024 15.7409 30.7801 15.5186 30.7801 15.2456V7.70297C30.7801 7.10237 30.8347 5.60476 30.7021 5.03535C30.4954 4.07984 29.8753 3.81073 29.0718 3.81073C28.401 3.81073 27.699 4.25924 27.4143 4.97685C27.1296 5.69446 27.1569 6.89566 27.1569 7.70297V15.2456C27.1569 15.5303 26.919 15.7604 26.6226 15.7604H23.8536C23.5728 15.7409 23.3544 15.5186 23.3544 15.2456L23.3505 7.70297C23.3505 6.11566 23.6118 3.77953 21.6422 3.77953C19.6493 3.77953 19.7273 6.05716 19.7273 7.70297V15.2456C19.7273 15.5303 19.4894 15.7604 19.193 15.7604Z" fill="#221F1F"/>
<path fill-rule="evenodd" clip-rule="evenodd" d="M76.785 8.27237C76.785 3.77953 74.558 0.246094 70.4435 0.246094C66.4303 0.246094 64.2034 3.68983 64.2034 8.12027C64.2034 12.5234 66.403 16.0568 70.4435 16.0568C74.324 16.0568 76.785 12.6131 76.785 8.27237ZM68.2945 7.67177C68.2945 5.93625 68.4232 3.15163 70.4668 3.15163C71.3483 3.15163 71.9684 3.53773 72.2804 4.52834C72.6431 5.66715 72.6938 7.10237 72.6938 8.30357C72.6938 10.1288 72.5924 13.124 70.4435 13.124C68.2935 13.124 68.2942 9.50031 68.2945 7.73565C68.2945 7.71407 68.2945 7.69278 68.2945 7.67177Z" fill="#221F1F"/>
<path d="M82.1205 15.7604H79.359C79.0822 15.7409 78.8595 15.5186 78.8595 15.2456L78.8557 1.0105C78.879 0.749199 79.1092 0.546397 79.3905 0.546397H81.96C82.2022 0.55809 82.401 0.7219 82.4557 0.944203V3.12043H82.506C83.2822 1.1743 84.3705 0.246094 86.2852 0.246094C87.5295 0.246094 88.7422 0.694599 89.5222 1.92311C90.2482 3.06193 90.2482 4.97685 90.2482 6.35356V15.3119C90.2167 15.5615 89.9865 15.7604 89.7135 15.7604H86.9325C86.679 15.7409 86.469 15.5537 86.4412 15.3119V7.58207C86.4412 6.02596 86.6205 3.74833 84.7057 3.74833C84.0315 3.74833 83.4112 4.20074 83.103 4.88715C82.713 5.75686 82.662 6.62266 82.662 7.58207V15.2456C82.6582 15.5303 82.4167 15.7604 82.1205 15.7604Z" fill="#221F1F"/>
<path fill-rule="evenodd" clip-rule="evenodd" d="M47.3162 15.7875C47.5229 15.8967 47.7881 15.885 47.9714 15.7212L47.9792 15.729C48.533 15.2376 49.5392 14.3601 50.1048 13.8882C50.331 13.701 50.2919 13.4007 50.1125 13.1511C50.0582 13.0759 50.0035 13.0022 49.9491 12.9289C49.4963 12.3187 49.0673 11.7405 49.0673 10.581V6.25975C49.0673 6.11213 49.0682 5.96548 49.069 5.81994C49.0785 4.16206 49.0871 2.64804 47.8466 1.48999C46.7819 0.468179 45.0191 0.109375 43.6697 0.109375C41.0332 0.109375 38.0887 1.09219 37.4686 4.35262C37.4062 4.69972 37.6558 4.88303 37.882 4.93373L40.573 5.22233C40.8226 5.21063 41.0059 4.96493 41.0527 4.71532C41.2828 3.59212 42.2266 3.05001 43.2835 3.05001C43.853 3.05001 44.5004 3.26061 44.8397 3.77152C45.1862 4.28249 45.1809 4.96306 45.1762 5.57367C45.1757 5.64349 45.1751 5.7124 45.1751 5.78004V6.13885C44.9155 6.16846 44.643 6.19634 44.3622 6.22507C42.9046 6.3742 41.2229 6.54626 39.9607 7.10215C38.2252 7.85095 37.0045 9.38365 37.0045 11.634C37.0045 14.5161 38.8219 15.9552 41.1541 15.9552C43.1275 15.9552 44.204 15.4911 45.725 13.9389C45.8053 14.0544 45.8769 14.1604 45.9443 14.2602C46.3028 14.7908 46.5415 15.1441 47.3162 15.7875ZM45.1751 8.36185V8.96245C45.1751 9.01191 45.1752 9.06099 45.1752 9.10972C45.1764 10.1254 45.1774 10.9876 44.6564 11.9031C44.2157 12.6831 43.5176 13.1628 42.7375 13.1628C41.6728 13.1628 41.0527 12.3516 41.0527 11.1543C41.0527 8.79085 43.1704 8.36185 45.1751 8.36185Z" fill="#221F1F"/>
<path fill-rule="evenodd" clip-rule="evenodd" d="M10.964 15.7875C11.1706 15.8967 11.4359 15.885 11.6192 15.7212L11.6269 15.729C12.1807 15.2376 13.1869 14.3601 13.7524 13.8882C13.9786 13.701 13.9397 13.4007 13.7603 13.1511C13.7059 13.0759 13.6512 13.0022 13.5968 12.9289C13.1441 12.3187 12.715 11.7405 12.715 10.581V6.25975C12.715 6.11213 12.7159 5.96548 12.7167 5.81994C12.7262 4.16206 12.7348 2.64804 11.4944 1.48999C10.4297 0.468179 8.66677 0.109375 7.3174 0.109375C4.68097 0.109375 1.73643 1.09219 1.11632 4.35262C1.05392 4.69972 1.30353 4.88303 1.52973 4.93373L4.22076 5.22233C4.47036 5.21063 4.65367 4.96493 4.70047 4.71532C4.93057 3.59212 5.87438 3.05001 6.93129 3.05001C7.50068 3.05001 8.14807 3.26061 8.48737 3.77152C8.83385 4.28249 8.82858 4.96306 8.82385 5.57367C8.82331 5.64349 8.82277 5.7124 8.82277 5.78004V6.13885C8.56317 6.16846 8.29064 6.19635 8.00978 6.22508C6.5523 6.37421 4.87064 6.54627 3.60845 7.10215C1.87294 7.85095 0.652222 9.38365 0.652222 11.634C0.652222 14.5161 2.46964 15.9552 4.80187 15.9552C6.77529 15.9552 7.85168 15.4911 9.37275 13.9389C9.453 14.0544 9.52466 14.1604 9.59207 14.2602C9.95056 14.7908 10.1892 15.1441 10.964 15.7875ZM8.82277 8.36185V8.96245C8.82277 9.01191 8.82283 9.061 8.82289 9.10972C8.82407 10.1254 8.82508 10.9877 8.30408 11.9031C7.86338 12.6831 7.16529 13.1628 6.38528 13.1628C5.32057 13.1628 4.70047 12.3516 4.70047 11.1543C4.70047 8.79085 6.81819 8.36185 8.82277 8.36185Z" fill="#221F1F"/>
</svg>
