<svg width="121" height="24" viewBox="0 0 121 24" fill="none" xmlns="http://www.w3.org/2000/svg">
<path d="M9.7968 4.12359C8.38245 4.12359 7.97355 4.75089 7.97355 6.13444V8.42964H11.746L11.368 12.1376H7.97505V23.3908H3.44768V12.1376H0.397705V8.42964H3.44768V6.19746C3.44768 2.45717 4.95581 0.481503 9.16365 0.481503C10.0454 0.479451 10.9265 0.531774 11.8018 0.638325V4.12799L9.7968 4.12359Z" fill="#1877F2"/>
<path fill-rule="evenodd" clip-rule="evenodd" d="M18.189 8.10986C14.0398 8.10986 12.0597 11.2581 12.0597 15.438V16.3775C12.0597 20.5619 14.0398 23.7057 18.189 23.7057C20.4519 23.7057 21.8662 22.5742 22.495 21.1276V23.3906H26.8318V8.42944H22.495V10.7187C21.834 9.27364 20.4519 8.10986 18.189 8.10986ZM19.508 20.153C17.4019 20.153 16.5856 18.6756 16.5856 16.4449V15.3824C16.5856 13.1517 17.4019 11.6743 19.508 11.6743C21.3635 11.6743 22.306 13.0256 22.306 15.1625V16.6648C22.306 18.8016 21.3635 20.153 19.508 20.153Z" fill="#1877F2"/>
<path d="M36.2617 8.11426C38.0204 8.11426 39.6868 8.49241 40.5985 9.11971L39.593 12.3265C38.65 11.8774 37.6197 11.6411 36.5753 11.6347C34.1233 11.6347 33.0578 13.049 33.0578 15.4703V16.3496C33.0578 18.7709 34.1263 20.1852 36.5753 20.1852C37.6197 20.1786 38.65 19.9425 39.593 19.4934L40.5985 22.6988C39.6868 23.3275 38.0219 23.7056 36.2617 23.7056C30.9487 23.7056 28.529 20.8448 28.529 16.2558V15.5641C28.529 10.9752 30.9487 8.11426 36.2617 8.11426Z" fill="#1877F2"/>
<path fill-rule="evenodd" clip-rule="evenodd" d="M41.195 15.1629V16.482C41.195 20.8789 43.3319 23.7369 49.061 23.7384C51.2287 23.7384 53.6807 23.2679 54.8752 22.6377L54.0471 19.5378C52.7266 20.1036 50.9356 20.4495 49.2369 20.4495C46.7263 20.4495 45.8146 19.5378 45.7194 17.4948H55.246V15.1058C55.246 10.9566 53.2029 8.12793 48.551 8.12793C43.6147 8.12793 41.195 10.92 41.195 15.1629ZM51.1906 14.5327H45.7209V14.5269C45.7209 12.516 46.5079 11.2263 48.5524 11.2248C50.5311 11.2248 51.1906 12.5219 51.1906 14.1561V14.5327Z" fill="#1877F2"/>
<path fill-rule="evenodd" clip-rule="evenodd" d="M65.8674 23.7102C70.0122 23.7102 72.0231 20.562 72.0231 16.3821L72.0245 15.4411C72.0245 11.2568 70.0181 8.113 65.8689 8.113C63.7627 8.113 62.3162 9.18288 61.6567 10.502V0.506348L57.1308 0.916721V23.3951H61.4046V21.1322C62.0333 22.5788 63.6045 23.7102 65.8674 23.7102ZM64.5117 11.6671C66.6808 11.6671 67.4972 13.2383 67.4972 15.3444V16.4759C67.4972 18.582 66.6808 20.1531 64.5117 20.1531C62.6562 20.1531 61.6508 18.8326 61.6508 16.6957V15.1245C61.6508 12.9862 62.6562 11.6671 64.5117 11.6671Z" fill="#1877F2"/>
<path fill-rule="evenodd" clip-rule="evenodd" d="M73.537 15.5333V16.2866C73.537 20.5926 75.9907 23.7056 80.988 23.7056C85.986 23.7056 88.4385 20.5926 88.4385 16.2866V15.5333C88.4385 11.2258 85.9845 8.11426 80.9865 8.11426C75.9892 8.11426 73.537 11.2258 73.537 15.5333ZM80.9798 11.6669C83.0933 11.6669 83.9108 13.2381 83.9108 15.2182V16.6017C83.9108 18.5818 83.0858 20.153 80.9798 20.153C78.8738 20.153 78.0555 18.5818 78.0555 16.6017V15.2182C78.0555 13.2381 78.8663 11.6669 80.9798 11.6669Z" fill="#1877F2"/>
<path fill-rule="evenodd" clip-rule="evenodd" d="M89.943 15.5333V16.2866C89.943 20.5926 92.3955 23.7056 97.3935 23.7056C102.391 23.7056 104.843 20.5926 104.843 16.2866V15.5333C104.843 11.2258 102.391 8.11426 97.3935 8.11426C92.3955 8.11426 89.943 11.2258 89.943 15.5333ZM97.3935 11.6669C99.4995 11.6669 100.317 13.2381 100.317 15.2182V16.6017C100.317 18.5818 99.4995 20.153 97.3935 20.153C95.2868 20.153 94.4708 18.5818 94.4708 16.6017V15.2182C94.4708 13.2381 95.2868 11.6669 97.3935 11.6669Z" fill="#1877F2"/>
<path d="M111.066 15.5643L115.529 8.42958H120.338L115.655 15.8163L120.527 23.3907H115.718L111.066 16.0626V23.3907H106.539V0.916721L111.066 0.506348V15.5643Z" fill="#1877F2"/>
</svg>
