<svg width="105" height="27" viewBox="0 0 105 27" fill="none" xmlns="http://www.w3.org/2000/svg">
<path d="M33.6338 20.9787L34.9436 17.9364C36.3591 18.9928 38.2394 19.5421 40.0986 19.5421C41.4718 19.5421 42.338 19.0139 42.338 18.2111C42.3169 15.9716 34.1197 17.7252 34.0563 12.1054C34.0352 9.25334 36.5704 7.05615 40.162 7.05615C42.2958 7.05615 44.4296 7.58432 45.9507 8.78855L44.7253 11.8942C43.331 11.0069 41.5986 10.3731 39.9507 10.3731C38.831 10.3731 38.0915 10.9012 38.0915 11.5773C38.1127 13.7745 46.3732 12.5702 46.4577 17.9364C46.4577 20.8519 43.9859 22.9012 40.4366 22.9012C37.838 22.9012 35.4507 22.2885 33.6338 20.9787Z" fill="black"/>
<path d="M83.8944 16.8378C83.2394 17.9787 82.0141 18.7604 80.5986 18.7604C78.507 18.7604 76.8169 17.0702 76.8169 14.9787C76.8169 12.8871 78.507 11.197 80.5986 11.197C82.0141 11.197 83.2394 11.9787 83.8944 13.1195L87.507 11.1125C86.1549 8.70404 83.5563 7.05615 80.5986 7.05615C76.2254 7.05615 72.6761 10.6054 72.6761 14.9787C72.6761 19.3519 76.2254 22.9012 80.5986 22.9012C83.5775 22.9012 86.1549 21.2745 87.507 18.8449L83.8944 16.8378Z" fill="black"/>
<path d="M48.2747 0.48584H52.7958V22.6056H48.2747V0.48584Z" fill="black"/>
<path d="M89.2817 0.48584V22.6056H93.8028V15.9718L99.169 22.6056H104.958L98.1338 14.7253L104.451 7.37316H98.9155L93.8028 13.4788V0.48584H89.2817Z" fill="black"/>
<path fill-rule="evenodd" clip-rule="evenodd" d="M66.2324 9.16883V7.37305H70.7535V22.5843H66.2324V20.7885C65.493 22.035 63.6549 22.9012 61.7324 22.9012C57.7606 22.9012 54.6338 19.3519 54.6338 14.9576C54.6338 10.5632 57.7606 7.05615 61.7324 7.05615C63.6549 7.05615 65.493 7.92235 66.2324 9.16883ZM62.7042 18.7604C64.2253 18.7604 65.5775 17.9576 66.2324 16.8801V13.1407C65.5775 12.0421 64.2253 11.197 62.7042 11.197C60.6127 11.197 58.9225 12.8871 58.9225 14.9787C58.9225 17.0702 60.6127 18.7604 62.7042 18.7604Z" fill="black"/>
<path d="M5.68309 16.859C5.68309 18.4013 4.43661 19.6478 2.89435 19.6478C1.3521 19.6478 0.105621 18.4013 0.105621 16.859C0.105621 15.3168 1.3521 14.0703 2.89435 14.0703H5.68309V16.859Z" fill="#E01E5A"/>
<path d="M7.07745 16.859C7.07745 15.3168 8.32393 14.0703 9.86619 14.0703C11.4084 14.0703 12.6549 15.3168 12.6549 16.859V23.8309C12.6549 25.3731 11.4084 26.6196 9.86619 26.6196C8.32393 26.6196 7.07745 25.3731 7.07745 23.8309V16.859Z" fill="#E01E5A"/>
<path d="M9.86619 5.66194C8.32393 5.66194 7.07745 4.41546 7.07745 2.8732C7.07745 1.33095 8.32393 0.0844727 9.86619 0.0844727C11.4084 0.0844727 12.6549 1.33095 12.6549 2.8732V5.66194H9.86619Z" fill="#36C5F0"/>
<path d="M9.86619 7.07764C11.4084 7.07764 12.6549 8.32412 12.6549 9.86637C12.6549 11.4086 11.4084 12.6551 9.86619 12.6551H2.87324C1.33098 12.6551 0.0845032 11.4086 0.0845032 9.86637C0.0845032 8.32412 1.33098 7.07764 2.87324 7.07764H9.86619Z" fill="#36C5F0"/>
<path d="M21.0422 9.86637C21.0422 8.32412 22.2887 7.07764 23.831 7.07764C25.3732 7.07764 26.6197 8.32412 26.6197 9.86637C26.6197 11.4086 25.3732 12.6551 23.831 12.6551H21.0422V9.86637Z" fill="#2EB67D"/>
<path d="M19.6479 9.86616C19.6479 11.4084 18.4014 12.6549 16.8591 12.6549C15.3169 12.6549 14.0704 11.4084 14.0704 9.86616V2.8732C14.0704 1.33095 15.3169 0.0844727 16.8591 0.0844727C18.4014 0.0844727 19.6479 1.33095 19.6479 2.8732V9.86616Z" fill="#2EB67D"/>
<path d="M16.8592 21.042C18.4014 21.042 19.6479 22.2885 19.6479 23.8307C19.6479 25.373 18.4014 26.6195 16.8592 26.6195C15.3169 26.6195 14.0704 25.373 14.0704 23.8307V21.042H16.8592Z" fill="#ECB22E"/>
<path d="M16.8592 19.6478C15.3169 19.6478 14.0704 18.4013 14.0704 16.859C14.0704 15.3168 15.3169 14.0703 16.8592 14.0703H23.8521C25.3944 14.0703 26.6409 15.3168 26.6409 16.859C26.6409 18.4013 25.3944 19.6478 23.8521 19.6478H16.8592Z" fill="#ECB22E"/>
</svg>
