<svg width="60" height="49" viewBox="0 0 60 49" fill="none" xmlns="http://www.w3.org/2000/svg">
<path d="M53.6721 12.216C53.7085 12.7431 53.7085 13.2702 53.7085 13.8022C53.7085 30.0119 41.3684 48.7067 18.8041 48.7067V48.697C12.1385 48.7067 5.61134 46.7974 0 43.1974C0.969231 43.314 1.94332 43.3723 2.91984 43.3747C8.44372 43.3795 13.8097 41.5261 18.1555 38.1131C12.9061 38.0135 8.30283 34.5909 6.69474 29.5941C8.5336 29.9488 10.4283 29.8759 12.2332 29.3828C6.51012 28.2265 2.39271 23.1982 2.39271 17.3585C2.39271 17.305 2.39271 17.254 2.39271 17.203C4.09798 18.1528 6.00729 18.6799 7.96032 18.7382C2.57004 15.1358 0.908502 7.96497 4.16356 2.35849C10.3919 10.0225 19.5814 14.6816 29.4462 15.1747C28.4575 10.914 29.8081 6.44918 32.9951 3.45404C37.936 -1.1905 45.7069 -0.952441 50.3514 3.98602C53.0988 3.44432 55.732 2.43622 58.1417 1.00788C57.2259 3.84756 55.3093 6.2597 52.749 7.7925C55.1806 7.50586 57.5563 6.85485 59.7935 5.86132C58.1466 8.32934 56.0721 10.4791 53.6721 12.216Z" fill="#1D9BF0"/>
</svg>
