<svg width="75" height="26" viewBox="0 0 75 26" fill="none" xmlns="http://www.w3.org/2000/svg">
<path fill-rule="evenodd" clip-rule="evenodd" d="M22.9061 0.0440901H22.9048L22.9061 0.0415039V0.0440901ZM22.9061 0.0440901H26.5578V9.28461C28.2773 7.51885 30.6388 6.52514 33.1035 6.5303C35.6767 6.51298 38.1498 7.52656 39.9707 9.34481C41.7916 11.1631 42.8088 13.6346 42.7953 16.2079C42.7953 21.5355 38.528 25.848 33.1035 25.848C30.6268 25.8544 28.2524 24.8613 26.5177 23.0937V25.4122H22.9009L22.9061 0.0440901ZM16.2854 15.701C16.2854 19.7238 13.5737 22.4432 10.0655 22.4432H10.0642C6.51985 22.4432 3.84312 19.7962 3.84312 15.701V0.0466763H0.0465698V15.9208C0.0465698 21.8988 4.20648 25.8493 9.63105 25.8493C12.2716 25.8493 14.6224 24.8355 16.3216 23.0587V25.4148H20.0832V0.042797H16.2854V15.701ZM32.85 22.6243C36.3233 22.6243 39.1798 19.76 39.1798 16.2092C39.1798 12.6208 36.322 9.7928 32.85 9.7928C29.3418 9.7928 26.4854 12.6208 26.4854 16.2092C26.4854 19.76 29.3056 22.6243 32.85 22.6243ZM62.9418 16.173C62.9418 10.6631 59.0341 6.5678 53.7194 6.5678C48.3298 6.5678 44.2436 10.9527 44.2436 16.173C44.2436 21.6816 48.5108 25.8131 54.0453 25.8131C57.4086 25.8131 60.1565 24.3273 62.0017 21.8626L59.3612 19.9062C57.9879 21.754 56.1802 22.6243 54.0453 22.6243C50.9367 22.6243 48.441 20.3768 47.9341 17.3691H62.9418V16.173ZM48.0052 14.4687H59.2539C58.6384 11.6419 56.3599 9.75659 53.647 9.75659C50.9354 9.75659 48.6556 11.6419 48.0052 14.4687ZM68.6198 14.9044C68.6198 12.0415 70.3552 10.1924 72.7423 10.1924L72.741 10.1937L74.2617 10.195V6.78762H72.997C70.9707 6.78762 69.4888 7.7303 68.5836 9.21607V6.93116H64.9655V25.4148H68.6198V14.9044Z" fill="black"/>
</svg>
