<svg width="64" height="64" viewBox="0 0 64 64" fill="none" xmlns="http://www.w3.org/2000/svg">
<rect opacity="0.1" width="64" height="64" rx="12" fill="#B13ED6"/>
<g clip-path="url(#clip0_0_3611)">
<path d="M47.3157 18.5078C46.9886 16.8682 45.3538 15.7432 43.6458 16.0576C42.0569 16.3525 40.9896 17.79 41.1087 19.4785C41.1282 19.7568 41.1546 20.0713 41.1868 20.4414C41.51 24.0674 41.2591 26.9248 40.805 29.0967C40.6331 28.8418 40.429 28.6123 40.1966 28.4131C39.4974 27.8213 38.6204 27.5586 37.6644 27.6543C36.6195 27.7559 35.724 28.3105 35.139 29.2178C34.8665 29.6436 34.7396 30.1055 34.6234 30.5283C34.6117 30.5713 34.5892 30.6699 34.5834 30.6992C34.5776 30.7285 33.9672 33.6318 31.0609 37.2158L30.6722 37.7324C29.8236 38.8564 29.0218 39.9179 28.5677 41.4062C28.3529 42.1884 28.2562 43.122 28.2718 44.2617C28.2777 44.6689 28.1204 45.0547 27.8265 45.3496C27.5286 45.6504 27.1312 45.8164 26.7083 45.8164C26.0257 45.8164 25.4173 45.3613 25.2288 44.7119C24.6595 42.7226 23.4544 40.8291 22.1741 38.8164C20.9563 36.8984 19.6966 34.916 19.0882 32.9238C17.4681 27.6064 17.9525 22.3613 18.6439 18.8994C18.765 18.2998 19.3578 17.9043 19.9662 18.0205C20.558 18.1299 20.9398 18.6728 20.8959 19.333L20.8852 19.4766C20.8706 19.712 20.853 19.9756 20.8198 20.2676C19.6557 30.2129 23.393 35.2822 23.8501 35.8643C24.0044 36.1055 24.2524 36.2676 24.5298 36.3135L24.5288 36.3155C24.6059 36.3341 24.7544 36.3604 24.8335 36.3604C25.2378 36.3604 25.603 36.1172 25.7573 35.7432C25.7856 35.6748 25.8061 35.6045 25.8178 35.5342L25.8393 35.4375C25.895 35.1807 25.8471 34.9121 25.7075 34.6904C24.6167 32.9658 24.5063 31.789 24.5366 31.2402C24.5678 30.6826 24.7671 30.2197 25.0962 29.9384C25.3716 29.7021 25.7153 29.6044 26.1392 29.6445C26.5708 29.6865 26.9292 29.9111 27.1744 30.2959C27.2867 30.4697 27.3639 30.752 27.4459 31.0537L27.5094 31.2842C27.7321 32.0625 28.026 32.8887 28.36 33.6729C28.5768 34.1817 29.1647 34.419 29.6715 34.2012C30.1793 33.9854 30.4166 33.3975 30.1998 32.8897C29.898 32.1807 29.6324 31.4356 29.4352 30.7432L29.3747 30.5235C29.2624 30.1133 29.1354 29.6495 28.8601 29.2178C28.279 28.3106 27.3816 27.7549 26.3357 27.6543C25.3845 27.5576 24.4822 27.8301 23.7966 28.4189C23.5359 28.6406 23.3122 28.9023 23.1286 29.1962C22.6403 26.9999 22.3835 24.1161 22.8063 20.498C22.8454 20.165 22.8649 19.8681 22.8805 19.6132L22.8912 19.4745C23.0045 17.789 21.9283 16.3505 20.3346 16.0546C18.6559 15.7353 17.0192 16.8368 16.6832 18.5058C15.9466 22.1953 15.4339 27.792 17.1751 33.5068C17.8626 35.7597 19.1966 37.8584 20.4915 39.8974C21.6868 41.7763 22.8157 43.5517 23.3069 45.2646C23.7415 46.7675 25.1399 47.8164 26.7083 47.8164C27.6692 47.8164 28.5716 47.4394 29.2464 46.7588C29.9212 46.0801 30.2855 45.1836 30.2718 44.2334C30.2581 43.2988 30.3343 42.5254 30.4876 41.9629C30.8304 40.8408 31.4964 39.959 32.2679 38.9385L32.64 38.4414C35.8265 34.5137 36.516 31.2334 36.556 31.0439C36.641 30.7343 36.7152 30.4668 36.8226 30.2978C37.0706 29.9121 37.429 29.6865 37.8597 29.6445C38.2679 29.6045 38.6243 29.7021 38.8997 29.9355C39.2308 30.2187 39.4309 30.6826 39.4622 31.2412C39.4925 31.79 39.3811 32.9678 38.2933 34.6855C38.138 34.9277 38.0863 35.2304 38.1507 35.5175C38.2103 35.7831 38.4153 36.0751 38.6478 36.2157C39.1458 36.5184 39.8167 36.3671 40.1751 35.829C40.5784 35.3134 44.0921 30.5028 43.179 20.2665C43.1487 19.911 43.1224 19.6063 43.1028 19.3368C43.0569 18.6718 43.4299 18.1317 44.012 18.0243C44.6399 17.9003 45.2356 18.3095 45.3548 18.9003C46.0462 22.3632 46.5306 27.6083 44.9095 32.9237C44.3021 34.9208 43.0462 36.912 41.8314 38.8378C40.0873 41.6064 38.4398 44.2216 38.4398 46.9999C38.4398 47.5526 38.8871 47.9999 39.4398 47.9999C39.9925 47.9999 40.4398 47.5526 40.4398 46.9999C40.4398 44.7987 41.9378 42.4218 43.5228 39.9042C44.808 37.8671 46.1371 35.7606 46.8226 33.5067C48.5648 27.7938 48.052 22.1972 47.3157 18.5078Z" fill="#B13ED6"/>
</g>
<path d="M29.2933 41.1959C29.2861 41.2198 29.299 41.1718 29.2933 41.1959V41.1959Z" fill="#FF5555"/>
<defs>
<clipPath id="clip0_0_3611">
<rect width="31.9987" height="35" fill="white" transform="translate(16 13)"/>
</clipPath>
</defs>
</svg>
