<svg width="64" height="64" viewBox="0 0 64 64" fill="none" xmlns="http://www.w3.org/2000/svg">
<path opacity="0.1" fill-rule="evenodd" clip-rule="evenodd" d="M12 0H52C58.627 0 64 5.373 64 12V52C64 58.627 58.627 64 52 64H12C5.373 64 0 58.627 0 52V12C0 5.373 5.373 0 12 0" fill="#FF5555"/>
<g clip-path="url(#clip0_0_3612)">
<path d="M44.786 25H18.9998C18.4471 25 17.9998 25.4473 17.9998 26V32.5C17.9998 36.4431 19.9964 39.9272 23.0303 42H15.9998C15.6307 42 15.2918 42.2031 15.118 42.5283C14.9442 42.8535 14.9637 43.248 15.1678 43.5547L17.3866 46.8828C18.6884 48.8349 20.8661 50 23.2108 50H35.7889C38.1336 50 40.3114 48.835 41.6131 46.8828L43.8319 43.5547C44.036 43.2481 44.0555 42.8535 43.8817 42.5283C43.7079 42.2031 43.369 42 42.9999 42H35.9694C38.2278 40.457 39.8988 38.1277 40.6117 35.4128L45.7802 34.0488C47.6757 33.5488 48.9999 31.7148 48.9999 29.5888C48.9999 27.0585 47.1093 25 44.786 25ZM41.1317 44L39.9491 45.7734C39.0194 47.1679 37.4637 48 35.7889 48H23.2108C21.536 48 19.9803 47.168 19.0506 45.7734L17.868 44H41.1317ZM38.9999 32.5C38.9999 37.7383 34.7382 42 29.4999 42C24.2616 42 19.9999 37.7383 19.9999 32.5V27H38.9998L38.9999 32.5ZM45.2704 32.1152L40.9618 33.2523C40.978 33.0024 40.9999 32.7539 40.9999 32.5V27H44.786C46.0067 27 46.9999 28.1611 46.9999 29.5889C46.9999 30.7881 46.2724 31.8505 45.2704 32.1152Z" fill="#FF5555"/>
<path d="M28.2931 21.7069C28.4884 21.9022 28.7442 21.9999 29 21.9999C29.2558 21.9999 29.5118 21.9022 29.7071 21.7069L31.7071 19.7069C32.0977 19.3163 32.0977 18.6835 31.7071 18.2928L30.4141 16.9998L31.7071 15.7068C32.0977 15.3162 32.0977 14.6834 31.7071 14.2927C31.3165 13.902 30.6836 13.9021 30.2929 14.2927L28.293 16.2927C27.9024 16.6833 27.9024 17.3161 28.293 17.7068L29.586 18.9998L28.293 20.2928C27.9024 20.6834 27.9025 21.3162 28.2931 21.7069Z" fill="#FF5555"/>
</g>
<defs>
<clipPath id="clip0_0_3612">
<rect width="33.9998" height="36" fill="white" transform="translate(15 14)"/>
</clipPath>
</defs>
</svg>
