<svg width="64" height="64" viewBox="0 0 64 64" fill="none" xmlns="http://www.w3.org/2000/svg">
<rect width="64" height="64" rx="12" fill="#E9EEF8"/>
<g clip-path="url(#clip0_0_275)">
<path d="M33.4578 24.8516C31.8885 26.4209 31.8885 28.9756 33.4578 30.545C34.243 31.3302 35.2732 31.7227 36.3045 31.7227C37.3358 31.7227 38.366 31.3301 39.1512 30.545C40.7205 28.9757 40.7205 26.421 39.1512 24.8516C37.5809 23.2813 35.0282 23.2813 33.4578 24.8516ZM37.7371 29.1309C36.9461 29.92 35.6629 29.92 34.8719 29.1309C34.0819 28.3409 34.0819 27.0557 34.8719 26.2657C35.2674 25.8712 35.786 25.6729 36.3045 25.6729C36.823 25.6729 37.3416 25.8711 37.7371 26.2657C38.5271 27.0557 38.5271 28.3409 37.7371 29.1309Z" fill="#3D4ED7"/>
<path d="M47.7098 16.293C47.3192 15.9024 46.6864 15.9024 46.2957 16.293L44.6495 17.9391C42.7284 17.13 37.202 15.4004 32.745 19.8584L27.6899 24.9135C24.9295 22.8433 20.9897 23.0551 18.4803 25.5645L16.3406 27.7041C15.95 28.0947 15.95 28.7275 16.3406 29.1182C16.5359 29.3135 16.7918 29.4111 17.0476 29.4111C17.3034 29.4111 17.5593 29.3135 17.7546 29.1182L19.8942 26.9785C21.6227 25.2517 24.2984 25.041 26.2599 26.3433L23.4606 29.1426C22.8942 29.709 22.5817 30.4628 22.5817 31.2636C22.5817 32.0655 22.8942 32.8194 23.4606 33.3848L30.6168 40.542C31.1832 41.1084 31.9371 41.4209 32.7379 41.4209C33.5397 41.4209 34.2936 41.1084 34.859 40.542L37.659 37.742C38.9625 39.7032 38.7518 42.3806 37.024 44.1084L34.8844 46.2481C34.4938 46.6387 34.4938 47.2715 34.8844 47.6622C35.0797 47.8575 35.3356 47.9552 35.5914 47.9552C35.8472 47.9552 36.1031 47.8575 36.2984 47.6622L38.438 45.5226C40.9475 43.014 41.1592 39.0724 39.0886 36.3124L44.143 31.258C48.6017 26.8007 46.8718 21.2752 46.0628 19.3537L47.7094 17.7071C48.1 17.3166 48.1004 16.6837 47.7098 16.293ZM42.7293 29.8438L33.4441 39.128C33.0671 39.5069 32.4099 39.505 32.031 39.128L24.8748 31.9698C24.6853 31.7812 24.5818 31.5312 24.5818 31.2636C24.5818 30.9971 24.6863 30.746 24.8748 30.5567L34.159 21.2724C38.0643 17.3652 42.9324 19.3173 44.116 19.8819C44.6629 21.0498 46.6062 25.9669 42.7293 29.8438Z" fill="#3D4ED7"/>
<path d="M27.0389 42.6816C24.0369 45.6826 19.8075 45.997 18.0037 45.9961C17.99 44.21 18.3064 39.9785 21.3201 36.9639C21.7107 36.5733 21.7107 35.9405 21.3201 35.5498C20.9295 35.1591 20.2967 35.1592 19.906 35.5498C15.3396 40.1162 16.0223 46.7842 16.0535 47.0654C16.1053 47.5302 16.4724 47.8974 16.9373 47.9492C17.0057 47.957 17.449 48.0019 18.1482 48.0019C20.3289 48.0019 24.9939 47.5546 28.4529 44.0957C28.8435 43.7051 28.8435 43.0723 28.4529 42.6816C28.0623 42.2909 27.4296 42.291 27.0389 42.6816Z" fill="#3D4ED7"/>
</g>
<defs>
<clipPath id="clip0_0_275">
<rect width="32.0027" height="32.002" fill="white" transform="translate(16 16)"/>
</clipPath>
</defs>
</svg>
