<svg width="64" height="64" viewBox="0 0 64 64" fill="none" xmlns="http://www.w3.org/2000/svg">
<rect width="64" height="64" rx="12" fill="#F7EBFA"/>
<g clip-path="url(#clip0_15_14730)">
<path d="M41 22H23C19.1406 22 16 25.1406 16 29V39C16 42.8594 19.1406 46 23 46H32C32.5527 46 33 45.5527 33 45C33 44.4473 32.5527 44 32 44H23C20.2432 44 18 41.7568 18 39V29C18 26.2432 20.2432 24 23 24H41C43.7568 24 46 26.2432 46 29V29.999C46 30.5517 46.4473 30.999 47 30.999C47.5527 30.999 48 30.5517 48 29.999V29C48 25.1406 44.8594 22 41 22Z" fill="#B13ED6"/>
<path d="M27 19C27.5527 19 28 18.5527 28 18C28 16.8975 28.8975 16 30 16H34C35.1025 16 36 16.8975 36 18C36 18.5527 36.4473 19 37 19C37.5527 19 38 18.5527 38 18C38 15.7939 36.2061 14 34 14H30C27.7939 14 26 15.7939 26 18C26 18.5527 26.4473 19 27 19Z" fill="#B13ED6"/>
<path d="M32 31.4995C32.8284 31.4995 33.5 30.8279 33.5 29.9995C33.5 29.1711 32.8284 28.4995 32 28.4995C31.1716 28.4995 30.5 29.1711 30.5 29.9995C30.5 30.8279 31.1716 31.4995 32 31.4995Z" fill="#B13ED6"/>
<path d="M47.8701 34.0332C47.5928 33.5527 46.9795 33.3916 46.5039 33.667L44.723 34.6953C44.0178 33.9016 43.0787 33.321 42 33.1011V31.0674C42 30.5147 41.5527 30.0674 41 30.0674C40.4473 30.0674 40 30.5147 40 31.0674V33.1011C38.9214 33.3209 37.9825 33.9015 37.2773 34.695L35.4961 33.667C35.0186 33.3916 34.4063 33.5547 34.1299 34.0332C33.8535 34.5117 34.0176 35.123 34.4961 35.3994L36.2778 36.4276C36.1115 36.925 36 37.4475 36 38C36 38.552 36.1113 39.074 36.2773 39.571L34.4961 40.5996C34.0176 40.876 33.8535 41.4873 34.1299 41.9658C34.3154 42.2871 34.6514 42.4658 34.9971 42.4658C35.167 42.4658 35.3389 42.4228 35.4961 42.332L37.2764 41.3039C37.9817 42.0978 38.9209 42.6789 40 42.8989V44.9316C40 45.4843 40.4473 45.9316 41 45.9316C41.5527 45.9316 42 45.4843 42 44.9316V42.8989C43.0789 42.6789 44.0179 42.0981 44.7231 41.3044L46.5039 42.332C46.6611 42.4228 46.833 42.4658 47.0029 42.4658C47.3486 42.4658 47.6845 42.2861 47.8701 41.9658C48.1465 41.4873 47.9824 40.876 47.5039 40.5996L45.7224 39.5715C45.8885 39.0744 46 38.5522 46 38C46 37.4478 45.8885 36.9254 45.7224 36.4282L47.5039 35.3994C47.9824 35.123 48.1465 34.5117 47.8701 34.0332ZM41 41C39.3457 41 38 39.6543 38 38C38 36.3457 39.3457 35 41 35C42.6543 35 44 36.3457 44 38C44 39.6543 42.6543 41 41 41Z" fill="#B13ED6"/>
<path d="M29 35C26.2432 35 24 32.7568 24 30C24 29.4473 23.5527 29 23 29C22.4473 29 22 29.4473 22 30C22 33.8594 25.1406 37 29 37H31C31.5527 37 32 36.5527 32 36C32 35.4473 31.5527 35 31 35H29Z" fill="#B13ED6"/>
</g>
<defs>
<clipPath id="clip0_15_14730">
<rect width="32.0044" height="32" fill="white" transform="translate(16 14)"/>
</clipPath>
</defs>
</svg>
