<svg width="64" height="64" viewBox="0 0 64 64" fill="none" xmlns="http://www.w3.org/2000/svg">
<path fill-rule="evenodd" clip-rule="evenodd" d="M12 0H52C58.627 0 64 5.373 64 12V52C64 58.627 58.627 64 52 64H12C5.373 64 0 58.627 0 52V12C0 5.373 5.373 0 12 0Z" fill="#FFEDED"/>
<g clip-path="url(#clip0_0_276)">
<path d="M45.9734 36.1782C44.2224 34.4272 41.6648 33.7573 39.2947 34.3882L36.5457 31.6392L35.158 30.2515L39.1255 26.284L42.3201 25.6451C42.5135 25.606 42.6912 25.5113 42.8308 25.3717L47.0212 21.1813C47.2087 20.9938 47.3142 20.7399 47.3142 20.4743C47.3142 20.2087 47.2087 19.9548 47.0212 19.7673L44.2273 16.9743C43.8367 16.5837 43.2039 16.5837 42.8132 16.9743L38.6237 21.1638C38.4841 21.3034 38.3893 21.4812 38.3503 21.6745L37.7114 24.8701L33.7439 28.8376L32.3552 27.4489L29.6072 24.7009C30.2361 22.3318 29.5672 19.7722 27.8162 18.0212C25.9129 16.1177 23.0447 15.4927 20.5125 16.4292C20.1922 16.5474 19.9549 16.8198 19.8826 17.1528C19.8094 17.4858 19.9109 17.8325 20.1521 18.0737L22.5525 20.4741L20.4754 22.5522L18.075 20.1518C17.8348 19.9116 17.4891 19.811 17.1541 19.8823C16.8211 19.9546 16.5486 20.1919 16.4305 20.5112C15.492 23.0434 16.117 25.9106 18.0223 27.8159C19.7733 29.5669 22.3319 30.2358 24.701 29.6059L26.7427 31.6476L17.6727 40.7183C16.9247 41.4663 16.5116 42.4615 16.5116 43.5201C16.5116 44.5777 16.9237 45.5738 17.6727 46.3219C18.4452 47.0944 19.4598 47.4811 20.4745 47.4811C21.4901 47.4811 22.5048 47.0944 23.2772 46.3219L32.347 37.2521L34.3885 39.2936C33.7596 41.6627 34.4285 44.2223 36.1795 45.9733C37.4959 47.2897 39.2733 47.9948 41.0818 47.9948C41.8884 47.9948 42.7019 47.8542 43.4832 47.5651C43.8035 47.4469 44.0408 47.1745 44.1131 46.8415C44.1863 46.5085 44.0848 46.1618 43.8436 45.9206L41.4432 43.5202L43.5203 41.4421L45.9207 43.8425C46.1619 44.0837 46.5096 44.1853 46.8416 44.112C47.1746 44.0397 47.4471 43.8024 47.5652 43.4831C48.5037 40.9509 47.8787 38.0835 45.9734 36.1782ZM40.2517 22.3637L43.5203 19.0951L44.9002 20.474L41.6307 23.7435L39.9071 24.0882L40.2517 22.3637ZM25.8074 27.8842C25.5457 27.516 25.0662 27.3686 24.6433 27.5278C22.8357 28.2007 20.7956 27.7602 19.4363 26.4018C18.4978 25.4623 17.9959 24.1948 17.9998 22.9047L19.7684 24.6733C20.1434 25.0483 20.8075 25.0483 21.1825 24.6733L24.6737 21.1811C25.0643 20.7905 25.0643 20.1577 24.6737 19.767L22.9051 17.9984H22.9168C24.2029 17.9984 25.4666 18.4994 26.4022 19.4349C27.7606 20.7933 28.202 22.8372 27.5292 24.6429C27.3759 25.054 27.5126 25.5081 27.8524 25.7738L30.2342 28.1556L30.103 28.2869L28.1567 30.2333L25.8074 27.8842ZM21.8631 44.9076C21.1209 45.6508 19.8289 45.6488 19.0867 44.9076C18.7156 44.5365 18.5115 44.0433 18.5115 43.5199C18.5115 42.9955 18.7156 42.5033 19.0867 42.1322L28.8617 32.3563L28.864 32.3548L31.6483 29.5698L34.4245 32.346L21.8631 44.9076ZM44.2274 39.3207C43.8524 38.9457 43.1883 38.9457 42.8133 39.3207L39.3221 42.8129C38.9315 43.2035 38.9315 43.8363 39.3221 44.227L41.0907 45.9956H41.079C39.7929 45.9956 38.5292 45.4946 37.5936 44.5591C36.2352 43.2007 35.7938 41.1568 36.4666 39.3511C36.6199 38.94 36.4832 38.4859 36.1434 38.2202L33.7616 35.8384L35.8387 33.7603L38.1883 36.1099C38.451 36.4781 38.9295 36.6255 39.3524 36.4663C41.161 35.7934 43.2001 36.2339 44.5594 37.5923C45.4979 38.5318 45.9998 39.7993 45.9959 41.0894L44.2274 39.3207Z" fill="#FF5555"/>
</g>
<defs>
<clipPath id="clip0_0_276">
<rect width="31.9957" height="31.9947" fill="white" transform="translate(16 16)"/>
</clipPath>
</defs>
</svg>
