<svg width="64" height="64" viewBox="0 0 64 64" fill="none" xmlns="http://www.w3.org/2000/svg">
<path fill-rule="evenodd" clip-rule="evenodd" d="M12 0H52C58.627 0 64 5.373 64 12V52C64 58.627 58.627 64 52 64H12C5.373 64 0 58.627 0 52V12C0 5.373 5.373 0 12 0Z" fill="#F7EBFA"/>
<g clip-path="url(#clip0_0_12116)">
<path d="M23.0003 34C25.2064 34 27.0003 32.2061 27.0003 30C27.0003 27.7939 25.2064 26 23.0003 26C20.7942 26 19.0003 27.7939 19.0003 30C19.0003 32.2061 20.7942 34 23.0003 34ZM23.0003 28C24.1028 28 25.0003 28.8975 25.0003 30C25.0003 31.1025 24.1028 32 23.0003 32C21.8978 32 21.0003 31.1025 21.0003 30C21.0003 28.8975 21.8978 28 23.0003 28Z" fill="#B13ED6"/>
<path d="M27.4602 36.3066C26.9973 35.5009 26.134 35 25.2082 35H20.7922C19.8664 35 19.0031 35.501 18.5402 36.3066L16.1331 40.502C15.8577 40.9815 16.0237 41.5928 16.5022 41.8672C16.9807 42.1397 17.592 41.9756 17.8674 41.4981L20.2746 37.3028C20.382 37.1163 20.5803 37.0001 20.7922 37.0001H25.2082C25.4201 37.0001 25.6184 37.1163 25.7258 37.3028L28.133 41.4981C28.3176 41.8194 28.6545 42.0001 29.0012 42.0001C29.1701 42.0001 29.341 41.9571 29.4983 41.8673C29.9768 41.5929 30.1428 40.9816 29.8674 40.5021L27.4602 36.3066Z" fill="#B13ED6"/>
<path d="M44.0003 27C44.553 27 45.0003 26.5527 45.0003 26V17C45.0003 16.4473 44.553 16 44.0003 16H30.0003C29.4476 16 29.0003 16.4473 29.0003 17V26C29.0003 26.5527 29.4476 27 30.0003 27H32.0003V29C32.0003 29.3789 32.2142 29.7246 32.553 29.8945C32.6946 29.9648 32.8479 30 33.0003 30C33.2122 30 33.4241 29.9326 33.5999 29.7998L37.3333 27H44.0003ZM36.4007 25.2002L34.0003 27V26C34.0003 25.4473 33.553 25 33.0003 25H31.0003V18H43.0003V25H37.0003C36.7835 25 36.5735 25.0703 36.4007 25.2002Z" fill="#B13ED6"/>
<path d="M41.0003 32C38.7942 32 37.0003 33.7939 37.0003 36C37.0003 38.2061 38.7942 40 41.0003 40C43.2064 40 45.0003 38.2061 45.0003 36C45.0003 33.7939 43.2064 32 41.0003 32ZM41.0003 38C39.8978 38 39.0003 37.1025 39.0003 36C39.0003 34.8975 39.8978 34 41.0003 34C42.1028 34 43.0003 34.8975 43.0003 36C43.0003 37.1025 42.1028 38 41.0003 38Z" fill="#B13ED6"/>
<path d="M47.8674 46.502L45.4602 42.3067C44.9973 41.501 44.134 41.0001 43.2082 41.0001H38.7922C37.8664 41.0001 37.0031 41.5011 36.5402 42.3067L34.133 46.502C33.8576 46.9815 34.0236 47.5928 34.5021 47.8672C34.9816 48.1416 35.5919 47.9746 35.8673 47.4981L38.2745 43.3028C38.3819 43.1163 38.5802 43.0001 38.7921 43.0001H43.2081C43.42 43.0001 43.6183 43.1163 43.7257 43.3028L46.1329 47.4981C46.3175 47.8194 46.6544 48.0001 47.0011 48.0001C47.17 48.0001 47.3409 47.9571 47.4982 47.8673C47.9767 47.5929 48.1428 46.9815 47.8674 46.502Z" fill="#B13ED6"/>
</g>
<defs>
<clipPath id="clip0_0_12116">
<rect width="32.0005" height="32" fill="white" transform="translate(16 16)"/>
</clipPath>
</defs>
</svg>
