<svg width="75" height="75" viewBox="0 0 75 75" fill="none" xmlns="http://www.w3.org/2000/svg">
<path fill-rule="evenodd" clip-rule="evenodd" d="M0 37.5C0 16.8225 16.8212 0 37.4993 0C58.1773 0 75 16.8225 75 37.5C75 58.1775 58.1774 75 37.4993 75C16.8212 75 0 58.1775 0 37.5ZM4.9182 37.5C4.9182 55.4655 19.5338 70.0818 37.4993 70.0818C55.4648 70.0818 70.0813 55.4656 70.0813 37.5C70.0813 19.5344 55.465 4.9183 37.4993 4.9183C19.5336 4.9183 4.9182 19.5345 4.9182 37.5Z" fill="#295AC2"/>
<path d="M51.0761 25.2236L31.739 44.5597L23.9223 36.7447C22.9617 35.7852 21.4056 35.7847 20.4451 36.7452C19.4846 37.7057 19.4842 39.2624 20.4451 40.223L30.0007 49.777C30.4809 50.2567 31.11 50.4967 31.739 50.4967C32.368 50.4967 32.9988 50.2567 33.4788 49.7763L33.4839 49.7698L54.5531 28.7008C55.514 27.7408 55.514 26.1834 54.5531 25.2234C53.5927 24.2628 52.0355 24.2628 51.0761 25.2236Z" fill="#295AC2"/>
</svg>
