<svg width="520" height="241" viewBox="0 0 520 241" fill="none" xmlns="http://www.w3.org/2000/svg">
<g clip-path="url(#clip0_17_22490)">
<g clip-path="url(#clip1_17_22490)">
<path d="M368.036 233.745C372.301 226.059 360.937 215.867 363.452 204.047C369.12 179.094 404.471 181.264 412.746 170.723C418.066 163.845 430.025 141.964 444.446 139.591C450.977 138.502 458.028 139.384 464.237 140.555C474.781 142.515 477.944 144.02 484.467 142.657C489.628 141.579 497.258 136.017 504.282 139.87C509.457 142.708 511.3 156.541 518.058 161.861C506.241 167.574 496.948 158.638 491.605 159.933C480.811 162.548 480.057 190.434 460.937 192.015C455.676 192.436 444.205 191.601 440.91 194.298C434.798 199.225 431.746 221.517 425.11 225.798C420.207 229.052 389.319 228.469 377.731 233.141C371.312 235.849 362.197 243.828 368.036 233.745Z" fill="#97A6DE"/>
<path d="M405.352 226.876C405.257 226.876 405.176 226.803 405.168 226.707C405.159 226.604 405.234 226.514 405.337 226.505L407.238 226.342C416.329 225.563 424.18 224.891 426.433 223.396C429.83 221.204 432.323 214.078 434.735 207.187C437.052 200.562 439.241 194.306 442.218 191.906C444.679 189.892 451.548 189.809 457.067 189.742C459.06 189.718 460.943 189.695 462.347 189.583C473.322 188.675 478.165 178.955 482.437 170.378C485.606 164.019 488.342 158.527 492.99 157.504C495.352 156.985 498.066 157.869 501.208 158.894C506.081 160.482 512.13 162.454 519.123 159.564C515.955 156.939 514.131 151.841 512.365 146.908C510.703 142.264 509.133 137.877 506.632 136.287C500.346 132.293 493.65 135.855 489.219 138.212C488.003 138.858 486.954 139.417 486.136 139.696C481.103 141.418 477.2 140.679 468.649 139.059C467.701 138.879 466.696 138.689 465.628 138.49C460.055 137.44 452.777 136.38 445.902 137.527C434.214 139.45 424.01 154.485 417.914 163.468C416.512 165.534 415.301 167.318 414.318 168.589C414.255 168.67 414.139 168.685 414.057 168.622C413.976 168.559 413.961 168.443 414.024 168.362C415 167.099 416.208 165.32 417.606 163.26C423.737 154.227 433.997 139.109 445.841 137.161C452.774 136.004 460.094 137.069 465.697 138.125C466.765 138.324 467.77 138.514 468.719 138.694C477.203 140.301 481.075 141.035 486.015 139.345C486.806 139.075 487.843 138.523 489.044 137.884C493.551 135.486 500.363 131.863 506.831 135.974C509.441 137.632 511.031 142.077 512.715 146.783C514.508 151.792 516.362 156.973 519.597 159.466C519.649 159.507 519.676 159.571 519.667 159.637C519.659 159.702 519.617 159.758 519.557 159.784C512.313 162.904 506.092 160.876 501.093 159.247C498.002 158.24 495.333 157.37 493.07 157.867C488.595 158.852 485.896 164.27 482.77 170.544C478.453 179.208 473.561 189.028 462.377 189.953C460.96 190.067 459.071 190.089 457.071 190.114C451.61 190.18 444.814 190.262 442.453 192.195C439.557 194.529 437.284 201.026 435.085 207.309C432.654 214.26 430.139 221.448 426.636 223.706C424.307 225.253 416.412 225.929 407.27 226.712L405.369 226.875C405.363 226.876 405.358 226.876 405.352 226.876Z" fill="#260500"/>
<path d="M519.508 234.002C480.59 218.824 452.309 206.245 432.208 205.87C420.096 205.644 389.172 215.784 358.445 233.128L361.918 237.165C393.07 221.842 425.328 221.419 434.095 221.372C448.219 221.295 475.34 230.986 519.15 235.486C520.042 235.578 520.344 234.327 519.508 234.002Z" fill="#5475C7"/>
<path d="M427.299 136.021C405.346 151.31 370.703 189.499 358.703 237.519L358.331 237.693L354.302 235.847C360.584 194.685 394.938 149.616 411.82 128.707C425.041 112.332 481.776 102.769 517.907 106.896C481.018 113.599 439.39 127.6 427.299 136.021Z" fill="#FFCD69"/>
<path d="M480.639 117.036C480.558 117.036 480.484 116.983 480.461 116.901C480.432 116.802 480.49 116.699 480.589 116.671C493.405 113.032 506.423 109.953 518.327 107.743C508.899 106.762 497.853 106.663 486.278 107.456C486.179 107.468 486.088 107.386 486.081 107.283C486.073 107.181 486.151 107.092 486.253 107.085C498.37 106.254 509.912 106.401 519.631 107.512C519.723 107.522 519.793 107.598 519.796 107.69C519.799 107.782 519.734 107.863 519.644 107.879C507.416 110.101 493.946 113.265 480.69 117.029C480.673 117.034 480.656 117.036 480.639 117.036Z" fill="#260500"/>
<path d="M432.006 108.941C440.92 108.65 438.406 99.7365 440.294 96.5708C433.656 98.2416 430.513 104.952 432.006 108.941Z" fill="#F0A041"/>
<path d="M444.158 160.876C452.562 163.859 455.564 155.982 456.391 152.386C449.041 150.282 444.224 156.616 444.158 160.876Z" fill="#FFFFFD"/>
<path d="M406.865 195.783C413.792 203.793 421.511 197.421 424.474 194.194C418.12 187.711 409.432 191.424 406.865 195.783Z" fill="#FFFFFD"/>
<path d="M18.2257 95.7371C24.5734 92.3245 35.4466 91.0776 42.9389 93.4039C44.6139 93.943 45.9244 94.5103 47.2718 94.9962C53.2856 97.0398 56.6982 95.6113 66.7544 93.6411C72.6761 92.4649 79.4029 91.5556 85.6442 92.5293C99.4252 94.6482 110.959 115.375 116.077 121.875C124.034 131.835 157.688 117.951 163.233 141.665C165.698 152.901 161.079 174.946 165.192 182.226C170.821 191.773 183.13 196.354 188.735 208.431C192.222 215.886 192.014 227.943 186.759 237.693C186.759 237.693 144.388 216.954 141.37 211.121C138.91 206.366 141.865 188.725 139.622 186.35C138.276 184.926 136.305 183.991 133.604 182.885C122.515 178.548 109.268 177.51 104.569 174.458C98.2103 170.446 100.91 147.473 95.0474 142.839C91.8873 140.303 87.3941 139.93 82.3686 139.581C64.1054 138.262 63.5936 135.718 52.8409 123.438C50.6805 120.957 43.8803 113.271 40.7299 112.368C36.4571 111.084 30.5282 113.532 25.1438 112.247C18.4025 110.592 8.94311 105.661 2.83215 107.684C8.87766 102.951 12.394 98.8799 18.2257 95.7371Z" fill="#97A6DE"/>
<path d="M129.204 123.656C129.199 123.656 129.193 123.656 129.187 123.655C123.555 123.132 120.219 121.866 118.37 119.552C117.423 118.349 116.258 116.662 114.908 114.708C112.105 110.649 108.617 105.599 104.504 101.054C104.435 100.978 104.441 100.86 104.517 100.791C104.593 100.723 104.711 100.729 104.78 100.805C108.909 105.367 112.405 110.429 115.214 114.496C116.56 116.445 117.722 118.129 118.661 119.321C120.441 121.549 123.698 122.772 129.221 123.285C129.323 123.295 129.399 123.385 129.389 123.487C129.38 123.584 129.299 123.656 129.204 123.656Z" fill="#260500"/>
<path d="M104.608 169.043C104.536 169.043 104.468 169.001 104.438 168.931C103.026 165.687 102.408 160.731 101.81 155.938C101.002 149.458 100.167 142.756 97.371 140.546C94.1717 137.978 89.4045 137.647 84.7944 137.327C68.087 136.121 66.1117 133.83 57.798 124.188C56.9804 123.239 56.101 122.22 55.1398 121.122C49.4788 114.619 45.2092 110.708 43.1174 110.108C41.0508 109.487 38.5724 109.755 35.9482 110.039C33.1753 110.339 30.3083 110.65 27.5394 109.989C25.5928 109.511 23.4499 108.771 21.1812 107.988C15.7644 106.118 9.62444 103.999 5.32922 105.422C5.24355 105.451 5.14972 105.413 5.10704 105.333C5.06439 105.253 5.08523 105.155 5.1563 105.099C7.22823 103.477 8.98188 101.95 10.6777 100.475C13.9246 97.6486 16.7287 95.2081 20.5762 93.1347C27.2312 89.5564 38.1491 88.5259 45.4326 90.7876C46.5099 91.1342 47.427 91.4884 48.314 91.8312C48.8154 92.0248 49.2891 92.2079 49.7735 92.3826C54.6759 94.0481 57.7253 93.4051 64.407 91.9953C65.8025 91.701 67.3841 91.3674 69.1574 91.0199C74.5003 89.9586 81.4838 88.8732 88.1115 89.9066C88.2129 89.9225 88.2823 90.0174 88.2665 90.1188C88.2506 90.2204 88.1554 90.2884 88.0542 90.2738C81.4842 89.2483 74.5426 90.3292 69.2293 91.3844C67.4581 91.7315 65.878 92.0649 64.4837 92.3589C57.9388 93.7401 54.6535 94.4332 49.6507 92.7333C49.1591 92.5559 48.6836 92.3724 48.1801 92.1777C47.2981 91.8372 46.386 91.4846 45.3206 91.1419C38.1225 88.9065 27.33 89.9253 20.7523 93.4619C16.9414 95.5156 14.1518 97.9434 10.9216 100.755C9.41964 102.062 7.87246 103.409 6.09749 104.828C10.4325 103.887 16.1868 105.872 21.3024 107.637C23.5629 108.417 25.698 109.154 27.6269 109.628C30.3321 110.274 33.1669 109.967 35.9082 109.67C38.571 109.382 41.0859 109.109 43.2221 109.751C46.1343 110.586 52.1144 117.081 55.4196 120.877C56.3813 121.976 57.2612 122.996 58.0795 123.945C66.3117 133.493 68.2676 135.761 84.8207 136.957C89.4874 137.281 94.3136 137.615 97.6025 140.256C100.517 142.559 101.324 149.036 102.179 155.892C102.774 160.659 103.388 165.588 104.778 168.783C104.819 168.877 104.776 168.987 104.682 169.028C104.658 169.038 104.633 169.043 104.608 169.043Z" fill="#260500"/>
<path d="M144.256 196.018C144.252 196.018 144.248 196.018 144.244 196.017C144.141 196.01 144.064 195.922 144.071 195.82C144.8 184.809 142.559 183.316 135.972 180.618C131.122 178.721 125.924 177.476 121.433 176.459C121.333 176.436 121.271 176.337 121.293 176.237C121.316 176.137 121.414 176.074 121.516 176.096C126.02 177.117 131.234 178.365 136.11 180.273C142.999 183.095 145.164 184.925 144.441 195.844C144.435 195.942 144.353 196.018 144.256 196.018Z" fill="#260500"/>
<path d="M181.01 230.69C180.934 230.69 180.863 230.644 180.835 230.568C178.44 224.008 175.274 221.195 172.213 218.474C169.783 216.313 167.27 214.08 165.227 210.008C163.244 205.854 162.395 199.287 161.495 192.335C160.413 183.967 159.293 175.315 156.067 170.777C152.763 166.13 148.124 164.712 143.214 163.21C138.892 161.888 134.422 160.522 130.764 156.801C129.84 155.861 128.086 153.345 125.864 150.159C121.219 143.496 114.198 133.426 109.283 130.24C105.012 127.472 98.7389 125.073 86.9084 121.687C76.8535 118.13 73.0498 115.863 67.292 112.431C65.0103 111.072 62.4241 109.53 59.0138 107.646C50.7763 102.979 41.341 100.795 30.9627 101.154C21.9031 101.467 12.2015 103.784 2.90669 107.854C2.81213 107.895 2.70321 107.852 2.66198 107.758C2.62075 107.664 2.66365 107.555 2.7576 107.514C12.0951 103.425 21.8438 101.098 30.9499 100.783C41.3961 100.421 50.8989 102.622 59.1952 107.322C62.6091 109.208 65.1981 110.751 67.4822 112.112C73.2208 115.532 77.012 117.792 87.0215 121.333C98.8796 124.727 105.181 127.138 109.485 129.928C114.461 133.154 121.228 142.86 126.169 149.947C128.38 153.118 130.127 155.623 131.029 156.54C134.621 160.194 139.044 161.547 143.322 162.855C148.295 164.375 152.992 165.812 156.369 170.562C159.649 175.175 160.775 183.874 161.863 192.287C162.759 199.21 163.605 205.748 165.561 209.845C167.57 213.849 169.945 215.961 172.46 218.196C175.555 220.947 178.756 223.793 181.184 230.441C181.219 230.537 181.17 230.644 181.073 230.679C181.052 230.687 181.031 230.69 181.01 230.69Z" fill="#FFFFFD"/>
<path d="M162.352 240.341H167.491C150.66 214.506 129.154 191.046 116.29 178.014C100.333 161.848 38.3604 157.645 0 165.957C40.3368 169.194 86.5328 179.736 100.423 187.481C116.475 196.433 139.058 214.738 158.008 239.98L162.352 240.341Z" fill="#FFFFFD"/>
<path d="M165.393 233.506C165.332 233.506 165.273 233.476 165.237 233.421C148.454 207.498 134.037 189.229 123.544 180.588C115.262 173.768 96.9511 168.476 73.3075 166.069C50.6754 163.765 26.6341 164.606 8.65524 168.307C27.3395 169.872 48.1953 173.047 67.5404 177.278C86.3387 181.389 101.044 185.935 107.885 189.75C122.169 197.715 138.379 211.071 152.356 226.393C152.426 226.468 152.42 226.586 152.344 226.655C152.269 226.724 152.151 226.719 152.082 226.643C138.13 211.35 121.955 198.021 107.704 190.074C100.893 186.277 86.2253 181.745 67.461 177.641C47.6923 173.318 26.3469 170.097 7.35697 168.573C7.26518 168.566 7.19256 168.492 7.18645 168.401C7.18034 168.309 7.24241 168.226 7.33252 168.207C25.4731 164.276 50.1507 163.339 73.3451 165.7C97.0598 168.114 115.443 173.436 123.78 180.301C134.302 188.966 148.746 207.264 165.549 233.219C165.605 233.305 165.58 233.42 165.494 233.476C165.463 233.496 165.428 233.506 165.393 233.506Z" fill="#260500"/>
<path d="M167.262 240.341C142.267 218.743 109.805 196.935 89.4556 193.361C73.2585 190.516 35.9521 212.759 14.918 233.966C14.3827 234.506 15.0468 235.376 15.7082 235.001C41.2048 220.539 68.8212 211.663 80.2563 210.193C83.0536 209.834 124.963 221.724 157.715 240.341H167.262Z" fill="#F0A041"/>
<path d="M53.3813 84.9479C54.8433 72.0185 41.4447 73.7642 37.2734 70.3691C38.2828 80.3058 47.306 86.2611 53.3813 84.9479Z" fill="#97A6DE"/>
<path d="M225.36 36.7305C222.81 35.5634 219.951 35.2834 217.061 35.6064C209.459 36.4635 201.664 41.5111 198.877 45.6845C192.878 54.66 195.113 73.7048 184.863 80.2857C174.94 86.6598 164.267 77.4561 156.541 84.248C152.57 87.7365 148.715 111.317 134.05 111.347C121.13 111.377 120.126 101.544 114.304 99.2186C110.091 97.5346 97.6016 102.354 92.8468 92.6636C89.117 85.0534 97.4982 76.6119 98.3294 70.3541C99.2899 63.1013 91.764 50.3445 98.1295 42.562C98.4612 42.1572 98.8039 41.7824 99.2346 41.4379V41.4336C100.957 39.9305 103.001 38.9485 105.335 38.2466C111.881 36.2654 120.031 36.4506 124.161 33.3152C129.971 28.905 125.798 14.2832 139.231 7.4095C139.399 7.32335 139.572 7.23724 139.748 7.15109C139.843 7.108 139.936 7.06925 140.022 7.02188C150.453 2.28864 165.836 10.9583 175.582 8.67569C181.199 7.36211 190.402 -2.83218 199.227 0.764012C210.019 5.15701 211.613 23.5602 221.122 29.6802C222.94 30.8517 225.046 31.5709 227.561 31.6614C232.768 31.8465 228.581 38.2035 225.36 36.7305Z" fill="#EAB97E"/>
<path d="M225.36 36.7305C222.81 35.5633 219.951 35.2834 217.061 35.6064C218.112 33.6037 219.511 31.3297 221.122 29.6802C222.94 30.8516 225.046 31.5709 227.561 31.6613C232.768 31.8465 228.581 38.2034 225.36 36.7305Z" fill="#CF8753"/>
<path d="M171.545 34.3042C169.259 38.8065 169.105 46.8591 162.26 48.2759C154.293 49.9249 151.17 44.1183 142.341 42.043C151.605 43.3145 159.367 43.3331 163.337 41.7519C168.434 39.7217 171.545 34.3042 171.545 34.3042Z" fill="#CF8753"/>
<path d="M204.14 25.5326C193.629 19.4257 179.973 22.3562 173.688 30.7834C180.277 16.84 187.703 17.1478 188.914 16.84C192.157 16.0161 198.222 18.7797 204.14 25.5326Z" fill="#CF8753"/>
<path d="M141.937 42.0592C134.182 41.4618 128.667 44.1181 126.2 49.1338C124.644 52.2974 124.833 62.661 125.286 68.0137C113.09 72.9023 111.152 51.5833 122.637 44.3072C127.067 41.5006 133.943 39.237 141.937 42.0592Z" fill="#CF8753"/>
<path d="M125.033 56.4771C128.468 70.1028 128.165 79.4207 123.068 86.6124C118.975 92.3874 111.087 93.3608 107.744 91.1593C105.789 89.872 104.226 85.9663 108.209 84.3658C114.999 84.8896 121.933 81.2485 123.578 76.0482C126.859 65.6745 124.863 62.9247 125.033 56.4771Z" fill="#CF8753"/>
<path d="M154.367 68.7345C158.875 69.7081 167.067 68.8476 171.664 66.6964C181.103 62.2788 183.082 51.1156 189.953 43.2383C179.165 45.2172 182.919 54.437 175.479 58.3294C167.727 62.3854 153.216 54.7489 147.725 68.3229C147.725 68.3229 149.87 68.4056 154.367 68.7345Z" fill="#CF8753"/>
<path d="M136.06 72.0024C133.028 79.2909 138.771 87.3938 137.855 92.2443C136.993 96.8054 132.184 97.3079 131.574 96.4106C131.395 98.1692 128.344 103.086 124.791 101.902C121.238 100.717 123.849 97.8832 123.849 97.8832C123.849 97.8832 127.753 95.5219 129.323 91.008C130.964 86.2895 131.861 75.9172 136.06 72.0024Z" fill="#CF8753"/>
<path d="M189.835 1.14844C184.127 4.08239 183.579 14.2574 176.042 15.1188C168.505 15.9802 157.448 6.46141 152.949 6.0186C162.529 6.66659 168.451 9.95055 174.804 8.55085C180.661 7.26035 183.956 2.89809 189.835 1.14844Z" fill="#CF8753"/>
<path d="M207.944 38.439C201.489 42.043 197.253 46.0058 194.014 61.2724C184.297 60.5561 188.209 43.5441 207.944 38.439Z" fill="#CF8753"/>
<path d="M173.688 82.558C163.66 81.0776 155.8 78.0279 149.34 84.366C142.88 90.7041 147.397 101.899 144.062 106.746C158.875 110.516 152.554 92.99 156.015 87.5816C158.875 83.1133 163.481 81.875 173.688 82.558Z" fill="#CF8753"/>
<path d="M139.223 7.40967C132.543 11.1351 138.758 26.2047 131.755 33.3154C124.584 40.5939 111.853 36.9848 105.302 38.2467C111.849 36.2656 120.014 36.4507 124.145 33.3154C129.955 28.9052 125.79 14.2834 139.223 7.40967Z" fill="#CF8753"/>
<path d="M98.3294 70.3542C99.2899 63.1014 91.7313 50.3446 98.0968 42.5621C98.4285 42.1572 98.7859 41.7825 99.1693 41.438C95.5213 48.8839 112.947 61.2724 98.3294 70.3542Z" fill="#CF8753"/>
<path d="M164.066 22.1231C156.219 23.1314 153.102 19.2102 148.101 22.1231C144.353 24.3058 144.908 28.5244 143.227 30.4494C149.025 28.005 152.9 32.9066 157.727 31.3801C162.553 29.8536 161.209 23.2995 164.066 22.1231Z" fill="#CF8753"/>
<path d="M134.849 58.5717C139.275 58.0029 141.033 60.2146 143.854 58.5717C145.968 57.3405 145.655 54.9611 146.603 53.8753C143.333 55.2541 141.147 52.4894 138.425 53.3504C135.702 54.2114 136.461 57.9081 134.849 58.5717Z" fill="#CF8753"/>
<path d="M109.905 84.5514C106.762 84.5514 104.132 83.6587 102.897 82.1353C102.832 82.0556 102.844 81.9387 102.924 81.8741C103.004 81.8096 103.121 81.8217 103.185 81.9014C104.479 83.4973 107.44 84.3584 110.917 84.149C114.742 83.9182 119.694 82.2943 122.121 78.4293C125.614 72.8659 125.282 66.7982 124.962 60.9304C124.639 55.0265 124.335 49.4502 128.471 45.7466C134.053 40.7488 140.368 41.5681 147.054 42.4352C152.369 43.1246 157.864 43.8377 163.265 41.5801C168.568 39.3637 171.389 34.4313 174.117 29.6612C177.257 24.1718 180.503 18.4956 187.538 16.947C194.306 15.4576 198.827 19.9699 203.615 24.7474C207.953 29.0754 212.869 33.9809 220.192 35.1445C220.294 35.1606 220.363 35.2558 220.347 35.3571C220.331 35.4585 220.236 35.5282 220.134 35.5114C212.692 34.329 207.73 29.3783 203.353 25.0104C198.434 20.1026 194.186 15.8645 187.618 17.3098C180.744 18.823 177.682 24.1771 174.44 29.8457C171.681 34.6696 168.828 39.6578 163.409 41.923C157.915 44.2187 152.369 43.4993 147.006 42.8037C140.407 41.9477 134.174 41.1388 128.719 46.0234C124.716 49.608 125.002 54.8456 125.333 60.9101C125.641 66.5598 125.991 72.9634 122.436 78.6267C119.934 82.6112 114.857 84.2834 110.939 84.5198C110.589 84.5409 110.244 84.5514 109.905 84.5514Z" fill="#260500"/>
<path d="M116.912 99.5353C116.089 99.5353 115.216 99.4927 114.286 99.4038C114.184 99.394 114.109 99.3031 114.119 99.201C114.128 99.0989 114.217 99.027 114.321 99.0337C127.478 100.292 129.164 92.4139 130.947 84.0734C131.913 79.5512 132.913 74.8751 135.929 71.871C140.378 67.44 146.709 67.9417 153.412 68.4735C159.504 68.9566 165.804 69.4563 171.58 66.5309C177.449 63.5583 180.578 58.0717 183.892 52.263C190.152 41.2891 196.625 29.941 222.604 35.6348C222.704 35.6568 222.767 35.7557 222.745 35.8561C222.724 35.9561 222.624 36.0205 222.524 35.9977C196.813 30.3626 190.408 41.5897 184.215 52.4472C180.873 58.3058 177.716 63.8394 171.748 66.8624C165.878 69.8349 159.526 69.331 153.382 68.844C146.767 68.3198 140.519 67.8238 136.191 72.1341C133.253 75.0604 132.265 79.6819 131.31 84.151C129.691 91.7229 128.019 99.5344 116.912 99.5353Z" fill="#260500"/>
<path d="M166.589 153.913C168.798 158.64 188.445 174.357 188.514 177.15C188.582 179.942 187.884 199.03 185.129 204.781C182.374 210.533 174.484 225.734 187.207 229.518C199.929 233.301 271.449 237.647 271.449 237.647L265.34 221.602C265.34 221.602 266.28 205.948 267.108 195.715C267.935 185.481 277.992 168.521 277.539 162.211C277.382 160.03 277.009 158.341 277.009 158.341C277.009 158.341 290.896 157.936 293.338 156.113C295.779 154.291 292.963 146.621 289.429 136.286C285.895 125.952 277.458 111.647 277.458 111.647C277.458 111.647 266.926 100.959 250.747 93.4623C250.747 93.4623 250.812 91.8407 249.247 90.6807C243.711 86.5773 230.297 84.5402 228.715 85.1271C227.454 86.4478 225.507 88.9848 225.218 89.3446C196.076 99.4041 192.878 103.071 189.837 104.842C181.157 109.897 160.189 140.225 166.589 153.913Z" fill="#EDE5DC"/>
<path d="M269.194 239.803C267.278 236.768 265.318 233.297 263.285 229.228C258.04 233.619 238.045 234.406 219.884 231.442C212.782 230.283 205.934 227.119 199.811 225.041C194.947 223.391 189.29 225.21 186.197 228.305C183.482 231.572 180.743 235.589 178.547 239.803H269.194Z" fill="#E38A37"/>
<path d="M281.474 158.504C279.745 153.318 275.89 147.089 274.135 144.704C274.986 150.775 277.557 160.03 277.557 160.03L281.474 158.504Z" fill="#CFC0C0"/>
<path d="M290.484 155.89C291.082 153.295 289.366 150.386 288.514 149.228C288.927 152.174 288.25 155.841 288.25 155.841L290.484 155.89Z" fill="#CFC0C0"/>
<path d="M203.69 145.864C204.698 155.972 194.167 178.087 184.832 168.434C183.246 166.793 190.437 161.232 190.437 161.232C190.437 161.232 192.159 162.895 192.405 164.507C199.273 160.216 203.69 145.864 203.69 145.864Z" fill="#CFC0C0"/>
<path d="M170.707 145.262C170.587 146.286 167.24 149.864 168.956 152.228C169.587 152.158 170.738 152.197 171.097 152.228C170.493 150.536 170.707 145.262 170.707 145.262Z" fill="#CFC0C0"/>
<path d="M182.951 151.416C181.907 151.52 180.688 154.51 181.071 155.209C181.666 155.487 182.65 155.972 182.65 155.972C182.65 155.972 181.761 153.307 182.951 151.416Z" fill="#CFC0C0"/>
<path d="M219.591 231.533C221.745 232.1 223.448 232.419 224.936 232.311C225.947 230.858 227.702 224.236 227.223 223.062C227.063 224.813 222.383 230.823 219.591 231.533Z" fill="#CFC0C0"/>
<path d="M215.236 230.504C216.261 230.774 217.175 231.336 217.986 231.333C218.467 230.641 219.302 227.489 219.075 226.93C218.999 227.763 216.565 230.166 215.236 230.504Z" fill="#CFC0C0"/>
<path d="M239.742 232.987C240.795 232.866 243.816 233.26 244.571 232.962C245.725 232 244.605 225.118 244.19 224.68C244.058 228.51 243.552 231.94 239.742 232.987Z" fill="#CFC0C0"/>
<path d="M194.625 224.129C193.6 224.399 192.602 224.621 191.79 224.618C190.656 224.618 187.066 220.99 187.445 216.165C188.382 218.158 189.559 222.745 194.625 224.129Z" fill="#CFC0C0"/>
<path d="M250.07 120.584C251.483 124.654 252.207 128.097 252.68 130.863C253.152 133.629 252.825 138.569 253.145 140.404C253.464 142.239 256.766 156.695 255.808 161.562C254.851 166.429 253.465 168.824 253.465 168.824C253.465 168.824 254.012 163.332 254.163 159.737C254.455 152.743 251.07 127.719 250.07 120.584Z" fill="#CFC0C0"/>
<path d="M252.287 175.599C251.971 177.123 252.543 182.509 251.506 186.982C250.717 190.386 246.938 201.254 246.938 201.254L252.287 175.599Z" fill="#CFC0C0"/>
<path d="M294.232 215.399C291.775 210.562 278.071 186.499 272.999 175.931C272.826 175.568 277.08 167.327 277.554 161.973C277.71 160.216 277.149 159.352 277.179 158.628C282.346 156.641 287.798 155.027 293.338 156.114C297.055 166.166 301.154 174.657 303.388 181.611C305.083 186.886 298.778 224.346 294.232 215.399Z" fill="#F28C72"/>
<path d="M277.557 158.814C277.488 158.814 277.422 158.775 277.39 158.708C277.345 158.616 277.384 158.505 277.477 158.46C282.698 155.952 287.875 155.12 293.303 155.921C293.646 155.718 293.873 155.277 293.979 154.611C295.164 147.105 280.657 115.043 276.89 111.282C270.479 104.882 257.646 97.1094 250.581 93.6347C250.536 93.6127 250.502 93.5741 250.487 93.5274C250.151 92.5306 249.426 91.018 249.146 90.8368C249.06 90.7812 249.035 90.6662 249.091 90.5799C249.147 90.4936 249.262 90.4694 249.348 90.5248C249.771 90.7985 250.508 92.4558 250.814 93.3351C257.916 96.8377 270.732 104.61 277.152 111.019C279.096 112.959 283.622 121.741 287.68 131.447C289.935 136.841 295.099 149.901 294.346 154.669C294.216 155.491 293.905 156.033 293.422 156.279C293.387 156.296 293.349 156.302 293.31 156.297C287.936 155.493 282.809 156.31 277.638 158.795C277.611 158.808 277.584 158.814 277.557 158.814Z" fill="#260500"/>
<path d="M225.526 90.981C226.217 93.9069 230.78 108.246 238.145 108.051C245.51 107.855 244.793 98.73 244.793 98.73C244.793 98.73 247.856 107.334 251.18 106.617C254.505 105.9 252.527 99.38 252.098 98.3707C252.5 100.441 252.498 103.064 251.28 103.557C248.753 104.58 244.771 96.992 244.771 96.992C244.771 96.992 243.4 105.62 237.966 106.183C230.943 106.91 225.526 90.981 225.526 90.981Z" fill="#CFC0C0"/>
<path d="M265.34 220.147C265.337 220.147 265.333 220.147 265.33 220.147C265.227 220.141 265.149 220.054 265.154 219.951C265.228 218.593 265.297 217.009 265.37 215.331C265.678 208.275 266.1 198.611 267.465 192.487C268.738 186.773 271.045 180.836 273.08 175.598C275.163 170.234 276.963 165.601 277.354 162.189C277.541 160.564 276.196 154.965 275.009 150.026C273.985 145.765 273.018 141.74 273.045 140.4C273.047 140.299 273.13 140.218 273.231 140.218H273.234C273.337 140.22 273.419 140.305 273.416 140.407C273.391 141.7 274.352 145.702 275.37 149.939C276.622 155.152 277.917 160.541 277.724 162.231C277.327 165.691 275.519 170.345 273.426 175.733C271.396 180.958 269.095 186.881 267.827 192.568C266.469 198.66 266.049 208.305 265.741 215.347C265.668 217.026 265.599 218.612 265.525 219.971C265.52 220.07 265.438 220.147 265.34 220.147Z" fill="#260500"/>
<path d="M241.96 233.507C237.176 233.507 231.842 233.212 226.151 232.603C217.39 231.667 210.983 229.257 205.836 227.32C198.021 224.379 192.858 222.437 186.322 228.442C186.275 228.485 186.208 228.502 186.146 228.484C180.346 226.855 180.433 222.484 181.157 218.858C181.177 218.757 181.276 218.692 181.375 218.712C181.476 218.732 181.541 218.83 181.521 218.931C180.218 225.459 183.283 227.273 186.148 228.098C192.815 222.025 198.054 223.995 205.967 226.972C211.094 228.901 217.476 231.302 226.191 232.234C244.354 234.176 258.865 232.942 263.16 229.089C263.206 229.048 263.323 228.89 263.434 228.296C263.452 228.195 263.549 228.128 263.65 228.147C263.751 228.166 263.818 228.263 263.799 228.364C263.7 228.898 263.576 229.216 263.409 229.366C260.4 232.064 252.529 233.507 241.96 233.507Z" fill="#260500"/>
<path d="M171.097 152.413C171.03 152.413 170.965 152.377 170.932 152.313C169.982 150.478 170.24 145.318 170.923 143.477C170.958 143.381 171.065 143.331 171.161 143.367C171.258 143.403 171.307 143.51 171.271 143.606C170.625 145.349 170.368 150.415 171.262 152.142C171.309 152.233 171.273 152.345 171.182 152.392C171.155 152.406 171.126 152.413 171.097 152.413Z" fill="#260500"/>
<path d="M182.65 156.157C182.566 156.157 182.49 156.1 182.47 156.015C181.837 153.398 182.574 151.772 183.062 150.696C183.12 150.568 183.175 150.446 183.225 150.33C183.266 150.235 183.375 150.191 183.469 150.232C183.564 150.272 183.607 150.382 183.567 150.476C183.516 150.595 183.46 150.719 183.4 150.85C182.906 151.941 182.228 153.435 182.831 155.928C182.855 156.028 182.794 156.128 182.694 156.152C182.679 156.156 182.665 156.157 182.65 156.157Z" fill="#260500"/>
<path d="M288.25 156.026C288.223 156.026 288.197 156.021 288.172 156.01C288.079 155.967 288.038 155.857 288.081 155.763C288.948 153.872 288.538 149.348 288.089 148.582C288.038 148.494 288.067 148.38 288.156 148.328C288.244 148.276 288.358 148.306 288.41 148.394C288.958 149.33 289.299 154 288.419 155.918C288.387 155.986 288.32 156.026 288.25 156.026Z" fill="#260500"/>
<path d="M192.002 224.912C191.982 224.912 191.961 224.908 191.941 224.901C189.308 223.984 188.167 221.318 187.673 219.243C187.649 219.143 187.711 219.043 187.811 219.019C187.911 218.997 188.011 219.057 188.035 219.157C188.507 221.142 189.589 223.688 192.063 224.55C192.16 224.584 192.211 224.69 192.177 224.787C192.151 224.864 192.079 224.912 192.002 224.912Z" fill="#260500"/>
<path d="M215.236 230.69C215.151 230.69 215.075 230.632 215.055 230.546C215.032 230.446 215.094 230.346 215.194 230.323C216.689 229.977 218.159 228.361 219.126 225.999C219.165 225.905 219.273 225.858 219.368 225.898C219.463 225.937 219.509 226.045 219.47 226.14C218.984 227.328 217.602 230.147 215.278 230.685C215.264 230.688 215.25 230.69 215.236 230.69Z" fill="#260500"/>
<path d="M219.298 231.66C219.217 231.66 219.142 231.607 219.119 231.525C219.091 231.426 219.149 231.323 219.248 231.296C221.348 230.708 226.005 226.959 227.416 221.89C227.444 221.791 227.547 221.734 227.645 221.761C227.744 221.788 227.802 221.891 227.774 221.989C226.326 227.191 221.519 231.046 219.348 231.654C219.331 231.658 219.314 231.66 219.298 231.66Z" fill="#260500"/>
<path d="M246.19 206.639C246.186 206.639 246.183 206.639 246.179 206.638C246.076 206.632 245.998 206.544 246.004 206.442C246.177 203.521 247.522 197.329 249.079 190.159C251.153 180.611 253.504 169.789 253.957 162.837C254.618 152.689 249.039 110.409 246.011 99.4536C245.983 99.3546 246.041 99.2523 246.14 99.2249C246.239 99.1978 246.341 99.2556 246.369 99.3543C249.402 110.328 254.99 152.691 254.328 162.861C253.873 169.841 251.519 180.677 249.442 190.238C247.888 197.393 246.546 203.572 246.375 206.464C246.369 206.563 246.288 206.639 246.19 206.639Z" fill="#260500"/>
<path d="M238.341 233.181C238.214 233.181 238.085 233.178 237.955 233.173C237.852 233.168 237.773 233.081 237.777 232.979C237.781 232.876 237.868 232.792 237.971 232.801C239.698 232.874 241.06 232.434 242.017 231.486C244.122 229.403 243.985 225.237 243.894 222.48C243.869 221.721 243.847 221.066 243.873 220.558C243.878 220.456 243.968 220.373 244.068 220.382C244.17 220.387 244.249 220.474 244.244 220.577C244.219 221.069 244.241 221.718 244.265 222.468C244.358 225.29 244.499 229.553 242.279 231.75C241.319 232.701 239.995 233.181 238.341 233.181Z" fill="#260500"/>
<path d="M247.371 124.132C246.985 124.132 246.619 123.821 246.365 123.275C246.022 122.537 245.938 121.471 246.391 120.964C246.575 120.757 246.924 120.554 247.539 120.76C248.555 121.099 248.805 121.977 248.7 122.686C248.595 123.389 248.113 124.112 247.391 124.132C247.384 124.132 247.378 124.132 247.371 124.132ZM247.066 121.047C246.899 121.047 246.766 121.101 246.668 121.211C246.333 121.587 246.415 122.5 246.702 123.118C246.89 123.522 247.139 123.761 247.371 123.761L247.381 123.761C247.83 123.748 248.239 123.263 248.332 122.632C248.372 122.36 248.425 121.448 247.421 121.112C247.29 121.069 247.171 121.047 247.066 121.047Z" fill="#260500"/>
<path d="M245.098 106.386C244.712 106.386 244.347 106.075 244.093 105.528C243.75 104.79 243.666 103.724 244.119 103.217C244.303 103.011 244.652 102.808 245.267 103.013C246.283 103.353 246.532 104.231 246.427 104.939C246.323 105.643 245.84 106.365 245.119 106.385C245.112 106.386 245.105 106.386 245.098 106.386ZM244.793 103.3C244.627 103.3 244.494 103.355 244.396 103.465C244.061 103.84 244.143 104.754 244.43 105.372C244.62 105.781 244.884 106.015 245.108 106.014C245.557 106.001 245.966 105.516 246.06 104.885C246.1 104.614 246.153 103.701 245.149 103.366C245.017 103.322 244.899 103.3 244.793 103.3Z" fill="#260500"/>
<path d="M249.666 142.85C249.28 142.85 248.915 142.538 248.661 141.992C248.318 141.254 248.234 140.188 248.687 139.681C248.871 139.475 249.22 139.272 249.835 139.477C250.85 139.816 251.1 140.694 250.995 141.403C250.891 142.106 250.408 142.829 249.687 142.849C249.68 142.85 249.673 142.85 249.666 142.85ZM249.361 139.764C249.195 139.764 249.062 139.819 248.964 139.929C248.629 140.304 248.711 141.218 248.998 141.836C249.185 142.239 249.435 142.478 249.667 142.478L249.676 142.478C250.125 142.465 250.534 141.98 250.628 141.349C250.668 141.077 250.721 140.165 249.717 139.83C249.585 139.786 249.467 139.764 249.361 139.764Z" fill="#260500"/>
<path d="M251.469 160.721C251.083 160.721 250.717 160.41 250.463 159.863C250.12 159.125 250.036 158.059 250.489 157.552C250.673 157.346 251.022 157.143 251.637 157.349C252.653 157.688 252.903 158.566 252.798 159.275C252.693 159.978 252.211 160.7 251.489 160.72C251.482 160.721 251.475 160.721 251.469 160.721ZM251.164 157.635C250.997 157.635 250.864 157.69 250.766 157.8C250.431 158.175 250.513 159.089 250.8 159.707C250.988 160.11 251.237 160.349 251.469 160.349L251.479 160.349C251.928 160.337 252.337 159.851 252.43 159.22C252.47 158.949 252.524 158.036 251.52 157.701C251.388 157.657 251.269 157.635 251.164 157.635Z" fill="#260500"/>
<path d="M248.823 178.888C248.707 178.888 248.591 178.869 248.475 178.83C248.102 178.702 247.861 178.278 247.814 177.667C247.751 176.856 248.046 175.828 248.648 175.512C248.893 175.383 249.29 175.315 249.794 175.723C250.627 176.396 250.553 177.306 250.207 177.933C249.921 178.45 249.387 178.888 248.823 178.888ZM249.043 175.785C248.965 175.785 248.891 175.804 248.821 175.84C248.375 176.075 248.132 176.959 248.185 177.638C248.219 178.088 248.373 178.402 248.595 178.478C249.02 178.622 249.573 178.312 249.882 177.753C250.014 177.513 250.384 176.677 249.561 176.012C249.374 175.861 249.201 175.785 249.043 175.785Z" fill="#260500"/>
<path d="M245.076 195.314C244.96 195.314 244.844 195.296 244.728 195.256C244.355 195.129 244.114 194.705 244.067 194.094C244.004 193.283 244.299 192.255 244.901 191.938C245.146 191.81 245.543 191.742 246.047 192.15C246.88 192.823 246.807 193.733 246.46 194.36C246.174 194.877 245.64 195.314 245.076 195.314ZM245.296 192.212C245.218 192.212 245.144 192.23 245.074 192.267C244.628 192.501 244.385 193.386 244.438 194.065C244.472 194.515 244.626 194.829 244.848 194.905C245.273 195.049 245.826 194.739 246.135 194.181C246.268 193.94 246.637 193.104 245.814 192.439C245.627 192.288 245.454 192.212 245.296 192.212Z" fill="#260500"/>
<path d="M240.468 225.228C240.353 225.228 240.236 225.21 240.12 225.17C239.748 225.043 239.507 224.619 239.46 224.008C239.397 223.197 239.692 222.169 240.293 221.852C240.538 221.724 240.936 221.656 241.44 222.064C242.273 222.737 242.199 223.647 241.852 224.274C241.567 224.791 241.032 225.228 240.468 225.228ZM240.688 222.126C240.61 222.126 240.536 222.145 240.466 222.181C240.021 222.416 239.778 223.3 239.83 223.979C239.865 224.429 240.018 224.743 240.241 224.819C240.666 224.964 241.219 224.653 241.527 224.095C241.66 223.854 242.029 223.018 241.206 222.353C241.019 222.202 240.846 222.126 240.688 222.126Z" fill="#260500"/>
<path d="M186.763 196.422C186.747 196.422 186.73 196.421 186.714 196.416C186.615 196.389 186.557 196.287 186.583 196.188C188.403 189.516 188.729 177.991 188.111 175.377C188.087 175.278 188.149 175.177 188.249 175.154C188.349 175.129 188.449 175.192 188.473 175.292C189.171 178.245 188.667 189.96 186.942 196.286C186.919 196.368 186.845 196.422 186.763 196.422Z" fill="#260500"/>
<path d="M154.978 208.36C163.069 223.441 215.236 217.624 235.299 214.89C237.277 214.62 237.566 205.213 235.871 204.781C225.875 202.237 189.994 197.823 182.185 195.414C181.479 195.086 190.064 169.211 192.212 163.688C190.57 157.931 168.291 148.807 166.589 153.275C166.072 155.385 149.366 197.901 154.978 208.36Z" fill="#F28C72"/>
<path d="M192.405 164.693C192.374 164.693 192.343 164.686 192.315 164.67C192.26 164.64 192.224 164.583 192.22 164.52C191.95 160.519 179.87 153.787 172.486 152.581C170.286 152.221 167.507 152.173 166.76 153.984C166.736 154.044 166.681 154.087 166.617 154.097C166.553 154.106 166.488 154.083 166.447 154.033C165.211 152.569 164.905 149.888 165.535 146.064C166.6 139.604 170.218 130.742 175.214 122.359C180.705 113.146 186.807 106.214 192.395 102.84C202.467 96.759 222.758 89.9627 225.14 89.1745C225.379 89.0218 226.08 88.0581 226.645 87.2808C227.395 86.2498 228.103 85.2758 228.472 85.0409C228.81 84.8259 229.581 84.731 229.901 84.7187C230.007 84.7118 230.09 84.7946 230.094 84.8971C230.098 84.9997 230.018 85.0859 229.915 85.0899C229.547 85.104 228.896 85.2115 228.672 85.3544C228.362 85.5514 227.61 86.5862 226.946 87.4994C226.115 88.6419 225.591 89.3501 225.308 89.5071C225.298 89.5126 225.287 89.5174 225.276 89.521C222.99 90.2769 202.652 97.0813 192.587 103.158C187.05 106.501 180.994 113.388 175.534 122.549C170.56 130.895 166.959 139.708 165.901 146.125C165.331 149.587 165.557 152.147 166.553 153.563C167.342 152.167 169.403 151.701 172.546 152.214C180.047 153.439 191.771 159.973 192.554 164.21C196.191 162.05 201.344 154.225 204.892 141.3C204.919 141.201 205.022 141.144 205.12 141.17C205.219 141.197 205.278 141.3 205.25 141.399C203.809 146.651 201.82 151.803 199.65 155.905C197.269 160.407 194.794 163.439 192.493 164.671C192.465 164.686 192.435 164.693 192.405 164.693Z" fill="#260500"/>
<path d="M235.871 204.781L254.511 207.52C256.324 207.787 257.915 208.87 258.826 210.46L269.007 227.875C269.317 228.406 269.088 229.088 268.52 229.324C267.432 229.776 266.176 229.416 265.493 228.456L261.196 222.417L253.741 227.519C252.004 228.744 249.659 228.64 248.037 227.268L246.961 226.358C245.938 225.493 246.042 223.887 247.167 223.161L245.805 221.343C241.55 222.304 237.131 220.641 234.564 217.113L230.555 211.603L235.871 204.781Z" fill="#F28C72"/>
<path d="M260.892 222.754C260.835 222.754 260.779 222.728 260.743 222.679C260.682 222.597 260.699 222.48 260.782 222.419C261.428 221.941 261.6 221.063 261.182 220.377L257.808 214.831C257.754 214.744 257.782 214.629 257.87 214.576C257.958 214.522 258.072 214.55 258.125 214.638L261.5 220.184C262.018 221.035 261.804 222.125 261.003 222.718C260.969 222.743 260.931 222.754 260.892 222.754Z" fill="#210602"/>
<path d="M257.791 225.003C257.734 225.003 257.678 224.977 257.641 224.928C257.58 224.845 257.597 224.729 257.68 224.668C258.326 224.19 258.498 223.312 258.081 222.625L254.706 217.08C254.653 216.992 254.681 216.878 254.768 216.825C254.856 216.771 254.97 216.799 255.024 216.887L258.398 222.432C258.916 223.284 258.703 224.374 257.901 224.967C257.868 224.991 257.829 225.003 257.791 225.003Z" fill="#210602"/>
<path d="M254.164 227.455C254.107 227.455 254.051 227.43 254.014 227.38C253.953 227.298 253.971 227.181 254.053 227.12C254.7 226.643 254.872 225.765 254.454 225.078L251.08 219.533C251.026 219.445 251.054 219.33 251.142 219.277C251.229 219.224 251.344 219.252 251.397 219.339L254.771 224.885C255.29 225.737 255.076 226.826 254.274 227.419C254.241 227.444 254.202 227.455 254.164 227.455Z" fill="#210602"/>
<path d="M249.172 226.016C249.115 226.016 249.059 225.991 249.023 225.942L247.019 223.272C246.957 223.191 246.974 223.074 247.056 223.012C247.138 222.951 247.254 222.967 247.316 223.05L249.32 225.719C249.382 225.801 249.365 225.918 249.283 225.979C249.25 226.004 249.21 226.016 249.172 226.016Z" fill="#210602"/>
<path d="M301.348 165.491L269.904 233.1C269.597 233.759 268.934 234.178 268.206 234.171L240.205 233.914C238.817 233.901 237.591 234.821 237.216 236.158C236.664 238.12 238.139 240.066 240.177 240.066H368.697C370.306 240.066 371.792 239.204 372.591 237.806L411.696 169.415C412.415 168.159 411.54 166.59 410.095 166.54L305.572 162.9C303.772 162.837 302.108 163.858 301.348 165.491Z" fill="#454F6E"/>
<path d="M342.938 202.194C342.883 202.194 342.829 202.193 342.774 202.192C340.786 202.159 339.322 201.53 338.757 200.469C338.362 199.727 338.458 198.836 339.026 197.961C340.348 195.924 344.025 194.304 347.287 194.304C347.342 194.304 347.396 194.305 347.451 194.305C349.439 194.339 350.903 194.967 351.468 196.029C351.863 196.771 351.767 197.662 351.199 198.537C349.877 200.574 346.2 202.194 342.938 202.194ZM347.282 195.004C344.233 195.004 340.82 196.482 339.613 198.342C339.313 198.803 339.029 199.49 339.375 200.14C339.81 200.958 341.085 201.464 342.786 201.493C345.874 201.552 349.384 200.048 350.612 198.156C350.911 197.695 351.196 197.008 350.85 196.358C350.414 195.54 349.139 195.034 347.439 195.005C347.387 195.004 347.334 195.004 347.282 195.004Z" fill="#EDE5DC"/>
<path d="M273.977 48.7804C274.04 51.6978 271.936 55.4886 268.51 59.2558C262.276 67.815 247.927 77.4328 235.467 77.2241C229.523 77.1251 217.155 56.0777 218.962 46.1654C219.671 42.2782 222.557 36.2583 226.606 31.9123C229.109 28.4683 232.3 25.4779 235.819 24.289C238.515 23.3792 247.285 21.489 255.74 23.3896H255.743C257.565 23.7989 259.375 24.3829 261.103 25.1937C261.823 25.53 262.527 25.9054 263.212 26.3226C266.857 28.5335 269.986 31.9279 271.918 37.0171C272.04 37.3246 272.155 37.6271 272.259 37.9269C272.705 39.1992 273.005 40.4298 273.232 41.6264C273.664 43.7722 273.922 46.1498 273.977 48.7804Z" fill="#EAB97E"/>
<path d="M272.259 37.9268C269.602 33.6902 266.171 29.6414 256.361 30.6086C241.508 32.073 236.472 53.2359 236.472 53.2359L231.257 48.9837C231.257 48.9837 240.296 27.0395 251.897 25.4073C255.12 24.9538 258.256 24.9538 261.103 25.1936C261.823 25.5299 262.527 25.9054 263.212 26.3225C266.857 28.5334 269.986 31.9278 271.918 37.017C272.04 37.3245 272.155 37.627 272.259 37.9268Z" fill="#CF8753"/>
<path d="M233.992 49.8052C238.395 51.3618 251.995 77.4999 235.467 77.2244C231.752 77.1625 225.528 68.9191 221.823 60.3247C224.883 64.9267 227.644 68.0683 233.992 49.8052Z" fill="#CF8753"/>
<path d="M258.078 29.9321C260.393 34.1606 262.38 40.2478 262.38 41.1933C262.38 42.1388 264.455 40.5166 264.455 40.5166C264.455 40.5166 263.588 35.118 258.078 29.9321Z" fill="#CF8753"/>
<path d="M229.635 37.1709C232.861 41.1934 238.326 47.6438 241.398 48.4983C245.832 49.7315 242.993 52.2712 240.44 50.9149C237.887 49.5586 230.801 40.8847 229.635 37.1709Z" fill="#CF8753"/>
<path d="M264.739 33.0283C266.142 36.5538 266.848 41.5003 266.529 42.3779C266.21 43.2555 268.163 43.6544 268.303 42.8566C268.444 42.0588 269.491 39.316 264.739 33.0283Z" fill="#CF8753"/>
<path d="M263.816 39.3678C263.734 39.3678 263.659 39.3128 263.637 39.2296C262.511 34.9866 259.595 30.9635 255.637 28.1919C255.553 28.1331 255.533 28.0172 255.592 27.9332C255.651 27.849 255.767 27.829 255.85 27.8876C259.879 30.7086 262.848 34.8079 263.996 39.1342C264.022 39.2335 263.963 39.3352 263.864 39.3614C263.848 39.3658 263.832 39.3678 263.816 39.3678Z" fill="#260500"/>
<path d="M268.335 40.7021H268.333C268.231 40.701 268.148 40.617 268.149 40.5144C268.181 37.4964 263.907 31.7424 261.713 30.08C261.631 30.018 261.615 29.9014 261.677 29.8197C261.739 29.738 261.856 29.7218 261.937 29.7838C263.137 30.6926 264.777 32.6001 266.116 34.6436C267.023 36.027 268.54 38.6299 268.521 40.5182C268.52 40.6202 268.437 40.7021 268.335 40.7021Z" fill="#260500"/>
<path d="M238.325 49.1152C238.288 49.1152 238.251 49.104 238.218 49.081C234.753 46.63 228.438 37.197 228.284 33.4643C228.28 33.3618 228.359 33.2753 228.462 33.2711C228.569 33.2685 228.651 33.3467 228.655 33.449C228.802 37.0197 235.105 46.4242 238.433 48.7776C238.517 48.8369 238.536 48.9528 238.477 49.0366C238.441 49.0877 238.384 49.1152 238.325 49.1152Z" fill="#260500"/>
<path d="M244.511 96.3839C240.353 96.8025 229.573 86.5706 229.908 85.465C232.54 76.7789 234.962 66.839 233.92 59.2407C233.078 53.0815 253.451 75.4056 253.451 75.4056C251.575 78.3863 250.362 82.1179 249.685 85.3092H249.679C249.271 87.224 249.06 89.2941 249.022 90.9727C248.425 92.7047 246.129 96.221 244.511 96.3839Z" fill="#F28C72"/>
<path d="M237.698 106.377C233.349 106.377 228.638 100.365 225.043 90.1885C225.008 90.0919 225.059 89.9857 225.156 89.9514C225.253 89.9176 225.359 89.968 225.393 90.0648C229.006 100.29 233.703 106.249 237.95 105.998C240.907 105.825 243.327 102.528 244.59 96.9512C244.607 96.8757 244.669 96.8186 244.746 96.8081C244.824 96.7966 244.898 96.8359 244.935 96.9037C247.927 102.442 250.191 103.854 251.219 103.382C252.506 102.79 252.669 99.2175 250.489 93.5345C250.452 93.4386 250.5 93.3312 250.596 93.2943C250.691 93.2574 250.799 93.3053 250.836 93.4012C252.865 98.6895 253.086 102.933 251.374 103.72C249.827 104.432 247.398 102.114 244.841 97.5067C243.508 102.969 241.019 106.191 237.972 106.369C237.881 106.374 237.789 106.377 237.698 106.377Z" fill="#260500"/>
<path d="M270.978 67.9847C270.347 69.7995 269.593 71.3866 269.063 72.561C268.757 73.2376 268.501 73.7673 268.342 74.1056C265.425 80.1754 258.659 87.0814 250.343 85.4602C235.695 82.6008 232.204 71.1122 236.627 51.8688C240.951 45.7577 256.243 32.9636 271.156 42.7502C274.437 45.6351 274.029 59.2119 270.978 67.9847Z" fill="#F28C72"/>
<path d="M235.326 59.806C231.102 63.0208 228.984 50.277 233.311 49.3241C235.447 48.8537 236.82 52.2852 236.82 52.2852C236.82 52.2852 237.449 56.0124 235.326 59.806Z" fill="#F28C72"/>
<path d="M235.412 57.5319C234.466 58.3739 231.291 55.7709 232.985 54.0684C234.679 52.3658 237 56.119 235.412 57.5319Z" fill="#ED705F"/>
<path d="M235.69 56.0056C235.599 56.0056 235.519 55.9388 235.506 55.846C235.371 54.8984 234.664 54.0208 234.06 53.7199C233.896 53.6383 233.662 53.561 233.484 53.6599C233.394 53.7095 233.281 53.677 233.231 53.5872C233.182 53.4974 233.214 53.3843 233.304 53.3347C233.557 53.1949 233.875 53.2129 234.226 53.3873C234.916 53.731 235.721 54.725 235.874 55.7936C235.889 55.8951 235.818 55.9892 235.716 56.0037C235.708 56.0049 235.699 56.0056 235.69 56.0056Z" fill="#260500"/>
<path d="M249.679 85.3264C249.271 87.356 249.06 89.3027 249.022 90.9813C246.518 90.9813 238.047 82.668 237.373 73.0654C240.003 78.1737 244.63 82.9457 249.679 85.3264Z" fill="#ED705F"/>
<path d="M251.566 62.52C250.716 62.52 249.184 62.0635 247.899 59.2204C247.815 59.0335 247.898 58.8133 248.085 58.7287C248.271 58.6445 248.492 58.7274 248.576 58.9143C249.663 61.3183 250.999 61.9509 251.886 61.7424C252.65 61.5623 253.159 60.7944 253.124 59.8752C253.116 59.67 253.276 59.4974 253.481 59.4895C253.691 59.4856 253.859 59.6416 253.867 59.8466C253.916 61.126 253.171 62.2031 252.056 62.4657C251.943 62.4924 251.775 62.5199 251.566 62.52Z" fill="#260500"/>
<path d="M267.802 64.0627C266.7 64.0627 265.578 63.0783 264.745 61.3533C264.656 61.1685 264.734 60.9463 264.919 60.857C265.104 60.7685 265.326 60.8455 265.415 61.0302C266.312 62.8898 267.339 63.4227 268 63.3015C268.644 63.1836 269.1 62.4742 269.19 61.4503C269.208 61.2458 269.387 61.0954 269.593 61.1126C269.797 61.1306 269.948 61.3108 269.93 61.5153C269.81 62.8871 269.121 63.8517 268.133 64.0325C268.023 64.0527 267.913 64.0627 267.802 64.0627Z" fill="#260500"/>
<path d="M257.451 56.9142C257.331 56.9142 257.212 56.8558 257.141 56.7479C256.006 55.0356 253.74 54.2034 252.818 53.925C252.622 53.8657 252.511 53.6584 252.57 53.462C252.629 53.2654 252.838 53.1545 253.033 53.2137C254.274 53.5883 256.537 54.4923 257.76 56.3374C257.874 56.5084 257.827 56.7389 257.656 56.8524C257.593 56.8942 257.522 56.9142 257.451 56.9142Z" fill="#260500"/>
<path d="M265.22 58.4414C265.131 58.4414 265.043 58.4102 264.972 58.3465C264.819 58.2094 264.806 57.9746 264.943 57.8218C265.714 56.9618 268.388 55.9308 269.677 56.1779C269.879 56.2166 270.011 56.4113 269.972 56.6128C269.933 56.8145 269.739 56.9466 269.537 56.9077C268.516 56.7117 266.117 57.626 265.497 58.3179C265.423 58.3997 265.322 58.4414 265.22 58.4414Z" fill="#260500"/>
<path d="M260.265 71.7852C258.778 71.7852 256.714 70.8284 256.247 70.467C256.166 70.4042 256.152 70.2875 256.214 70.2064C256.277 70.1251 256.394 70.1103 256.475 70.1734C257.066 70.6314 259.755 71.7555 260.932 71.3126C261.228 71.2017 261.4 71.0012 261.459 70.6996C261.478 70.5988 261.576 70.5336 261.677 70.5528C261.777 70.5725 261.843 70.6701 261.823 70.7708C261.74 71.1973 261.477 71.5049 261.063 71.6604C260.831 71.7477 260.559 71.7852 260.265 71.7852Z" fill="#260500"/>
<path d="M259.073 75.3496C256.296 75.4822 253.175 74.412 248.41 71.3691C249.543 74.0148 252.692 77.1685 254.49 77.4077C255.834 77.5865 258.401 76.4706 259.073 75.3496Z" fill="#FFFFFD"/>
<path d="M250.066 65.6129C249.9 67.7739 242.897 68.3357 242.963 64.2265C243.029 60.1172 250.345 61.9869 250.066 65.6129Z" fill="#ED705F"/>
<path d="M270.978 67.9846C270.288 69.7781 269.593 71.3865 269.063 72.5609C267.308 72.446 265.597 71.5588 265.629 69.5164C265.674 66.7974 268.891 66.6953 270.978 67.9846Z" fill="#ED705F"/>
<path d="M269.443 71.9832C269.195 71.9832 268.945 71.9736 268.693 71.9542C264.44 71.6262 261.196 68.5687 261.46 65.1382C261.725 61.7077 265.4 59.1846 269.653 59.5114C271.705 59.6697 273.587 60.4609 274.952 61.7395C276.327 63.0285 277.014 64.6579 276.885 66.3275C276.757 67.9972 275.828 69.5021 274.271 70.5649C272.916 71.49 271.224 71.9832 269.443 71.9832ZM268.91 59.8543C265.172 59.8543 262.065 62.132 261.831 65.1667C261.582 68.3929 264.673 71.2715 268.722 71.5837C270.688 71.736 272.587 71.2646 274.062 70.258C275.524 69.26 276.395 67.854 276.515 66.299C276.635 64.7441 275.99 63.2211 274.698 62.0107C273.395 60.7897 271.593 60.0337 269.624 59.8819C269.384 59.8633 269.145 59.8543 268.91 59.8543Z" fill="#260500"/>
<path d="M251.176 69.7257C250.473 69.7257 249.755 69.6657 249.034 69.5441C244.073 68.7067 240.517 65.1748 241.109 61.6707C241.397 59.9607 242.612 58.5169 244.53 57.6055C246.426 56.7044 248.787 56.4302 251.179 56.8342C256.141 57.6716 259.696 61.2036 259.105 64.7076C258.817 66.4177 257.601 67.8614 255.683 68.7729C254.359 69.4023 252.807 69.7257 251.176 69.7257ZM249.037 57.0239C247.461 57.0239 245.965 57.3351 244.69 57.941C242.885 58.799 241.743 60.1455 241.475 61.7325C240.918 65.0346 244.337 68.3743 249.096 69.1776C251.414 69.5686 253.696 69.3056 255.524 68.4372C257.329 67.5794 258.471 66.2329 258.739 64.6458C259.296 61.3438 255.877 58.0039 251.117 57.2007C250.417 57.0824 249.719 57.0239 249.037 57.0239Z" fill="#260500"/>
<path d="M243.186 58.8421C243.138 58.8421 243.09 58.824 243.054 58.7877L236.689 52.4167C236.616 52.3441 236.616 52.2264 236.689 52.1539C236.761 52.0815 236.879 52.0814 236.951 52.154L243.317 58.525C243.39 58.5976 243.39 58.7153 243.317 58.7878C243.281 58.824 243.233 58.8421 243.186 58.8421Z" fill="#260500"/>
<path d="M261.825 65.1128C261.815 65.1128 261.805 65.1119 261.794 65.1101L258.93 64.6269C258.829 64.6097 258.761 64.5139 258.778 64.4127C258.795 64.3115 258.892 64.2435 258.992 64.2604L261.856 64.7437C261.957 64.7608 262.025 64.8567 262.008 64.9578C261.993 65.0485 261.914 65.1128 261.825 65.1128Z" fill="#260500"/>
<path d="M232.864 47.1884C228.342 46.2943 224.381 48.6265 223.217 54.5119C221.869 61.3313 225.798 64.2529 229.351 64.9554C238.411 66.7467 241.96 48.9869 232.864 47.1884Z" fill="#61342D"/>
<path d="M230.356 65.2681C229.929 65.2681 229.495 65.2248 229.054 65.1377C226.964 64.7244 225.182 63.6596 224.037 62.1394C222.577 60.2003 222.152 57.622 222.774 54.476C223.88 48.8841 227.66 46.022 232.639 47.0062C234.808 47.435 236.431 48.7802 237.334 50.8967C238.128 52.7552 238.307 55.0792 237.84 57.4408C237.373 59.8062 236.32 61.8926 234.875 63.316C233.566 64.6059 232.023 65.2681 230.356 65.2681ZM230.776 47.1888C226.917 47.1888 224.062 49.8774 223.139 54.5481C222.538 57.586 222.94 60.0649 224.334 61.9158C225.423 63.3628 227.125 64.3776 229.126 64.7732C232.316 65.4042 236.292 63.3564 237.476 57.3688C238.656 51.3996 235.759 48.0018 232.567 47.3708C231.95 47.2488 231.352 47.1888 230.776 47.1888Z" fill="#210602"/>
<g style="mix-blend-mode:screen" opacity="0.5">
<path d="M233.993 50.1769C233.89 50.1769 233.788 50.1347 233.715 50.0522C233.664 49.9956 233.613 49.9404 233.561 49.8861C233.418 49.7384 233.423 49.5032 233.57 49.3606C233.718 49.2181 233.953 49.2221 234.096 49.3701C234.155 49.4316 234.213 49.4945 234.27 49.5585C234.406 49.7119 234.393 49.9467 234.239 50.0831C234.168 50.146 234.08 50.1769 233.993 50.1769Z" fill="#EDE5DC"/>
<path d="M235.161 52.6733C234.998 52.6733 234.848 52.5649 234.803 52.3998C234.664 51.8933 234.473 51.4136 234.235 50.974C234.137 50.7936 234.204 50.568 234.385 50.4704C234.565 50.3722 234.791 50.4397 234.888 50.6203C235.153 51.1096 235.366 51.6421 235.519 52.2033C235.574 52.4013 235.457 52.6056 235.259 52.6599C235.227 52.669 235.193 52.6733 235.161 52.6733Z" fill="#EDE5DC"/>
<path d="M234.515 59.2875C234.465 59.2875 234.414 59.2773 234.366 59.256C234.178 59.1734 234.092 58.9542 234.175 58.7663C234.882 57.1562 235.192 55.3841 235.048 53.7763C235.03 53.572 235.18 53.3914 235.385 53.3731C235.589 53.3549 235.77 53.5055 235.788 53.7099C235.943 55.4403 235.612 57.3422 234.855 59.0652C234.794 59.2045 234.658 59.2875 234.515 59.2875Z" fill="#EDE5DC"/>
</g>
<path d="M229.222 48.1051C225.501 47.3694 222.081 50.1036 221.285 54.1301C220.312 59.0512 223.409 62.1441 226.332 62.722C233.785 64.1957 236.705 49.5847 229.222 48.1051Z" fill="#CFC0C0"/>
<path d="M233.096 53.6137C233.003 53.6137 232.922 53.543 232.912 53.4477C232.823 52.6233 232.626 51.8648 232.327 51.1936C232.285 51.0999 232.327 50.99 232.421 50.9482C232.514 50.9066 232.624 50.9483 232.666 51.0422C232.982 51.7488 233.189 52.5449 233.281 53.4079C233.292 53.51 233.219 53.6016 233.117 53.6126C233.11 53.6133 233.103 53.6137 233.096 53.6137Z" fill="#210602"/>
<path d="M226.927 63.0103C226.576 63.0103 226.22 62.9751 225.861 62.904C224.248 62.585 222.753 61.5853 221.761 60.1608C220.946 58.9922 220.096 56.9911 220.669 54.0938C221.066 52.084 222.11 50.3404 223.609 49.1845C225.135 48.0077 226.986 47.5595 228.823 47.9226C230.16 48.187 231.236 48.8614 232.022 49.9274C232.083 50.0101 232.065 50.1264 231.982 50.1872C231.9 50.248 231.783 50.2303 231.723 50.1479C230.994 49.1589 229.994 48.5329 228.751 48.2871C227.021 47.9451 225.276 48.3683 223.836 49.4787C222.408 50.5797 221.413 52.2443 221.033 54.166C220.486 56.9351 221.292 58.8389 222.066 59.9483C223.004 61.2945 224.414 62.2391 225.933 62.5395C227.33 62.8157 228.619 62.5306 229.763 61.692C231.413 60.4832 232.615 58.1436 232.901 55.5861C232.912 55.4841 233.004 55.4118 233.106 55.4221C233.208 55.4334 233.281 55.5253 233.27 55.6273C232.974 58.2849 231.714 60.7235 229.983 61.9917C229.063 62.6658 228.021 63.0103 226.927 63.0103Z" fill="#210602"/>
<path d="M229.34 55.7732C229.896 52.9612 228.763 50.3684 226.809 49.9821C224.855 49.5957 222.82 51.5621 222.264 54.3742C221.708 57.1862 222.842 59.779 224.796 60.1653C226.75 60.5517 228.784 58.5853 229.34 55.7732Z" fill="#61342D"/>
<path d="M221.783 56.5143C221.685 56.5143 221.603 56.4384 221.597 56.3399C221.559 55.7203 221.604 55.0841 221.729 54.4491C221.838 53.8969 222.005 53.3647 222.226 52.8673C222.268 52.7736 222.377 52.7312 222.471 52.7728C222.565 52.8144 222.607 52.9242 222.566 53.018C222.356 53.4901 222.197 53.996 222.094 54.5212C221.974 55.1249 221.932 55.7291 221.968 56.3172C221.975 56.4195 221.897 56.5077 221.794 56.5139C221.79 56.5142 221.787 56.5143 221.783 56.5143Z" fill="#210602"/>
<path d="M224.942 60.5112C224.763 60.5112 224.584 60.4938 224.407 60.4587C223.343 60.2484 222.456 59.4036 221.974 58.1409C221.937 58.045 221.985 57.9377 222.081 57.9011C222.177 57.8643 222.284 57.9124 222.321 58.0083C222.757 59.1489 223.543 59.9093 224.479 60.0942C225.362 60.2689 226.297 59.9321 227.11 59.1462C227.942 58.3427 228.544 57.1715 228.805 55.8482C229.067 54.5251 228.956 53.2129 228.493 52.1535C228.04 51.1171 227.304 50.4502 226.42 50.2755C225.292 50.0526 224.081 50.6721 223.181 51.9335C223.121 52.017 223.005 52.0365 222.922 51.9769C222.838 51.9173 222.819 51.8013 222.878 51.7178C223.865 50.3341 225.216 49.6586 226.492 49.9109C227.499 50.11 228.33 50.8535 228.833 52.0047C229.326 53.1329 229.446 54.5235 229.17 55.9204C228.894 57.3173 228.254 58.5578 227.368 59.4134C226.624 60.1325 225.78 60.5111 224.942 60.5112Z" fill="#210602"/>
<g style="mix-blend-mode:screen" opacity="0.5">
<path d="M231.352 53.1654C231.183 53.1654 231.03 53.0492 230.99 52.8773C230.917 52.5608 230.823 52.2524 230.709 51.9605C230.635 51.7692 230.729 51.5539 230.92 51.4794C231.112 51.4052 231.327 51.4997 231.402 51.6908C231.528 52.0161 231.634 52.359 231.715 52.7103C231.761 52.9101 231.636 53.1096 231.436 53.1558C231.408 53.1623 231.38 53.1654 231.352 53.1654Z" fill="#EDE5DC"/>
<path d="M231.257 57.2561C231.226 57.2561 231.194 57.252 231.162 57.2437C230.964 57.1915 230.845 56.9882 230.898 56.7898C231.11 55.9823 231.204 55.1585 231.178 54.341C231.171 54.1358 231.332 53.9641 231.537 53.9575C231.747 53.947 231.914 54.1116 231.921 54.3168C231.95 55.2063 231.847 56.1019 231.616 56.9789C231.572 57.1457 231.422 57.2561 231.257 57.2561Z" fill="#EDE5DC"/>
</g>
<path d="M273.232 41.6266C272.895 39.9529 272.452 38.4226 271.918 37.0173C272.21 32.8432 271.01 27.4075 263.212 26.3228C262.712 26.2525 262.185 26.2003 261.63 26.1691C245.15 25.2079 235.469 43.8019 233.479 48.0469L231.457 47.4419C232.361 43.7853 238.025 24.0512 255.188 23.1231C276.12 21.9911 273.754 38.1581 273.232 41.6266Z" fill="#61342D"/>
<path d="M273.256 41.428C273.252 41.428 273.249 41.4279 273.244 41.4276C273.142 41.4213 273.064 41.333 273.071 41.2306L273.076 41.1684C273.168 40.1092 273.3 37.326 272.543 34.3646C272.517 34.2652 272.577 34.164 272.677 34.1386C272.775 34.1133 272.877 34.173 272.903 34.2726C273.674 37.2892 273.54 40.1224 273.446 41.2006L273.442 41.2539C273.435 41.3524 273.354 41.428 273.256 41.428Z" fill="#260500"/>
<path d="M272.335 33.2134C272.258 33.2134 272.187 33.1653 272.16 33.0884C271.533 31.2804 270.616 29.7702 269.437 28.5999C269.364 28.5277 269.364 28.4101 269.436 28.3373C269.508 28.2644 269.626 28.2637 269.699 28.3363C270.919 29.5466 271.865 31.1046 272.511 32.9667C272.545 33.0636 272.493 33.1695 272.396 33.2031C272.376 33.2101 272.356 33.2134 272.335 33.2134Z" fill="#260500"/>
<path d="M268.942 28.084C268.9 28.084 268.858 28.0699 268.823 28.0408C268.633 27.8815 268.432 27.7271 268.228 27.5819C268.144 27.5225 268.124 27.4065 268.184 27.3228C268.243 27.2396 268.359 27.2193 268.443 27.279C268.655 27.4298 268.863 27.5902 269.061 27.7558C269.14 27.8216 269.15 27.9388 269.085 28.0174C269.048 28.0614 268.995 28.084 268.942 28.084Z" fill="#260500"/>
<path d="M244.166 32.4617C244.116 32.4617 244.066 32.4413 244.029 32.401C243.96 32.3252 243.965 32.2076 244.041 32.1386C249.332 27.3185 255.237 24.9812 261.583 25.1868C263.498 25.2493 265.218 25.6175 266.695 26.2811C266.788 26.3232 266.83 26.4331 266.788 26.5267C266.746 26.6201 266.636 26.6623 266.543 26.62C265.11 25.9764 263.437 25.6192 261.57 25.5583C255.321 25.3543 249.508 27.6608 244.291 32.4133C244.256 32.4457 244.211 32.4617 244.166 32.4617Z" fill="#260500"/>
<path d="M242.103 34.5044C242.058 34.5044 242.012 34.4879 241.977 34.4545C241.901 34.3845 241.897 34.267 241.967 34.192C242.382 33.7474 242.809 33.3112 243.237 32.8955C243.311 32.8237 243.428 32.8255 243.5 32.8993C243.571 32.9729 243.569 33.0906 243.496 33.162C243.072 33.5734 242.65 34.0052 242.239 34.4453C242.203 34.4846 242.153 34.5044 242.103 34.5044Z" fill="#260500"/>
<path d="M233.434 48.1714C233.411 48.1714 233.388 48.1672 233.365 48.1583C233.27 48.1206 233.223 48.0126 233.261 47.9172C233.827 46.4869 235.993 41.4244 240.108 36.3342C240.173 36.2544 240.29 36.2419 240.37 36.3065C240.45 36.3711 240.462 36.488 240.397 36.5678C236.315 41.617 234.167 46.6359 233.606 48.0538C233.578 48.1268 233.508 48.1714 233.434 48.1714Z" fill="#260500"/>
<path d="M262.022 23.0055C262.01 23.0055 261.997 23.0042 261.984 23.0016C261.52 22.9057 261.045 22.8232 260.573 22.7567C260.472 22.7425 260.401 22.6484 260.415 22.5469C260.429 22.4451 260.523 22.3733 260.625 22.3888C261.105 22.4564 261.587 22.5402 262.06 22.6377C262.16 22.6585 262.225 22.7568 262.204 22.8573C262.186 22.945 262.108 23.0055 262.022 23.0055Z" fill="#260500"/>
<path d="M253.146 22.8821C253.057 22.8821 252.978 22.8177 252.963 22.727C252.946 22.6258 253.014 22.53 253.115 22.513C255.085 22.1825 257.061 22.083 258.985 22.2168C259.088 22.224 259.165 22.3127 259.158 22.4151C259.151 22.5174 259.061 22.5934 258.959 22.5875C257.064 22.4553 255.118 22.5536 253.177 22.8794C253.166 22.8812 253.156 22.8821 253.146 22.8821Z" fill="#260500"/>
<path d="M241.143 28.6544C241.101 28.6544 241.058 28.6399 241.023 28.6103C240.945 28.5439 240.935 28.4267 241.001 28.3485C243.234 25.7173 247.861 23.6892 251.455 22.8466C251.555 22.8235 251.655 22.8852 251.678 22.9851C251.702 23.085 251.64 23.185 251.54 23.2083C246.634 24.3585 242.854 26.7395 241.285 28.5889C241.248 28.6323 241.196 28.6544 241.143 28.6544Z" fill="#260500"/>
<path d="M233.637 48.4769C233.597 48.4769 233.558 48.4646 233.524 48.4388C232.682 47.7947 231.421 47.6364 231.28 47.6205C231.178 47.6088 231.105 47.5169 231.117 47.415C231.128 47.313 231.22 47.2399 231.322 47.2511C231.474 47.2683 232.828 47.4388 233.75 48.1435C233.831 48.206 233.847 48.3226 233.784 48.4041C233.748 48.4519 233.693 48.4769 233.637 48.4769Z" fill="#260500"/>
<path d="M263.014 80.6777C261.731 80.6777 260.365 80.5662 258.932 80.3384C258.831 80.3224 258.762 80.2271 258.778 80.1259C258.794 80.0245 258.89 79.9564 258.99 79.9715C265.578 81.0187 270.709 79.5826 272.719 76.1303C274.258 73.4865 273.693 70.0521 271.209 66.9435C271.145 66.8633 271.158 66.7464 271.238 66.6824C271.318 66.6182 271.434 66.6312 271.499 66.7115C274.083 69.9446 274.659 73.5356 273.04 76.3173C271.394 79.1444 267.773 80.6774 263.014 80.6777Z" fill="#260500"/>
<path d="M257.133 79.4379C256.764 81.1326 260.979 82.2406 261.452 80.6044C261.944 78.9061 257.468 77.9037 257.133 79.4379Z" fill="#61342D"/>
<path d="M335.58 111.799C327.252 111.771 320.478 118.5 320.45 126.828C320.422 135.156 327.151 141.93 335.479 141.958C343.807 141.985 350.581 135.257 350.609 126.929C350.637 118.6 343.908 111.827 335.58 111.799ZM335.509 133.024C332.115 133.012 329.373 130.252 329.384 126.858C329.395 123.464 332.156 120.722 335.55 120.733C338.944 120.744 341.686 123.505 341.675 126.899C341.664 130.293 338.903 133.035 335.509 133.024Z" fill="#F0A041"/>
<path d="M332.3 107.525L338.887 107.547L339.828 116.076L331.303 116.047L332.3 107.525Z" fill="#F0A041"/>
<path d="M319.599 115.515L324.273 110.873L330.969 116.238L324.92 122.246L319.599 115.515Z" fill="#F0A041"/>
<path d="M316.176 130.107L316.198 123.52L324.727 122.579L324.699 131.105L316.176 130.107Z" fill="#F0A041"/>
<path d="M324.166 142.808L319.524 138.135L324.889 131.439L330.898 137.488L324.166 142.808Z" fill="#F0A041"/>
<path d="M338.758 146.231L332.171 146.209L331.231 137.68L339.756 137.709L338.758 146.231Z" fill="#F0A041"/>
<path d="M351.46 138.241L346.786 142.884L340.09 137.518L346.139 131.51L351.46 138.241Z" fill="#F0A041"/>
<path d="M354.883 123.649L354.861 130.236L346.332 131.177L346.36 122.651L354.883 123.649Z" fill="#F0A041"/>
<path d="M346.893 110.948L351.535 115.621L346.169 122.317L340.161 116.269L346.893 110.948Z" fill="#F0A041"/>
<path d="M337.942 146.924H337.941L331.354 146.902C331.259 146.902 331.18 146.831 331.17 146.737L330.659 142.104C329.413 141.762 328.21 141.258 327.08 140.603L323.465 143.461C323.39 143.52 323.284 143.513 323.217 143.446L318.575 138.773C318.509 138.706 318.503 138.599 318.562 138.526L321.443 134.929C320.797 133.795 320.301 132.589 319.966 131.34L315.338 130.799C315.244 130.788 315.173 130.708 315.174 130.613L315.196 124.026C315.196 123.932 315.267 123.853 315.361 123.842L319.993 123.331C320.336 122.084 320.84 120.882 321.494 119.752L318.637 116.137C318.578 116.063 318.584 115.957 318.651 115.89L323.325 111.248C323.392 111.181 323.498 111.176 323.572 111.235L327.168 114.116C328.302 113.47 329.508 112.973 330.757 112.639L331.299 108.01C331.31 107.917 331.389 107.846 331.483 107.846H331.484L338.071 107.868C338.166 107.868 338.245 107.939 338.255 108.033L338.766 112.666C340.012 113.008 341.215 113.512 342.345 114.167L345.96 111.309C346.035 111.251 346.141 111.257 346.208 111.324L350.85 115.997C350.917 116.064 350.922 116.171 350.863 116.244L347.982 119.84C348.628 120.975 349.124 122.181 349.459 123.43L354.087 123.971C354.181 123.982 354.251 124.062 354.251 124.157L354.229 130.744C354.229 130.838 354.158 130.917 354.064 130.928L349.432 131.439C349.09 132.684 348.585 133.887 347.931 135.018L350.788 138.633C350.847 138.707 350.841 138.813 350.773 138.88L346.1 143.522C346.034 143.589 345.927 143.595 345.853 143.535L342.257 140.654C341.123 141.3 339.917 141.797 338.668 142.131L338.126 146.76C338.115 146.853 338.036 146.924 337.942 146.924ZM331.521 146.531L337.777 146.552L338.314 141.962C338.323 141.886 338.377 141.823 338.452 141.804C339.752 141.467 341.007 140.951 342.181 140.269C342.247 140.23 342.33 140.237 342.391 140.285L345.956 143.142L350.394 138.733L347.561 135.149C347.513 135.088 347.508 135.005 347.546 134.939C348.237 133.769 348.762 132.518 349.106 131.22C349.126 131.146 349.189 131.092 349.265 131.083L353.859 130.576L353.879 124.321L349.29 123.784C349.214 123.775 349.151 123.72 349.131 123.646C348.795 122.346 348.279 121.091 347.597 119.916C347.558 119.85 347.564 119.767 347.612 119.707L350.469 116.141L346.061 111.703L342.476 114.537C342.416 114.585 342.333 114.59 342.267 114.551C341.097 113.861 339.846 113.336 338.548 112.991C338.474 112.972 338.419 112.908 338.411 112.832L337.904 108.239L331.648 108.218L331.111 112.808C331.103 112.884 331.048 112.947 330.973 112.966C329.673 113.302 328.418 113.819 327.244 114.501C327.177 114.54 327.094 114.533 327.034 114.485L323.469 111.628L319.031 116.037L321.864 119.621C321.912 119.681 321.917 119.765 321.879 119.831C321.189 121 320.664 122.251 320.319 123.55C320.299 123.624 320.236 123.678 320.16 123.687L315.567 124.193L315.546 130.449L320.135 130.986C320.211 130.995 320.274 131.05 320.293 131.124C320.63 132.425 321.146 133.679 321.828 134.853C321.867 134.92 321.861 135.003 321.813 135.063L318.956 138.629L323.364 143.067L326.949 140.233C327.009 140.186 327.092 140.18 327.158 140.219C328.328 140.909 329.579 141.434 330.877 141.779C330.951 141.798 331.006 141.862 331.014 141.938L331.521 146.531ZM334.713 133.716H334.691C331.2 133.705 328.37 130.855 328.381 127.364C328.387 125.673 329.051 124.085 330.251 122.893C331.445 121.706 333.029 121.054 334.712 121.054H334.734C336.425 121.059 338.013 121.723 339.204 122.923C340.396 124.123 341.049 125.715 341.044 127.406C341.032 130.89 338.194 133.716 334.713 133.716ZM334.693 133.345H334.713C337.99 133.345 340.661 130.684 340.672 127.405C340.678 125.813 340.063 124.314 338.941 123.185C337.819 122.056 336.324 121.431 334.732 121.425H334.712C333.128 121.425 331.637 122.04 330.512 123.157C329.383 124.279 328.758 125.773 328.753 127.365C328.742 130.651 331.406 133.334 334.693 133.345Z" fill="#FFFFFD"/>
<path d="M334.713 139.573H334.672C327.951 139.551 322.502 134.065 322.525 127.344C322.535 124.089 323.813 121.032 326.123 118.738C328.433 116.444 331.491 115.188 334.753 115.197C341.474 115.219 346.923 120.705 346.901 127.426C346.878 134.132 341.414 139.573 334.713 139.573ZM334.673 139.202H334.713C341.211 139.202 346.507 133.927 346.529 127.424C346.551 120.909 341.268 115.59 334.752 115.568H334.712C328.214 115.568 322.918 120.843 322.896 127.346C322.874 133.861 328.157 139.18 334.673 139.202Z" fill="#FFFFFD"/>
<path d="M371.746 93.2774H303.052L293.171 106.279C292.75 106.833 291.867 106.535 291.867 105.84V52.2456C291.867 50.4143 293.351 48.9297 295.182 48.9297H371.746C373.577 48.9297 375.062 50.4143 375.062 52.2456V89.9615C375.062 91.7928 373.577 93.2774 371.746 93.2774Z" fill="#EDE5DC"/>
<path d="M364.265 59.8026H302.476C302.373 59.8026 302.29 59.7194 302.29 59.6169C302.29 59.5143 302.373 59.4312 302.476 59.4312H364.265C364.367 59.4312 364.45 59.5143 364.45 59.6169C364.45 59.7194 364.367 59.8026 364.265 59.8026Z" fill="#260500"/>
<path d="M364.265 70.7528H302.476C302.373 70.7528 302.29 70.6696 302.29 70.5671C302.29 70.4645 302.373 70.3813 302.476 70.3813H364.265C364.367 70.3813 364.45 70.4645 364.45 70.5671C364.45 70.6696 364.367 70.7528 364.265 70.7528Z" fill="#260500"/>
<path d="M353.836 81.7025H302.476C302.373 81.7025 302.29 81.6193 302.29 81.5168C302.29 81.4142 302.373 81.3311 302.476 81.3311H353.836C353.939 81.3311 354.022 81.4142 354.022 81.5168C354.022 81.6193 353.939 81.7025 353.836 81.7025Z" fill="#260500"/>
<path d="M78.1867 75.7076C84.2895 75.7076 89.2368 70.7603 89.2368 64.6575C89.2368 58.5547 84.2895 53.6074 78.1867 53.6074C72.0839 53.6074 67.1366 58.5547 67.1366 64.6575C67.1366 70.7603 72.0839 75.7076 78.1867 75.7076Z" fill="#C2B868"/>
<path d="M74.6135 75.4189C68.4436 75.4189 63.424 70.3993 63.424 64.2294C63.424 58.0595 68.4436 53.04 74.6135 53.04C80.7834 53.04 85.803 58.0596 85.803 64.2294C85.803 70.3992 80.7834 75.4189 74.6135 75.4189ZM74.6135 53.3188C68.5972 53.3188 63.7027 58.2133 63.7027 64.2294C63.7027 70.2456 68.5972 75.1402 74.6135 75.1402C80.6297 75.1402 85.5242 70.2457 85.5242 64.2294C85.5242 58.2132 80.6297 53.3188 74.6135 53.3188Z" fill="#210602"/>
<path d="M38.9161 145.075C40.8124 143.057 40.7137 139.884 38.6956 137.987C36.6775 136.091 33.5043 136.19 31.6079 138.208C29.7116 140.226 29.8103 143.399 31.8284 145.295C33.8465 147.192 37.0197 147.093 38.9161 145.075Z" fill="#EA8206"/>
<path d="M34.5689 145.755C31.7272 145.755 29.4153 143.443 29.4153 140.602C29.4153 137.76 31.7272 135.448 34.5689 135.448C37.4105 135.448 39.7223 137.76 39.7223 140.602C39.7223 143.444 37.4105 145.755 34.5689 145.755ZM34.5689 135.727C31.8809 135.727 29.694 137.914 29.694 140.602C29.694 143.29 31.8808 145.477 34.5689 145.477C37.2569 145.477 39.4436 143.29 39.4436 140.602C39.4436 137.914 37.2568 135.727 34.5689 135.727Z" fill="#260500"/>
</g>
</g>
<defs>
<clipPath id="clip0_17_22490">
<rect width="520" height="240.341" fill="white"/>
</clipPath>
<clipPath id="clip1_17_22490">
<rect width="520" height="240.341" fill="white"/>
</clipPath>
</defs>
</svg>
