<svg width="64" height="64" viewBox="0 0 64 64" fill="none" xmlns="http://www.w3.org/2000/svg">
<path fill-rule="evenodd" clip-rule="evenodd" d="M12 0H52C58.627 0 64 5.373 64 12V52C64 58.627 58.627 64 52 64H12C5.373 64 0 58.627 0 52V12C0 5.373 5.373 0 12 0Z" fill="#F7EBFA"/>
<path fill-rule="evenodd" clip-rule="evenodd" d="M19.6934 20.4277C18.7284 20.4277 17.9434 21.2127 17.9434 22.1777V36.4067C17.9434 37.3717 18.7284 38.1567 19.6934 38.1567H44.3074C45.2724 38.1567 46.0574 37.3717 46.0574 36.4067V22.1777C46.0574 21.2127 45.2724 20.4277 44.3074 20.4277H19.6934ZM44.3074 40.6567H19.6934C17.3494 40.6567 15.4434 38.7507 15.4434 36.4067V22.1777C15.4434 19.8337 17.3494 17.9277 19.6934 17.9277H44.3074C46.6514 17.9277 48.5574 19.8337 48.5574 22.1777V36.4067C48.5574 38.7507 46.6514 40.6567 44.3074 40.6567Z" fill="#B13ED6"/>
<path fill-rule="evenodd" clip-rule="evenodd" d="M29.5498 43.4992H34.4498V40.6572H29.5498V43.4992ZM35.6998 45.9992H28.2998C27.6088 45.9992 27.0498 45.4402 27.0498 44.7492V39.4072C27.0498 38.7172 27.6088 38.1572 28.2998 38.1572H35.6998C36.3908 38.1572 36.9498 38.7172 36.9498 39.4072V44.7492C36.9498 45.4402 36.3908 45.9992 35.6998 45.9992Z" fill="#B13ED6"/>
<path fill-rule="evenodd" clip-rule="evenodd" d="M39.7546 46.0713H24.2446C23.5546 46.0713 22.9946 45.5113 22.9946 44.8213C22.9946 44.1313 23.5546 43.5713 24.2446 43.5713H39.7546C40.4446 43.5713 41.0046 44.1313 41.0046 44.8213C41.0046 45.5113 40.4446 46.0713 39.7546 46.0713Z" fill="#B13ED6"/>
</svg>
