<svg width="64" height="64" viewBox="0 0 64 64" fill="none" xmlns="http://www.w3.org/2000/svg">
<path fill-rule="evenodd" clip-rule="evenodd" d="M12 0H52C58.627 0 64 5.373 64 12V52C64 58.627 58.627 64 52 64H12C5.373 64 0 58.627 0 52V12C0 5.373 5.373 0 12 0Z" fill="#FFEDED"/>
<path fill-rule="evenodd" clip-rule="evenodd" d="M32.0001 24.252C28.8301 24.252 25.8491 25.486 23.6071 27.729C21.3651 29.971 20.1301 32.951 20.1301 36.121C20.1301 39.291 21.3651 42.272 23.6071 44.514C25.8491 46.756 28.8301 47.99 32.0001 47.99C35.1701 47.99 38.1511 46.756 40.3931 44.514C42.6341 42.272 43.8691 39.291 43.8691 36.121C43.8691 32.951 42.6341 29.971 40.3931 27.729C38.1511 25.486 35.1701 24.252 32.0001 24.252ZM32.0001 50.49C28.1621 50.49 24.5531 48.996 21.8391 46.281C19.1251 43.567 17.6301 39.959 17.6301 36.121C17.6301 32.283 19.1251 28.675 21.8391 25.961C24.5531 23.246 28.1621 21.752 32.0001 21.752C35.8381 21.752 39.4461 23.247 42.1601 25.961C42.1601 25.961 42.1611 25.961 42.1601 25.961C44.8751 28.675 46.3691 32.283 46.3691 36.121C46.3691 39.959 44.8751 43.567 42.1601 46.281C39.4461 48.996 35.8381 50.49 32.0001 50.49Z" fill="#FF5555"/>
<path fill-rule="evenodd" clip-rule="evenodd" d="M28.743 17.929H35.257V16.163H28.743V17.929ZM36.507 20.429H27.493C26.802 20.429 26.243 19.869 26.243 19.179V14.913C26.243 14.223 26.802 13.663 27.493 13.663H36.507C37.197 13.663 37.757 14.223 37.757 14.913V19.179C37.757 19.869 37.197 20.429 36.507 20.429Z" fill="#FF5555"/>
<path fill-rule="evenodd" clip-rule="evenodd" d="M30.0885 39.2823C29.7685 39.2823 29.4485 39.1603 29.2045 38.9163C28.7165 38.4283 28.7165 37.6363 29.2045 37.1483L36.0395 30.3143C36.5275 29.8263 37.3185 29.8263 37.8065 30.3143C38.2955 30.8033 38.2955 31.5943 37.8065 32.0823L30.9725 38.9163C30.7285 39.1603 30.4085 39.2823 30.0885 39.2823Z" fill="#FF5555"/>
<path fill-rule="evenodd" clip-rule="evenodd" d="M41.2765 28.0948C40.9565 28.0948 40.6365 27.9728 40.3925 27.7288C39.9045 27.2408 39.9045 26.4488 40.3925 25.9608L42.2355 24.1178C42.7235 23.6298 43.5145 23.6298 44.0035 24.1178C44.4915 24.6068 44.4915 25.3978 44.0035 25.8858L42.1605 27.7288C41.9165 27.9728 41.5965 28.0948 41.2765 28.0948Z" fill="#FF5555"/>
<path fill-rule="evenodd" clip-rule="evenodd" d="M32.0001 40.0743C31.3101 40.0743 30.7501 39.5143 30.7501 38.8243V27.8763C30.7501 27.1853 31.3101 26.6263 32.0001 26.6263C32.6901 26.6263 33.2501 27.1853 33.2501 27.8763V38.8243C33.2501 39.5143 32.6901 40.0743 32.0001 40.0743Z" fill="#FF5555"/>
</svg>
