<svg width="64" height="64" viewBox="0 0 64 64" fill="none" xmlns="http://www.w3.org/2000/svg">
<path fill-rule="evenodd" clip-rule="evenodd" d="M12 0H52C58.627 0 64 5.373 64 12V52C64 58.627 58.627 64 52 64H12C5.373 64 0 58.627 0 52V12C0 5.373 5.373 0 12 0Z" fill="#F7EBFA"/>
<g clip-path="url(#clip0_0_12195)">
<path d="M43 18H21C18.2432 18 16 20.2432 16 23V35C16 37.7568 18.2432 40 21 40H28V44H25C24.4473 44 24 44.4473 24 45C24 45.5527 24.4473 46 25 46H39C39.5527 46 40 45.5527 40 45C40 44.4473 39.5527 44 39 44H36V40H43C45.7568 40 48 37.7568 48 35V23C48 20.2432 45.7568 18 43 18ZM34 44H30V40H34V44ZM46 35C46 36.6543 44.6543 38 43 38H21C19.3457 38 18 36.6543 18 35V23C18 21.3457 19.3457 20 21 20H43C44.6543 20 46 21.3457 46 23V35Z" fill="#B13ED6"/>
</g>
<defs>
<clipPath id="clip0_0_12195">
<rect width="32" height="28" fill="white" transform="translate(16 18)"/>
</clipPath>
</defs>
</svg>
