<svg width="64" height="64" viewBox="0 0 64 64" fill="none" xmlns="http://www.w3.org/2000/svg">
<path fill-rule="evenodd" clip-rule="evenodd" d="M12 0H52C58.627 0 64 5.373 64 12V52C64 58.627 58.627 64 52 64H12C5.373 64 0 58.627 0 52V12C0 5.373 5.373 0 12 0Z" fill="#FFEDED"/>
<path d="M47.5342 19.1553C47.2451 18.9707 46.8799 18.9502 46.5713 19.0967L39.7864 22.3152C39.0291 19.2683 36.2776 17 33 17H23C19.1406 17 16 20.1406 16 24V28C16 31.8594 19.1406 35 23 35H33C36.2778 35 39.0294 32.7313 39.7866 29.6841L46.5713 32.9033C46.707 32.9678 46.8535 33 47 33C47.1865 33 47.3721 32.9482 47.5342 32.8447C47.8242 32.6621 48 32.3427 48 32V20C48 19.6572 47.8242 19.3379 47.5342 19.1553ZM33 33H23C20.2432 33 18 30.7568 18 28V24C18 21.2432 20.2432 19 23 19H33C35.7568 19 38 21.2432 38 24V28C38 30.7568 35.7568 33 33 33ZM46 30.4189L40 27.5712V24.4276L46 21.5809V30.4189Z" fill="#FC6144"/>
<path d="M32.5137 37.4463C32.3282 37.168 32.0157 37 31.6807 37H28.3194C27.9844 37 27.6719 37.168 27.4864 37.4463L22.1671 45.4463C21.8614 45.9063 21.9864 46.5274 22.4464 46.833C22.9034 47.1377 23.5265 47.0146 23.8331 46.5537L28.8556 39H29.0001V46C29.0001 46.5527 29.4474 47 30.0001 47C30.5528 47 31.0001 46.5527 31.0001 46V39H31.1446L36.1671 46.5537C36.3605 46.8437 36.6778 47 37.0011 47C37.1915 47 37.3839 46.9463 37.5538 46.833C38.0138 46.5273 38.1388 45.9062 37.8331 45.4463L32.5137 37.4463Z" fill="#FC6144"/>
</svg>
