<svg width="64" height="64" viewBox="0 0 64 64" fill="none" xmlns="http://www.w3.org/2000/svg">
<path fill-rule="evenodd" clip-rule="evenodd" d="M12 0H52C58.627 0 64 5.373 64 12V52C64 58.627 58.627 64 52 64H12C5.373 64 0 58.627 0 52V12C0 5.373 5.373 0 12 0Z" fill="#E9EEF8"/>
<path fill-rule="evenodd" clip-rule="evenodd" d="M25.4536 17.4287C22.2836 17.4287 19.7036 20.0077 19.7036 23.1787V40.8207C19.7036 43.9907 22.2836 46.5707 25.4536 46.5707H38.5456C41.7166 46.5707 44.2956 43.9907 44.2956 40.8207V23.1787C44.2956 20.0077 41.7166 17.4287 38.5456 17.4287H25.4536ZM38.5456 49.0707H25.4536C20.9046 49.0707 17.2036 45.3687 17.2036 40.8207V23.1787C17.2036 18.6297 20.9046 14.9287 25.4536 14.9287H38.5456C43.0946 14.9287 46.7956 18.6297 46.7956 23.1787V40.8207C46.7956 45.3687 43.0946 49.0707 38.5456 49.0707Z" fill="#295AC2"/>
<path fill-rule="evenodd" clip-rule="evenodd" d="M28.2269 22.4395C27.5859 22.4395 27.0649 22.9605 27.0649 23.6015C27.0649 24.2425 27.5859 24.7625 28.2269 24.7625C28.8679 24.7625 29.3889 24.2425 29.3889 23.6015C29.3889 22.9605 28.8679 22.4395 28.2269 22.4395ZM28.2269 27.2625C26.2079 27.2625 24.5649 25.6205 24.5649 23.6015C24.5649 21.5825 26.2079 19.9395 28.2269 19.9395C30.2459 19.9395 31.8889 21.5825 31.8889 23.6015C31.8889 25.6205 30.2459 27.2625 28.2269 27.2625Z" fill="#295AC2"/>
<path fill-rule="evenodd" clip-rule="evenodd" d="M32.8495 32.649C32.4185 32.649 31.9985 32.425 31.7665 32.025L29.9125 28.822L26.5255 28.832L24.6855 32.025C24.3405 32.624 23.5765 32.827 22.9775 32.481C22.3805 32.135 22.1765 31.37 22.5225 30.773L24.3775 27.57C24.8195 26.806 25.6425 26.332 26.5255 26.332H29.9275C30.8095 26.332 31.6335 26.806 32.0755 27.569L33.9305 30.773C34.2765 31.37 34.0725 32.135 33.4745 32.481C33.2775 32.595 33.0625 32.649 32.8495 32.649Z" fill="#295AC2"/>
<path fill-rule="evenodd" clip-rule="evenodd" d="M40.3955 37.709H23.6045C22.9145 37.709 22.3545 37.149 22.3545 36.459C22.3545 35.769 22.9145 35.209 23.6045 35.209H40.3955C41.0855 35.209 41.6455 35.769 41.6455 36.459C41.6455 37.149 41.0855 37.709 40.3955 37.709Z" fill="#295AC2"/>
<path fill-rule="evenodd" clip-rule="evenodd" d="M35.4835 41.8369H23.6045C22.9145 41.8369 22.3545 41.2769 22.3545 40.5869C22.3545 39.8969 22.9145 39.3369 23.6045 39.3369H35.4835C36.1735 39.3369 36.7335 39.8969 36.7335 40.5869C36.7335 41.2769 36.1735 41.8369 35.4835 41.8369Z" fill="#295AC2"/>
</svg>
