<svg width="64" height="64" viewBox="0 0 64 64" fill="none" xmlns="http://www.w3.org/2000/svg">
<path fill-rule="evenodd" clip-rule="evenodd" d="M12 0H52C58.627 0 64 5.373 64 12V52C64 58.627 58.627 64 52 64H12C5.373 64 0 58.627 0 52V12C0 5.373 5.373 0 12 0Z" fill="#F7EBFA"/>
<path fill-rule="evenodd" clip-rule="evenodd" d="M44.3125 40.5C44.3125 38.949 43.0505 37.687 41.4995 37.687C39.9495 37.687 38.6875 38.949 38.6875 40.5C38.6875 42.051 39.9495 43.313 41.4995 43.313C43.0505 43.313 44.3125 42.051 44.3125 40.5ZM47.8215 44.331C47.5875 44.721 47.1735 44.938 46.7485 44.938C46.5295 44.938 46.3085 44.88 46.1065 44.759L45.2585 44.25C44.5795 44.932 43.7155 45.429 42.7505 45.662V46.75C42.7505 47.44 42.1905 48 41.4995 48C40.8095 48 40.2505 47.44 40.2505 46.75V45.662C39.2625 45.423 38.3825 44.908 37.6955 44.203L36.7685 44.759C36.5665 44.88 36.3455 44.938 36.1265 44.938C35.7015 44.938 35.2875 44.721 35.0535 44.331C34.6975 43.739 34.8895 42.971 35.4815 42.616L36.4195 42.053C36.2695 41.561 36.1875 41.04 36.1875 40.5C36.1875 39.96 36.2695 39.438 36.4195 38.947L35.4815 38.384C34.8895 38.029 34.6975 37.261 35.0535 36.669C35.4085 36.077 36.1765 35.886 36.7685 36.241L37.6955 36.797C38.3825 36.092 39.2625 35.577 40.2505 35.337V34.25C40.2505 33.56 40.8095 33 41.4995 33C42.1905 33 42.7505 33.56 42.7505 34.25V35.337C43.7155 35.571 44.5795 36.068 45.2585 36.749L46.1065 36.241C46.6985 35.885 47.4665 36.077 47.8215 36.669C48.1775 37.261 47.9855 38.029 47.3935 38.384L46.5605 38.884C46.7235 39.394 46.8125 39.937 46.8125 40.5C46.8125 41.063 46.7235 41.606 46.5605 42.116L47.3935 42.616C47.9855 42.971 48.1775 43.739 47.8215 44.331ZM31.9995 30.625C31.1375 30.625 30.4375 31.325 30.4375 32.187C30.4375 33.05 31.1375 33.75 31.9995 33.75C32.8635 33.75 33.5625 33.05 33.5625 32.187C33.5625 31.325 32.8635 30.625 31.9995 30.625ZM27.3125 21.563C28.0025 21.563 28.5625 21.003 28.5625 20.313C28.5625 19.313 29.3755 18.5 30.3745 18.5H33.6245C34.6245 18.5 35.4375 19.313 35.4375 20.313C35.4375 21.003 35.9975 21.563 36.6875 21.563C37.3775 21.563 37.9375 21.003 37.9375 20.313C37.9375 17.935 36.0035 16 33.6245 16H30.3745C27.9975 16 26.0625 17.935 26.0625 20.313C26.0625 21.003 26.6225 21.563 27.3125 21.563ZM28.9375 37.062C26.5595 37.062 24.6255 35.128 24.6255 32.75C24.6255 32.06 24.0655 31.5 23.3755 31.5C22.6845 31.5 22.1255 32.06 22.1255 32.75C22.1255 36.506 25.1815 39.563 28.9375 39.563H31.3125C32.0025 39.563 32.5625 39.003 32.5625 38.312C32.5625 37.622 32.0025 37.062 31.3125 37.062H28.9375ZM48.0005 31.5V32.312C48.0005 33.003 47.4405 33.563 46.7505 33.563C46.0595 33.563 45.4995 33.003 45.4995 32.312V31.5C45.4995 28.743 43.2575 26.5 40.4995 26.5H23.5005C20.7425 26.5 18.5005 28.743 18.5005 31.5V40.5C18.5005 43.257 20.7425 45.5 23.5005 45.5H31.8125C32.5025 45.5 33.0625 46.06 33.0625 46.75C33.0625 47.44 32.5025 48 31.8125 48H23.5005C19.3645 48 16.0005 44.635 16.0005 40.5V31.5C16.0005 27.365 19.3645 24 23.5005 24H40.4995C44.6355 24 48.0005 27.364 48.0005 31.5Z" fill="#B13ED6"/>
</svg>
