<svg width="64" height="64" viewBox="0 0 64 64" fill="none" xmlns="http://www.w3.org/2000/svg">
<path fill-rule="evenodd" clip-rule="evenodd" d="M12 0H52C58.627 0 64 5.373 64 12V52C64 58.627 58.627 64 52 64H12C5.373 64 0 58.627 0 52V12C0 5.373 5.373 0 12 0Z" fill="#E9EEF8"/>
<g clip-path="url(#clip0_0_12164)">
<path d="M50 31.9844C50 31.6973 49.877 31.4248 49.6621 31.2354L46.2031 28.1788L47.6709 23.8028C47.7617 23.5303 47.7324 23.2325 47.5889 22.9844C47.4454 22.7363 47.2022 22.5615 46.9209 22.5039L42.3975 21.5869L41.4805 17.0635C41.4229 16.7823 41.2481 16.5391 41 16.3955C40.752 16.2529 40.4531 16.2246 40.1816 16.3135L35.8056 17.7813L32.749 14.3223C32.3701 13.8926 31.6299 13.8926 31.251 14.3223L28.1944 17.7813L23.8184 16.3135C23.5459 16.2237 23.2471 16.252 23 16.3955C22.752 16.5391 22.5771 16.7822 22.5195 17.0635L21.6025 21.5869L17.0791 22.5039C16.7979 22.5615 16.5547 22.7363 16.4111 22.9844C16.2675 23.2325 16.2382 23.5303 16.3291 23.8028L17.7969 28.1788L14.3379 31.2354C14.1231 31.4249 14 31.6973 14 31.9844C14 32.2715 14.123 32.544 14.3379 32.7334L17.7969 35.79L16.3291 40.166C16.2383 40.4385 16.2676 40.7363 16.4111 40.9844C16.5546 41.2325 16.7978 41.4073 17.0791 41.4649L21.6025 42.3819L22.5195 46.9044C22.5771 47.1856 22.7519 47.4288 23 47.5724C23.2481 47.716 23.5469 47.7443 23.8174 47.6544L28.1944 46.1876L31.251 49.6466C31.4405 49.8614 31.7129 49.9845 32 49.9845C32.2871 49.9845 32.5596 49.8615 32.749 49.6466L35.8056 46.1876L40.1826 47.6544C40.4531 47.7433 40.751 47.7149 41 47.5724C41.248 47.4288 41.4229 47.1857 41.4805 46.9044L42.3975 42.3819L46.9209 41.4649C47.2021 41.4073 47.4453 41.2325 47.5889 40.9844C47.7325 40.7363 47.7618 40.4385 47.6709 40.166L46.2031 35.79L49.6621 32.7334C49.8769 32.5439 50 32.2715 50 31.9844ZM44.3818 34.7305C44.081 34.9961 43.9677 35.417 44.0957 35.7979L45.415 39.7295L41.3505 40.5527C40.956 40.6328 40.6484 40.9404 40.5683 41.3349L39.7451 45.3984L35.8125 44.08C35.4355 43.9511 35.0117 44.0644 34.7461 44.3661L32 47.4735L29.2539 44.3661C29.0615 44.1473 28.7861 44.0282 28.5049 44.0282C28.3985 44.0282 28.291 44.0448 28.1875 44.08L24.2549 45.3984L23.4317 41.3349C23.3516 40.9404 23.044 40.6328 22.6495 40.5527L18.585 39.7295L19.9043 35.7979C20.0322 35.417 19.9189 34.9961 19.6182 34.7305L16.5108 31.9844L19.6182 29.2383C19.919 28.9727 20.0323 28.5518 19.9043 28.1709L18.585 24.2393L22.6495 23.4161C23.044 23.336 23.3516 23.0284 23.4317 22.6339L24.2549 18.5694L28.1865 19.8887C28.5674 20.0176 28.9883 19.9043 29.2539 19.6026L32 16.4952L34.7461 19.6026C35.0117 19.9044 35.4326 20.0176 35.8135 19.8887L39.7451 18.5694L40.5683 22.6339C40.6484 23.0284 40.956 23.336 41.3505 23.4161L45.415 24.2393L44.0957 28.1709C43.9678 28.5518 44.0811 28.9727 44.3818 29.2383L47.4892 31.9844L44.3818 34.7305Z" fill="#295AC2"/>
<path d="M28.4678 30.9229L28.2862 30.8477C27.1329 30.3731 26.7735 30.1543 26.7735 29.7081C26.7735 28.6085 28.1641 28.5782 28.1778 28.5782C28.9132 28.5782 29.4649 28.7091 29.8633 28.8223C30.3955 28.9766 30.9492 28.6661 31.0996 28.1348C31.251 27.6036 30.9424 27.0498 30.4121 26.8985C30.074 26.8022 29.5945 26.687 29.001 26.6246V25.9845C29.001 25.4318 28.5537 24.9845 28.001 24.9845C27.4483 24.9845 27.001 25.4318 27.001 25.9845V26.7814C25.8876 27.1469 24.7735 28.0429 24.7735 29.7082C24.7735 31.5656 26.3633 32.2199 27.5245 32.6975L27.7013 32.7707C28.9855 33.3039 29.3976 33.634 29.3976 34.1291C29.3976 35.3859 27.6701 35.4006 27.6525 35.4006C27.0685 35.4006 26.342 35.1867 25.8605 35.0461L25.673 34.9914C25.1398 34.8361 24.588 35.1457 24.4367 35.6769C24.2844 36.2072 24.591 36.7609 25.1222 36.9132L25.297 36.965C25.7404 37.0948 26.3539 37.2751 27.0011 37.3568V37.9845C27.0011 38.5372 27.4484 38.9845 28.0011 38.9845C28.5538 38.9845 29.0011 38.5372 29.0011 37.9845V37.1964C30.3259 36.784 31.3976 35.7483 31.3976 34.129C31.3976 32.1397 29.4922 31.3487 28.4678 30.9229Z" fill="#295AC2"/>
<path d="M36 26.4844C34.7969 26.4844 32 27.0205 32 31.9844C32 36.9483 34.7969 37.4844 36 37.4844C37.2031 37.4844 40 36.9483 40 31.9844C40 27.0205 37.2031 26.4844 36 26.4844ZM36 35.4844C34.6729 35.4844 34 34.3067 34 31.9844C34 29.6621 34.6729 28.4844 36 28.4844C37.3271 28.4844 38 29.6621 38 31.9844C38 34.3067 37.3271 35.4844 36 35.4844Z" fill="#295AC2"/>
</g>
<defs>
<clipPath id="clip0_0_12164">
<rect width="36" height="35.9844" fill="white" transform="translate(14 14)"/>
</clipPath>
</defs>
</svg>
