<svg width="64" height="64" viewBox="0 0 64 64" fill="none" xmlns="http://www.w3.org/2000/svg">
<path fill-rule="evenodd" clip-rule="evenodd" d="M12 0H52C58.627 0 64 5.373 64 12V52C64 58.627 58.627 64 52 64H12C5.373 64 0 58.627 0 52V12C0 5.373 5.373 0 12 0Z" fill="#E9EEF8"/>
<path fill-rule="evenodd" clip-rule="evenodd" d="M28.299 44.5613C28.651 44.5613 28.994 44.7103 29.236 44.9833L32 48.1123L34.765 44.9833C35.097 44.6083 35.621 44.4683 36.099 44.6253L40.056 45.9533L40.886 41.8623C40.986 41.3703 41.37 40.9853 41.862 40.8853L45.954 40.0553L44.626 36.0973C44.467 35.6213 44.608 35.0953 44.985 34.7633L48.112 31.9993L44.984 29.2353C44.608 28.9033 44.467 28.3773 44.626 27.9013L45.954 23.9443L41.862 23.1143C41.37 23.0143 40.986 22.6293 40.886 22.1373L40.056 18.0453L36.099 19.3743C35.624 19.5293 35.096 19.3913 34.765 19.0163L32 15.8873L29.236 19.0163C28.903 19.3913 28.376 19.5303 27.902 19.3743L23.945 18.0453L23.114 22.1373C23.015 22.6293 22.63 23.0143 22.138 23.1143L18.046 23.9443L19.374 27.9013C19.533 28.3773 19.393 28.9033 19.017 29.2353L15.888 31.9993L19.016 34.7633C19.393 35.0953 19.533 35.6213 19.374 36.0973L18.046 40.0553L22.138 40.8853C22.63 40.9853 23.015 41.3703 23.114 41.8623L23.945 45.9533L27.902 44.6253C28.032 44.5823 28.166 44.5613 28.299 44.5613ZM32 51.2493C31.642 51.2493 31.301 51.0963 31.064 50.8283L27.911 47.2593L23.398 48.7733C23.057 48.8843 22.687 48.8493 22.375 48.6693C22.065 48.4913 21.846 48.1873 21.776 47.8353L20.829 43.1703L16.163 42.2243C15.812 42.1543 15.508 41.9353 15.329 41.6243C15.15 41.3143 15.112 40.9423 15.226 40.6023L16.74 36.0883L13.173 32.9363C12.904 32.6993 12.75 32.3583 12.75 31.9993C12.75 31.6413 12.903 31.3003 13.172 31.0633L16.74 27.9113L15.226 23.3973C15.112 23.0573 15.15 22.6853 15.328 22.3743C15.508 22.0643 15.812 21.8453 16.163 21.7753L20.829 20.8293L21.776 16.1633C21.846 15.8113 22.065 15.5073 22.375 15.3283C22.687 15.1493 23.057 15.1123 23.398 15.2253L27.911 16.7403L31.064 13.1713C31.538 12.6343 32.462 12.6343 32.937 13.1713L36.089 16.7403L40.603 15.2253C40.943 15.1123 41.313 15.1493 41.625 15.3283C41.936 15.5073 42.154 15.8113 42.225 16.1633L43.171 20.8293L47.837 21.7753C48.189 21.8453 48.492 22.0643 48.672 22.3743C48.851 22.6853 48.888 23.0573 48.775 23.3973L47.26 27.9113L50.828 31.0633C51.097 31.3003 51.25 31.6413 51.25 31.9993C51.25 32.3583 51.096 32.6993 50.827 32.9363L47.26 36.0883L48.775 40.6023C48.888 40.9423 48.851 41.3143 48.671 41.6243C48.492 41.9353 48.189 42.1543 47.837 42.2243L43.171 43.1703L42.225 47.8353C42.154 48.1873 41.936 48.4913 41.625 48.6693C41.313 48.8493 40.943 48.8843 40.603 48.7733L36.089 47.2593L32.937 50.8283C32.699 51.0963 32.359 51.2493 32 51.2493Z" fill="#295AC2"/>
<path fill-rule="evenodd" clip-rule="evenodd" d="M21.6924 28.8408H25.8774V29.9208H23.0004V31.4558H25.6154V32.5018H23.0004V34.9428H21.6924V28.8408Z" fill="#295AC2"/>
<path fill-rule="evenodd" clip-rule="evenodd" d="M29.1014 31.6828C29.3454 31.6828 29.5474 31.6628 29.7074 31.6258C29.8674 31.5878 29.9974 31.5328 30.0954 31.4598C30.1944 31.3878 30.2634 31.2958 30.3044 31.1858C30.3454 31.0758 30.3664 30.9478 30.3664 30.8018C30.3664 30.6568 30.3454 30.5288 30.3044 30.4178C30.2634 30.3078 30.1944 30.2168 30.0954 30.1438C29.9974 30.0718 29.8674 30.0158 29.7074 29.9788C29.5474 29.9408 29.3454 29.9208 29.1014 29.9208H28.1864V31.6828H29.1014ZM26.8784 28.8408H29.3634C29.7474 28.8408 30.0814 28.8868 30.3704 28.9798C30.6584 29.0738 30.8974 29.2048 31.0884 29.3768C31.2814 29.5478 31.4264 29.7538 31.5254 29.9958C31.6234 30.2368 31.6734 30.5058 31.6734 30.8018C31.6734 31.2258 31.5644 31.5938 31.3464 31.9048C31.1284 32.2158 30.8014 32.4378 30.3664 32.5718L31.8474 34.9428H30.3304L29.0494 32.7108H28.1864V34.9428H26.8784V28.8408Z" fill="#295AC2"/>
<path fill-rule="evenodd" clip-rule="evenodd" d="M32.8936 28.8408H37.1646V29.9208H34.2096V31.2808H36.9036V32.3268H34.2096V33.8618H37.1646V34.9428H32.8936V28.8408Z" fill="#295AC2"/>
<path fill-rule="evenodd" clip-rule="evenodd" d="M38.2979 28.8408H42.5689V29.9208H39.6139V31.2808H42.3079V32.3268H39.6139V33.8618H42.5689V34.9428H38.2979V28.8408Z" fill="#295AC2"/>
</svg>
