<svg width="64" height="64" viewBox="0 0 64 64" fill="none" xmlns="http://www.w3.org/2000/svg">
<path fill-rule="evenodd" clip-rule="evenodd" d="M12 0H52C58.627 0 64 5.373 64 12V52C64 58.627 58.627 64 52 64H12C5.373 64 0 58.627 0 52V12C0 5.373 5.373 0 12 0Z" fill="#FFEDED"/>
<path fill-rule="evenodd" clip-rule="evenodd" d="M23.7915 18.7334C20.6215 18.7334 18.0415 21.3124 18.0415 24.4834V28.1714C18.0415 31.3414 20.6215 33.9214 23.7915 33.9214H32.7855C35.9565 33.9214 38.5355 31.3414 38.5355 28.1714V24.4834C38.5355 21.3124 35.9565 18.7334 32.7855 18.7334H23.7915ZM32.7855 36.4204H23.7915C19.2425 36.4204 15.5415 32.7194 15.5415 28.1714V24.4834C15.5415 19.9344 19.2425 16.2334 23.7915 16.2334H32.7855C37.3345 16.2334 41.0355 19.9344 41.0355 24.4834V28.1714C41.0355 32.7194 37.3345 36.4204 32.7855 36.4204Z" fill="#FC6144"/>
<path fill-rule="evenodd" clip-rule="evenodd" d="M41.0356 28.7664L45.9576 32.2854V20.3694L41.0356 23.8874V28.7664ZM47.2076 35.9654C46.9526 35.9654 46.6976 35.8874 46.4806 35.7324L39.0586 30.4254C38.7306 30.1914 38.5356 29.8124 38.5356 29.4094V23.2454C38.5356 22.8414 38.7306 22.4624 39.0586 22.2284L46.4806 16.9214C46.8626 16.6494 47.3636 16.6124 47.7796 16.8274C48.1966 17.0404 48.4576 17.4694 48.4576 17.9384V34.7154C48.4576 35.1844 48.1966 35.6134 47.7796 35.8274C47.5996 35.9194 47.4036 35.9654 47.2076 35.9654Z" fill="#FC6144"/>
<path fill-rule="evenodd" clip-rule="evenodd" d="M37.041 47.767C36.641 47.767 36.248 47.576 36.006 47.219L31.072 39.959H29.042L24.108 47.219C23.72 47.791 22.943 47.938 22.372 47.551C21.801 47.163 21.653 46.385 22.041 45.815L27.347 38.007C27.58 37.664 27.967 37.459 28.381 37.459H31.734C32.148 37.459 32.535 37.664 32.768 38.007L38.074 45.815C38.462 46.385 38.313 47.163 37.743 47.551C37.527 47.697 37.283 47.767 37.041 47.767Z" fill="#FC6144"/>
<path fill-rule="evenodd" clip-rule="evenodd" d="M30.0576 47.767C29.3676 47.767 28.8076 47.207 28.8076 46.517V38.709C28.8076 38.019 29.3676 37.459 30.0576 37.459C30.7476 37.459 31.3076 38.019 31.3076 38.709V46.517C31.3076 47.207 30.7476 47.767 30.0576 47.767Z" fill="#FC6144"/>
</svg>
