<svg width="64" height="64" viewBox="0 0 64 64" fill="none" xmlns="http://www.w3.org/2000/svg">
<path fill-rule="evenodd" clip-rule="evenodd" d="M12 0H52C58.627 0 64 5.373 64 12V52C64 58.627 58.627 64 52 64H12C5.373 64 0 58.627 0 52V12C0 5.373 5.373 0 12 0Z" fill="#F7EBFA"/>
<path d="M41 24H23C19.1406 24 16 27.1406 16 31V41C16 44.8594 19.1406 48 23 48H32C32.5527 48 33 47.5527 33 47C33 46.4473 32.5527 46 32 46H23C20.2432 46 18 43.7568 18 41V31C18 28.2432 20.2432 26 23 26H41C43.7568 26 46 28.2432 46 31V31.999C46 32.5517 46.4473 32.999 47 32.999C47.5527 32.999 48 32.5517 48 31.999V31C48 27.1406 44.8594 24 41 24Z" fill="#B13ED6"/>
<path d="M27 21C27.5527 21 28 20.5527 28 20C28 18.8975 28.8975 18 30 18H34C35.1025 18 36 18.8975 36 20C36 20.5527 36.4473 21 37 21C37.5527 21 38 20.5527 38 20C38 17.7939 36.2061 16 34 16H30C27.7939 16 26 17.7939 26 20C26 20.5527 26.4473 21 27 21Z" fill="#B13ED6"/>
<path d="M32 33.4995C32.8284 33.4995 33.5 32.8279 33.5 31.9995C33.5 31.1711 32.8284 30.4995 32 30.4995C31.1716 30.4995 30.5 31.1711 30.5 31.9995C30.5 32.8279 31.1716 33.4995 32 33.4995Z" fill="#B13ED6"/>
<path d="M47.8701 36.0332C47.5928 35.5527 46.9795 35.3916 46.5039 35.667L44.723 36.6953C44.0178 35.9016 43.0787 35.321 42 35.1011V33.0674C42 32.5147 41.5527 32.0674 41 32.0674C40.4473 32.0674 40 32.5147 40 33.0674V35.1011C38.9214 35.3209 37.9825 35.9015 37.2773 36.695L35.4961 35.667C35.0186 35.3916 34.4063 35.5547 34.1299 36.0332C33.8535 36.5117 34.0176 37.123 34.4961 37.3994L36.2778 38.4276C36.1115 38.925 36 39.4475 36 40C36 40.552 36.1113 41.074 36.2773 41.571L34.4961 42.5996C34.0176 42.876 33.8535 43.4873 34.1299 43.9658C34.3154 44.2871 34.6514 44.4658 34.9971 44.4658C35.167 44.4658 35.3389 44.4228 35.4961 44.332L37.2764 43.3039C37.9817 44.0978 38.9209 44.6789 40 44.8989V46.9316C40 47.4843 40.4473 47.9316 41 47.9316C41.5527 47.9316 42 47.4843 42 46.9316V44.8989C43.0789 44.6789 44.0179 44.0981 44.7231 43.3044L46.5039 44.332C46.6611 44.4228 46.833 44.4658 47.0029 44.4658C47.3486 44.4658 47.6845 44.2861 47.8701 43.9658C48.1465 43.4873 47.9824 42.876 47.5039 42.5996L45.7224 41.5715C45.8885 41.0744 46 40.5522 46 40C46 39.4478 45.8885 38.9254 45.7224 38.4282L47.5039 37.3994C47.9824 37.123 48.1465 36.5117 47.8701 36.0332ZM41 43C39.3457 43 38 41.6543 38 40C38 38.3457 39.3457 37 41 37C42.6543 37 44 38.3457 44 40C44 41.6543 42.6543 43 41 43Z" fill="#B13ED6"/>
<path d="M29 37C26.2432 37 24 34.7568 24 32C24 31.4473 23.5527 31 23 31C22.4473 31 22 31.4473 22 32C22 35.8594 25.1406 39 29 39H31C31.5527 39 32 38.5527 32 38C32 37.4473 31.5527 37 31 37H29Z" fill="#B13ED6"/>
</svg>
