<svg width="64" height="64" viewBox="0 0 64 64" fill="none" xmlns="http://www.w3.org/2000/svg">
<path fill-rule="evenodd" clip-rule="evenodd" d="M12 0H52C58.627 0 64 5.373 64 12V52C64 58.627 58.627 64 52 64H12C5.373 64 0 58.627 0 52V12C0 5.373 5.373 0 12 0" fill="#E9EEF8"/>
<path fill-rule="evenodd" clip-rule="evenodd" d="M17 28.4219H47V25.9219H17V28.4219Z" fill="#295AC2"/>
<path fill-rule="evenodd" clip-rule="evenodd" d="M25 22.5244C24.31 22.5244 23.75 21.9644 23.75 21.2744V16.2744C23.75 15.5844 24.31 15.0244 25 15.0244C25.69 15.0244 26.25 15.5844 26.25 16.2744V21.2744C26.25 21.9644 25.69 22.5244 25 22.5244" fill="#295AC2"/>
<path fill-rule="evenodd" clip-rule="evenodd" d="M42.25 17.8442V20.4832C44.306 21.3612 45.75 23.4012 45.75 25.7742V39.7742C45.75 42.9452 43.171 45.5242 40 45.5242H24C20.829 45.5242 18.25 42.9452 18.25 39.7742V25.7742C18.25 23.4012 19.694 21.3612 21.75 20.4832V17.8442C18.293 18.8272 15.75 22.0062 15.75 25.7742V39.7742C15.75 44.3232 19.451 48.0242 24 48.0242H40C44.549 48.0242 48.25 44.3232 48.25 39.7742V25.7742C48.25 22.0062 45.707 18.8272 42.25 17.8442" fill="#295AC2"/>
<path fill-rule="evenodd" clip-rule="evenodd" d="M28.25 20.0249H35.75V17.5249H28.25V20.0249Z" fill="#295AC2"/>
<path fill-rule="evenodd" clip-rule="evenodd" d="M39 22.5244C38.31 22.5244 37.75 21.9644 37.75 21.2744V16.2744C37.75 15.5844 38.31 15.0244 39 15.0244C39.69 15.0244 40.25 15.5844 40.25 16.2744V21.2744C40.25 21.9644 39.69 22.5244 39 22.5244" fill="#295AC2"/>
<path fill-rule="evenodd" clip-rule="evenodd" d="M26.25 33.2612C26.25 34.2272 25.466 35.0112 24.5 35.0112C23.534 35.0112 22.75 34.2272 22.75 33.2612C22.75 32.2952 23.534 31.5112 24.5 31.5112C25.466 31.5112 26.25 32.2952 26.25 33.2612" fill="#295AC2"/>
<path fill-rule="evenodd" clip-rule="evenodd" d="M33.75 33.2612C33.75 34.2272 32.967 35.0112 32 35.0112C31.034 35.0112 30.25 34.2272 30.25 33.2612C30.25 32.2952 31.034 31.5112 32 31.5112C32.967 31.5112 33.75 32.2952 33.75 33.2612" fill="#295AC2"/>
<path fill-rule="evenodd" clip-rule="evenodd" d="M41.25 33.2612C41.25 34.2272 40.467 35.0112 39.5 35.0112C38.534 35.0112 37.75 34.2272 37.75 33.2612C37.75 32.2952 38.534 31.5112 39.5 31.5112C40.467 31.5112 41.25 32.2952 41.25 33.2612" fill="#295AC2"/>
<path fill-rule="evenodd" clip-rule="evenodd" d="M26.25 39.7612C26.25 40.7272 25.466 41.5112 24.5 41.5112C23.534 41.5112 22.75 40.7272 22.75 39.7612C22.75 38.7952 23.534 38.0112 24.5 38.0112C25.466 38.0112 26.25 38.7952 26.25 39.7612" fill="#295AC2"/>
<path fill-rule="evenodd" clip-rule="evenodd" d="M33.75 39.7612C33.75 40.7272 32.967 41.5112 32 41.5112C31.034 41.5112 30.25 40.7272 30.25 39.7612C30.25 38.7952 31.034 38.0112 32 38.0112C32.967 38.0112 33.75 38.7952 33.75 39.7612" fill="#295AC2"/>
<path fill-rule="evenodd" clip-rule="evenodd" d="M41.25 39.7612C41.25 40.7272 40.467 41.5112 39.5 41.5112C38.534 41.5112 37.75 40.7272 37.75 39.7612C37.75 38.7952 38.534 38.0112 39.5 38.0112C40.467 38.0112 41.25 38.7952 41.25 39.7612" fill="#295AC2"/>
</svg>
