<svg width="64" height="64" viewBox="0 0 64 64" fill="none" xmlns="http://www.w3.org/2000/svg">
<path fill-rule="evenodd" clip-rule="evenodd" d="M12 0H52C58.627 0 64 5.373 64 12V52C64 58.627 58.627 64 52 64H12C5.373 64 0 58.627 0 52V12C0 5.373 5.373 0 12 0Z" fill="#F7EBFA"/>
<path fill-rule="evenodd" clip-rule="evenodd" d="M22.6837 27.9131C21.4977 27.9131 20.5337 28.8771 20.5337 30.0621C20.5337 31.2481 21.4977 32.2131 22.6837 32.2131C23.8697 32.2131 24.8337 31.2481 24.8337 30.0621C24.8337 28.8771 23.8697 27.9131 22.6837 27.9131ZM22.6837 34.7131C20.1197 34.7131 18.0337 32.6271 18.0337 30.0621C18.0337 27.4991 20.1197 25.4131 22.6837 25.4131C25.2477 25.4131 27.3337 27.4991 27.3337 30.0621C27.3337 32.6271 25.2477 34.7131 22.6837 34.7131Z" fill="#B13ED6"/>
<path fill-rule="evenodd" clip-rule="evenodd" d="M29.201 42.3059C28.77 42.3059 28.35 42.0819 28.118 41.6819L25.504 37.1659C25.416 37.0169 25.255 36.9229 25.081 36.9229H20.285C20.112 36.9229 19.951 37.0159 19.864 37.1659L17.248 41.6819C16.904 42.2809 16.138 42.4849 15.54 42.1379C14.943 41.7909 14.739 41.0269 15.085 40.4299L17.7 35.9139C18.231 34.9939 19.222 34.4229 20.285 34.4229H25.081C26.144 34.4229 27.135 34.9939 27.667 35.9139L30.282 40.4299C30.628 41.0269 30.424 41.7909 29.826 42.1379C29.629 42.2519 29.414 42.3059 29.201 42.3059Z" fill="#B13ED6"/>
<path fill-rule="evenodd" clip-rule="evenodd" d="M41.317 35.3164C40.131 35.3164 39.167 36.2814 39.167 37.4664C39.167 38.6524 40.131 39.6164 41.317 39.6164C42.503 39.6164 43.467 38.6524 43.467 37.4664C43.467 36.2814 42.503 35.3164 41.317 35.3164ZM41.317 42.1164C38.753 42.1164 36.667 40.0304 36.667 37.4664C36.667 34.9024 38.753 32.8164 41.317 32.8164C43.881 32.8164 45.967 34.9024 45.967 37.4664C45.967 40.0304 43.881 42.1164 41.317 42.1164Z" fill="#B13ED6"/>
<path fill-rule="evenodd" clip-rule="evenodd" d="M47.8341 49.7092C47.4031 49.7092 46.9831 49.4852 46.7511 49.0852L44.1371 44.5692C44.0501 44.4202 43.8881 44.3262 43.7151 44.3262H38.9181C38.7451 44.3262 38.5841 44.4202 38.4961 44.5692L35.8821 49.0852C35.5371 49.6842 34.7711 49.8882 34.1741 49.5412C33.5771 49.1952 33.3731 48.4302 33.7181 47.8332L36.3331 43.3172C36.8651 42.3972 37.8561 41.8262 38.9181 41.8262H43.7151C44.7771 41.8262 45.7681 42.3972 46.3001 43.3172L48.9151 47.8332C49.2611 48.4302 49.0571 49.1952 48.4591 49.5412C48.2621 49.6552 48.0471 49.7092 47.8341 49.7092Z" fill="#B13ED6"/>
<path fill-rule="evenodd" clip-rule="evenodd" d="M30.4502 23.688H32.7202C33.3802 23.688 33.9212 24.2 33.9672 24.847L34.7612 24.054C34.9952 23.82 35.3132 23.688 35.6442 23.688H41.1302V16.791H30.4502V23.688ZM32.7202 29.112C32.5592 29.112 32.3962 29.081 32.2422 29.017C31.7752 28.823 31.4702 28.368 31.4702 27.862V26.188H29.2002C28.5102 26.188 27.9502 25.628 27.9502 24.938V15.541C27.9502 14.85 28.5102 14.291 29.2002 14.291H42.3802C43.0712 14.291 43.6302 14.85 43.6302 15.541V24.938C43.6302 25.628 43.0712 26.188 42.3802 26.188H36.1622L33.6042 28.746C33.3652 28.985 33.0452 29.112 32.7202 29.112Z" fill="#B13ED6"/>
</svg>
