<svg width="64" height="64" viewBox="0 0 64 64" fill="none" xmlns="http://www.w3.org/2000/svg">
<path fill-rule="evenodd" clip-rule="evenodd" d="M12 0H52C58.627 0 64 5.373 64 12V52C64 58.627 58.627 64 52 64H12C5.373 64 0 58.627 0 52V12C0 5.373 5.373 0 12 0" fill="#E9EEF8"/>
<path fill-rule="evenodd" clip-rule="evenodd" d="M32 18.0274C28.42 18.0274 24.84 19.3904 22.115 22.1154C19.475 24.7564 18.021 28.2654 18.021 32.0004C18.021 35.7344 19.475 39.2444 22.115 41.8844C27.567 47.3354 36.436 47.3354 41.885 41.8844C47.335 36.4344 47.334 27.5654 41.885 22.1154C39.16 19.3904 35.58 18.0274 32 18.0274M32 48.4714C27.779 48.4714 23.561 46.8654 20.348 43.6524C17.235 40.5404 15.521 36.4014 15.521 32.0004C15.521 27.5984 17.235 23.4604 20.348 20.3474C26.772 13.9214 37.227 13.9224 43.653 20.3474C50.078 26.7724 50.078 37.2274 43.653 43.6524C40.44 46.8644 36.22 48.4714 32 48.4714" fill="#295AC2"/>
<path fill-rule="evenodd" clip-rule="evenodd" d="M41.8852 43.6522L20.3472 22.1152L22.1152 20.3472L43.6532 41.8842L41.8852 43.6522Z" fill="#295AC2"/>
<path fill-rule="evenodd" clip-rule="evenodd" d="M21.6074 32.742V31.257L28.2204 28.356V30.286L23.9694 31.973L28.2204 33.66V35.644L21.6074 32.742Z" fill="#295AC2"/>
<path fill-rule="evenodd" clip-rule="evenodd" d="M33.3498 25.9263H34.9698L30.6508 38.0733H29.0308L33.3498 25.9263Z" fill="#295AC2"/>
<path fill-rule="evenodd" clip-rule="evenodd" d="M42.3923 31.257V32.742L35.7793 35.644V33.714L40.0303 32.026L35.7793 30.339V28.356L42.3923 31.257Z" fill="#295AC2"/>
</svg>
