<svg width="64" height="64" viewBox="0 0 64 64" fill="none" xmlns="http://www.w3.org/2000/svg">
<path fill-rule="evenodd" clip-rule="evenodd" d="M12 0H52C58.627 0 64 5.373 64 12V52C64 58.627 58.627 64 52 64H12C5.373 64 0 58.627 0 52V12C0 5.373 5.373 0 12 0Z" fill="#E9EEF8"/>
<path d="M22.0003 38H42.0003C42.553 38 43.0003 37.5527 43.0003 37C43.0003 36.4473 42.553 36 42.0003 36H22.0003C21.4475 36 21.0003 36.4473 21.0003 37C21.0003 37.5527 21.4476 38 22.0003 38Z" fill="#295AC2"/>
<path d="M42.0003 41H22.0003C21.4475 41 21.0003 41.4473 21.0003 42C21.0003 42.5527 21.4476 43 22.0003 43H42.0003C42.553 43 43.0003 42.5527 43.0003 42C43.0003 41.4473 42.553 41 42.0003 41Z" fill="#295AC2"/>
<path d="M28.0003 24C30.2064 24 32.0003 22.2061 32.0003 20C32.0003 17.7939 30.2063 16 28.0003 16C25.7943 16 24.0003 17.7939 24.0003 20C24.0003 22.2061 25.7942 24 28.0003 24ZM28.0003 18C29.1028 18 30.0003 18.8975 30.0003 20C30.0003 21.1025 29.1028 22 28.0003 22C26.8978 22 26.0003 21.1025 26.0003 20C26.0003 18.8975 26.8978 18 28.0003 18Z" fill="#295AC2"/>
<path d="M21.5022 31.8672C21.9817 32.1406 22.592 31.9756 22.8674 31.4981L25.2746 27.3028C25.382 27.1163 25.5803 27.0001 25.7922 27.0001H30.2082C30.4201 27.0001 30.6184 27.1163 30.7258 27.3028L33.133 31.4981C33.3176 31.8194 33.6545 32.0001 34.0012 32.0001C34.1701 32.0001 34.341 31.9571 34.4983 31.8673C34.9768 31.5929 35.1428 30.9816 34.8674 30.5021L32.4602 26.3068C31.9973 25.5011 31.134 25.0002 30.2082 25.0002H25.7922C24.8664 25.0002 24.0031 25.5012 23.5402 26.3068L21.1331 30.502C20.8577 30.9815 21.0237 31.5928 21.5022 31.8672Z" fill="#295AC2"/>
<path d="M34.0003 46H22.0003C21.4475 46 21.0003 46.4473 21.0003 47C21.0003 47.5527 21.4476 48 22.0003 48H34.0003C34.553 48 35.0003 47.5527 35.0003 47C35.0003 46.4473 34.553 46 34.0003 46Z" fill="#295AC2"/>
</svg>
