<svg width="64" height="64" viewBox="0 0 64 64" fill="none" xmlns="http://www.w3.org/2000/svg">
<path fill-rule="evenodd" clip-rule="evenodd" d="M12 0H52C58.627 0 64 5.373 64 12V52C64 58.627 58.627 64 52 64H12C5.373 64 0 58.627 0 52V12C0 5.373 5.373 0 12 0Z" fill="#FFEDED"/>
<path fill-rule="evenodd" clip-rule="evenodd" d="M18 18.2812C17.587 18.2812 17.25 18.6182 17.25 19.0312C17.25 19.4443 17.587 19.7812 18 19.7812C18.413 19.7812 18.75 19.4443 18.75 19.0312C18.75 18.6182 18.413 18.2812 18 18.2812ZM18 22.2812C16.208 22.2812 14.75 20.8232 14.75 19.0312C14.75 17.2392 16.208 15.7812 18 15.7812C19.792 15.7812 21.25 17.2392 21.25 19.0312C21.25 20.8232 19.792 22.2812 18 22.2812Z" fill="#FC6144"/>
<path fill-rule="evenodd" clip-rule="evenodd" d="M46 20.2812H25C24.31 20.2812 23.75 19.7213 23.75 19.0312C23.75 18.3413 24.31 17.7812 25 17.7812H46C46.69 17.7812 47.25 18.3413 47.25 19.0312C47.25 19.7213 46.69 20.2812 46 20.2812Z" fill="#FC6144"/>
<path fill-rule="evenodd" clip-rule="evenodd" d="M18 28.2812C17.587 28.2812 17.25 28.6182 17.25 29.0312C17.25 29.4443 17.587 29.7812 18 29.7812C18.413 29.7812 18.75 29.4443 18.75 29.0312C18.75 28.6182 18.413 28.2812 18 28.2812ZM18 32.2812C16.208 32.2812 14.75 30.8232 14.75 29.0312C14.75 27.2392 16.208 25.7812 18 25.7812C19.792 25.7812 21.25 27.2392 21.25 29.0312C21.25 30.8232 19.792 32.2812 18 32.2812Z" fill="#FC6144"/>
<path fill-rule="evenodd" clip-rule="evenodd" d="M46 30.2812H25C24.31 30.2812 23.75 29.7213 23.75 29.0312C23.75 28.3413 24.31 27.7812 25 27.7812H46C46.69 27.7812 47.25 28.3413 47.25 29.0312C47.25 29.7213 46.69 30.2812 46 30.2812Z" fill="#FC6144"/>
<path fill-rule="evenodd" clip-rule="evenodd" d="M18 38.2812C17.587 38.2812 17.25 38.6182 17.25 39.0312C17.25 39.4443 17.587 39.7812 18 39.7812C18.413 39.7812 18.75 39.4443 18.75 39.0312C18.75 38.6182 18.413 38.2812 18 38.2812ZM18 42.2812C16.208 42.2812 14.75 40.8232 14.75 39.0312C14.75 37.2392 16.208 35.7812 18 35.7812C19.792 35.7812 21.25 37.2392 21.25 39.0312C21.25 40.8232 19.792 42.2812 18 42.2812Z" fill="#FC6144"/>
<path fill-rule="evenodd" clip-rule="evenodd" d="M46 40.2812H25C24.31 40.2812 23.75 39.7213 23.75 39.0312C23.75 38.3413 24.31 37.7812 25 37.7812H46C46.69 37.7812 47.25 38.3413 47.25 39.0312C47.25 39.7213 46.69 40.2812 46 40.2812Z" fill="#FC6144"/>
<path fill-rule="evenodd" clip-rule="evenodd" d="M36.127 41.0317C36.127 37.7527 38.785 35.0947 42.064 35.0947C45.342 35.0947 48 37.7527 48 41.0317C48 44.3107 45.342 46.9687 42.064 46.9687C38.785 46.9687 36.127 44.3107 36.127 41.0317Z" fill="#FFEDED"/>
<path fill-rule="evenodd" clip-rule="evenodd" d="M42.0635 36.3447C39.4795 36.3447 37.3765 38.4477 37.3765 41.0317C37.3765 43.6157 39.4795 45.7177 42.0635 45.7177C44.6475 45.7177 46.7505 43.6157 46.7505 41.0317C46.7505 38.4477 44.6475 36.3447 42.0635 36.3447ZM42.0635 48.2177C38.1005 48.2177 34.8765 44.9937 34.8765 41.0317C34.8765 37.0687 38.1005 33.8447 42.0635 33.8447C46.0265 33.8447 49.2505 37.0687 49.2505 41.0317C49.2505 44.9937 46.0265 48.2177 42.0635 48.2177Z" fill="#FC6144"/>
<path fill-rule="evenodd" clip-rule="evenodd" d="M40.2959 44.0497C39.9759 44.0497 39.6559 43.9277 39.4119 43.6837C38.9239 43.1957 38.9239 42.4037 39.4119 41.9157L42.9469 38.3797C43.4359 37.8917 44.2269 37.8917 44.7149 38.3797C45.2029 38.8677 45.2029 39.6587 44.7149 40.1477L41.1799 43.6837C40.9359 43.9277 40.6159 44.0497 40.2959 44.0497Z" fill="#FC6144"/>
<path fill-rule="evenodd" clip-rule="evenodd" d="M43.8309 44.0497C43.5109 44.0497 43.1909 43.9277 42.9469 43.6837L39.4119 40.1477C38.9239 39.6587 38.9239 38.8677 39.4119 38.3797C39.8999 37.8917 40.6909 37.8917 41.1799 38.3797L44.7149 41.9157C45.2029 42.4037 45.2029 43.1957 44.7149 43.6837C44.4709 43.9277 44.1509 44.0497 43.8309 44.0497Z" fill="#FC6144"/>
</svg>
