<svg width="64" height="64" viewBox="0 0 64 64" fill="none" xmlns="http://www.w3.org/2000/svg">
<path fill-rule="evenodd" clip-rule="evenodd" d="M12 0H52C58.627 0 64 5.373 64 12V52C64 58.627 58.627 64 52 64H12C5.373 64 0 58.627 0 52V12C0 5.373 5.373 0 12 0Z" fill="#FFEDED"/>
<path fill-rule="evenodd" clip-rule="evenodd" d="M31.9999 24.252C28.8299 24.252 25.8489 25.486 23.6069 27.729C21.3649 29.971 20.1299 32.951 20.1299 36.121C20.1299 39.291 21.3649 42.272 23.6069 44.514C25.8489 46.756 28.8299 47.99 31.9999 47.99C35.1699 47.99 38.1509 46.756 40.3929 44.514C42.6339 42.272 43.8689 39.291 43.8689 36.121C43.8689 32.951 42.6339 29.971 40.3929 27.729C38.1509 25.486 35.1699 24.252 31.9999 24.252ZM31.9999 50.49C28.1619 50.49 24.5529 48.996 21.8389 46.281C19.1249 43.567 17.6299 39.959 17.6299 36.121C17.6299 32.283 19.1249 28.675 21.8389 25.961C24.5529 23.246 28.1619 21.752 31.9999 21.752C35.8379 21.752 39.4459 23.247 42.1599 25.961C42.1599 25.961 42.1609 25.961 42.1599 25.961C44.8749 28.675 46.3689 32.283 46.3689 36.121C46.3689 39.959 44.8749 43.567 42.1599 46.281C39.4459 48.996 35.8379 50.49 31.9999 50.49Z" fill="#FF5555"/>
<path fill-rule="evenodd" clip-rule="evenodd" d="M28.7432 17.9291H35.2572V16.1631H28.7432V17.9291ZM36.5072 20.4291H27.4932C26.8022 20.4291 26.2432 19.8691 26.2432 19.1791V14.9131C26.2432 14.2231 26.8022 13.6631 27.4932 13.6631H36.5072C37.1972 13.6631 37.7572 14.2231 37.7572 14.9131V19.1791C37.7572 19.8691 37.1972 20.4291 36.5072 20.4291Z" fill="#FF5555"/>
<path fill-rule="evenodd" clip-rule="evenodd" d="M30.0884 39.2822C29.7684 39.2822 29.4484 39.1602 29.2044 38.9162C28.7164 38.4282 28.7164 37.6362 29.2044 37.1482L36.0394 30.3142C36.5274 29.8262 37.3184 29.8262 37.8064 30.3142C38.2954 30.8032 38.2954 31.5942 37.8064 32.0822L30.9724 38.9162C30.7284 39.1602 30.4084 39.2822 30.0884 39.2822Z" fill="#FF5555"/>
<path fill-rule="evenodd" clip-rule="evenodd" d="M41.2764 28.095C40.9564 28.095 40.6364 27.973 40.3924 27.729C39.9044 27.241 39.9044 26.449 40.3924 25.961L42.2354 24.118C42.7234 23.63 43.5144 23.63 44.0034 24.118C44.4914 24.607 44.4914 25.398 44.0034 25.886L42.1604 27.729C41.9164 27.973 41.5964 28.095 41.2764 28.095Z" fill="#FF5555"/>
<path fill-rule="evenodd" clip-rule="evenodd" d="M32 40.0745C31.31 40.0745 30.75 39.5145 30.75 38.8245V27.8765C30.75 27.1855 31.31 26.6265 32 26.6265C32.69 26.6265 33.25 27.1855 33.25 27.8765V38.8245C33.25 39.5145 32.69 40.0745 32 40.0745Z" fill="#FF5555"/>
</svg>
