<svg width="64" height="64" viewBox="0 0 64 64" fill="none" xmlns="http://www.w3.org/2000/svg">
<path fill-rule="evenodd" clip-rule="evenodd" d="M12 0H52C58.627 0 64 5.373 64 12V52C64 58.627 58.627 64 52 64H12C5.373 64 0 58.627 0 52V12C0 5.373 5.373 0 12 0Z" fill="#FFEDED"/>
<g clip-path="url(#clip0_0_12215)">
<path d="M20 22C21.1046 22 22 21.1046 22 20C22 18.8954 21.1046 18 20 18C18.8954 18 18 18.8954 18 20C18 21.1046 18.8954 22 20 22Z" fill="#FC6144"/>
<path d="M25 21.0005H45C45.5527 21.0005 46 20.5532 46 20.0005C46 19.4478 45.5527 19.0005 45 19.0005H25C24.4473 19.0005 24 19.4478 24 20.0005C24 20.5532 24.4473 21.0005 25 21.0005Z" fill="#FC6144"/>
<path d="M20 30C21.1046 30 22 29.1046 22 28C22 26.8954 21.1046 26 20 26C18.8954 26 18 26.8954 18 28C18 29.1046 18.8954 30 20 30Z" fill="#FC6144"/>
<path d="M45 27.0005H25C24.4473 27.0005 24 27.4478 24 28.0005C24 28.5532 24.4473 29.0005 25 29.0005H45C45.5527 29.0005 46 28.5532 46 28.0005C46 27.4478 45.5527 27.0005 45 27.0005Z" fill="#FC6144"/>
<path d="M20 38C21.1046 38 22 37.1046 22 36C22 34.8954 21.1046 34 20 34C18.8954 34 18 34.8954 18 36C18 37.1046 18.8954 38 20 38Z" fill="#FC6144"/>
<path d="M30 35.0005H25C24.4473 35.0005 24 35.4478 24 36.0005C24 36.5532 24.4473 37.0005 25 37.0005H30C30.5527 37.0005 31 36.5532 31 36.0005C31 35.4478 30.5527 35.0005 30 35.0005Z" fill="#FC6144"/>
<path d="M45.707 35.2936C45.3164 34.903 44.6836 34.903 44.2929 35.2936L40.9999 38.5866L37.7069 35.2936C37.3163 34.903 36.6835 34.903 36.2928 35.2936C35.9021 35.6842 35.9022 36.317 36.2928 36.7077L39.5858 40.0007L36.2928 43.2937C35.9022 43.6843 35.9022 44.3171 36.2928 44.7078C36.4881 44.9031 36.744 45.0008 36.9998 45.0008C37.2556 45.0008 37.5115 44.9031 37.7068 44.7078L40.9998 41.4148L44.2928 44.7078C44.4881 44.9031 44.744 45.0008 44.9998 45.0008C45.2556 45.0008 45.5115 44.9031 45.7068 44.7078C46.0974 44.3172 46.0974 43.6844 45.7068 43.2937L42.4138 40.0007L45.7068 36.7077C46.0974 36.3171 46.0976 35.6843 45.707 35.2936Z" fill="#FC6144"/>
</g>
<defs>
<clipPath id="clip0_0_12215">
<rect width="28" height="27.0005" fill="white" transform="translate(18 18)"/>
</clipPath>
</defs>
</svg>
