<svg width="64" height="64" viewBox="0 0 64 64" fill="none" xmlns="http://www.w3.org/2000/svg">
<path fill-rule="evenodd" clip-rule="evenodd" d="M12 0H52C58.627 0 64 5.373 64 12V52C64 58.627 58.627 64 52 64H12C5.373 64 0 58.627 0 52V12C0 5.373 5.373 0 12 0Z" fill="#E9EEF8"/>
<g clip-path="url(#clip0_0_12236)">
<path d="M43 17C42.4473 17 42 17.4473 42 18C42 18.5527 42.4473 19 43 19C44.6543 19 46 20.3457 46 22V25H18V22C18 20.3457 19.3457 19 21 19C21.5527 19 22 18.5527 22 18C22 17.4473 21.5527 17 21 17C18.2432 17 16 19.2432 16 22V40C16 43.8594 19.1406 47 23 47H41C44.8594 47 48 43.8594 48 40V22C48 19.2432 45.7568 17 43 17ZM41 45H23C20.2432 45 18 42.7568 18 40V27H46V40C46 42.7568 43.7568 45 41 45Z" fill="#295AC2"/>
<path d="M25 22C25.5527 22 26 21.5527 26 21V15C26 14.4473 25.5527 14 25 14C24.4473 14 24 14.4473 24 15V21C24 21.5527 24.4473 22 25 22Z" fill="#295AC2"/>
<path d="M39 22C39.5527 22 40 21.5527 40 21V15C40 14.4473 39.5527 14 39 14C38.4473 14 38 14.4473 38 15V21C38 21.5527 38.4473 22 39 22Z" fill="#295AC2"/>
<path d="M26 34.9995C27.1046 34.9995 28 34.1041 28 32.9995C28 31.8949 27.1046 30.9995 26 30.9995C24.8954 30.9995 24 31.8949 24 32.9995C24 34.1041 24.8954 34.9995 26 34.9995Z" fill="#295AC2"/>
<path d="M32 34.9995C33.1046 34.9995 34 34.1041 34 32.9995C34 31.8949 33.1046 30.9995 32 30.9995C30.8954 30.9995 30 31.8949 30 32.9995C30 34.1041 30.8954 34.9995 32 34.9995Z" fill="#295AC2"/>
<path d="M38 34.9995C39.1046 34.9995 40 34.1041 40 32.9995C40 31.8949 39.1046 30.9995 38 30.9995C36.8954 30.9995 36 31.8949 36 32.9995C36 34.1041 36.8954 34.9995 38 34.9995Z" fill="#295AC2"/>
<path d="M26 40.9995C27.1046 40.9995 28 40.1041 28 38.9995C28 37.8949 27.1046 36.9995 26 36.9995C24.8954 36.9995 24 37.8949 24 38.9995C24 40.1041 24.8954 40.9995 26 40.9995Z" fill="#295AC2"/>
<path d="M32 40.9995C33.1046 40.9995 34 40.1041 34 38.9995C34 37.8949 33.1046 36.9995 32 36.9995C30.8954 36.9995 30 37.8949 30 38.9995C30 40.1041 30.8954 40.9995 32 40.9995Z" fill="#295AC2"/>
<path d="M38 40.9995C39.1046 40.9995 40 40.1041 40 38.9995C40 37.8949 39.1046 36.9995 38 36.9995C36.8954 36.9995 36 37.8949 36 38.9995C36 40.1041 36.8954 40.9995 38 40.9995Z" fill="#295AC2"/>
<path d="M29 19H34C34.5527 19 35 18.5527 35 18C35 17.4473 34.5527 17 34 17H29C28.4473 17 28 17.4473 28 18C28 18.5527 28.4473 19 29 19Z" fill="#295AC2"/>
</g>
<defs>
<clipPath id="clip0_0_12236">
<rect width="32" height="33" fill="white" transform="translate(16 14)"/>
</clipPath>
</defs>
</svg>
