<svg width="64" height="64" viewBox="0 0 64 64" fill="none" xmlns="http://www.w3.org/2000/svg">
<path fill-rule="evenodd" clip-rule="evenodd" d="M12 0H52C58.627 0 64 5.373 64 12V52C64 58.627 58.627 64 52 64H12C5.373 64 0 58.627 0 52V12C0 5.373 5.373 0 12 0Z" fill="#E9EEF8"/>
<g clip-path="url(#clip0_0_12205)">
<path d="M43.3057 20.6787C37.0674 14.4404 26.917 14.4404 20.6787 20.6787C14.4404 26.917 14.4404 37.0683 20.6787 43.3066C23.7978 46.4257 27.8945 47.9853 31.9922 47.9853C36.0899 47.9853 40.1865 46.4257 43.3057 43.3066C49.544 37.0683 49.544 26.917 43.3057 20.6787ZM41.8916 22.0928C47.1119 27.3131 47.3267 35.6557 42.5627 41.1497L33.1657 31.7522L34.9208 27.3643C35.1259 26.8516 34.8759 26.2696 34.3632 26.0645C33.8534 25.8584 33.2685 26.1075 33.0634 26.6221L31.6269 30.2134L22.8357 21.4216C25.457 19.1487 28.7207 17.999 31.9922 17.999C35.5772 17.999 39.1621 19.3633 41.8916 22.0928ZM22.0928 41.8926C16.8724 36.6722 16.6577 28.3297 21.4216 22.8357L30.8188 32.2334L29.0634 36.6221C28.8583 37.1348 29.1083 37.7168 29.621 37.9219C29.7421 37.9707 29.8681 37.9932 29.9921 37.9932C30.3886 37.9932 30.7646 37.7559 30.9208 37.3643L32.3576 33.7723L41.1486 42.5638C35.6547 47.3277 27.3131 47.1129 22.0928 41.8926Z" fill="#295AC2"/>
<path d="M40.3252 31.9932L38.1025 33.6602C37.6601 33.9913 37.5703 34.6182 37.9023 35.0596C38.0986 35.3223 38.3984 35.46 38.7031 35.46C38.9121 35.46 39.122 35.3946 39.3017 35.2598L42.5917 32.793C42.8437 32.6045 42.9921 32.3076 42.9921 31.9932C42.9921 31.6788 42.8437 31.3819 42.5917 31.1934L38.5917 28.1934C38.1513 27.8623 37.5233 27.9512 37.1923 28.3936C36.8603 28.835 36.9501 29.462 37.3925 29.793L40.3252 31.9932Z" fill="#295AC2"/>
<path d="M23.6592 31.9932L25.8819 30.3252C26.3243 29.9941 26.4141 29.3672 26.0821 28.9258C25.751 28.4824 25.1241 28.3946 24.6827 28.7256L21.3927 31.1934C21.1407 31.3819 20.9923 31.6788 20.9923 31.9932C20.9923 32.3076 21.1407 32.6045 21.3927 32.793L25.3927 35.792C25.5724 35.9268 25.7823 35.9922 25.9913 35.9922C26.296 35.9922 26.5958 35.8545 26.7921 35.5918C27.1241 35.1504 27.0343 34.5234 26.5919 34.1924L23.6592 31.9932Z" fill="#295AC2"/>
</g>
<defs>
<clipPath id="clip0_0_12205">
<rect width="31.9844" height="31.9854" fill="white" transform="translate(16 16)"/>
</clipPath>
</defs>
</svg>
