<svg width="64" height="64" viewBox="0 0 64 64" fill="none" xmlns="http://www.w3.org/2000/svg">
<path opacity="0.1" fill-rule="evenodd" clip-rule="evenodd" d="M12 0H52C58.627 0 64 5.373 64 12V52C64 58.627 58.627 64 52 64H12C5.373 64 0 58.627 0 52V12C0 5.373 5.373 0 12 0Z" fill="#FF5555"/>
<path fill-rule="evenodd" clip-rule="evenodd" d="M40.6881 37.1749L40.0301 34.7629L45.2611 33.3359C46.1251 33.1009 46.7501 32.1299 46.7501 31.0269C46.7501 29.7239 45.9071 28.6639 44.8711 28.6639H36.7891V26.1639H44.8711C47.2861 26.1639 49.2511 28.3459 49.2511 31.0269C49.2511 33.2719 47.8801 35.2139 45.9191 35.7479L40.6881 37.1749Z" fill="#FF5555"/>
<path fill-rule="evenodd" clip-rule="evenodd" d="M28.8594 22.9631C28.1694 22.9631 27.6094 22.4031 27.6094 21.7131C27.6094 20.6701 28.3654 20.1261 28.9674 19.8081C28.3664 19.4891 27.6094 18.9451 27.6094 17.9021C27.6094 16.6371 28.7234 16.1081 29.3224 15.8221C29.4234 15.7751 29.5584 15.7101 29.6574 15.6561C29.8064 15.1331 30.2884 14.7501 30.8594 14.7501C31.5494 14.7501 32.1094 15.3101 32.1094 16.0001C32.1094 17.0411 31.3544 17.5851 30.7534 17.9031C31.3544 18.2221 32.1094 18.7661 32.1094 19.8081C32.1094 21.0721 30.9954 21.6041 30.3974 21.8891C30.2964 21.9371 30.1614 22.0011 30.0624 22.0551C29.9134 22.5791 29.4314 22.9631 28.8594 22.9631Z" fill="#FF5555"/>
<path fill-rule="evenodd" clip-rule="evenodd" d="M20.3984 28.6643V33.9283C20.3984 38.7133 24.2914 42.6053 29.0754 42.6053H30.6424C35.4274 42.6053 39.3194 38.7133 39.3194 33.9283V28.6643H20.3984ZM30.6424 45.1053H29.0754C22.9124 45.1053 17.8984 40.0913 17.8984 33.9283V27.4143C17.8984 26.7243 18.4584 26.1643 19.1484 26.1643H40.5694C41.2604 26.1643 41.8194 26.7243 41.8194 27.4143V33.9283C41.8194 40.0913 36.8054 45.1053 30.6424 45.1053Z" fill="#FF5555"/>
<path fill-rule="evenodd" clip-rule="evenodd" d="M18.5401 45.1057L18.9691 45.6627C20.2341 47.3057 21.7641 48.2107 23.2751 48.2107H36.5751C38.0871 48.2107 39.6171 47.3057 40.8811 45.6627L41.3111 45.1057H18.5401ZM36.5751 50.7107H23.2751C20.9701 50.7107 18.7371 49.4597 16.9881 47.1877L15.0101 44.6187C14.7191 44.2407 14.6681 43.7307 14.8781 43.3037C15.0891 42.8767 15.5231 42.6057 16.0001 42.6057H43.8511C44.3281 42.6057 44.7621 42.8767 44.9731 43.3037C45.1831 43.7317 45.1321 44.2417 44.8411 44.6187L42.8621 47.1877C41.1141 49.4597 38.8811 50.7107 36.5751 50.7107Z" fill="#FF5555"/>
</svg>
