<svg width="65" height="64" viewBox="0 0 65 64" fill="none" xmlns="http://www.w3.org/2000/svg">
<rect opacity="0.1" x="0.798828" width="64" height="64" rx="12" fill="#B13ED6"/>
<path d="M48.09 18.7525C47.7262 16.9229 45.9375 15.7145 44.1018 16.0593L44.0788 16.0636C42.3486 16.3885 41.1841 17.9583 41.3101 19.7962C41.3296 20.0805 41.3573 20.402 41.3867 20.7424C41.5455 22.5827 41.7882 25.3992 41.2291 28.4429C41.1667 28.3808 41.1029 28.3202 41.0358 28.2628C40.2904 27.6236 39.3136 27.3264 38.2859 27.4266C37.1639 27.5357 36.1656 28.1563 35.5471 29.1292C35.2516 29.5939 35.0922 30.0712 35.0025 30.5046C34.4566 33.1422 32.8492 35.3937 31.6464 37.0265C30.6945 38.3186 29.7956 39.539 29.2932 41.1958C29.055 42.0658 28.9755 43.029 28.9904 44.0712C28.9954 44.4245 28.8591 44.7603 28.6065 45.0165C28.3485 45.2782 28.0057 45.4224 27.6413 45.4224C27.0532 45.4224 26.5298 45.0277 26.3685 44.4627C25.8055 42.4906 24.6235 40.6213 23.372 38.6422C22.191 36.7743 20.9697 34.8429 20.3822 32.9051C18.8114 27.724 19.282 22.6129 19.9533 19.2376C20.0516 18.7428 20.5368 18.4159 21.033 18.5093L21.0586 18.5142C21.613 18.6183 21.8314 19.1634 21.7998 19.6258C21.7819 19.888 21.7665 20.1855 21.7267 20.5277C20.5125 30.9606 24.6573 35.8491 24.7057 35.926C24.9427 36.3024 25.3478 36.5086 25.7619 36.5086C25.989 36.5086 26.2187 36.4466 26.425 36.3167C27.0077 35.9499 27.1826 35.1801 26.8158 34.5974C25.7771 32.9477 25.6709 31.832 25.7001 31.3137C25.7283 30.8107 25.9005 30.3994 26.1847 30.1556C26.4165 29.9569 26.7143 29.8736 27.0701 29.9084C27.529 29.953 27.7998 30.2368 27.9462 30.4669C28.0401 30.6146 28.113 30.8811 28.1901 31.1632C28.2108 31.2386 28.2315 31.3143 28.2531 31.3902C28.4731 32.1632 28.7621 32.9801 29.0887 33.7525C29.357 34.3867 30.0884 34.6834 30.7226 34.4152C31.3568 34.1469 31.6186 33.4291 31.3853 32.7813C30.8478 31.289 30.6136 30.5725 30.5952 30.5053C30.4784 30.0782 30.346 29.5941 30.0504 29.1291C29.4319 28.1563 28.4336 27.5357 27.3116 27.4265C26.2832 27.3265 25.307 27.6235 24.5616 28.2627C24.4947 28.3201 24.4308 28.3808 24.3684 28.4428C23.8093 25.399 24.052 22.5825 24.2108 20.7421C24.2402 20.4018 24.2679 20.0804 24.2874 19.7961C24.4133 17.9582 23.2488 16.3884 21.5203 16.0639L21.4945 16.0591C19.6599 15.7148 17.8713 16.9226 17.5076 18.7513C16.7808 22.4059 16.2754 27.9537 17.9959 33.6287C18.6814 35.89 19.9946 37.9666 21.2645 39.9749C22.4173 41.7981 23.5063 43.5201 23.9708 45.1473C24.4361 46.7774 25.9455 47.9159 27.6411 47.9159C28.6783 47.9159 29.6518 47.5079 30.382 46.7671C31.107 46.0318 31.4981 45.0617 31.4835 44.0358C31.4719 43.2217 31.5376 42.5367 31.6902 41.8841C32.0712 40.6538 32.7556 39.6191 33.6539 38.5055C36.8349 34.5617 37.3868 31.2383 37.4075 31.1627C37.4846 30.8809 37.5574 30.6146 37.6512 30.4671C37.7976 30.2369 38.0684 29.9531 38.5273 29.9084C38.8831 29.8738 39.181 29.957 39.4127 30.1557C39.697 30.3995 39.8691 30.8108 39.8973 31.3138C39.9265 31.8321 39.8203 32.9478 38.7816 34.5976C38.4148 35.1802 38.5897 35.95 39.1724 36.3168C39.755 36.6836 40.5248 36.5088 40.8917 35.9261C40.9401 35.8492 44.8235 31.2723 43.8709 20.5281C43.8405 20.1848 43.8156 19.8883 43.7977 19.6259C43.766 19.1635 43.9845 18.6185 44.5399 18.5142L44.5629 18.5099C45.0609 18.4163 45.546 18.7435 45.6445 19.2389C46.3156 22.6139 46.786 27.7245 45.2153 32.9055C44.6286 34.8407 43.41 36.7856 42.2316 38.6665C40.5191 41.3996 38.9016 43.9813 38.9016 46.7533C38.9016 47.4418 39.4598 48 40.1483 48C40.8369 48 41.395 47.4418 41.395 46.7533C41.395 44.6979 42.8277 42.4112 44.3445 39.9903C45.6099 37.9708 46.9182 35.8826 47.6014 33.6289C49.3218 27.9541 48.8167 22.4068 48.09 18.7525Z" fill="#B13ED6"/>
<path d="M29.2933 41.1959C29.2861 41.2198 29.299 41.1718 29.2933 41.1959V41.1959Z" fill="#FF5555"/>
</svg>
