<svg width="65" height="64" viewBox="0 0 65 64" fill="none" xmlns="http://www.w3.org/2000/svg">
<rect x="0.298828" width="64" height="64" rx="12" fill="#3D4ED7" fill-opacity="0.1"/>
<path d="M18.9052 47.9993C18.0757 47.9993 17.5383 47.9389 17.4625 47.9298C16.8907 47.8613 16.4397 47.4111 16.3703 46.8394C16.336 46.5572 15.5805 39.8784 19.8983 35.5606C20.3865 35.0724 21.1779 35.0724 21.666 35.5606C22.1542 36.0488 22.1542 36.8402 21.666 37.3283C19.0988 39.8957 18.7869 43.6804 18.8007 45.4944C18.8209 45.4944 18.8414 45.4945 18.8621 45.4945C20.7026 45.4945 24.4475 45.1535 26.9694 42.6316C27.4576 42.1434 28.249 42.1434 28.7372 42.6316C29.2253 43.1198 29.2253 43.9113 28.7372 44.3994C25.5853 47.5513 21.1636 47.9993 18.9052 47.9993Z" fill="#3D4ED7"/>
<path fill-rule="evenodd" clip-rule="evenodd" d="M34.0407 30.2572C34.749 30.9655 35.6907 31.3556 36.6924 31.3556C37.6941 31.3556 38.6358 30.9655 39.344 30.2573C40.0523 29.549 40.4424 28.6073 40.4424 27.6056C40.4424 26.604 40.0523 25.6623 39.344 24.954C38.6358 24.2456 37.694 23.8556 36.6924 23.8556C35.6907 23.8556 34.749 24.2456 34.0408 24.954C33.3325 25.6622 32.9424 26.604 32.9424 27.6056C32.9424 28.6073 33.3325 29.549 34.0407 30.2572ZM35.8085 26.7217C36.0446 26.4856 36.3585 26.3556 36.6924 26.3556C37.0263 26.3556 37.3402 26.4856 37.5763 26.7217C37.8123 26.9578 37.9424 27.2717 37.9424 27.6056C37.9424 27.9395 37.8124 28.2534 37.5763 28.4895C37.3401 28.7255 37.0263 28.8556 36.6924 28.8556C36.3585 28.8556 36.0446 28.7256 35.8085 28.4895C35.5724 28.2534 35.4424 27.9395 35.4424 27.6056C35.4424 27.2717 35.5724 26.9578 35.8085 26.7217Z" fill="#3D4ED7"/>
<path fill-rule="evenodd" clip-rule="evenodd" d="M47.9327 16.3651C48.4209 16.8533 48.4209 17.6447 47.9327 18.1329L47.0265 19.039C48.8878 23.572 47.8684 28.8038 44.3603 32.3118L40.1398 36.5324C40.8129 37.5462 41.1745 38.7352 41.1745 39.9799C41.1745 41.6493 40.5244 43.2188 39.3439 44.3993L36.1226 47.6333C35.8784 47.8785 35.5577 48.0012 35.2369 48.0012C34.9179 48.0012 34.5988 47.8798 34.3548 47.6368C33.8657 47.1496 33.8641 46.3582 34.3513 45.8691L37.5743 42.6334C38.2844 41.9233 38.6744 40.9816 38.6744 39.9799C38.6744 39.4108 38.5482 38.8613 38.3095 38.3626L35.8083 40.8639C35.0772 41.5949 34.1169 41.9604 33.1566 41.9604C32.1964 41.9604 31.2361 41.5949 30.505 40.8639L23.4339 33.7929C21.9718 32.3308 21.9718 29.9517 23.4339 28.4896L25.9336 25.99C24.5399 25.326 22.8184 25.5695 21.6662 26.7218L18.4313 29.9462C18.1873 30.1893 17.868 30.3109 17.5488 30.3109C17.2283 30.3109 16.9077 30.1883 16.6635 29.9433C16.1761 29.4544 16.1774 28.6629 16.6664 28.1756L19.8998 24.9525C22.0329 22.8195 25.3391 22.5548 27.7645 24.159L31.9859 19.9376C35.494 16.4295 40.7258 15.41 45.2588 17.2713L46.1649 16.3651C46.6531 15.877 47.4445 15.877 47.9327 16.3651ZM37.5764 35.5603L42.5926 30.5441C45.4559 27.6808 46.2353 23.3738 44.5927 19.7051C40.9241 18.0626 36.6171 18.8419 33.7537 21.7053L25.2018 30.2573C24.7144 30.7447 24.7144 31.5377 25.2018 32.0251L32.2728 39.0961C32.7602 39.5835 33.5533 39.5834 34.0406 39.0961L37.5758 35.5609L37.5764 35.5603Z" fill="#3D4ED7"/>
</svg>
