<svg width="65" height="64" viewBox="0 0 65 64" fill="none" xmlns="http://www.w3.org/2000/svg">
<rect x="0.798828" width="64" height="64" rx="12" fill="#939598" fill-opacity="0.1"/>
<path fill-rule="evenodd" clip-rule="evenodd" d="M19.9238 25.8125V23.5C19.9238 19.3645 23.2883 16 27.4238 16H38.2988C42.4343 16 45.7988 19.3645 45.7988 23.5V25.8125C45.7988 26.5029 45.2392 27.0625 44.5488 27.0625C43.8585 27.0625 43.2988 26.5029 43.2988 25.8125V23.5C43.2988 20.743 41.0558 18.5 38.2988 18.5H27.4238C24.6668 18.5 22.4238 20.743 22.4238 23.5V25.8125C22.4238 26.5029 21.8642 27.0625 21.1738 27.0625C20.4835 27.0625 19.9238 26.5029 19.9238 25.8125ZM45.1081 29.5048C46.0646 29.4537 47.017 29.8067 47.7179 30.4716C48.415 31.1329 48.7988 32.0323 48.7988 33.0041V40.5C48.7988 44.6355 45.4343 48 41.2988 48H24.2988C20.1633 48 16.7988 44.6355 16.7988 40.5V33.0041C16.7988 32.0323 17.1827 31.1329 17.8798 30.4717C18.5806 29.8067 19.533 29.4543 20.4896 29.5048C21.1723 29.5407 21.829 29.7799 22.3886 30.1964L29.7581 35.7192L29.7666 35.7256C31.5518 37.0873 34.0458 37.0873 35.831 35.7256L35.8395 35.7192L43.2058 30.1988C43.7687 29.7799 44.4253 29.5407 45.1081 29.5048ZM41.2988 45.5C44.0558 45.5 46.2988 43.257 46.2988 40.5V33.0041C46.2988 32.6465 46.1348 32.4159 45.9972 32.2854C45.7947 32.0933 45.5129 31.9876 45.2395 32.0014C45.048 32.0115 44.867 32.0789 44.7018 32.2019L37.343 37.7167C34.6667 39.7547 30.931 39.7547 28.2547 37.7167L20.8926 32.1994C20.7306 32.0789 20.5496 32.0115 20.3581 32.0014C20.3418 32.0005 20.3254 32.0001 20.309 32.0001C20.0525 32.0001 19.7908 32.1047 19.6004 32.2853C19.4628 32.4158 19.2988 32.6464 19.2988 33.0041V40.5C19.2988 43.257 21.5418 45.5 24.2988 45.5H41.2988ZM31.6426 32.2746V32.4375C31.6426 33.1279 32.2022 33.6875 32.8926 33.6875C33.583 33.6875 34.1426 33.1279 34.1426 32.4375V32.2395C35.3278 31.7952 36.1738 30.6509 36.1738 29.3125C36.1738 27.5601 34.7051 26.1875 32.8301 26.1875C32.2244 26.1875 31.7676 25.9188 31.7676 25.5625C31.7676 25.2179 32.048 24.9375 32.3926 24.9375C32.8366 24.9375 33.3766 24.9878 34.3145 25.3525C34.9577 25.6027 35.6823 25.284 35.9326 24.6406C36.1828 23.9971 35.8641 23.2727 35.2206 23.0225C34.8201 22.8668 34.4638 22.7522 34.1426 22.6675V22.4375C34.1426 21.7471 33.583 21.1875 32.8926 21.1875C32.2022 21.1875 31.6426 21.7471 31.6426 22.4375V22.5291C30.2806 22.8659 29.2676 24.0979 29.2676 25.5625C29.2676 27.3441 30.7991 28.6875 32.8301 28.6875C33.3032 28.6875 33.6738 28.9621 33.6738 29.3125C33.6738 29.6571 33.3935 29.9375 33.0488 29.9375C32.7876 29.9375 31.8953 29.8523 30.9168 29.4634C30.2755 29.2086 29.5485 29.5218 29.2935 30.1633C29.0385 30.8049 29.3518 31.5316 29.9933 31.7866C30.5654 32.014 31.1331 32.1712 31.6426 32.2746Z" fill="#939598"/>
</svg>
