<svg width="30" height="30" viewBox="0 0 30 30" fill="none" xmlns="http://www.w3.org/2000/svg">
<path fill-rule="evenodd" clip-rule="evenodd" d="M15 0.351562C20.1609 0.351562 20.6672 0.375 22.5469 0.459375C24.2555 0.539062 25.1484 0.80625 25.7953 1.05703C26.5805 1.36172 27.1148 1.71094 27.7008 2.29688C28.2844 2.88047 28.643 3.43125 28.9406 4.20234C29.1937 4.85156 29.4633 5.74687 29.5406 7.45781C29.6297 9.40078 29.6484 9.98672 29.6484 15C29.6484 20.0133 29.6297 20.5992 29.5406 22.5445C29.4633 24.2531 29.1937 25.1484 28.9406 25.7977C28.643 26.5688 28.2844 27.1219 27.7031 27.7031C27.1219 28.2844 26.5688 28.643 25.7977 28.9406C25.1484 29.1937 24.2531 29.4633 22.5445 29.5406C20.5992 29.6297 20.0133 29.6484 15 29.6484C9.98672 29.6484 9.40078 29.6297 7.45547 29.5406C5.74687 29.4633 4.85156 29.1937 4.20234 28.9406C3.43125 28.643 2.87812 28.2844 2.29688 27.7008C1.71094 27.1148 1.36406 26.5805 1.05703 25.7953C0.803906 25.1484 0.539062 24.2555 0.461719 22.5445C0.375 20.6672 0.351562 20.1609 0.351562 15C0.351562 9.83672 0.375 9.33281 0.461719 7.45547C0.539062 5.74219 0.803906 4.85156 1.05703 4.20469C1.36406 3.41953 1.71094 2.88516 2.29688 2.29688C2.88516 1.71094 3.41953 1.36172 4.20469 1.05703C4.85156 0.80625 5.74453 0.539062 7.45547 0.459375C9.33281 0.375 9.83672 0.351562 15 0.351562Z" fill="#333333"/>
<path fill-rule="evenodd" clip-rule="evenodd" d="M14.9998 5.37211C9.67949 5.37211 5.37402 9.68227 5.37402 15.0002C5.37402 20.3182 9.67949 24.6284 14.9998 24.6284C20.3178 24.6284 24.6279 20.3182 24.6279 15.0002C24.6279 9.68227 20.3178 5.37211 14.9998 5.37211ZM14.9998 9.47367C18.049 9.47367 20.5264 11.9534 20.5264 15.0002C20.5264 18.0495 18.049 20.5268 14.9998 20.5268C11.9506 20.5268 9.47559 18.0495 9.47559 15.0002C9.47559 11.9534 11.9506 9.47367 14.9998 9.47367Z" fill="white"/>
<path fill-rule="evenodd" clip-rule="evenodd" d="M24.6289 3.12094C23.3867 3.12094 22.3789 4.12875 22.3789 5.37094C22.3789 6.61313 23.3867 7.62094 24.6289 7.62094C25.8711 7.62094 26.8789 6.61313 26.8789 5.37094C26.8789 4.12875 25.8711 3.12094 24.6289 3.12094Z" fill="white"/>
</svg>
