<svg width="30" height="30" viewBox="0 0 30 30" fill="none" xmlns="http://www.w3.org/2000/svg">
<path fill-rule="evenodd" clip-rule="evenodd" d="M27.7781 0H2.21438C0.99375 0 0 0.968438 0 2.16094V27.8334C0 29.0287 0.99375 29.9991 2.21438 29.9991H27.78C29.0034 29.9991 30 29.0287 30 27.8334V2.16094C30 0.968438 29.0034 0 27.7781 0Z" fill="#333333"/>
<path fill-rule="evenodd" clip-rule="evenodd" d="M11.6898 11.2463H15.9573V13.2028H16.0164C16.6108 12.0778 18.062 10.8909 20.2351 10.8909C24.7408 10.8909 25.5723 13.8563 25.5723 17.7103V25.5628H21.1258V18.5991C21.1258 16.9397 21.0958 14.8022 18.8139 14.8022C16.4983 14.8022 16.142 16.6116 16.142 18.4772V25.5591H11.6964V11.2434L11.6898 11.2463ZM6.6742 4.12125C8.09639 4.12125 9.25232 5.27719 9.25232 6.69938C9.25232 8.12156 8.09639 9.28031 6.67514 9.28031C5.25107 9.27703 4.09701 8.12344 4.09326 6.69938C4.09326 5.27531 5.24732 4.12125 6.67139 4.12125C6.67232 4.12125 6.67326 4.12125 6.6742 4.12125ZM4.44857 25.5619H8.90639V11.2463H4.44857V25.5619Z" fill="white"/>
</svg>
