<svg width="43" height="30" viewBox="0 0 43 30" fill="none" xmlns="http://www.w3.org/2000/svg">
<mask id="mask0_606_5698" style="mask-type:luminance" maskUnits="userSpaceOnUse" x="0" y="0" width="44" height="30">
<path fill-rule="evenodd" clip-rule="evenodd" d="M0.000305176 0H43.0002V30H0.000305176V0Z" fill="white"/>
</mask>
<g mask="url(#mask0_606_5698)">
<path fill-rule="evenodd" clip-rule="evenodd" d="M42.1017 4.6846C41.6072 2.84056 40.1501 1.38847 38.3001 0.895645C34.9466 0 21.5003 0 21.5003 0C21.5003 0 8.05377 0 4.7005 0.895645C2.85028 1.38847 1.39316 2.84056 0.898663 4.6846C0.000305176 8.02669 0.000305176 15 0.000305176 15C0.000305176 15 0.000305176 21.9733 0.898663 25.3154C1.39316 27.1594 2.85028 28.6115 4.7005 29.1046C8.05377 30 21.5003 30 21.5003 30C21.5003 30 34.9466 30 38.3001 29.1046C40.1501 28.6115 41.6072 27.1594 42.1017 25.3154C43.0003 21.9733 43.0003 15 43.0003 15C43.0003 15 43.0003 8.02669 42.1017 4.6846Z" fill="#FF0000"/>
</g>
<path fill-rule="evenodd" clip-rule="evenodd" d="M17.1023 21.3314L28.3409 15.0004L17.1023 8.66895V21.3314Z" fill="white"/>
</svg>
