<svg width="30" height="22" viewBox="0 0 30 22" fill="none" xmlns="http://www.w3.org/2000/svg">
<path fill-rule="evenodd" clip-rule="evenodd" d="M29.3731 3.43537C29.0281 2.08308 28.0115 1.01821 26.7208 0.656806C24.3811 0 15 0 15 0C15 0 5.61869 0 3.2792 0.656806C1.98835 1.01821 0.971761 2.08308 0.626761 3.43537C0 5.88624 0 11 0 11C0 11 0 16.1138 0.626761 18.5646C0.971761 19.9169 1.98835 20.9818 3.2792 21.3434C5.61869 22 15 22 15 22C15 22 24.3811 22 26.7208 21.3434C28.0115 20.9818 29.0281 19.9169 29.3731 18.5646C30 16.1138 30 11 30 11C30 11 30 5.88624 29.3731 3.43537Z" fill="#333333"/>
<path fill-rule="evenodd" clip-rule="evenodd" d="M11.9316 15.4318L19.7725 11.0001L11.9316 6.56812V15.4318Z" fill="white"/>
</svg>
