<svg width="32" height="32" viewBox="0 0 32 32" fill="none" xmlns="http://www.w3.org/2000/svg">
<mask id="mask0_0_4149" style="mask-type:luminance" maskUnits="userSpaceOnUse" x="0" y="0" width="32" height="32">
<path fill-rule="evenodd" clip-rule="evenodd" d="M0 0H32V32H0V0Z" fill="white"/>
</mask>
<g mask="url(#mask0_0_4149)">
<path d="M15.9999 0C7.16338 0 0 7.16351 0 16.0001C0 24.8365 7.16338 32 15.9999 32C24.8365 32 32 24.8365 32 16.0001C32 7.16351 24.8365 0 15.9999 0Z" fill="black"/>
</g>
<path fill-rule="evenodd" clip-rule="evenodd" d="M25.3944 11.6145C22.9695 11.6145 21.0037 13.5804 21.0037 16.0053C21.0037 18.4302 22.9695 20.3961 25.3944 20.3961C27.5913 20.3935 29.4483 18.7674 29.7407 16.5905H27.2349C26.9867 17.3711 26.2568 17.9365 25.3944 17.9365C24.3279 17.9365 23.4636 17.0718 23.4636 16.0057C23.4636 14.9392 24.3283 14.0749 25.3944 14.0745C26.2568 14.0745 26.9871 14.6399 27.2349 15.4205H29.7411C29.4483 13.2428 27.5913 11.6171 25.3944 11.6145ZM6.58485 17.9361C5.51832 17.9361 4.65403 17.0714 4.65403 16.0049C4.65403 14.9384 5.51871 14.0741 6.58485 14.0741C7.65138 14.0741 8.51568 14.9388 8.51568 16.0049C8.51568 17.0718 7.651 17.9361 6.58485 17.9361ZM10.9756 20.3218V16.0053C10.9756 13.5804 9.00976 11.6145 6.58485 11.6145C4.15994 11.6145 2.19409 13.5804 2.19409 16.0053C2.19409 18.4302 4.15994 20.3961 6.58485 20.3961C7.30035 20.3949 8.04205 20.091 8.56477 19.5856V20.3218H10.9756ZM15.98 14.0745C17.0465 14.0745 17.9108 14.9392 17.9108 16.0057C17.9108 17.0723 17.0461 17.9365 15.98 17.9365C14.9135 17.9365 14.0492 17.0718 14.0492 16.0057C14.0492 14.9388 14.9135 14.0745 15.98 14.0745ZM11.5892 9.45361V16.0053C11.5892 18.4302 13.5551 20.3961 15.98 20.3961C18.4051 20.3961 20.3707 18.4302 20.3707 16.0053C20.3707 13.5804 18.4051 11.6145 15.98 11.6145C15.3105 11.6156 14.6174 11.8287 14.0492 12.2137V9.45361H11.5892Z" fill="#F0F0F0"/>
</svg>
