<?xml version="1.0" encoding="UTF-8"?>
<svg width="32px" height="32px" viewBox="0 0 32 32" version="1.1" xmlns="http://www.w3.org/2000/svg" xmlns:xlink="http://www.w3.org/1999/xlink">
    <!-- Generator: Sketch 62 (91390) - https://sketch.com -->
    <title>logo / abc</title>
    <desc>Created with Sketch.</desc>
    <defs>
        <polygon id="path-1" points="0 0 32.0000004 0 32.0000004 32.0000004 0 32.0000004"></polygon>
    </defs>
    <g id="Layouts" stroke="none" stroke-width="1" fill="none" fill-rule="evenodd">
        <g id="home-414" transform="translate(-98.000000, -6080.000000)">
            <g id="Group-2" transform="translate(20.000000, 5711.000000)">
                <g id="Group-111" transform="translate(70.000000, 183.000000)">
                    <g id="Group-110" transform="translate(8.000000, 186.000000)">
                        <g id="logo-/-abc">
                            <g id="ABC-2021-LOGO">
                                <g id="g9-Clipped">
                                    <mask id="mask-2" fill="white">
                                        <use xlink:href="#path-1"></use>
                                    </mask>
                                    <g id="path2"></g>
                                    <g id="g9" mask="url(#mask-2)" fill="#000000" fill-rule="nonzero">
                                        <path d="M15.9998724,0 C7.16338151,0 0,7.16350947 0,16.000128 C0,24.8364909 7.16338151,32 15.9998724,32 C24.8364909,32 32,24.8364909 32,16.000128 C32,7.16350947 24.8364909,0 15.9998724,0" id="path7"></path>
                                    </g>
                                </g>
                                <path d="M25.3944922,11.6147365 C22.9695836,11.6147365 21.0037314,13.5805884 21.0037314,16.005497 C21.0037314,18.4304059 22.9695836,20.3962578 25.3944922,20.3962578 C27.5913428,20.3937019 29.4484068,18.7676356 29.7407665,16.5907275 L27.2349377,16.5907275 C26.9868093,17.37129 26.2568694,17.9367057 25.3944922,17.9367057 C24.327962,17.9367057 23.4636671,17.0720275 23.4636671,16.0058805 C23.4636671,14.9393503 24.3283455,14.0750554 25.3944922,14.0746719 C26.2568694,14.0746719 26.9871929,14.6400878 27.2349377,15.4206504 L29.7411497,15.4206504 C29.4484068,13.2429752 27.5913428,11.6172931 25.3944922,11.6147365 M6.58492659,17.9363221 C5.51839639,17.9363221 4.65410146,17.071644 4.65410146,16.0051138 C4.65410146,14.9385832 5.51877994,14.0742887 6.58492659,14.0742887 C7.65145712,14.0742887 8.51575172,14.9389668 8.51575172,16.0051138 C8.51575172,17.0720275 7.65107357,17.9363221 6.58492659,17.9363221 M10.9756874,20.3219855 L10.9756874,16.005497 C10.9756874,13.5805884 9.00983547,11.6147365 6.58492659,11.6147365 C4.16001804,11.6147365 2.19416595,13.5805884 2.19416595,16.005497 C2.19416595,18.4304059 4.16001804,20.3962578 6.58492659,20.3962578 C7.300421,20.3951091 8.04212195,20.0912427 8.56484049,19.5857818 L8.56484049,20.3219855 L10.9756874,20.3219855 Z M15.9800579,14.0746719 C17.0465881,14.0746719 17.910883,14.9393503 17.910883,16.0058805 C17.910883,17.0725387 17.0462049,17.9367057 15.9800579,17.9367057 C14.9135277,17.9367057 14.0492328,17.0720275 14.0492328,16.0058805 C14.0492328,14.9389668 14.9135277,14.0746719 15.9800579,14.0746719 M11.5892971,9.45380776 L11.5892971,16.005497 C11.5892971,18.4304059 13.555149,20.3962578 15.9800579,20.3962578 C18.4052224,20.3962578 20.3708187,18.4304059 20.3708187,16.005497 C20.3708187,13.5805884 18.4052224,11.6147365 15.9800579,11.6147365 C15.3105842,11.6157576 14.6174608,11.8288604 14.0492328,12.2139007 L14.0492328,9.45380776 L11.5892971,9.45380776 Z" id="path11" fill="#F0F0F0"></path>
                            </g>
                        </g>
                    </g>
                </g>
            </g>
        </g>
    </g>
</svg>