<svg width="26" height="32" viewBox="0 0 26 32" fill="none" xmlns="http://www.w3.org/2000/svg">
<path fill-rule="evenodd" clip-rule="evenodd" d="M19.3966 0.642972C19.3966 2.28133 18.6927 3.91968 17.6991 5.10181C16.6432 6.40843 14.8217 7.38313 13.3726 7.38333C13.207 7.38333 13.0413 7.36245 12.9379 7.34177C12.9172 7.25884 12.8757 7.00984 12.8757 6.76104C12.8757 5.10181 13.7246 3.46345 14.6353 2.42651C15.7946 1.07851 17.7198 0.062249 19.3344 0C19.3759 0.186747 19.3966 0.414859 19.3966 0.642972ZM25.0913 10.9633C25.1315 10.9368 25.1591 10.9187 25.172 10.9086C23.0192 7.81868 19.7483 7.73554 18.8374 7.73534C17.4455 7.73534 16.1997 8.23009 15.1523 8.64603C14.3928 8.94765 13.7376 9.20783 13.2068 9.20783C12.6213 9.20783 11.9508 8.93637 11.2025 8.63341C10.2579 8.25094 9.1893 7.81827 8.01105 7.81827C4.03669 7.81827 0 11.1159 0 17.3376C0 21.2157 1.49041 25.3012 3.33278 27.9351C4.92661 30.1749 6.3136 32 8.30088 32C9.24331 32 9.93435 31.7061 10.661 31.3971C11.4666 31.0546 12.316 30.6934 13.6003 30.6934C14.8971 30.6934 15.6723 31.0325 16.4201 31.3595C17.1167 31.6642 17.7894 31.9584 18.8376 31.9584C21.0111 31.9584 22.4395 29.9884 23.8057 28.0181C25.3376 25.7783 25.9794 23.5799 26 23.4763C25.8757 23.4349 21.715 21.755 21.715 17.0058C21.715 13.1833 24.5493 11.3197 25.0913 10.9633Z" fill="black"/>
</svg>
