<svg width="32" height="32" viewBox="0 0 32 32" fill="none" xmlns="http://www.w3.org/2000/svg">
<path fill-rule="evenodd" clip-rule="evenodd" d="M15.9999 0.266602C19.0222 0.266602 21.6888 1.0666 24.0888 2.48882C24.711 2.84438 25.0666 3.11105 24.9777 3.37771C24.9777 4.88882 20.711 6.48882 15.2888 6.48882C9.77771 6.48882 6.6666 5.0666 6.6666 3.73327C6.6666 3.28882 7.11105 2.93327 7.82216 2.57771C10.2222 1.0666 12.9777 0.266602 15.9999 0.266602ZM26.3999 4.17771C26.4888 4.2666 26.4888 4.35549 26.4888 4.53327C26.4888 6.31105 21.1555 9.33327 12.6222 9.33327C6.31105 9.33327 5.15549 7.02216 5.15549 5.51105C5.15549 4.97771 5.33327 4.44438 5.77771 3.91105C4.97771 4.71105 4.2666 5.42216 3.55549 6.31105C3.28882 6.6666 3.11105 7.02216 3.11105 7.19993C3.11105 10.311 10.8444 12.4444 17.9555 12.4444C25.5999 12.4444 29.0666 9.95549 29.0666 7.73327C29.0666 6.93327 28.7999 6.48882 27.9999 5.59993C27.4666 5.0666 26.9333 4.62216 26.3999 4.17771ZM0.533268 12.5333C0.711046 11.7333 1.24438 10.1333 1.68882 9.24438C1.68882 9.45539 1.63317 9.72206 1.56589 10.0444C1.54815 10.1294 1.5296 10.2183 1.51105 10.311C1.51105 13.4222 6.75549 15.911 12.9777 15.911C18.7555 15.911 30.1333 13.2444 30.0444 9.15549C30.4888 9.95549 30.8444 11.0222 31.111 11.911C31.2888 12.711 31.2888 13.3333 31.111 13.8666C30.2222 16.9777 24.7999 18.6666 17.8666 18.6666C6.48882 18.6666 1.59993 15.3777 0.622157 13.3333C0.612024 13.3029 0.601891 13.2736 0.592021 13.2451C0.515312 13.0238 0.454513 12.8483 0.533268 12.5333ZM12.7999 22.311C4.71105 22.311 0.888824 18.5777 0.266602 15.9999C0.266602 16.8888 0.35549 17.9555 0.533268 18.7555C0.622157 19.111 0.888824 19.6444 1.33327 20.1777C3.28882 22.2222 8.17771 25.0666 16.6222 25.0666C28.0888 25.0666 30.7555 21.2444 31.2888 19.9999C31.6444 19.111 31.911 17.511 31.911 16.0888V15.1999C31.111 18.2222 21.3333 22.311 12.7999 22.311ZM27.7333 26.0444C25.2444 28.1777 20.9777 29.2444 17.0666 29.2444C9.68882 29.2444 3.73327 27.0222 1.77771 22.7555C3.91105 25.8666 9.33327 27.4666 14.311 27.4666C21.4222 27.4666 28.2666 25.2444 30.6666 21.7777C30.3999 22.3999 30.0444 23.111 29.6888 23.7333C29.0666 24.711 28.4444 25.511 27.7333 26.0444ZM15.9999 31.7333C12.3555 31.7333 8.97771 30.4888 6.31105 28.4444C7.99993 29.4222 11.111 30.4888 15.9999 30.4888C21.5999 30.4888 25.1555 28.6222 26.3999 27.8222C23.6444 30.2222 19.9999 31.7333 15.9999 31.7333Z" fill="#009FDB"/>
</svg>
