<svg width="48" height="26" viewBox="0 0 48 26" fill="none" xmlns="http://www.w3.org/2000/svg">
<path d="M23.9278 25.6793C31.5068 19.2684 42.1534 13.0355 48 10.7917C47.0978 10.2218 45.6903 9.40262 44.1023 8.51221C36.5594 10.9697 27.7534 16.4191 19.8857 22.5807C21.2211 23.578 22.6286 24.6108 23.9278 25.6793Z" fill="#E31837"/>
<path d="M20.4631 8.26301C19.3443 7.72876 18.1172 7.23013 17.1789 6.80273C14.3277 8.19178 10.6104 10.2931 5.9187 13.6055C6.92923 14.1397 8.01193 14.7808 9.16682 15.4219C12.7758 12.7863 16.421 10.2931 20.4631 8.26301Z" fill="#012169"/>
<path d="M27.2121 5.20008C25.8406 4.45214 21.0767 2.70693 17.7925 1.95898C16.8181 2.31515 15.4466 2.8494 14.5083 3.24118C15.6993 3.56172 20.1384 4.73707 23.9278 6.62474C24.9023 6.16172 26.2737 5.59186 27.2121 5.20008Z" fill="#E31837"/>
<path d="M11.0797 4.73682C6.85714 6.6601 2.41805 9.29572 0 10.8272C0.866165 11.219 1.73233 11.5396 2.92331 12.1094C8.26466 8.54778 12.4511 6.37517 14.1113 5.66284C12.9203 5.23545 11.8015 4.95052 11.0797 4.73682Z" fill="#012169"/>
<path fill-rule="evenodd" clip-rule="evenodd" d="M32.4031 3.50304C31.7234 3.69207 31.0249 3.88637 30.3879 4.09589C26.2867 2.32702 23.1061 1.46668 21.5564 1.04751C21.2651 0.96872 21.0314 0.905515 20.8601 0.854795C21.6026 0.627406 22.5811 0.364172 23.2675 0.179517C23.5488 0.103866 23.7809 0.0414041 23.9278 0C27.1037 0.783562 30.6406 2.03014 33.4556 3.20548C33.1181 3.30417 32.7632 3.40287 32.4031 3.50304ZM14.8341 18.9635C14.0773 18.4379 13.3221 17.9134 12.5955 17.4877C22.9534 9.47397 31.7233 6.01918 36.8481 4.73699C38.1145 5.34501 39.1213 5.85692 40.2378 6.42464L40.421 6.51781C31.8676 9.15342 24.0721 13.8192 16.1684 19.874C15.7267 19.5834 15.2801 19.2732 14.8341 18.9635Z" fill="#E31837"/>
</svg>
