<svg width="32" height="26" viewBox="0 0 32 26" fill="none" xmlns="http://www.w3.org/2000/svg">
<path fill-rule="evenodd" clip-rule="evenodd" d="M31.5979 17.37C31.6216 17.2329 31.7671 16.1929 31.7052 15.6431C31.7127 15.469 31.6411 15.0902 31.5987 14.8654C31.5845 14.79 31.5735 14.732 31.5699 14.7048C31.5597 14.6942 31.4907 14.4009 31.4439 14.2017C31.3964 13.9997 31.1092 13.3016 31.0423 13.1856C30.9178 12.9662 30.8245 12.768 30.7339 12.5756C30.6841 12.47 30.6352 12.3661 30.5824 12.2614C29.9549 11.0362 28.6658 9.49169 27.6295 8.4834C27.0955 7.96124 26.355 7.30908 25.7893 6.85546C25.5187 6.6343 23.7734 5.3759 23.4754 5.183C22.5298 4.57464 20.8457 3.64338 19.7791 3.13889C18.2915 2.43443 16.2562 1.66074 14.7031 1.20075C11.9899 0.390323 9.33927 -0.0887374 6.53751 0.0137134C5.29966 0.0603509 3.64504 0.308358 2.33524 0.661644C1.41111 0.908233 0.78214 1.30392 0.341643 2.06349C0.122168 2.44362 -0.0786599 2.85414 0.0308021 3.27314C0.126471 3.62925 0.643988 3.7529 1.05999 3.81932C1.45933 3.88009 2.36901 3.93096 2.61088 3.64055C2.71527 3.51549 2.70302 3.39749 2.61662 3.2477C2.52735 3.08872 2.2964 2.97355 2.07759 2.93257C1.978 2.91485 1.84085 2.89979 1.70535 2.8849C1.50589 2.863 1.31 2.84148 1.24272 2.81245C1.18015 2.7849 1.11395 2.74956 1.11395 2.74956C1.11395 2.74956 1.14197 2.72201 1.16791 2.69869C1.21679 2.66125 1.39102 2.58847 1.50324 2.56162C1.59577 2.54225 1.6929 2.51386 1.79203 2.48489C1.84481 2.46946 1.89816 2.45387 1.95168 2.43938C3.01607 2.14969 5.1262 2.10164 6.09271 2.13555C9.84597 2.27263 13.3393 3.09508 16.8752 4.52165C20.3369 5.91926 24.2729 8.30252 26.5694 11.203C27.4374 12.3003 28.5263 14.1006 28.658 15.6212C28.7782 17.0103 28.3254 18.3401 27.4604 19.3145C26.8055 20.0486 25.9397 20.5905 24.9962 21.0265C22.8465 22.0249 20.2318 22.2297 17.8892 22.169C17.5819 22.1613 16.4246 22.0588 16.1504 22.0192C15.6747 21.9429 15.0701 21.8291 15.0701 21.8291L14.9162 14.7126C14.9162 14.7126 15.6459 14.7379 16.1598 14.7676C17.474 14.844 20.19 15.2856 21.5503 15.8155C21.841 15.9271 22.144 16.1016 22.1714 16.3843C22.1908 16.6005 22.0159 16.7857 21.8202 16.956C21.7295 17.0379 21.6316 17.105 21.5143 17.1679C21.4895 17.1808 21.4629 17.1947 21.4351 17.2091C21.1995 17.332 20.8795 17.4988 20.8543 17.5303C20.7795 17.6272 20.7738 17.7699 20.8774 17.8505C21.1387 18.0489 21.9885 18.1606 22.2153 18.1458C22.9746 18.1041 23.7237 17.5996 24.1189 16.9185C24.4707 16.3157 24.5061 15.8551 24.2743 15.1873C24.0261 14.4589 23.2588 13.77 22.4376 13.3623C21.4417 12.8655 19.7043 12.4932 18.8126 12.3547C18.1159 12.246 17.3768 12.1413 16.7068 12.1251C16.0159 12.1074 14.8938 12.1392 14.8938 12.1392C14.8938 12.1392 14.8723 11.1733 14.8284 10.5318C14.7557 9.47761 14.4592 7.40588 13.4811 6.81024C13.3026 6.70072 13.0832 6.68942 12.96 6.85334C12.77 7.09569 12.5844 8.02202 12.5411 8.26437C12.4613 8.7088 12.2123 10.8123 12.2195 11.133C12.226 11.458 12.1929 12.3497 12.1734 12.3774C12.1627 12.3908 12.1511 12.4007 12.1353 12.4119C12.0971 12.4374 11.4725 12.5461 11.0701 12.6027C10.2166 12.7242 8.16476 13.382 7.50335 13.6683C6.60371 14.0547 5.29028 14.7337 4.92327 15.6332C4.65844 16.2783 4.75842 16.8202 5.10744 17.4293C5.55654 18.2094 6.146 18.8184 6.80167 19.4268C7.03626 19.6445 8.09569 20.5163 8.34175 20.6951C9.23058 21.3423 10.249 21.9683 11.3199 22.4869C11.6689 22.658 12.0863 22.8516 12.0863 22.8516C12.0863 22.8516 12.1691 23.6761 12.2483 24.1509C12.3447 24.7403 12.5462 25.2546 13.1047 25.4871C13.4459 25.6284 13.8366 25.6079 14.2051 25.5387C14.5096 25.4821 14.719 25.3485 14.8478 25.0893C14.896 24.9925 14.9839 24.6929 14.9975 24.5812C15.027 24.3318 15.0249 23.9786 15.0249 23.9786C15.0249 23.9786 15.9244 24.1806 16.529 24.2901C18.2887 24.6088 20.1959 24.6392 21.8547 24.442C24.3017 24.1489 27.1531 23.2586 28.9941 21.6957C29.4907 21.2752 30.3241 20.2923 30.6752 19.672C30.8811 19.3109 31.0732 18.9456 31.2698 18.504C31.3086 18.4142 31.5518 17.6858 31.5979 17.37ZM10.2792 14.9832C11.0147 14.9026 12.0856 14.8284 12.0856 14.8284C12.0856 14.8284 12.0611 15.8805 12.0568 16.946C12.046 18.9619 12.1008 21.0088 12.1008 21.0088C12.1008 21.0088 11.3681 20.7516 10.9277 20.5715C9.6372 20.0415 7.88835 18.9498 7.02545 18.244C6.82032 18.0752 6.08631 17.3819 5.95676 17.2329C5.73144 16.9736 5.53138 16.7255 5.58611 16.4048C5.64007 16.0982 6.25966 15.8431 6.56553 15.7385C7.58037 15.3803 9.34148 15.0814 10.2792 14.9832Z" fill="#231F20"/>
</svg>
