<svg width="32" height="32" viewBox="0 0 32 32" fill="none" xmlns="http://www.w3.org/2000/svg">
<path fill-rule="evenodd" clip-rule="evenodd" d="M15.7222 31.4422C7.05454 31.4422 0 24.4298 0 15.72C0 7.05454 7.05454 0 15.7222 0C24.3869 0 31.4429 7.05454 31.4429 15.72C31.4429 24.4298 24.3869 31.4422 15.7222 31.4422ZM15.7222 0.738909C7.44727 0.738909 0.739636 7.44655 0.739636 15.72C0.739636 23.9942 7.44727 30.7011 15.7222 30.7011C23.9956 30.7011 30.7018 23.9942 30.7018 15.72C30.7018 7.49018 23.9964 0.738909 15.7222 0.738909ZM28.9629 20.2189L29.0444 20.2022C29.0516 20.1884 29.7687 18.264 29.744 15.7207C29.6996 10.7571 27.2189 5.61745 21.7753 3.96291C20.6422 3.61382 19.6844 3.39636 18.5956 3.39636C17.0948 3.39636 16.4552 3.90432 15.9363 4.3164C15.5822 4.59761 15.2843 4.83418 14.8073 4.83418C14.1542 4.83418 13.7185 4.35491 13.7185 3.78836C13.7185 2.78618 14.8938 2.00218 16.7665 2.00291C18.606 2.00291 19.8728 2.46966 20.0873 2.54871C20.1065 2.55579 20.1173 2.55976 20.1193 2.56L20.1767 2.51636L20.1629 2.43782C20.0865 2.37673 18.0495 1.68 15.7222 1.69745C10.7135 1.736 5.61818 4.26764 3.96291 9.66691C3.61455 10.7993 3.39709 11.7571 3.39709 12.8458C3.39709 14.3477 3.90516 15.0028 4.31727 15.5342C4.59842 15.8967 4.83491 16.2016 4.83491 16.6785C4.83491 17.2887 4.35491 17.7236 3.78836 17.7236C2.78691 17.7236 2.00364 16.592 2.00364 14.6756C2.00364 12.9876 2.43363 11.6154 2.5175 11.3478L2.52436 11.3258L2.47855 11.2691L2.40073 11.2822C2.38909 11.3018 1.70036 13.2604 1.69818 15.72C1.69382 20.7716 4.26764 25.8684 9.66836 27.5222C10.8022 27.8705 11.7593 28.088 12.848 28.088C14.3489 28.088 14.9885 27.5651 15.5074 27.141C15.8615 26.8515 16.1593 26.608 16.6364 26.608C17.2465 26.608 17.7258 27.0873 17.7258 27.6945C17.7258 28.6545 16.5935 29.4378 14.6771 29.4378C12.9345 29.4378 11.5258 28.9956 11.328 28.9171L11.2647 28.9615C11.2495 29 11.2662 29.0385 11.2858 29.0487C11.7745 29.2676 13.4145 29.7418 15.7236 29.7418C20.7302 29.7418 25.8698 27.216 27.4815 21.7738C27.8298 20.6836 28.0473 19.6844 28.0473 18.6385C28.0473 17.1059 27.536 16.4564 27.1234 15.9323C26.8442 15.5776 26.6102 15.2804 26.6102 14.8058C26.6102 14.1535 27.0451 13.7171 27.6545 13.7171C28.656 13.7171 29.4342 14.8924 29.4407 16.8087C29.4447 18.4375 29.0048 19.8743 28.9283 20.1241L28.9283 20.1243C28.9213 20.1472 28.9173 20.1601 28.9171 20.1622L28.9629 20.2189ZM21.5571 16.4618C20.0771 16.4618 18.944 17.5513 18.944 18.8567C18.944 19.9455 19.5964 20.8153 20.4684 20.8153C20.7738 20.8153 21.0778 20.6407 21.0778 20.2495C21.0778 20.0006 20.9323 19.8344 20.7744 19.6541C20.5737 19.4248 20.3529 19.1727 20.3855 18.6989C20.4225 18.1404 20.9484 17.7673 21.4698 17.7673C22.5156 17.7673 23.0044 18.7804 23.0044 19.8247C22.96 21.4364 21.7753 22.5578 20.3818 22.5578C18.5513 22.5578 17.3775 20.8153 17.3775 18.9433C17.3775 16.1556 19.2058 15.0669 20.1636 14.8065L20.1792 14.8089C20.39 14.8423 22.6649 15.2029 22.5905 14.152C22.5564 13.6691 21.8371 13.4829 21.3149 13.4618C20.7375 13.4393 20.1556 13.6473 20.1556 13.6473C19.8509 13.4938 19.6407 13.1942 19.5113 12.8465C21.2967 11.4967 22.5585 10.1905 22.5585 8.70982C22.5585 7.92582 22.0356 7.22836 21.0342 7.22836C19.2487 7.22836 17.8982 9.49309 17.8982 11.5396C17.8982 11.888 17.8982 12.2364 17.9862 12.5425C16.8531 13.3695 16.0116 13.8829 14.4865 14.7978C14.4865 14.6065 14.5265 14.1156 14.6538 13.4771C15.1767 12.9105 15.8938 12.0633 15.8938 11.4102C15.8938 11.1055 15.7207 10.8436 15.3709 10.8436C14.5004 10.8436 13.8465 12.1505 13.6735 13.0647C13.2807 13.544 12.4975 14.1549 11.8436 14.1549C11.3207 14.1549 11.1476 13.6749 11.1025 13.5018C12.7578 12.9345 14.8051 10.6698 14.8051 8.62327C14.8051 8.18764 14.6313 7.22982 13.3244 7.22982C11.3644 7.22982 9.70909 10.1476 9.70909 12.4116C9.01236 12.4116 8.75127 11.6713 8.75127 11.1062C8.75127 10.7413 8.84146 10.3764 8.90568 10.1167C8.94117 9.97309 8.96873 9.86162 8.96873 9.8C8.96873 9.62473 8.88145 9.40727 8.62036 9.40727C7.96655 9.40727 7.57455 10.2778 7.57455 11.28C7.61891 12.6742 8.53309 13.5447 9.75273 13.632C9.92582 14.4596 10.6669 15.2429 11.5811 15.2429C12.1476 15.2429 12.8444 15.0691 13.3236 14.6342C13.2793 14.9389 13.2364 15.2 13.1927 15.4611L12.8491 15.6406C11.1075 16.5495 9.80615 17.2288 8.61964 18.2916C7.62109 19.2051 7.05455 20.424 7.05455 21.3825C7.05455 22.6887 7.88291 23.9076 9.58109 23.9076C11.584 23.9076 13.1091 22.296 13.8487 20.0756C14.1985 19.0305 14.3375 17.5098 14.4247 16.1156C16.4276 14.984 17.3775 14.328 18.4218 13.5869C18.552 13.8044 18.6844 13.9796 18.8582 14.1098C17.9433 14.5891 15.7665 15.9389 15.7665 19.1178C15.7665 21.3833 17.2916 23.9076 20.2953 23.9076C22.7782 23.9076 24.4764 21.8618 24.4764 19.9025C24.4749 18.1164 23.4727 16.4618 21.5571 16.4618ZM8.49309 21.4742C8.49309 22.1702 8.928 22.5876 9.58109 22.5578C11.8182 22.4553 12.7004 19.4691 13.0487 16.8553C11.0887 17.8145 8.49309 19.6015 8.49309 21.4742ZM11.0182 12.2807C11.0182 10.8429 12.4364 8.11127 13.304 8.4C14.3273 8.74109 12.4553 11.4967 11.0182 12.2807ZM19.2495 11.6269C19.2495 9.84145 20.4582 8.10473 21.1185 8.43491C21.8705 8.81164 20.5564 10.4945 19.2495 11.6269Z" fill="#0870D8"/>
</svg>
