<?xml version="1.0" encoding="UTF-8"?>
<svg width="32px" height="32px" viewBox="0 0 32 32" version="1.1" xmlns="http://www.w3.org/2000/svg" xmlns:xlink="http://www.w3.org/1999/xlink">
    <!-- Generator: Sketch 62 (91390) - https://sketch.com -->
    <title>logo / linkedin mini</title>
    <desc>Created with Sketch.</desc>
    <g id="Layouts" stroke="none" stroke-width="1" fill="none" fill-rule="evenodd">
        <g id="home-414" transform="translate(-287.000000, -6080.000000)">
            <g id="Group-2" transform="translate(20.000000, 5711.000000)">
                <g id="Group-111" transform="translate(70.000000, 183.000000)">
                    <g id="Group-110" transform="translate(8.000000, 186.000000)">
                        <g id="logo-/-linkedin-mini" transform="translate(189.000000, 0.000000)">
                            <g id="Group-5">
                                <path d="M29.63,-3.55271368e-15 L2.362,-3.55271368e-15 C1.06,-3.55271368e-15 0,1.033 0,2.305 L0,29.689 C0,30.964 1.06,31.999 2.362,31.999 L29.632,31.999 C30.937,31.999 32,30.964 32,29.689 L32,2.305 C32,1.033 30.937,-3.55271368e-15 29.63,-3.55271368e-15" id="Fill-1" fill="#2867B2"></path>
                                <path d="M12.469,11.996 L17.021,11.996 L17.021,14.083 L17.084,14.083 C17.718,12.883 19.266,11.617 21.584,11.617 C26.39,11.617 27.277,14.78 27.277,18.891 L27.277,27.267 L22.534,27.267 L22.534,19.839 C22.534,18.069 22.502,15.789 20.068,15.789 C17.598,15.789 17.218,17.719 17.218,19.709 L17.218,27.263 L12.476,27.263 L12.476,11.993 L12.469,11.996 Z M7.119,4.396 C8.636,4.396 9.869,5.629 9.869,7.146 C9.869,8.663 8.636,9.899 7.12,9.899 C5.601,9.8955 4.37,8.665 4.366,7.146 C4.366,5.627 5.597,4.396 7.116,4.396 C7.117,4.396 7.118,4.396 7.119,4.396 L7.119,4.396 Z M4.745,27.266 L9.5,27.266 L9.5,11.996 L4.745,11.996 L4.745,27.266 Z" id="Fill-3" fill="#FFFFFF"></path>
                            </g>
                        </g>
                    </g>
                </g>
            </g>
        </g>
    </g>
</svg>