<svg width="32" height="32" viewBox="0 0 32 32" fill="none" xmlns="http://www.w3.org/2000/svg">
<path fill-rule="evenodd" clip-rule="evenodd" d="M29.63 0H2.362C1.06 0 0 1.033 0 2.305V29.689C0 30.964 1.06 31.999 2.362 31.999H29.632C30.937 31.999 32 30.964 32 29.689V2.305C32 1.033 30.937 0 29.63 0Z" fill="#2867B2"/>
<path fill-rule="evenodd" clip-rule="evenodd" d="M12.4692 11.996H17.0212V14.083H17.0842C17.7182 12.883 19.2662 11.617 21.5842 11.617C26.3902 11.617 27.2772 14.78 27.2772 18.891V27.267H22.5342V19.839C22.5342 18.069 22.5022 15.789 20.0682 15.789C17.5982 15.789 17.2182 17.719 17.2182 19.709V27.263H12.4762V11.993L12.4692 11.996ZM7.11921 4.396C8.63621 4.396 9.86921 5.629 9.86921 7.146C9.86921 8.663 8.63621 9.899 7.12021 9.899C5.60121 9.8955 4.37021 8.665 4.36621 7.146C4.36621 5.627 5.59721 4.396 7.11621 4.396C7.11721 4.396 7.11821 4.396 7.11921 4.396ZM4.74521 27.266H9.50021V11.996H4.74521V27.266Z" fill="white"/>
</svg>
