<svg width="32" height="32" viewBox="0 0 32 32" fill="none" xmlns="http://www.w3.org/2000/svg">
<path d="M6.73015 20.1649C6.73015 22.0188 5.23174 23.5173 3.37777 23.5173C1.5238 23.5173 0.0253906 22.0188 0.0253906 20.1649C0.0253906 18.3109 1.5238 16.8125 3.37777 16.8125H6.73015V20.1649Z" fill="#E01E5A"/>
<path d="M8.40625 20.1649C8.40625 18.3109 9.90466 16.8125 11.7586 16.8125C13.6126 16.8125 15.111 18.3109 15.111 20.1649V28.5458C15.111 30.3998 13.6126 31.8982 11.7586 31.8982C9.90466 31.8982 8.40625 30.3998 8.40625 28.5458V20.1649Z" fill="#E01E5A"/>
<path d="M11.7586 6.70476C9.90466 6.70476 8.40625 5.20635 8.40625 3.35238C8.40625 1.49841 9.90466 0 11.7586 0C13.6126 0 15.111 1.49841 15.111 3.35238V6.70476H11.7586Z" fill="#36C5F0"/>
<path d="M11.7587 8.40625C13.6127 8.40625 15.1111 9.90466 15.1111 11.7586C15.1111 13.6126 13.6127 15.111 11.7587 15.111H3.35238C1.49841 15.111 0 13.6126 0 11.7586C0 9.90466 1.49841 8.40625 3.35238 8.40625H11.7587Z" fill="#36C5F0"/>
<path d="M25.1936 11.7586C25.1936 9.90466 26.692 8.40625 28.546 8.40625C30.4 8.40625 31.8984 9.90466 31.8984 11.7586C31.8984 13.6126 30.4 15.111 28.546 15.111H25.1936V11.7586Z" fill="#2EB67D"/>
<path d="M23.5175 11.7587C23.5175 13.6127 22.0191 15.1111 20.1651 15.1111C18.3112 15.1111 16.8127 13.6127 16.8127 11.7587V3.35238C16.8127 1.49841 18.3112 0 20.1651 0C22.0191 0 23.5175 1.49841 23.5175 3.35238V11.7587Z" fill="#2EB67D"/>
<path d="M20.1651 25.1938C22.0191 25.1938 23.5175 26.6923 23.5175 28.5462C23.5175 30.4002 22.0191 31.8986 20.1651 31.8986C18.3112 31.8986 16.8127 30.4002 16.8127 28.5462V25.1938H20.1651Z" fill="#ECB22E"/>
<path d="M20.1651 23.5173C18.3112 23.5173 16.8127 22.0188 16.8127 20.1649C16.8127 18.3109 18.3112 16.8125 20.1651 16.8125H28.5715C30.4254 16.8125 31.9239 18.3109 31.9239 20.1649C31.9239 22.0188 30.4254 23.5173 28.5715 23.5173H20.1651Z" fill="#ECB22E"/>
</svg>
