<svg width="32" height="26" viewBox="0 0 32 26" fill="none" xmlns="http://www.w3.org/2000/svg">
<path d="M28.6251 6.50529C28.6445 6.78599 28.6445 7.06668 28.6445 7.34997C28.6445 15.9817 22.0632 25.9367 10.0288 25.9367V25.9316C6.47385 25.9367 2.99271 24.92 0 23.003C0.516923 23.0651 1.03644 23.0961 1.55725 23.0974C4.50332 23.1 7.36518 22.1131 9.68291 20.2956C6.88324 20.2426 4.42818 18.42 3.57053 15.7592C4.55126 15.9481 5.56178 15.9093 6.52437 15.6467C3.47206 15.031 1.27611 12.3534 1.27611 9.2437C1.27611 9.21524 1.27611 9.18808 1.27611 9.16091C2.18559 9.66668 3.20389 9.94738 4.24551 9.97843C1.37069 8.06012 0.484534 4.24161 2.22057 1.25614C5.54235 5.33723 10.4434 7.81823 15.7046 8.08081C15.1773 5.81196 15.8977 3.43444 17.5974 1.83952C20.2326 -0.633715 24.377 -0.506949 26.8541 2.1228C28.3194 1.83434 29.7237 1.29753 31.0089 0.536932C30.5205 2.04907 29.4983 3.33355 28.1328 4.14977C29.4296 3.99713 30.6967 3.65046 31.8899 3.12141C31.0115 4.43564 29.9051 5.58041 28.6251 6.50529Z" fill="#1D9BF0"/>
</svg>
