<?xml version="1.0" encoding="UTF-8"?>
<svg width="60px" height="49px" viewBox="0 0 60 49" version="1.1" xmlns="http://www.w3.org/2000/svg" xmlns:xlink="http://www.w3.org/1999/xlink">
    <!-- Generator: Sketch 62 (91390) - https://sketch.com -->
    <title>logo / twitter</title>
    <desc>Created with Sketch.</desc>
    <g id="Layouts" stroke="none" stroke-width="1" fill="none" fill-rule="evenodd">
        <g id="home-1400" transform="translate(-820.000000, -5389.000000)" fill="#1D9BF0">
            <g id="Group-36" transform="translate(60.000000, 4911.000000)">
                <g id="Group-35" transform="translate(133.000000, 88.000000)">
                    <g id="Group-25" transform="translate(0.000000, 118.000000)">
                        <g id="Group-2" transform="translate(162.000000, 266.000000)">
                            <g id="logo-/-twitter" transform="translate(465.000000, 6.000000)">
                                <g id="Logo-blue">
                                    <path d="M53.6720648,12.2161943 C53.708502,12.7433198 53.708502,13.2704453 53.708502,13.8024291 C53.708502,30.0121457 41.3684211,48.7068826 18.8040486,48.7068826 L18.8040486,48.697166 C12.1384615,48.7068826 5.61133603,46.7975709 0,43.1975709 C0.969230769,43.31417 1.94331984,43.3724696 2.91983806,43.3748988 C8.4437247,43.3797571 13.8097166,41.5263158 18.1554656,38.1133603 C12.9060729,38.0137652 8.30283401,34.5910931 6.69473684,29.594332 C8.53360324,29.9489879 10.4283401,29.8761134 12.2331984,29.382996 C6.51012146,28.2267206 2.39271255,23.1983806 2.39271255,17.3587045 C2.39271255,17.3052632 2.39271255,17.254251 2.39271255,17.2032389 C4.09797571,18.1530364 6.00728745,18.6801619 7.96032389,18.7384615 C2.57004049,15.1360324 0.908502024,7.96518219 4.16356275,2.35870445 C10.3919028,10.0226721 19.5813765,14.6817814 29.4461538,15.1748988 C28.4574899,10.91417 29.8080972,6.44939271 32.9951417,3.45425101 C37.9360324,-1.1902834 45.7068826,-0.952226721 50.351417,3.98623482 C53.0987854,3.44453441 55.7319838,2.43643725 58.1417004,1.00809717 C57.2259109,3.84777328 55.3093117,6.25991903 52.7489879,7.79271255 C55.1805668,7.50607287 57.5562753,6.85506073 59.7935223,5.86153846 C58.1465587,8.32955466 56.0720648,10.4793522 53.6720648,12.2161943 Z" id="white_background" fill-rule="nonzero"></path>
                                </g>
                            </g>
                        </g>
                    </g>
                </g>
            </g>
        </g>
    </g>
</svg>