<svg width="40" height="40" viewBox="0 0 40 40" fill="none" xmlns="http://www.w3.org/2000/svg">
<mask id="mask0_0_799" style="mask-type:luminance" maskUnits="userSpaceOnUse" x="0" y="0" width="40" height="40">
<path fill-rule="evenodd" clip-rule="evenodd" d="M0 0H40V40H0V0Z" fill="white"/>
</mask>
<g mask="url(#mask0_0_799)">
<path d="M19.9998 0C8.95423 0 0 8.95439 0 20.0002C0 31.0456 8.95423 40 19.9998 40C31.0456 40 40 31.0456 40 20.0002C40 8.95439 31.0456 0 19.9998 0Z" fill="black"/>
</g>
<path fill-rule="evenodd" clip-rule="evenodd" d="M31.7431 14.5185C28.7119 14.5185 26.2546 16.9759 26.2546 20.007C26.2546 23.0381 28.7119 25.4954 31.7431 25.4954C34.4891 25.4923 36.8105 23.4597 37.1759 20.7385H34.0436C33.7335 21.7142 32.8211 22.421 31.7431 22.421C30.4099 22.421 29.3296 21.3402 29.3296 20.0075C29.3296 18.6743 30.4104 17.5939 31.7431 17.5935C32.8211 17.5935 33.734 18.3002 34.0436 19.2759H37.1764C36.8105 16.5538 34.4891 14.5217 31.7431 14.5185ZM8.23113 22.4205C6.89796 22.4205 5.8176 21.3397 5.8176 20.0065C5.8176 18.6734 6.89844 17.593 8.23113 17.593C9.56429 17.593 10.6447 18.6738 10.6447 20.0065C10.6447 21.3402 9.56381 22.4205 8.23113 22.4205ZM13.7196 25.4026V20.007C13.7196 16.9759 11.2623 14.5185 8.23113 14.5185C5.19999 14.5185 2.74268 16.9759 2.74268 20.007C2.74268 23.0381 5.19999 25.4954 8.23113 25.4954C9.12549 25.494 10.0526 25.1142 10.706 24.4824V25.4026H13.7196ZM19.975 17.5935C21.3082 17.5935 22.3886 18.6743 22.3886 20.0075C22.3886 21.3408 21.3077 22.421 19.975 22.421C18.6419 22.421 17.5615 21.3402 17.5615 20.0075C17.5615 18.6738 18.6419 17.5935 19.975 17.5935ZM14.4866 11.8174V20.007C14.4866 23.0381 16.9439 25.4954 19.975 25.4954C23.0065 25.4954 25.4635 23.0381 25.4635 20.007C25.4635 16.9759 23.0065 14.5185 19.975 14.5185C19.1382 14.5198 18.2718 14.7862 17.5615 15.2675V11.8174H14.4866Z" fill="#F0F0F0"/>
</svg>
