<svg width="70" height="22" viewBox="0 0 70 22" fill="none" xmlns="http://www.w3.org/2000/svg">
<path fill-rule="evenodd" clip-rule="evenodd" d="M20.1671 15.5854C20.0687 15.3089 19.9536 15.0415 19.8441 14.7937C19.6756 14.4125 19.4991 14.0306 19.3283 13.6615L19.3148 13.6322C17.792 10.3345 16.1576 6.99183 14.457 3.69697L14.3848 3.55707L14.3807 3.54907L14.3806 3.5489C14.2084 3.21498 14.0305 2.86995 13.8479 2.53088C13.6297 2.09828 13.3649 1.69071 13.0582 1.31537C12.7129 0.903487 12.2813 0.572231 11.7938 0.344959C11.3064 0.117687 10.7749 -6.74976e-05 10.2368 2.90261e-08C9.69878 6.76137e-05 9.16732 0.117955 8.67986 0.34535C8.19247 0.572745 7.76094 0.904112 7.41581 1.31608C7.10946 1.6915 6.84479 2.09899 6.62647 2.53138C6.44083 2.87628 6.25982 3.2274 6.08478 3.56696L6.01775 3.69693C4.31709 6.99204 2.68267 10.3347 1.15991 13.6321L1.13772 13.6801C0.969939 14.0432 0.79647 14.4188 0.630736 14.7935C0.521219 15.0411 0.406281 15.3084 0.307695 15.5855C0.0253279 16.3405 -0.0646498 17.1536 0.0458499 17.9519C0.163033 18.7586 0.489319 19.5209 0.992394 20.163C1.49547 20.8052 2.15788 21.305 2.91402 21.613C3.48514 21.844 4.09581 21.9622 4.71207 21.9608C4.90565 21.9607 5.09907 21.9495 5.29136 21.9271C6.07078 21.8278 6.8225 21.5741 7.50242 21.1811C8.3943 20.6801 9.27514 19.9457 10.2374 18.8964C11.1996 19.9457 12.0804 20.6801 12.9723 21.1811C13.6522 21.5742 14.4039 21.8278 15.1833 21.9271C15.3756 21.9495 15.5691 21.9607 15.7627 21.9608C16.3789 21.9622 16.9895 21.844 17.5606 21.613C18.3167 21.305 18.9792 20.8052 19.4823 20.163C19.9854 19.5209 20.3117 18.7587 20.429 17.9519C20.5393 17.1536 20.4493 16.3404 20.1671 15.5854ZM10.2374 16.7293C9.0462 15.2194 8.28182 13.8173 8.01363 12.6419C7.90376 12.2014 7.87781 11.7443 7.93718 11.2942C7.98405 10.9643 8.10525 10.6493 8.29164 10.3729C8.52099 10.0755 8.81575 9.83459 9.15312 9.66885C9.49049 9.50319 9.86149 9.41699 10.2375 9.41699C10.6136 9.41706 10.9845 9.50325 11.3219 9.66906C11.6593 9.83479 11.9539 10.0757 12.1833 10.3731C12.3697 10.6497 12.4909 10.9647 12.5378 11.2946C12.597 11.7449 12.571 12.2022 12.4609 12.6428C12.1924 13.8181 11.4283 15.2198 10.2374 16.7293ZM18.3758 19.2991C18.7275 18.8502 18.9557 18.3172 19.0377 17.7532C19.1164 17.1797 19.0493 16.5958 18.8428 16.055C18.7644 15.835 18.6723 15.618 18.5582 15.3602C18.3955 14.992 18.2228 14.6183 18.0555 14.2565L18.0522 14.2492L18.0385 14.2197C16.5241 10.9402 14.8988 7.61621 13.2075 4.33942L13.1352 4.19903L13.131 4.19089C12.9615 3.8624 12.7864 3.52297 12.6099 3.19487C12.4382 2.85086 12.2301 2.52616 11.9893 2.22627C11.776 1.9687 11.5083 1.76133 11.2054 1.619C10.9026 1.47666 10.5719 1.40287 10.2371 1.4029C9.90232 1.40292 9.57168 1.47677 9.26875 1.61915C8.9659 1.76154 8.69826 1.96894 8.48503 2.22655C8.24435 2.52666 8.03634 2.85148 7.8645 3.1955C7.68483 3.52928 7.50675 3.87471 7.33456 4.20881L7.26724 4.33927C5.57585 7.61641 3.95049 10.9405 2.43625 14.2194L2.41403 14.2675C2.24863 14.6255 2.07763 14.9958 1.91649 15.3601C1.80259 15.6175 1.71065 15.8343 1.63208 16.0551C1.4254 16.5958 1.35836 17.1798 1.43713 17.7532C1.51903 18.3172 1.74715 18.8502 2.09889 19.2992C2.45063 19.7482 2.91379 20.0977 3.44249 20.313C3.97713 20.5272 4.55731 20.6031 5.12918 20.5337C5.72358 20.4572 6.29635 20.2615 6.81312 19.9586C7.60701 19.5125 8.41064 18.8278 9.31494 17.8235C7.87486 16.0478 6.97584 14.4113 6.64321 12.9534C6.49374 12.3407 6.46144 11.7055 6.54802 11.0809C6.62661 10.5428 6.82642 10.0295 7.13245 9.57964C7.49103 9.09417 7.95879 8.69956 8.49814 8.42766C9.03748 8.15576 9.6333 8.01411 10.2375 8.01411C10.8418 8.01411 11.4375 8.15582 11.9769 8.42779C12.5161 8.69977 12.9839 9.09444 13.3425 9.57991C13.6486 10.0299 13.8484 10.5434 13.9269 11.0816C14.0135 11.7064 13.981 12.342 13.8312 12.9548C13.4983 14.4121 12.5994 16.0483 11.1598 17.8234C12.0641 18.8278 12.8677 19.5125 13.6616 19.9585C14.1784 20.2615 14.7512 20.4571 15.3456 20.5337C15.9174 20.6031 16.4976 20.5272 17.0322 20.313C17.5609 20.0977 18.024 19.7482 18.3758 19.2991Z" fill="#FF385C"/>
<path fill-rule="evenodd" clip-rule="evenodd" d="M36.8115 5.8033C36.8115 6.04511 36.7676 6.26494 36.6579 6.4408C36.5482 6.61666 36.3947 6.77054 36.1972 6.88047C35.9998 6.99035 35.7805 7.03434 35.5611 7.03434C35.3417 7.03434 35.1224 6.99035 34.9249 6.88047C34.7275 6.77054 34.574 6.61666 34.4643 6.4408C34.3546 6.24295 34.3107 6.04511 34.3107 5.8033C34.3107 5.56149 34.3546 5.34166 34.4643 5.1658C34.574 4.96795 34.7275 4.83606 34.9249 4.72614C35.1224 4.61623 35.3417 4.57227 35.5611 4.57227C35.7805 4.57227 35.9998 4.61623 36.1972 4.72614C36.3947 4.83606 36.5482 4.98994 36.6579 5.1658C36.7456 5.34166 36.8115 5.53951 36.8115 5.8033ZM27.0938 16.2231C27.5545 16.443 28.059 16.5529 28.6074 16.5529C29.1777 16.5529 29.7042 16.421 30.1429 16.1792C30.6255 15.9153 30.9984 15.5636 31.2836 15.124L31.3494 16.333H33.3675V8.04556H31.3494L31.2836 9.12267C30.9984 8.705 30.6475 8.37532 30.2087 8.15544C29.77 7.91366 29.2874 7.80372 28.739 7.80372C28.1687 7.80372 27.6642 7.91366 27.1816 8.13347C26.699 8.35329 26.2822 8.68304 25.9313 9.07875C25.5802 9.49642 25.2951 9.95807 25.0976 10.4856C24.9003 11.0132 24.7905 11.6068 24.7905 12.2223C24.7905 12.8378 24.8783 13.4093 25.0757 13.937C25.2732 14.4425 25.5364 14.9042 25.8873 15.2998C26.2384 15.6955 26.6332 16.0033 27.0938 16.2231ZM30.2087 14.2666C29.8797 14.4645 29.5287 14.5744 29.1339 14.5744C28.739 14.5744 28.388 14.4645 28.059 14.2666C27.7519 14.0468 27.4887 13.7611 27.3132 13.4093C27.1377 13.0576 27.0499 12.64 27.0499 12.1783C27.0499 11.7167 27.1377 11.299 27.3132 10.9473C27.5106 10.5956 27.7519 10.3098 28.059 10.09C28.388 9.89212 28.739 9.78218 29.1339 9.78218C29.5287 9.78218 29.9016 9.87009 30.2087 10.09C30.5158 10.3098 30.7791 10.5956 30.9546 10.9473C31.1301 11.299 31.2178 11.7167 31.2178 12.1783C31.2178 12.64 31.1301 13.0576 30.9546 13.4093C30.7571 13.7611 30.5158 14.0468 30.2087 14.2666ZM34.4643 8.02353V16.3111H36.6579V8.02353H34.4643ZM42.5148 10.1998V10.2218C42.4203 10.184 42.3095 10.1624 42.2104 10.1431L42.1638 10.1339C42.0322 10.1119 41.9225 10.1119 41.7909 10.1119C41.1767 10.1119 40.716 10.2878 40.4089 10.6615C40.0799 11.0352 39.9263 11.5628 39.9263 12.2443V16.3111H37.7328V8.02353H39.7508L39.8166 9.2766C40.036 8.83691 40.2992 8.50715 40.6722 8.26538C41.0231 8.02353 41.4399 7.91366 41.9225 7.91366C42.0761 7.91366 42.2296 7.93562 42.3612 7.95758C42.3901 7.96726 42.4148 7.97269 42.4371 7.97759C42.4656 7.98385 42.4902 7.98926 42.5148 8.00157V10.1998ZM43.3922 4.61623V16.3111L45.4103 16.2891L45.4761 15.2119C45.7613 15.6296 46.1123 15.9593 46.551 16.1792C46.9897 16.421 47.4723 16.5309 48.0207 16.5309C48.591 16.5309 49.0956 16.421 49.5781 16.2012C50.0607 15.9813 50.4775 15.6516 50.8285 15.2559C51.1795 14.8382 51.4646 14.3766 51.6621 13.849C51.8595 13.3214 51.9691 12.7279 51.9691 12.1124C51.9691 11.4968 51.8814 10.9253 51.684 10.3977C51.4865 9.89212 51.2234 9.43046 50.8724 9.03476C50.5214 8.63905 50.1265 8.33133 49.6659 8.11151C49.2052 7.89163 48.7007 7.78176 48.1523 7.78176C47.6039 7.78176 47.1214 7.91366 46.6826 8.13347C46.2439 8.37525 45.8929 8.68304 45.5858 9.07875V4.61623H43.3922ZM47.6258 14.5744C48.0207 14.5744 48.3717 14.4645 48.7007 14.2666C49.0078 14.0468 49.2491 13.7611 49.4465 13.4093C49.622 13.0576 49.7098 12.64 49.7098 12.1783C49.7098 11.7167 49.622 11.299 49.4465 10.9473C49.2491 10.5956 49.0078 10.3098 48.7007 10.09C48.3936 9.87009 48.0207 9.78218 47.6258 9.78218C47.231 9.78218 46.8801 9.89212 46.551 10.09C46.2439 10.3098 46.0026 10.5956 45.8051 10.9473C45.6297 11.299 45.542 11.7167 45.542 12.1783C45.542 12.64 45.6297 13.0576 45.8051 13.4093C45.9806 13.7611 46.2439 14.0468 46.551 14.2666C46.8801 14.4645 47.231 14.5744 47.6258 14.5744ZM52.8027 8.02353V16.3111H54.9744V11.5628C54.9744 11.233 55.0402 10.9033 55.1937 10.6395C55.3473 10.3537 55.5447 10.1559 55.786 10.002C56.0492 9.84813 56.3344 9.78218 56.6634 9.78218C57.1241 9.78218 57.4751 9.95807 57.7383 10.2878C58.0015 10.6175 58.1332 11.0792 58.1332 11.6507V16.333H60.3267V11.3649C60.3267 10.6395 60.1952 10.002 59.9539 9.47446C59.7126 8.94685 59.3615 8.52918 58.9009 8.24342C58.4622 7.95758 57.9357 7.80372 57.3215 7.80372C56.7731 7.80372 56.2905 7.91366 55.8738 8.15544C55.457 8.39728 55.1279 8.705 54.8866 9.10071L54.8208 8.02353H52.8027ZM61.4235 16.3111V4.61623H63.6171V9.07875C63.9242 8.68304 64.2752 8.37525 64.7139 8.13347C65.1527 7.91366 65.6353 7.78176 66.1837 7.78176C66.7321 7.78176 67.2365 7.89163 67.6972 8.11151C68.1579 8.33133 68.5527 8.63905 68.9036 9.03476C69.2549 9.43046 69.5178 9.89212 69.7154 10.3977C69.9131 10.9253 70.0002 11.4968 70.0002 12.1124C70.0002 12.7279 69.8911 13.3214 69.6935 13.849C69.4958 14.3766 69.211 14.8382 68.8596 15.2559C68.5088 15.6516 68.092 15.9813 67.6095 16.2012C67.1269 16.421 66.6223 16.5309 66.052 16.5309C65.5036 16.5309 65.021 16.421 64.5823 16.1792C64.1436 15.9593 63.7926 15.6296 63.5075 15.2119L63.4416 16.2891L61.4235 16.3111ZM66.754 14.2666C66.4249 14.4645 66.0739 14.5744 65.6791 14.5744C65.2623 14.5744 64.9333 14.4645 64.6043 14.2666C64.2972 14.0468 64.0339 13.7611 63.8584 13.4093C63.6829 13.0576 63.5952 12.64 63.5952 12.1783C63.5952 11.7167 63.661 11.299 63.8584 10.9473C64.0559 10.5956 64.2972 10.3098 64.6043 10.09C64.9333 9.89212 65.2842 9.78218 65.6791 9.78218C66.0739 9.78218 66.4468 9.87009 66.754 10.09C67.0611 10.3098 67.3243 10.5956 67.4998 10.9473C67.6753 11.299 67.7631 11.7167 67.7631 12.1783C67.7631 12.64 67.6753 13.0576 67.4998 13.4093C67.3024 13.7611 67.0611 14.0468 66.754 14.2666Z" fill="#FF385C"/>
</svg>
