<svg width="61" height="19" viewBox="0 0 61 19" fill="none" xmlns="http://www.w3.org/2000/svg">
<path d="M37.4909 14.15C34.0199 16.7084 28.9888 18.0734 24.6572 18.0734C18.5835 18.0734 13.1156 15.827 8.97897 12.0908C8.65397 11.797 8.94517 11.3965 9.33517 11.6253C13.7994 14.2228 19.3193 15.7854 25.0212 15.7854C28.8666 15.7854 33.0968 14.9898 36.9865 13.3388C37.5741 13.0892 38.0655 13.7236 37.4909 14.15Z" fill="#FF9900"/>
<path d="M38.9335 12.4993C38.4915 11.9325 36.0007 12.2315 34.8827 12.3641C34.5421 12.4057 34.4901 12.1093 34.7969 11.8961C36.7807 10.4998 40.0359 10.9028 40.4155 11.3708C40.7951 11.8415 40.3167 15.1045 38.4525 16.6619C38.1665 16.9011 37.8935 16.7737 38.0209 16.4565C38.4395 15.4113 39.3781 13.0687 38.9335 12.4993Z" fill="#FF9900"/>
<path d="M34.961 2.03929V0.682071C34.961 0.476669 35.117 0.338867 35.3042 0.338867H41.3805C41.5755 0.338867 41.7315 0.479269 41.7315 0.682071V1.84429C41.7289 2.03929 41.5651 2.29409 41.2739 2.69709L38.1252 7.19257C39.2953 7.16397 40.5303 7.33817 41.5911 7.93617C41.8303 8.07137 41.8953 8.26897 41.9135 8.46397V9.91217C41.9135 10.1098 41.6951 10.3412 41.4663 10.2216C39.5969 9.24137 37.1138 9.13477 35.0468 10.232C34.8362 10.3464 34.6152 10.1176 34.6152 9.91997V8.54457C34.6152 8.32357 34.6178 7.94657 34.8388 7.61117L38.4867 2.37989H35.312C35.117 2.37989 34.961 2.24209 34.961 2.03929Z" fill="#221F1F"/>
<path d="M12.7955 10.507H10.9469C10.7701 10.494 10.6297 10.3614 10.6167 10.1924V0.704868C10.6167 0.515069 10.7753 0.364265 10.9729 0.364265H12.6967C12.8761 0.37206 13.0191 0.509869 13.0321 0.681468V1.92168H13.0659C13.5157 0.723069 14.3607 0.164062 15.4995 0.164062C16.6565 0.164062 17.3793 0.723069 17.8993 1.92168C18.3465 0.723069 19.3631 0.164062 20.4526 0.164062C21.2274 0.164062 22.075 0.483866 22.5924 1.20147C23.1774 1.99968 23.0578 3.15929 23.0578 4.17591L23.0552 10.1638C23.0552 10.3536 22.8966 10.507 22.699 10.507H20.853C20.6684 10.494 20.5202 10.3458 20.5202 10.1638V5.13531C20.5202 4.73491 20.5566 3.7365 20.4682 3.3569C20.3304 2.71989 19.917 2.54049 19.3813 2.54049C18.9341 2.54049 18.4661 2.83949 18.2763 3.3179C18.0865 3.7963 18.1047 4.59711 18.1047 5.13531V10.1638C18.1047 10.3536 17.9461 10.507 17.7485 10.507H15.9025C15.7153 10.494 15.5697 10.3458 15.5697 10.1638L15.5671 5.13531C15.5671 4.07711 15.7413 2.51969 14.4283 2.51969C13.0997 2.51969 13.1517 4.0381 13.1517 5.13531V10.1638C13.1517 10.3536 12.9931 10.507 12.7955 10.507Z" fill="#221F1F"/>
<path fill-rule="evenodd" clip-rule="evenodd" d="M51.1904 5.51491C51.1904 2.51969 49.7058 0.164062 46.9628 0.164062C44.2873 0.164062 42.8027 2.45989 42.8027 5.41351C42.8027 8.34896 44.2691 10.7046 46.9628 10.7046C49.5498 10.7046 51.1904 8.40876 51.1904 5.51491ZM45.5301 5.11451C45.5301 3.9575 45.6159 2.10108 46.9783 2.10108C47.566 2.10108 47.9794 2.35849 48.1874 3.01889C48.4292 3.7781 48.463 4.73491 48.463 5.53571C48.463 6.75251 48.3954 8.74936 46.9628 8.74936C45.5295 8.74936 45.5299 6.33354 45.5301 5.1571C45.5301 5.14272 45.5301 5.12852 45.5301 5.11451Z" fill="#221F1F"/>
<path d="M54.7473 10.507H52.9063C52.7218 10.494 52.5733 10.3458 52.5733 10.1638L52.5708 0.673669C52.5863 0.499466 52.7398 0.364265 52.9273 0.364265H54.6403C54.8018 0.37206 54.9343 0.481266 54.9708 0.629469V2.08028H55.0043C55.5218 0.782869 56.2473 0.164062 57.5238 0.164062C58.3533 0.164062 59.1618 0.463066 59.6818 1.28207C60.1658 2.04128 60.1658 3.3179 60.1658 4.23571V10.208C60.1448 10.3744 59.9913 10.507 59.8093 10.507H57.9553C57.7863 10.494 57.6463 10.3692 57.6278 10.208V5.05471C57.6278 4.01731 57.7473 2.49889 56.4708 2.49889C56.0213 2.49889 55.6078 2.80049 55.4023 3.2581C55.1423 3.8379 55.1083 4.41511 55.1083 5.05471V10.1638C55.1058 10.3536 54.9448 10.507 54.7473 10.507Z" fill="#221F1F"/>
<path fill-rule="evenodd" clip-rule="evenodd" d="M31.5444 10.5253C31.6822 10.5981 31.859 10.5903 31.9812 10.4811L31.9864 10.4863C32.3556 10.1587 33.0264 9.57374 33.4034 9.25914C33.5542 9.13434 33.5282 8.93414 33.4086 8.76774C33.3723 8.71758 33.3359 8.66843 33.2996 8.61958C32.9978 8.21278 32.7118 7.82734 32.7118 7.05434V4.17349C32.7118 4.07508 32.7123 3.97731 32.7129 3.88028C32.7192 2.77503 32.725 1.76568 31.898 0.993654C31.1882 0.312445 30.013 0.0732422 29.1134 0.0732422C27.3557 0.0732422 25.3927 0.728449 24.9793 2.90207C24.9377 3.13347 25.1041 3.25568 25.2549 3.28948L27.0489 3.48188C27.2153 3.47408 27.3375 3.31028 27.3687 3.14387C27.5221 2.39507 28.1513 2.03366 28.8559 2.03366C29.2356 2.03366 29.6672 2.17406 29.8934 2.51467C30.1244 2.85532 30.1208 3.30903 30.1177 3.7161C30.1173 3.76265 30.117 3.80859 30.117 3.85368V4.09289C29.9439 4.11263 29.7622 4.13122 29.575 4.15037C28.6033 4.24979 27.4822 4.3645 26.6407 4.73509C25.4837 5.23429 24.6699 6.25609 24.6699 7.75634C24.6699 9.67774 25.8815 10.6371 27.4363 10.6371C28.7519 10.6371 29.4696 10.3277 30.4836 9.29294C30.5371 9.3699 30.5848 9.44061 30.6298 9.50713C30.8688 9.86089 31.0279 10.0964 31.5444 10.5253ZM30.117 5.57489V5.97529C30.117 6.00827 30.117 6.04099 30.117 6.07347C30.1178 6.75057 30.1185 7.32543 29.7712 7.93574C29.4774 8.45574 29.012 8.77554 28.4919 8.77554C27.7821 8.77554 27.3687 8.23474 27.3687 7.43654C27.3687 5.86089 28.7805 5.57489 30.117 5.57489Z" fill="#221F1F"/>
<path fill-rule="evenodd" clip-rule="evenodd" d="M7.30954 10.5253C7.44734 10.5981 7.62414 10.5903 7.74634 10.4811L7.75154 10.4863C8.12074 10.1587 8.79154 9.57374 9.16854 9.25914C9.31934 9.13434 9.29334 8.93414 9.17374 8.76774C9.13751 8.71758 9.10104 8.66843 9.0648 8.61958C8.76295 8.21278 8.47694 7.82734 8.47694 7.05434V4.17349C8.47694 4.07508 8.4775 3.97731 8.47806 3.88028C8.48438 2.77503 8.49014 1.76568 7.66314 0.993654C6.95334 0.312445 5.77809 0.0732422 4.87851 0.0732422C3.12089 0.0732422 1.15786 0.728449 0.744459 2.90207C0.702859 3.13347 0.869264 3.25568 1.02006 3.28948L2.81408 3.48188C2.98048 3.47408 3.10269 3.31028 3.13389 3.14387C3.28729 2.39507 3.9165 2.03366 4.6211 2.03366C5.00069 2.03366 5.43229 2.17406 5.65849 2.51467C5.88948 2.85532 5.88596 3.30903 5.88281 3.7161C5.88245 3.76265 5.88209 3.80859 5.88209 3.85368V4.09289C5.70902 4.11263 5.52734 4.13122 5.3401 4.15038C4.36844 4.2498 3.24734 4.3645 2.40588 4.73509C1.24887 5.23429 0.435059 6.25609 0.435059 7.75634C0.435059 9.67774 1.64667 10.6371 3.20149 10.6371C4.5171 10.6371 5.23469 10.3277 6.24874 9.29294C6.30225 9.3699 6.35001 9.44061 6.39496 9.50713C6.63395 9.86089 6.79307 10.0964 7.30954 10.5253ZM5.88209 5.57489V5.97529C5.88209 6.00827 5.88213 6.04099 5.88217 6.07347C5.88296 6.75057 5.88363 7.32543 5.53629 7.93574C5.24249 8.45574 4.7771 8.77554 4.2571 8.77554C3.54729 8.77554 3.13389 8.23474 3.13389 7.43654C3.13389 5.86089 4.5457 5.57489 5.88209 5.57489Z" fill="#221F1F"/>
</svg>
