<svg width="30" height="37" viewBox="0 0 30 37" fill="none" xmlns="http://www.w3.org/2000/svg">
<path fill-rule="evenodd" clip-rule="evenodd" d="M22.3807 0.743436C22.3807 2.63778 21.5685 4.53213 20.4221 5.89896C19.2037 7.40975 17.102 8.53675 15.4299 8.53698C15.2389 8.53698 15.0476 8.51283 14.9283 8.48892C14.9045 8.39303 14.8566 8.10513 14.8566 7.81746C14.8566 5.89896 15.836 4.00462 16.8869 2.80565C18.2246 1.24703 20.4459 0.0719754 22.309 0C22.3568 0.215926 22.3807 0.479681 22.3807 0.743436ZM28.9515 12.6763C28.9979 12.6457 29.0298 12.6247 29.0446 12.6131C26.5606 9.04034 22.7865 8.94422 21.7354 8.94399C20.1295 8.94399 18.6919 9.51604 17.4834 9.99697C16.6071 10.3457 15.8511 10.6466 15.2387 10.6466C14.563 10.6466 13.7894 10.3327 12.926 9.98238C11.836 9.54014 10.603 9.03988 9.24352 9.03988C4.65772 9.03988 0 12.8527 0 20.0465C0 24.5306 1.7197 29.2545 3.84551 32.3C5.68455 34.8897 7.28492 37 9.57794 37C10.6654 37 11.4627 36.6602 12.3012 36.3029C13.2307 35.9068 14.2108 35.4892 15.6926 35.4892C17.189 35.4892 18.0835 35.8813 18.9463 36.2595C19.75 36.6117 20.5262 36.9519 21.7357 36.9519C24.2435 36.9519 25.8918 34.674 27.4681 32.3959C29.2357 29.8062 29.9762 27.2643 30 27.1445C29.8566 27.0966 25.0557 25.1542 25.0557 19.663C25.0557 15.2432 28.3261 13.0883 28.9515 12.6763Z" fill="black"/>
</svg>
