<svg width="41" height="40" viewBox="0 0 41 40" fill="none" xmlns="http://www.w3.org/2000/svg">
<path fill-rule="evenodd" clip-rule="evenodd" d="M20.5002 0.333008C24.2779 0.333008 27.6113 1.33301 30.6113 3.11079C31.389 3.55523 31.8335 3.88856 31.7224 4.2219C31.7224 6.11079 26.389 8.11079 19.6113 8.11079C12.7224 8.11079 8.8335 6.33301 8.8335 4.66634C8.8335 4.11079 9.38905 3.66634 10.2779 3.2219C13.2779 1.33301 16.7224 0.333008 20.5002 0.333008ZM33.5002 5.2219C33.6113 5.33301 33.6113 5.44412 33.6113 5.66634C33.6113 7.88856 26.9446 11.6663 16.2779 11.6663C8.38905 11.6663 6.94461 8.77745 6.94461 6.88856C6.94461 6.2219 7.16683 5.55523 7.72238 4.88856C6.72238 5.88856 5.8335 6.77745 4.94461 7.88856C4.61127 8.33301 4.38905 8.77745 4.38905 8.99967C4.38905 12.8886 14.0557 15.5552 22.9446 15.5552C32.5002 15.5552 36.8335 12.4441 36.8335 9.66634C36.8335 8.66634 36.5002 8.11079 35.5002 6.99967C34.8335 6.33301 34.1668 5.77745 33.5002 5.2219ZM1.16683 15.6663C1.38905 14.6663 2.05572 12.6663 2.61127 11.5552C2.61127 11.819 2.5417 12.1523 2.45761 12.5552C2.43543 12.6615 2.41224 12.7726 2.38905 12.8886C2.38905 16.7775 8.94461 19.8886 16.7224 19.8886C23.9446 19.8886 38.1668 16.5552 38.0557 11.4441C38.6113 12.4441 39.0557 13.7775 39.389 14.8886C39.6113 15.8886 39.6113 16.6663 39.389 17.333C38.2779 21.2219 31.5002 23.333 22.8335 23.333C8.61127 23.333 2.50016 19.2219 1.27794 16.6663C1.26528 16.6284 1.25261 16.5918 1.24028 16.5562L1.24027 16.5562C1.14438 16.2795 1.06838 16.0601 1.16683 15.6663ZM16.5002 27.8886C6.38905 27.8886 1.61127 23.2219 0.833496 19.9997C0.833496 21.1108 0.944607 22.4441 1.16683 23.4441C1.27794 23.8886 1.61127 24.5552 2.16683 25.2219C4.61127 27.7775 10.7224 31.333 21.2779 31.333C35.6113 31.333 38.9446 26.5552 39.6113 24.9997C40.0557 23.8886 40.3891 21.8886 40.3891 20.1108V18.9997C39.3891 22.7775 27.1668 27.8886 16.5002 27.8886ZM35.1668 32.5552C32.0557 35.2219 26.7224 36.5552 21.8335 36.5552C12.6113 36.5552 5.16683 33.7775 2.72239 28.4441C5.38905 32.333 12.1668 34.333 18.3891 34.333C27.2779 34.333 35.8335 31.5552 38.8335 27.2219C38.5002 27.9997 38.0557 28.8886 37.6113 29.6663C36.8335 30.8886 36.0557 31.8886 35.1668 32.5552ZM20.5002 39.6663C15.9446 39.6663 11.7224 38.1108 8.38905 35.5552C10.5002 36.7775 14.3891 38.1108 20.5002 38.1108C27.5002 38.1108 31.9446 35.7775 33.5002 34.7775C30.0557 37.7775 25.5002 39.6663 20.5002 39.6663Z" fill="#009FDB"/>
</svg>
