<svg width="119" height="12" viewBox="0 0 119 12" fill="none" xmlns="http://www.w3.org/2000/svg">
<path fill-rule="evenodd" clip-rule="evenodd" d="M109.876 10.8818C109.596 10.8818 109.382 11.0955 109.382 11.3585C109.382 11.638 109.596 11.8517 109.876 11.8517C110.156 11.8517 110.37 11.6216 110.37 11.3585C110.37 11.0955 110.156 10.8818 109.876 10.8818ZM109.893 11.7531C109.662 11.7531 109.481 11.5722 109.481 11.3585C109.481 11.1613 109.646 10.9805 109.893 10.9805C110.106 10.9805 110.288 11.1448 110.288 11.3585C110.288 11.5887 110.106 11.7531 109.893 11.7531Z" fill="#E31837"/>
<path fill-rule="evenodd" clip-rule="evenodd" d="M109.859 11.3916L110.024 11.6382H110.123L109.958 11.3916C110.057 11.3916 110.139 11.3423 110.139 11.2436C110.139 11.1943 110.123 11.145 110.073 11.1286C110.04 11.0957 109.991 11.0957 109.942 11.0957H109.695V11.6382H109.761V11.3916H109.859ZM109.891 11.3264C109.88 11.3261 109.87 11.3258 109.859 11.3258H109.761V11.1615H109.909C109.975 11.1615 110.04 11.1779 110.04 11.2436C110.04 11.33 109.965 11.3282 109.891 11.3264Z" fill="#E31837"/>
<path d="M107.523 11.852C110.979 8.89309 115.834 6.01638 118.5 4.98077C118.089 4.71775 117.447 4.33967 116.723 3.92871C113.283 5.06296 109.267 7.57803 105.679 10.4219C106.288 10.8821 106.93 11.3588 107.523 11.852Z" fill="#E31837"/>
<path d="M105.942 3.81362C105.432 3.56705 104.872 3.33691 104.445 3.13965C103.144 3.78074 101.449 4.75061 99.3096 6.27937C99.7704 6.52595 100.264 6.82184 100.791 7.11773C102.437 5.90129 104.099 4.75061 105.942 3.81362Z" fill="#012169"/>
<path d="M109.02 2.40019C108.395 2.05498 106.222 1.2495 104.725 0.904297C104.28 1.06868 103.655 1.31526 103.227 1.49608C103.77 1.64402 105.795 2.18649 107.523 3.05772C107.967 2.84402 108.592 2.58101 109.02 2.40019Z" fill="#E31837"/>
<path d="M101.663 2.18652C99.7374 3.07419 97.7131 4.29063 96.6104 4.99748C97.0054 5.1783 97.4004 5.32625 97.9435 5.58926C100.379 3.94543 102.288 2.94269 103.046 2.61392C102.502 2.41666 101.992 2.28515 101.663 2.18652Z" fill="#012169"/>
<path fill-rule="evenodd" clip-rule="evenodd" d="M111.387 1.61679C111.077 1.70403 110.759 1.79371 110.468 1.89041C108.598 1.07401 107.148 0.67693 106.441 0.483467C106.308 0.447101 106.202 0.41793 106.123 0.394521C106.462 0.289572 106.908 0.168079 107.221 0.0828541C107.35 0.0479381 107.455 0.0191096 107.522 0C108.971 0.361644 110.584 0.936986 111.867 1.47945C111.713 1.525 111.552 1.57055 111.387 1.61679ZM103.375 8.75237C103.03 8.5098 102.686 8.26774 102.354 8.07123C107.078 4.3726 111.077 2.77808 113.414 2.1863C113.992 2.46694 114.451 2.70322 114.96 2.96525C114.988 2.9795 115.016 2.99381 115.044 3.00822C111.143 4.22466 107.588 6.37808 103.984 9.1726C103.782 9.03849 103.579 8.89534 103.375 8.75237Z" fill="#E31837"/>
<path fill-rule="evenodd" clip-rule="evenodd" d="M86.571 9.39797L86.5874 9.38643H86.571V9.39797ZM86.571 9.39797C86.0182 9.78352 85.5291 9.91246 85.0239 9.91246C83.9047 9.91246 83.1147 9.13986 83.1147 7.98917C83.1147 6.83849 83.8883 6.06588 84.9745 6.06588C85.4683 6.06588 85.962 6.19739 86.5051 6.59191V5.22753C86.0114 4.94808 85.4353 4.83301 84.7935 4.83301C82.802 4.83301 81.5512 6.21383 81.5347 7.97273C81.5512 9.74808 82.7691 11.1125 84.7935 11.1125C85.4683 11.1125 86.0443 10.9974 86.571 10.7179V9.39797ZM31.3368 7.98917C31.3533 6.23027 32.5876 4.84945 34.5462 4.84945C36.5047 4.84945 37.7391 6.23027 37.7556 7.98917C37.7391 9.74808 36.5047 11.1289 34.5462 11.1289C32.5876 11.1289 31.3533 9.74808 31.3368 7.98917ZM8.42681 4.98095H9.90806L12.1793 10.9974H10.6651L10.2537 9.74808H8.08118L7.66973 10.9974H6.17202L8.42681 4.98095ZM2.63348 10.9974H0.0166016V4.99739H2.46889C3.80202 4.99739 4.42743 5.6878 4.42743 6.5426C4.42743 7.21657 4.08181 7.67684 3.32473 7.85767C4.18056 8.02205 4.59202 8.54808 4.59202 9.33712C4.59202 10.307 3.9666 10.9974 2.63348 10.9974ZM3.12723 9.18917C3.12723 8.69602 2.7816 8.44945 2.28785 8.44945V8.43301H1.43202V9.9289H2.28785C2.79806 9.9289 3.12723 9.7152 3.12723 9.18917ZM2.12327 6.04945C2.61702 6.04945 2.96264 6.26314 2.96264 6.7563C2.96264 7.24945 2.63348 7.46314 2.12327 7.46314H1.43202V6.04945H2.12327ZM9.16743 6.42753L9.87514 8.64671H8.42681L9.16743 6.42753ZM18.3183 4.98095H19.6843V10.9974H18.1537L15.5862 6.98643V10.9974H14.2201V4.98095H15.7508L18.3183 9.00835V4.98095ZM25.9879 10.9974L24.0129 7.93986V10.9974H22.5481V4.98095H24.0129V7.8741L25.8891 4.98095H27.5185L25.5435 7.8741L27.6995 10.9974H25.9879ZM34.5462 9.9289C33.6081 9.9289 32.8839 9.18917 32.8839 7.98917C32.8839 6.78917 33.6081 6.04945 34.5462 6.04945C35.4843 6.04945 36.2085 6.78917 36.2085 7.98917C36.2085 9.18917 35.4843 9.9289 34.5462 9.9289ZM41.2283 10.9974H39.7635V4.98095H43.7958L43.5324 6.13164H41.2283V7.47958H43.1374V8.63027H41.2283V10.9974ZM50.626 4.98095H49.1447L46.8899 10.9974H48.3876L48.7991 9.74808H50.9716L51.3831 10.9974H52.8972L50.626 4.98095ZM50.5931 8.64671L49.8854 6.42753L49.1447 8.64671H50.5931ZM61.5872 4.98095H59.8756L58.312 8.23575L56.7485 4.98095H55.0368V10.9974H56.3535V6.96999L58.2956 10.9974L60.2376 6.96999V10.9974H61.6037L61.5872 4.98095ZM68.5491 10.9974H64.4345V4.98095H68.582L68.3187 6.13164H65.8993V7.38095H67.9895V8.49876H65.8993V9.84671H68.5491V10.9974ZM74.1285 10.9974H75.7249L74.2272 8.44945C75.0501 8.21931 75.4451 7.64397 75.4451 6.80561C75.4451 5.72068 74.7868 4.99739 73.3056 4.99739H70.9849V11.0138H72.4168V8.64671H72.8118L74.1285 10.9974ZM73.9474 6.87136C73.9474 6.36177 73.6347 6.09876 73.0258 6.09876H72.4004V7.64397H73.0258C73.6347 7.64397 73.9474 7.38095 73.9474 6.87136ZM77.9139 10.9974H79.3787V4.99739H77.9139V10.9974ZM91.9529 4.98095H90.4716L88.2168 10.9974H89.7145L90.126 9.74808H92.2985L92.7099 10.9974H94.2241L91.9529 4.98095ZM91.9199 8.64671L91.2122 6.42753L90.4716 8.64671H91.9199Z" fill="#012169"/>
</svg>
