<svg width="81" height="17" viewBox="0 0 81 17" fill="none" xmlns="http://www.w3.org/2000/svg">
<path fill-rule="evenodd" clip-rule="evenodd" d="M23.4387 2.6543H21.244V7.04056H15.1082V2.6543H12.8335V14.0022H15.1082V9.01147H21.244V14.0022H23.5236V2.6543H23.4387Z" fill="black"/>
<path fill-rule="evenodd" clip-rule="evenodd" d="M60.9081 2.6543H51.3105V14.0022H61.3501L60.0419 11.9876H53.5861V9.02844H59.6718V7.06965H53.5861V4.60662H59.8754L61.1109 2.6543H60.9081Z" fill="black"/>
<path fill-rule="evenodd" clip-rule="evenodd" d="M11.1303 2.65039H4.09434C2.81434 2.65039 0.5 3.02211 0.5 6.63665V10.13C0.5 12.736 1.75333 14.0023 4.02889 14.0023L11.2992 14.0015L9.95455 11.9126L4.34727 11.907C3.33636 11.907 2.84586 11.4003 2.84586 10.0104V6.52433C2.84586 5.17807 3.3501 4.66332 4.34727 4.66332H10.0111L11.2863 2.65039H11.1303Z" fill="black"/>
<path fill-rule="evenodd" clip-rule="evenodd" d="M48.7661 2.64844L41.3374 2.65086C39.5677 2.65086 38.7289 3.80803 38.7289 6.03834V5.9446C38.7289 8.09571 39.6372 9.05813 41.3326 9.06702H46.2053C46.678 9.06702 46.9641 9.30702 46.9641 10.0682L46.9633 10.8723C46.9503 11.6319 46.7524 11.9882 46.2053 11.9882H39.9564L38.6724 14.0028H46.0962C48.1213 14.0028 49.1903 13.046 49.1903 10.7317V10.1709C49.1903 7.92763 48.2336 7.01207 46.0962 7.01207H41.8255C41.5273 7.01207 41.053 6.97086 41.04 6.05207L41.0384 5.47187C41.0384 4.59349 41.4869 4.60723 41.8255 4.60723L47.6841 4.60399L48.9221 2.64844H48.7661Z" fill="black"/>
<path fill-rule="evenodd" clip-rule="evenodd" d="M32.3111 2.63086H30.1155L24.7515 13.9795H27.2565C27.2565 13.9795 28.2626 11.7145 28.3054 11.6175H34.1212C34.1648 11.7145 35.1717 13.9795 35.1717 13.9795H37.7422L32.3644 2.63086H32.3111ZM31.2274 5.0551C31.3664 5.37187 33.1103 9.33551 33.2048 9.55207C32.9696 9.55207 29.4496 9.56581 29.2145 9.56581C29.309 9.34843 31.0868 5.37106 31.2274 5.0551Z" fill="black"/>
<path fill-rule="evenodd" clip-rule="evenodd" d="M70.5811 0.808594C70.2902 0.808594 70.0542 1.04375 70.0542 1.33304V5.02435H79.8037L75.3633 0.808594H70.5811Z" fill="#0079C1"/>
<path fill-rule="evenodd" clip-rule="evenodd" d="M80.1596 6.14015C80.1596 5.85005 79.9244 5.61328 79.6327 5.61328H75.9438V15.3628L80.1588 10.924L80.1596 6.14015Z" fill="#0079C1"/>
<path fill-rule="evenodd" clip-rule="evenodd" d="M74.8253 15.7174C75.1154 15.7174 75.3514 15.4806 75.3514 15.1897V11.5H65.6035L70.0423 15.7149L74.8253 15.7174Z" fill="#0079C1"/>
<path fill-rule="evenodd" clip-rule="evenodd" d="M65.2471 10.3846C65.2471 10.6747 65.483 10.9114 65.7731 10.9114H69.4628V1.16113L65.2479 5.60154L65.2471 10.3846Z" fill="#0079C1"/>
</svg>
