<svg width="107" height="17" viewBox="0 0 107 17" fill="none" xmlns="http://www.w3.org/2000/svg">
<path d="M73.3892 8.38807C73.3892 6.51292 74.4412 5.49902 75.8472 5.49902C77.1482 5.49902 77.7677 6.21747 78.0182 7.23852L77.1177 7.49517C76.9057 6.75487 76.5812 6.37597 75.8397 6.37597C74.8937 6.37597 74.3422 7.10967 74.3422 8.38087C74.3422 9.71237 74.9092 10.4452 75.8552 10.4452C76.5812 10.4452 76.9892 10.0822 77.2017 9.24247L78.1012 9.44727C77.8287 10.5593 77.1397 11.3077 75.8472 11.3077C74.4102 11.3077 73.3892 10.317 73.3892 8.38807Z" fill="#231F20"/>
<path fill-rule="evenodd" clip-rule="evenodd" d="M80.5752 7.10938C79.5932 7.10938 78.6167 7.71462 78.6167 9.19677C78.6167 10.6649 79.6002 11.2845 80.5752 11.2845C81.5517 11.2845 82.5352 10.6649 82.5352 9.19677C82.5352 7.71462 81.5517 7.10938 80.5752 7.10938ZM80.5752 7.90408C81.2797 7.90408 81.5967 8.44868 81.5967 9.19677C81.5967 10.0212 81.2487 10.5055 80.5752 10.5055C79.8652 10.5055 79.5552 9.96052 79.5552 9.19677C79.5552 8.38773 79.9027 7.90408 80.5752 7.90408Z" fill="#231F20"/>
<path d="M83.1895 11.2014V7.18568H84.1195V7.73713C84.4305 7.39668 84.884 7.10938 85.497 7.10938C86.17 7.10938 86.434 7.37418 86.5935 7.76743C86.911 7.41948 87.388 7.10938 88 7.10938C88.8165 7.10938 89.173 7.60148 89.173 8.31988V11.2014H88.242V8.55368C88.242 8.10793 88.1135 7.90408 87.675 7.90408C87.296 7.90408 86.9945 8.11573 86.6465 8.42588V11.2014H85.716V8.55368C85.716 8.10793 85.5875 7.90408 85.149 7.90408C84.778 7.90408 84.468 8.11573 84.1195 8.42588V11.2014H83.1895Z" fill="#231F20"/>
<path fill-rule="evenodd" clip-rule="evenodd" d="M90.0298 7.18603V12.7146H90.9603V10.7559C91.2553 11.0879 91.6793 11.2624 92.1098 11.2624C93.1383 11.2624 93.8268 10.5821 93.8268 9.18998C93.8268 7.79843 93.1538 7.10938 92.2388 7.10938C91.6413 7.10938 91.2253 7.39703 90.9603 7.71498V7.18603H90.0298ZM91.9363 7.90443C92.5338 7.90443 92.8973 8.35023 92.8973 9.19712C92.8973 10.09 92.6093 10.5208 91.9053 10.5208C91.5728 10.5208 91.2103 10.3467 90.9603 10.0215V8.41023C91.1798 8.14643 91.5503 7.90443 91.9363 7.90443Z" fill="#231F20"/>
<path fill-rule="evenodd" clip-rule="evenodd" d="M96.8553 8.56903C94.9798 8.78103 94.2388 9.36407 94.2388 10.2338C94.2388 10.8988 94.7233 11.2621 95.3728 11.2621C95.9703 11.2621 96.4473 11.1036 96.8553 10.6875C96.8553 10.9141 96.8938 11.0354 96.9468 11.2014H97.8843C97.8013 10.9973 97.7713 10.7021 97.7713 10.2182V8.56152C97.7713 7.62462 97.4003 7.10938 96.3258 7.10938C95.4948 7.10938 94.8213 7.44197 94.3903 7.83527L94.8438 8.41772C95.1838 8.14637 95.6383 7.87378 96.1973 7.87378C96.6443 7.87378 96.8553 8.04728 96.8553 8.44903V8.56903ZM96.8553 9.19677V10.0819C96.5613 10.3623 96.1898 10.543 95.7138 10.543C95.3728 10.543 95.1538 10.377 95.1538 10.0597C95.1538 9.62072 95.7433 9.34812 96.8553 9.19677Z" fill="#231F20"/>
<path d="M98.6099 11.2014V7.18568H99.5409V7.82778C99.8434 7.48013 100.312 7.10938 100.978 7.10938C101.711 7.10938 102.165 7.48733 102.165 8.28173V11.2014H101.235V8.54688C101.235 8.10793 101.053 7.88128 100.63 7.88128C100.221 7.88128 99.8804 8.08508 99.5409 8.40338V11.2014H98.6099Z" fill="#231F20"/>
<path d="M102.391 12.6381L102.602 11.8897C102.716 11.9197 102.957 11.9731 103.283 11.9731C103.616 11.9731 103.79 11.8437 103.919 11.5185L104.032 11.2237L102.489 7.18555H103.457L104.493 10.1117H104.508L105.537 7.18555H106.46L104.75 11.6399C104.486 12.3429 104.138 12.7594 103.344 12.7594C102.867 12.7594 102.587 12.6912 102.391 12.6381Z" fill="#231F20"/>
<path d="M2.4966 11.1921V6.47263H0.772461V5.59473H5.1668V6.47263H3.442V11.1921H2.4966Z" fill="#231F20"/>
<path d="M5.72559 11.1921V5.59473H6.66384V7.72003C6.92049 7.44838 7.40474 7.10038 8.13134 7.10038C8.83444 7.10038 9.28839 7.51683 9.28839 8.30993V11.1921H8.35014V8.54443C8.35014 8.09928 8.16134 7.89448 7.75269 7.89448C7.34474 7.89448 7.00394 8.10613 6.66384 8.41628V11.1921H5.72559Z" fill="#231F20"/>
<path fill-rule="evenodd" clip-rule="evenodd" d="M11.8353 7.10059C11.0031 7.10059 9.92139 7.65989 9.92139 9.18804C9.92139 10.6634 10.8518 11.2758 11.8575 11.2758C12.5763 11.2758 13.1284 11.0113 13.5448 10.5489L13.0527 10.0649C12.7507 10.3604 12.4481 10.5342 11.9263 10.5342C11.3357 10.5342 10.8896 10.2163 10.8518 9.49069H13.5973V9.27054C13.5973 7.63704 12.7354 7.10059 11.8353 7.10059ZM11.8275 7.85654C12.3874 7.85654 12.6894 8.18169 12.7429 8.79474H10.8668C10.9578 8.11349 11.3736 7.85654 11.8275 7.85654Z" fill="#231F20"/>
<path fill-rule="evenodd" clip-rule="evenodd" d="M20.4085 10.2273C20.3661 10.1565 20.3123 10.0623 20.3123 10.0623C20.3123 10.0623 20.8116 9.69084 21.0695 9.47169C21.788 8.85989 22.2859 7.95689 22.4353 6.99519C22.5348 6.35929 22.5123 5.39434 22.1594 4.78287C21.9562 4.43132 21.5558 4.26305 21.169 4.27218C20.7037 4.28457 20.1747 4.53046 19.8437 4.81287C19.5003 5.10569 19.2254 5.45954 19.0212 5.82024C18.7649 6.27024 18.6384 6.70429 18.5741 7.27109C18.4962 7.96244 18.5813 8.96684 18.793 9.59659C18.8699 9.82324 18.9877 10.1249 18.9877 10.1249C18.9877 10.1249 18.835 10.1937 18.7277 10.237C18.3237 10.3975 18.011 10.4112 17.6734 10.1718C17.3529 9.94519 17.1393 9.45959 17.0528 9.10089C16.9893 8.83479 16.9475 8.42619 16.9371 8.14279C16.8875 6.77049 17.3998 5.00104 18.0449 3.88411C18.1121 3.76638 18.6234 3.00035 18.7372 2.84642C18.8409 2.70228 19.3434 2.08626 19.4321 1.99038C19.4486 1.97289 19.4672 1.95352 19.4871 1.93276L19.4871 1.93276L19.4871 1.93275L19.4871 1.93275C19.5911 1.82425 19.7314 1.67797 19.7922 1.56546C19.8378 1.47904 19.8398 1.42589 19.7782 1.36034C19.6598 1.23381 19.455 1.30066 19.301 1.37306C19.2159 1.41219 18.7998 1.65416 18.7232 1.7096C18.041 2.19681 17.4693 2.8761 17.0284 3.56387C16.3299 4.65536 15.8612 5.88839 15.6939 7.18989C15.5961 7.95689 15.6153 8.70369 15.8557 9.42474C16.0187 9.91094 16.3876 10.4471 16.8236 10.7291C17.4246 11.1192 18.1564 11.1766 18.8106 10.9326C18.9107 10.8955 19.0995 10.8077 19.1439 10.7771C19.1947 10.7415 19.2414 10.7099 19.2538 10.7128C19.2652 10.7148 19.3532 10.8677 19.424 10.9936C19.5329 11.1899 19.8049 11.4655 19.966 11.5979C20.386 11.9393 20.8165 12.1132 21.3409 12.1777C22.2944 12.2945 23.1632 11.8715 23.9674 11.2261C24.1281 11.0967 24.4722 10.7986 24.6114 10.6519C24.6613 10.5984 25.0664 10.0541 25.1322 9.95174C25.4101 9.51539 25.6768 8.99784 25.8497 8.49499C26.2456 7.34904 26.3411 6.05109 26.1918 4.90809C26.0734 4.00999 25.8523 3.30102 25.4212 2.48738C25.3507 2.35498 24.9656 1.72134 24.8697 1.58046C24.4898 1.02249 24.0704 0.634094 23.429 0.244391C23.2982 0.165472 23.036 0.0226361 22.9163 0.0914456C22.8028 0.157646 22.8208 0.240803 22.8951 0.339615C22.9397 0.399447 23.0541 0.513002 23.1737 0.631616L23.1737 0.631621L23.1737 0.631629L23.1737 0.631642L23.1737 0.631681C23.2457 0.703116 23.3195 0.776381 23.381 0.840849C23.9305 1.41871 24.374 2.38498 24.602 3.15688C24.9949 4.48676 24.9799 5.93634 24.6502 7.31054C24.3704 8.48259 23.8571 9.70549 22.8817 10.3838C22.5403 10.6212 21.9419 10.8912 21.4759 10.8677C21.021 10.8452 20.6443 10.6202 20.4085 10.2273ZM50.4252 5.66511L50.4252 5.66517C50.4083 5.69814 50.3911 5.73177 50.3735 5.76119C50.3484 5.80359 50.3014 5.85839 50.2708 5.87989C50.1622 5.95979 50.0706 5.96339 49.9649 5.87109C49.8181 5.74194 49.7334 5.54009 49.7272 5.34444C49.726 5.31275 49.7271 5.28 49.7283 5.24761V5.24753V5.24745V5.24737V5.24729V5.24722V5.24714V5.24707V5.247V5.24694V5.24688V5.24682V5.24676V5.2467V5.24664V5.24659C49.7303 5.19166 49.7322 5.13783 49.7226 5.09204C49.7051 5.01373 49.6482 4.93407 49.5924 4.85613C49.5617 4.8133 49.5315 4.771 49.5083 4.72971C49.4314 4.59177 49.3691 4.35338 49.3616 4.19946C49.3345 3.71877 49.5882 3.27656 49.9176 2.92697C50.2489 2.5738 50.6825 2.2803 51.154 2.08104C51.5995 1.89255 52.253 1.76472 52.7425 1.93462C52.9015 1.98941 53.124 2.12507 53.2355 2.26627C53.2414 2.27379 53.247 2.28148 53.2526 2.28901C53.2691 2.31154 53.2846 2.33273 53.303 2.34421C53.3189 2.3546 53.3555 2.3603 53.3921 2.366C53.4038 2.36782 53.4155 2.36964 53.4265 2.37161C53.583 2.39868 53.808 2.51673 53.9 2.59532C54.0835 2.75479 54.185 2.90708 54.2315 3.12786C54.3255 3.57169 54.07 4.05923 53.779 4.35534C53.2795 4.86635 52.7865 5.22474 52.148 5.47519C51.8685 5.58479 51.432 5.68684 51.1135 5.65814C51.065 5.65413 51.0157 5.64585 50.9666 5.63762C50.916 5.62914 50.8657 5.6207 50.817 5.61704C50.7685 5.61284 50.589 5.56749 50.57 5.55314C50.546 5.53584 50.5155 5.51954 50.509 5.52574C50.4821 5.55397 50.4542 5.60858 50.4252 5.66511ZM50.3582 3.98651C50.2421 4.14434 50.1038 4.35175 50.1038 4.35175C50.1038 4.35175 50.0741 4.29012 50.0546 4.24316C49.9238 3.91704 50.214 3.54919 50.4782 3.32352C50.6385 3.18591 50.959 2.97295 51.1775 2.93023C51.2695 2.91132 51.432 2.89436 51.432 2.89436C51.432 2.89436 51.3285 2.98013 51.24 3.05513C50.9525 3.30167 50.57 3.69953 50.3582 3.98651ZM52.745 4.39447C52.3815 4.59568 51.99 4.71667 51.5725 4.74471C51.4095 4.75645 50.979 4.76102 50.9665 4.71438C50.963 4.70297 50.991 4.6609 51.028 4.61623C51.0566 4.57951 51.0896 4.53415 51.1245 4.48601L51.1247 4.48581C51.1592 4.43824 51.1957 4.38796 51.232 4.34066C51.547 3.934 52.1275 3.42494 52.5375 3.18688C52.677 3.10699 52.743 3.0809 52.8905 3.0372C53.0945 2.97752 53.177 2.96513 53.337 3.03459C53.4595 3.08709 53.556 3.19928 53.5735 3.347C53.627 3.80551 53.102 4.19489 52.745 4.39447ZM35.9219 6.71864C35.7148 6.80834 35.5505 6.82104 35.2854 6.83734C35.2671 6.83734 35.2661 6.82724 35.2697 6.81749C35.3646 6.54449 35.5645 6.34039 35.842 6.32179C35.9239 6.31559 36.0641 6.34394 36.1036 6.42549C36.1688 6.55854 36.0364 6.67009 35.9219 6.71864ZM36.4457 6.15154C36.6002 6.34494 36.67 6.57189 36.6873 6.82104C36.7046 7.07214 36.6244 7.31379 36.4845 7.50524C36.2444 7.83134 35.844 7.99409 35.4422 8.02409C35.3871 8.02764 35.0594 8.03744 34.9752 8.01134C34.9713 8.00991 34.9677 8.00845 34.9644 8.00712C34.9551 8.00331 34.9483 8.00054 34.942 8.00224C34.9325 8.00319 34.8774 8.22954 34.8673 8.30844C34.8463 8.47102 34.8226 8.60575 34.8001 8.7334L34.8001 8.73344L34.8001 8.73348L34.8001 8.73352L34.8001 8.73356L34.8001 8.7336L34.8001 8.73364L34.8001 8.73368L34.8001 8.73372L34.8001 8.73376L34.8001 8.7338L34.8001 8.73384L34.8 8.73388L34.8 8.73392C34.7842 8.82396 34.769 8.91049 34.7557 9.00079C34.729 9.17429 34.7098 9.36049 34.6944 9.54569C34.6038 10.6251 34.6351 11.1583 34.7244 12.2146C34.7306 12.2791 34.7339 12.3525 34.7244 12.3969C34.7003 12.5237 34.6233 12.6121 34.4994 12.6441C34.127 12.7419 33.7709 12.3734 33.5883 12.0786C33.1617 11.3895 33.301 9.98139 33.4239 9.28579C33.4741 8.99784 33.6052 8.35834 33.6962 8.12809C33.7445 8.00419 33.8218 7.76059 33.8159 7.74884C33.8111 7.73886 33.6425 7.67401 33.4753 7.6097L33.437 7.59494C33.3698 7.57044 33.1444 7.45339 33.0479 7.39339C32.8493 7.26879 32.7133 7.16739 32.576 7.01249C32.5343 6.96424 32.3954 6.75779 32.3748 6.71179C32.2639 6.45939 32.2574 6.23959 32.3559 5.97119C32.381 5.90239 32.5193 5.61249 32.6112 5.62164C32.7051 5.62994 32.7179 5.74254 32.7298 5.84782C32.7346 5.89101 32.7394 5.93297 32.7495 5.96599C32.7609 6.00514 32.7981 6.07034 32.8275 6.10559C33.0107 6.32179 33.6261 6.56114 33.8782 6.63649C33.9144 6.64789 34.3087 6.76789 34.3664 6.74149C34.3785 6.73582 34.4277 6.65168 34.4715 6.57686L34.4715 6.57679L34.4715 6.57674C34.4832 6.55673 34.4945 6.53739 34.5046 6.52039C34.5304 6.47504 34.5594 6.44144 34.5911 6.40724C34.8308 6.14929 35.1849 5.90499 35.5374 5.83264C35.6927 5.80129 35.9969 5.82739 36.1509 5.91514L36.159 5.91954L36.1674 5.92389C36.2147 5.94817 36.3185 6.00157 36.4457 6.15154ZM32.7635 9.22414C32.7489 9.21799 32.7319 9.21245 32.7208 9.21179C32.5636 9.19874 32.3908 9.25449 32.2519 9.30604C32.0542 9.37992 31.7688 9.50324 31.5381 9.60291L31.538 9.60292L31.5379 9.60298C31.336 9.69021 31.1761 9.75931 31.1535 9.7613C31.0475 9.76974 31.0211 9.69994 31.0025 9.56039C30.9689 9.31635 31.0531 8.85473 31.1001 8.59728L31.1001 8.59725L31.1001 8.59724L31.1102 8.54159C31.1513 8.31399 31.3244 7.52024 31.4451 7.01249L31.4488 6.99699C31.5166 6.70955 31.5995 6.35874 31.5693 6.09284C31.5455 5.88249 31.4399 5.60109 31.1998 5.68589C30.9585 5.77099 30.6989 6.29864 30.6461 6.41179C30.2535 7.25609 29.9345 8.73339 29.9802 9.74465C29.9962 10.0968 30.0845 10.4715 30.2848 10.7745C30.5062 11.1094 30.8728 11.219 31.2866 11.1394C31.5511 11.0888 31.9209 10.9173 32.1015 10.7967C32.4042 10.5912 32.7834 10.1783 32.9008 9.77855C32.9445 9.62659 32.9445 9.30339 32.7635 9.22414ZM27.6968 8.74544C27.6968 8.74544 27.7741 8.74674 27.8536 8.74544C28.107 8.74219 28.5319 8.69554 28.5319 8.69554C28.5319 8.69554 28.4843 8.32149 28.4458 8.08279C28.4197 7.92329 28.3989 7.82484 28.3646 7.69864L28.3566 7.66895C28.3379 7.59893 28.3044 7.47348 28.2694 7.41979C28.2622 7.40709 28.2518 7.39369 28.2518 7.39369C28.2518 7.39369 28.0467 7.78959 27.9319 8.06549C27.8895 8.16713 27.8569 8.25675 27.8278 8.33688L27.8278 8.33691C27.7942 8.42928 27.7653 8.50904 27.731 8.58009C27.7157 8.61109 27.6987 8.65349 27.6968 8.68999C27.6948 8.71544 27.6968 8.74544 27.6968 8.74544ZM26.5537 8.30844C26.4592 8.51519 26.3375 8.78849 26.3375 8.78849L25.8895 8.80969C25.8663 8.81064 25.8627 8.81194 25.85 8.82239C25.8092 8.85469 25.7805 8.93264 25.7871 8.96264C25.7916 8.99264 25.8164 9.03209 25.8405 9.06959C25.8773 9.1271 25.9109 9.17617 25.9408 9.21962C26.0625 9.39699 26.1199 9.48066 26.0568 9.66114C26.0246 9.753 25.9926 9.8398 25.9619 9.92286C25.8142 10.3228 25.6986 10.636 25.7531 11.009C25.7906 11.2734 25.8914 11.5297 26.1125 11.6511C26.2299 11.7147 26.3414 11.7029 26.5039 11.6817C26.6503 11.6621 26.7051 11.5744 26.7673 11.4238C26.7911 11.3665 26.8752 11.0613 26.941 10.8227L26.9858 10.6603C27.0178 10.5449 27.0918 10.3394 27.1743 10.134C27.2125 10.0381 27.2591 9.92304 27.2591 9.92304L27.7525 9.91489L28.6382 9.87934C28.6382 9.87934 28.6907 10.4745 28.7279 10.6819C28.7713 10.9202 28.9066 11.1149 29.1098 11.3067C29.1832 11.3752 29.3508 11.4916 29.434 11.4945C29.4956 11.4955 29.5595 11.4547 29.5928 11.4058C29.6828 11.2773 29.6873 11.0171 29.6828 10.8602C29.6779 10.6369 29.6146 9.64484 29.5944 9.45439C29.5165 8.72879 29.2787 7.31644 29.0586 6.56019C29.0178 6.42449 28.8293 5.85644 28.7188 5.65684C28.6614 5.55184 28.5293 5.45759 28.4018 5.46509C28.2867 5.47259 28.1683 5.50424 28.1204 5.57924C28.0615 5.66928 28.0458 5.78072 28.0362 5.84821L28.0349 5.85739C28.0323 5.87092 27.7905 6.20517 27.572 6.50714C27.4957 6.61256 27.4223 6.71406 27.3628 6.79659C27.1557 7.08194 26.6532 8.09124 26.5537 8.30844ZM21.2796 5.87239C21.2796 5.87239 21.2681 5.58639 21.2443 5.42694C21.2244 5.29194 21.1974 5.19049 21.1331 5.08744C21.0627 4.97429 21.0089 4.9032 20.8977 4.88625C20.7614 4.86635 20.686 4.95929 20.6009 5.09299C20.4878 5.27464 20.3749 5.61149 20.3084 5.82444C20.2122 6.12709 20.1714 6.31299 20.1199 6.65734C20.0348 7.22219 19.9487 8.18289 20.0403 8.83644C20.0573 8.94894 20.0853 9.11359 20.0853 9.11359C20.0853 9.11359 20.2217 8.96069 20.3211 8.85369C20.3635 8.80739 20.5657 8.50509 20.5836 8.47344L20.6042 8.43797L20.6042 8.43793C20.6463 8.36523 20.7142 8.24781 20.7252 8.22039C20.7451 8.18549 20.8908 7.87274 20.9163 7.79939C20.9652 7.65914 21.0363 7.44329 21.0911 7.27109C21.1729 7.01801 21.1932 6.86668 21.2188 6.67586C21.2333 6.56769 21.2495 6.44682 21.2796 6.28754C21.289 6.23699 21.2972 5.87239 21.288 5.87239C21.2841 5.87109 21.2796 5.87239 21.2796 5.87239ZM51.0795 6.51059C51.099 6.51419 51.129 6.52299 51.155 6.53214C51.3785 6.61754 51.4705 6.82499 51.5255 7.05194C51.6535 7.58024 51.7085 8.74804 51.729 9.20624C51.7382 9.40241 51.7449 9.59741 51.7516 9.79191C51.7565 9.93689 51.7615 10.0816 51.7675 10.2263L51.7706 10.2981C51.7827 10.5749 51.7977 10.9177 51.743 11.1655C51.7215 11.2623 51.657 11.3739 51.564 11.4322C51.457 11.5001 51.2155 11.5053 51.083 11.4779C50.755 11.4101 50.6485 11.1994 50.602 10.8756C50.4909 10.1024 50.544 8.58499 50.61 7.94449C50.631 7.73414 50.7115 7.05649 50.822 6.77279C50.859 6.67624 50.9395 6.48319 51.0795 6.51059ZM40.1672 7.74234C40.5005 7.70514 40.9858 7.67089 40.9858 7.67089C40.9858 7.67089 40.9747 8.15649 40.9727 8.64824C40.9678 9.57864 40.9926 10.5234 40.9926 10.5234C40.9926 10.5234 40.6606 10.4047 40.4611 10.3215C39.8763 10.0769 39.0839 9.57309 38.6929 9.24734C38.5999 9.16939 38.2673 8.84944 38.2086 8.78064C38.1065 8.66099 38.0159 8.54649 38.0407 8.39844C38.0651 8.25694 38.3459 8.13919 38.4845 8.09094C38.9443 7.92559 39.7423 7.78764 40.1672 7.74234ZM49.8759 8.04689C49.9039 8.30064 49.838 8.78064 49.8273 8.84394C49.8064 8.98969 49.6962 9.32589 49.6786 9.36734C49.5895 9.57114 49.5025 9.73974 49.4092 9.90639C49.2501 10.1927 48.8724 10.6463 48.6474 10.8404C47.8132 11.5617 46.5212 11.9726 45.4124 12.1079C44.6607 12.1989 43.7965 12.1849 42.9992 12.0378C42.7252 11.9873 42.3176 11.894 42.3176 11.894C42.3176 11.894 42.3186 12.0571 42.3052 12.1722C42.299 12.2237 42.2592 12.362 42.2374 12.4067C42.179 12.5263 42.0841 12.588 41.9462 12.6141C41.7792 12.646 41.6021 12.6555 41.4475 12.5903C41.1945 12.483 41.1032 12.2456 41.0595 11.9736C41.0236 11.7544 40.9861 11.3739 40.9861 11.3739C40.9861 11.3739 40.7969 11.2845 40.6388 11.2056C40.1535 10.9662 39.6921 10.6773 39.2893 10.3786C39.1778 10.2961 38.6978 9.89369 38.5915 9.79324C38.2944 9.51244 38.0273 9.23134 37.8238 8.87129C37.6656 8.59019 37.6203 8.34009 37.7403 8.04234C37.9066 7.62719 38.5018 7.31379 38.9094 7.13544C39.2091 7.00334 40.1389 6.69974 40.5256 6.64364C40.7079 6.61754 40.991 6.56734 41.0083 6.55559C41.0154 6.55039 41.0207 6.54584 41.0255 6.53964C41.0344 6.52689 41.0494 6.11534 41.0464 5.96534C41.0432 5.81729 41.156 4.84646 41.1922 4.64134C41.2118 4.52948 41.2959 4.10195 41.382 3.99009C41.4378 3.91444 41.5372 3.91965 41.6181 3.9702C42.0613 4.24511 42.1956 5.20129 42.2286 5.68784C42.2485 5.98394 42.2582 6.42974 42.2582 6.42974C42.2582 6.42974 42.7667 6.41504 43.0797 6.42319C43.3833 6.43069 43.7182 6.47899 44.0339 6.52919C44.438 6.59309 45.2252 6.76494 45.6765 6.99424C46.0486 7.18239 46.3963 7.50034 46.5088 7.83654C46.6138 8.14474 46.5978 8.35734 46.4383 8.63554C46.2593 8.94989 45.9198 9.18274 45.5758 9.20199C45.473 9.20884 45.0879 9.15729 44.9695 9.06569C44.9226 9.02849 44.9252 8.96264 44.9591 8.91794C44.9705 8.90336 45.1155 8.8264 45.2223 8.76971L45.2223 8.76968L45.2581 8.75064C45.3113 8.72164 45.3556 8.69064 45.3967 8.65284C45.4854 8.57424 45.5647 8.48879 45.5559 8.38899C45.5435 8.25854 45.4062 8.17799 45.2744 8.12649C44.6581 7.88189 43.4274 7.67809 42.8319 7.64284C42.599 7.62914 42.2684 7.61744 42.2684 7.61744L42.3381 10.902C42.3381 10.902 42.6121 10.9545 42.8276 10.9897C42.9519 11.008 43.4763 11.0553 43.6155 11.0588C44.677 11.0869 45.8618 10.9923 46.8359 10.5315C47.2634 10.3303 47.6557 10.0802 47.9525 9.74139C48.3444 9.29169 48.5496 8.67794 48.4951 8.03679C48.4354 7.33499 47.942 6.50409 47.5487 5.99764C46.5081 4.65895 44.7246 3.55898 43.156 2.91393C41.5538 2.25551 39.9709 1.87592 38.2702 1.81265C37.8323 1.797 36.8761 1.81918 36.3938 1.95288C36.3696 1.95957 36.3454 1.96676 36.3215 1.97387L36.3215 1.97389C36.2766 1.98726 36.2326 2.00036 36.1906 2.0093C36.1398 2.02169 36.0608 2.05528 36.0387 2.07256C36.0269 2.08333 36.0142 2.09604 36.0142 2.09604C36.0142 2.09604 36.0442 2.11235 36.0726 2.12507C36.1031 2.13847 36.1918 2.1484 36.2822 2.15851C36.3436 2.16538 36.4058 2.17233 36.4509 2.18051C36.55 2.19942 36.6547 2.25258 36.6951 2.32595C36.7343 2.39509 36.7398 2.44955 36.6925 2.50727C36.5829 2.6413 36.1707 2.61782 35.9898 2.58978C35.8013 2.55912 35.5668 2.50205 35.5234 2.33769C35.4738 2.14431 35.5648 1.95484 35.6643 1.77939C35.8639 1.42882 36.1489 1.2462 36.5676 1.13239C37.1611 0.969334 37.9109 0.854869 38.4718 0.833344C39.7413 0.786059 40.9424 1.00716 42.1718 1.38121C42.8756 1.59351 43.7978 1.9506 44.4719 2.27573C44.9552 2.50857 45.7183 2.93839 46.1468 3.21917C46.2818 3.3082 47.0726 3.889 47.1952 3.99107C47.4516 4.20043 47.7871 4.50143 48.0291 4.74243C48.4987 5.20779 49.0828 5.92064 49.3671 6.48614C49.3911 6.53446 49.4132 6.5824 49.4358 6.63116C49.4768 6.71996 49.5191 6.81144 49.5755 6.91269C49.6058 6.96619 49.736 7.28839 49.7575 7.38164C49.7787 7.47359 49.81 7.60894 49.8146 7.61384C49.8162 7.62638 49.8212 7.65318 49.8277 7.68799C49.8469 7.79172 49.8793 7.96655 49.8759 8.04689ZM55.3914 8.29139C55.3734 8.28872 55.3666 8.28771 55.345 8.28564L53.553 8.07334C53.529 8.07104 53.524 8.07004 53.5015 8.06549C53.4915 8.06331 53.4767 8.06077 53.4589 8.05769C53.3382 8.03684 53.0768 7.99169 53.1875 7.87179C53.2204 7.83486 53.3149 7.80801 53.3795 7.78969L53.397 7.78469C54.015 7.61588 54.7597 7.59038 55.4561 7.56653C55.673 7.5591 55.8853 7.55183 56.0875 7.54044L56.0977 7.53981C56.2926 7.52778 56.7137 7.50178 56.919 7.43644C57.1175 7.37449 57.283 7.23359 57.329 7.01479C57.3525 6.89804 57.296 6.84354 57.187 6.78549C56.481 6.41014 55.3185 6.40919 54.5995 6.49884C53.8565 6.59084 52.863 6.82204 52.4385 7.43249C52.2765 7.66599 52.181 8.02409 52.2555 8.31564C52.298 8.47704 52.4395 8.62314 52.5835 8.68834C52.7275 8.75324 52.9085 8.78619 53.0745 8.80969C53.226 8.83169 53.8268 8.883 54.2536 8.91944L54.3355 8.92644C54.7435 8.95999 55.534 9.04674 55.962 9.22514C55.998 9.24049 56.182 9.31969 56.228 9.37549C56.2335 9.38263 56.2394 9.39078 56.2452 9.39894C56.261 9.42096 56.2769 9.44314 56.2875 9.44624C56.2893 9.44665 56.2915 9.4464 56.2938 9.44614C56.2971 9.44576 56.3007 9.44535 56.304 9.44689C56.344 9.45959 56.365 9.58289 56.365 9.59754C56.3635 9.71204 56.2785 9.80334 56.191 9.86499C55.5555 10.315 54.683 10.4425 53.9075 10.4308C53.644 10.4265 53.4265 10.3858 53.1595 10.27C53.0455 10.2207 52.8965 10.102 52.9185 9.97454C52.961 9.72704 53.234 9.66474 53.46 9.68624C53.5865 9.69799 53.751 9.75149 53.8745 9.79974C53.9786 9.84085 54.0708 9.88058 54.1556 9.91711C54.4766 10.0554 54.6911 10.1478 55.038 10.0949C55.2015 10.0704 55.7675 9.94749 55.8445 9.71429C55.8635 9.65659 55.8355 9.59559 55.794 9.55254C55.7345 9.49254 55.3935 9.35949 55.3005 9.32589C54.9665 9.20784 54.3345 9.09859 53.983 9.08559C53.5215 9.06924 52.91 9.15534 52.6245 9.54604C52.445 9.79129 52.4405 10.1268 52.588 10.3858C52.7885 10.7383 53.1855 11.0116 53.5105 11.1704C54.0605 11.4365 54.721 11.5624 55.331 11.4955C55.6805 11.4557 55.9845 11.3846 56.2945 11.2346C56.592 11.0911 56.918 10.8208 57.067 10.4989C57.266 10.0658 57.251 9.49419 57.031 9.08559C56.8865 8.81589 56.7275 8.66519 56.457 8.54519C56.166 8.41474 55.785 8.34499 55.3965 8.29214L55.3914 8.29139ZM58.001 11.4701C57.657 11.3439 57.5795 10.7888 57.5635 10.508C57.509 9.59399 57.7505 8.32214 58.0575 7.46544L58.0713 7.42681C58.1583 7.18181 58.2855 6.82415 58.544 6.84549C58.732 6.86214 58.866 7.00694 58.9715 7.15564C59.241 7.53554 59.595 8.05049 59.83 8.40889C59.9299 8.56179 60.0283 8.71511 60.1255 8.86657L60.1256 8.86683L60.1258 8.86713L60.126 8.86737C60.284 9.11363 60.4389 9.35497 60.592 9.58159L60.598 9.59029C60.6263 9.63152 60.6532 9.67079 60.6845 9.69639C60.7295 9.73259 60.77 9.73454 60.788 9.70094C60.7965 9.68789 60.7805 9.22614 60.769 9.13349C60.7587 9.05539 60.7514 8.98516 60.7444 8.91746C60.7382 8.8574 60.7323 8.79934 60.7245 8.73954C60.6785 8.37009 60.561 7.85024 60.4685 7.49869C60.4239 7.32575 60.3748 7.14957 60.3259 6.97408L60.3258 6.97386L60.3258 6.97374L60.3256 6.97323C60.2634 6.74998 60.2015 6.52786 60.1495 6.31494C60.12 6.19134 60.0925 6.06644 60.0935 5.94869C60.094 5.77849 60.2035 5.68424 60.381 5.74784C60.7305 5.87109 61.194 6.62994 61.329 6.89344C61.375 6.98249 61.557 7.43514 61.5975 7.56199C61.7425 7.99669 61.8305 8.40889 61.8705 8.88274C61.909 9.34319 61.877 10.014 61.682 10.4679C61.6105 10.6349 61.464 10.8596 61.342 10.9728C61.1505 11.1502 60.769 11.2888 60.506 11.1387C60.2185 10.9757 59.746 10.1571 59.6655 10.0172C59.5205 9.76435 59.3205 9.38375 59.1532 9.06547L59.1531 9.06521L59.153 9.06512C59.0038 8.7811 58.8807 8.54678 58.846 8.49724C58.83 8.47409 58.8095 8.45194 58.773 8.44084C58.745 8.43269 58.734 8.49039 58.727 8.52794C58.68 8.80054 58.6475 10.0756 58.647 10.1112L58.6441 10.1965V10.1966C58.6359 10.4431 58.6214 10.8819 58.5665 11.1113C58.5265 11.2806 58.485 11.4195 58.3295 11.4906C58.219 11.5405 58.135 11.5196 58.001 11.4701ZM62.5985 11.2496C62.642 11.2989 62.702 11.3602 62.7395 11.3885C62.7705 11.413 62.863 11.4743 62.863 11.4743C62.8615 11.4828 63.0315 11.5624 63.0785 11.5744C63.1051 11.5814 63.1296 11.588 63.1526 11.5941C63.3418 11.6447 63.4234 11.6666 63.6745 11.6383C64.283 11.5705 65.0995 11.1746 65.577 10.8094C65.728 10.6939 65.8515 10.5866 65.845 10.4246C65.837 10.2524 65.7795 10.133 65.669 9.99054C65.5415 9.82944 65.419 9.84669 65.176 9.88549C65.0613 9.90353 64.9403 9.92224 64.8175 9.94123C64.4561 9.99709 64.0791 10.0554 63.803 10.106C63.735 10.1177 63.648 10.1301 63.5625 10.1294C63.5115 10.1294 63.45 10.1268 63.45 10.1268C63.45 10.1268 63.516 9.88129 63.5925 9.64029C63.669 9.40909 63.757 9.18014 63.757 9.18014C63.757 9.18014 63.8655 9.16384 63.968 9.15274C64.0517 9.14298 64.405 9.13633 64.7472 9.12989C65.0799 9.12363 65.402 9.11757 65.4555 9.10904C65.665 9.07384 65.7145 8.95284 65.7035 8.68999C65.695 8.46529 65.625 8.30944 65.422 8.26444C65.368 8.25299 65.2715 8.24779 65.175 8.24779C64.778 8.24944 64.071 8.25694 64.071 8.25694L64.2715 7.58544C64.2715 7.58544 64.67 7.59034 64.958 7.58739C65.139 7.58544 66.1255 7.57144 66.43 7.38654C66.6285 7.26489 66.539 7.04054 66.4075 6.85169C66.163 6.49789 65.892 6.32569 65.474 6.31364C65.1995 6.30644 64.338 6.40624 64.15 6.42909C63.934 6.45579 63.7205 6.48419 63.4935 6.51744C63.3115 6.54319 62.7355 6.65374 62.6625 6.67724C62.4635 6.73889 62.4005 6.84454 62.4965 7.03499C62.577 7.19769 62.711 7.28414 62.8885 7.35099C63.047 7.41099 63.344 7.47949 63.344 7.47949C63.344 7.47949 63.2325 7.78764 63.161 7.98984L63.1551 8.00657L63.1551 8.00661L63.155 8.00668C63.1053 8.14728 63.0464 8.31388 62.956 8.33584C62.9448 8.33913 62.9334 8.33988 62.9198 8.34079L62.903 8.34204C62.668 8.36684 62.528 8.49499 62.534 8.67564C62.5368 8.73557 62.5608 8.85955 62.5831 8.97451C62.6049 9.08669 62.625 9.19028 62.622 9.21734C62.6185 9.24144 62.614 9.26034 62.6045 9.28219C62.5453 9.4411 62.5009 9.53886 62.4653 9.61725C62.4114 9.73612 62.3776 9.81047 62.343 9.98594C62.2805 10.298 62.2775 10.584 62.39 10.8746C62.4019 10.9061 62.4143 10.9343 62.4292 10.968L62.4435 11.0005C62.468 11.0575 62.5915 11.2428 62.5985 11.2496ZM70.4175 8.01399C70.104 8.27614 69.7 8.81064 69.507 9.08819C69.3784 9.27157 69.2535 9.46823 69.1318 9.65979L69.1318 9.65989C69.0094 9.85257 68.8903 10.0401 68.774 10.2038C68.724 10.2772 68.5745 10.5397 68.5795 10.5485C68.59 10.5671 68.7405 10.5612 68.8955 10.5351C69.2255 10.4797 69.6735 10.2481 69.913 10.057C70.278 9.76454 70.532 9.36274 70.652 8.89284C70.705 8.67924 70.7325 8.23149 70.581 8.03224C70.5515 7.99409 70.4755 7.96409 70.4175 8.01399ZM67.759 12.3721C67.832 12.1438 67.931 11.8529 67.931 11.8529C67.931 11.8529 68.028 11.8578 68.111 11.8598C68.726 11.8741 69.353 11.6331 69.8875 11.279C70.4105 10.9326 70.795 10.5367 71.0765 9.98694C71.3135 9.52614 71.4235 8.92089 71.371 8.38279C71.326 7.93244 71.152 7.37709 70.752 7.11454C70.5 6.94789 70.268 6.98119 70.0095 7.11489C69.683 7.28414 69.5495 7.40379 69.248 7.69179C69.1045 7.82839 68.6055 8.34659 68.476 8.49269C68.3485 8.63649 68.238 8.76989 68.085 8.97174C67.804 9.33929 67.379 9.93474 67.379 9.93474C67.379 9.93474 67.3545 9.79324 67.349 9.68104C67.347 9.64189 67.398 9.33669 67.4185 9.27144L67.4199 9.26683C67.5469 8.85231 67.6045 8.66451 67.865 8.21059C67.9069 8.13712 67.9523 8.06089 67.999 7.98245C68.2115 7.62575 68.4511 7.22342 68.513 6.82724C68.5355 6.68049 68.511 6.50474 68.3605 6.49754C68.21 6.48974 67.879 6.88629 67.8285 6.94954C67.154 7.78114 66.5525 8.81654 66.551 9.86299C66.551 10.1937 66.637 10.6029 66.796 10.9418C66.8065 10.962 66.8065 10.9672 66.798 10.99C66.2875 12.3251 66.102 12.9151 65.9185 14.2564C65.8665 14.6399 65.8025 15.2934 66.07 15.6407C66.203 15.8165 66.359 15.9117 66.536 16.005C66.673 16.078 66.718 16.0999 66.831 16.0337C66.8775 16.004 66.89 15.9922 66.9095 15.9551C66.9235 15.9277 67.197 14.6457 67.2935 14.1566C67.3575 13.8269 67.6335 12.766 67.759 12.3721Z" fill="#231F20"/>
</svg>
