<svg width="90" height="18" viewBox="0 0 90 18" fill="none" xmlns="http://www.w3.org/2000/svg">
<path fill-rule="evenodd" clip-rule="evenodd" d="M10.4444 3.33333L5.22222 6.66667L10.4444 10L5.22222 13.3333L0 9.97222L5.22222 6.63889L0 3.33333L5.22222 0L10.4444 3.33333ZM10.4444 3.33333L15.6389 0L20.8611 3.33333L15.6389 6.66667L20.8611 10L15.6389 13.3333L10.4444 9.97222L15.6667 6.63889L10.4444 3.33333ZM5.19444 14.3889L10.4167 11.0556L15.6389 14.3889L10.4167 17.7222L5.19444 14.3889Z" fill="#0061FF"/>
<path fill-rule="evenodd" clip-rule="evenodd" d="M63.9443 14.3888L64.1388 12.7499C64.611 13.9166 65.5832 14.611 67.0832 14.6388C69.361 14.6388 70.861 12.9443 70.861 9.97211V9.69434C70.861 6.72211 69.2777 5.24989 67.1388 5.22211C65.7221 5.22211 64.7221 5.861 64.2221 7.02767V2.44434H61.9443V14.3888H63.9443ZM29.1666 3.33322H24.9443V14.3888H29.2499C31.9999 14.3888 34.0832 12.7777 34.0832 9.19434V8.44434C34.0832 4.88878 31.861 3.33322 29.1666 3.33322ZM27.3054 12.361V5.33322H29.0277C30.5832 5.33322 31.6666 6.33323 31.6666 8.55545V9.13878C31.6666 11.361 30.6388 12.361 29.111 12.361H27.3054ZM35.361 5.44434H37.2221L37.5277 7.52767C37.8888 6.111 38.8054 5.361 40.4721 5.361H41.0554V7.74989H40.0832C38.1666 7.74989 37.6943 8.41656 37.6943 10.3054V14.4166H35.361V5.44434ZM41.5277 9.861V10.111C41.5277 13.0554 43.1666 14.611 46.0554 14.6388C48.7777 14.6388 50.5832 13.0554 50.5832 10.111V9.861C50.5832 6.861 48.7221 5.22211 46.0554 5.22211C43.4443 5.22211 41.5277 6.861 41.5277 9.861ZM48.1943 10.0832V9.861C48.1943 8.19434 47.361 7.19434 46.0277 7.19434C44.7221 7.19434 43.861 8.111 43.861 9.861V10.0832C43.861 11.6943 44.6943 12.611 46.0277 12.611C47.361 12.5832 48.1943 11.6943 48.1943 10.0832ZM53.7499 5.44434H51.8054L51.7777 17.4999H54.0554V12.9721C54.5277 13.9999 55.4999 14.6388 56.9166 14.6388C59.0277 14.6388 60.6943 13.0832 60.6943 10.1388V9.88878C60.6943 6.861 59.1943 5.22211 56.9166 5.22211C55.4443 5.22211 54.4443 5.99989 53.9721 7.13878L53.7499 5.44434ZM58.3332 10.0832V9.88878C58.3332 8.111 57.4166 7.22211 56.1943 7.22211C54.8888 7.22211 54.0277 8.22211 54.0277 9.88878V10.0554C54.0277 11.6388 54.861 12.6388 56.1666 12.6388C57.4999 12.611 58.3332 11.7499 58.3332 10.0832ZM68.4721 9.74989C68.4721 8.111 67.5832 7.19434 66.3332 7.19434C65.0554 7.19434 64.1666 8.22211 64.1666 9.77767V9.97211C64.1666 11.6388 65.0277 12.611 66.3054 12.611C67.6666 12.611 68.4721 11.7499 68.4721 9.97211V9.74989ZM71.861 9.861V10.111C71.861 13.0554 73.4999 14.611 76.3888 14.6388C79.0832 14.6388 80.9166 13.0554 80.9166 10.111V9.861C80.9166 6.861 79.0554 5.22211 76.3888 5.22211C73.7777 5.22211 71.861 6.861 71.861 9.861ZM78.5554 9.861C78.5554 8.19434 77.7221 7.19434 76.3888 7.19434C75.0832 7.19434 74.2221 8.111 74.2221 9.861V10.0832C74.2221 11.6943 75.0554 12.611 76.3888 12.611C77.7221 12.5832 78.5554 11.6943 78.5554 10.0832V9.861ZM80.8332 5.44434L83.9721 9.74989L80.5555 14.3888H83.3055L85.3055 11.4166L87.361 14.3888H89.9999L86.6388 9.72211L89.8332 5.44434H87.1666L85.3332 8.13878L83.5277 5.44434H80.8332Z" fill="black"/>
</svg>
