<svg width="40" height="40" viewBox="0 0 40 40" fill="none" xmlns="http://www.w3.org/2000/svg">
<path fill-rule="evenodd" clip-rule="evenodd" d="M19.6527 39.3027C8.81818 39.3027 0 30.5373 0 19.65C0 8.81818 8.81818 0 19.6527 0C30.4836 0 39.3036 8.81818 39.3036 19.65C39.3036 30.5373 30.4836 39.3027 19.6527 39.3027ZM19.6527 0.923636C9.30909 0.923636 0.924545 9.30818 0.924545 19.65C0.924545 29.9927 9.30909 38.3764 19.6527 38.3764C29.9945 38.3764 38.3773 29.9927 38.3773 19.65C38.3773 9.36273 29.9955 0.923636 19.6527 0.923636ZM36.2036 25.2736L36.3055 25.2527C36.3145 25.2355 37.2109 22.83 37.18 19.6509C37.1245 13.4464 34.0236 7.02182 27.2191 4.95364C25.8027 4.51727 24.6055 4.24545 23.2445 4.24545C21.3685 4.24545 20.569 4.8804 19.9204 5.39549C19.4777 5.74702 19.1054 6.04273 18.5091 6.04273C17.6927 6.04273 17.1482 5.44364 17.1482 4.73545C17.1482 3.48273 18.6173 2.50273 20.9582 2.50364C23.2575 2.50364 24.841 3.08708 25.1091 3.18588C25.1332 3.19474 25.1466 3.1997 25.1491 3.2L25.2209 3.14545L25.2036 3.04727C25.1082 2.97091 22.5618 2.1 19.6527 2.12182C13.3918 2.17 7.02273 5.33455 4.95364 12.0836C4.51818 13.4991 4.24636 14.6964 4.24636 16.0573C4.24636 17.9346 4.88145 18.7535 5.39658 19.4177C5.74803 19.8709 6.04364 20.252 6.04364 20.8482C6.04364 21.6109 5.44364 22.1545 4.73546 22.1545C3.48364 22.1545 2.50455 20.74 2.50455 18.3445C2.50455 16.2345 3.04204 14.5193 3.14688 14.1847L3.15545 14.1573L3.09818 14.0864L3.00091 14.1027C2.98636 14.1273 2.12545 16.5755 2.12273 19.65C2.11727 25.9645 5.33455 32.3355 12.0855 34.4027C13.5027 34.8382 14.6991 35.11 16.06 35.11C17.9361 35.11 18.7356 34.4564 19.3842 33.9262C19.8268 33.5644 20.1992 33.26 20.7955 33.26C21.5582 33.26 22.1573 33.8591 22.1573 34.6182C22.1573 35.8182 20.7418 36.7973 18.3464 36.7973C16.1682 36.7973 14.4073 36.2445 14.16 36.1464L14.0809 36.2018C14.0618 36.25 14.0827 36.2982 14.1073 36.3109C14.7182 36.5845 16.7682 37.1773 19.6545 37.1773C25.9127 37.1773 32.3373 34.02 34.3518 27.2173C34.7873 25.8545 35.0591 24.6055 35.0591 23.2982C35.0591 21.3824 34.42 20.5705 33.9042 19.9153C33.5552 19.472 33.2627 19.1005 33.2627 18.5073C33.2627 17.6918 33.8064 17.1464 34.5682 17.1464C35.82 17.1464 36.7927 18.6155 36.8009 21.0109C36.8059 23.047 36.256 24.843 36.1604 25.1552C36.1516 25.1839 36.1467 25.2001 36.1464 25.2027L36.2036 25.2736ZM26.9464 20.5773C25.0964 20.5773 23.68 21.9391 23.68 23.5709C23.68 24.9318 24.4955 26.0191 25.5855 26.0191C25.9673 26.0191 26.3473 25.8009 26.3473 25.3118C26.3473 25.0008 26.1654 24.7931 25.968 24.5676C25.7171 24.281 25.4411 23.9659 25.4818 23.3736C25.5282 22.6755 26.1855 22.2091 26.8373 22.2091C28.1445 22.2091 28.7555 23.4755 28.7555 24.7809C28.7 26.7955 27.2191 28.1973 25.4773 28.1973C23.1891 28.1973 21.7218 26.0191 21.7218 23.6791C21.7218 20.1945 24.0073 18.8336 25.2045 18.5082C25.2051 18.5081 25.2118 18.5092 25.224 18.5111C25.4875 18.5529 28.3311 19.0036 28.2382 17.69C28.1955 17.0864 27.2964 16.8536 26.6436 16.8273C25.9218 16.7991 25.1945 17.0591 25.1945 17.0591C24.8136 16.8673 24.5509 16.4927 24.3891 16.0582C26.6209 14.3709 28.1982 12.7382 28.1982 10.8873C28.1982 9.90727 27.5445 9.03545 26.2927 9.03545C24.0609 9.03545 22.3727 11.8664 22.3727 14.4245C22.3727 14.86 22.3727 15.2955 22.4827 15.6782C21.0664 16.7118 20.0145 17.3536 18.1082 18.4973C18.1082 18.2582 18.1582 17.6445 18.3173 16.8464C18.9709 16.1382 19.8673 15.0791 19.8673 14.2627C19.8673 13.8818 19.6509 13.5545 19.2136 13.5545C18.1255 13.5545 17.3082 15.1882 17.0918 16.3309C16.6009 16.93 15.6218 17.6936 14.8045 17.6936C14.1509 17.6936 13.9345 17.0936 13.8782 16.8773C15.9473 16.1682 18.5064 13.3373 18.5064 10.7791C18.5064 10.2345 18.2891 9.03727 16.6555 9.03727C14.2055 9.03727 12.1364 12.6845 12.1364 15.5145C11.2655 15.5145 10.9391 14.5891 10.9391 13.8827C10.9391 13.4267 11.0518 12.9706 11.1321 12.6459L11.1321 12.6459L11.1321 12.6459L11.1321 12.6458L11.1321 12.6458C11.1765 12.4664 11.2109 12.327 11.2109 12.25C11.2109 12.0309 11.1018 11.7591 10.7755 11.7591C9.95818 11.7591 9.46818 12.8473 9.46818 14.1C9.52364 15.8427 10.6664 16.9309 12.1909 17.04C12.4073 18.0745 13.3336 19.0536 14.4764 19.0536C15.1845 19.0536 16.0555 18.8364 16.6545 18.2927C16.5991 18.6736 16.5455 19 16.4909 19.3264L16.0614 19.5507C13.8844 20.6869 12.2577 21.536 10.7745 22.8645C9.52636 24.0064 8.81818 25.53 8.81818 26.7282C8.81818 28.3609 9.85364 29.8845 11.9764 29.8845C14.48 29.8845 16.3864 27.87 17.3109 25.0945C17.7482 23.7882 17.9218 21.8873 18.0309 20.1445C20.5345 18.73 21.7218 17.91 23.0273 16.9836C23.19 17.2555 23.3555 17.4745 23.5727 17.6373C22.4291 18.2364 19.7082 19.9236 19.7082 23.8973C19.7082 26.7291 21.6145 29.8845 25.3691 29.8845C28.4727 29.8845 30.5955 27.3273 30.5955 24.8782C30.5936 22.6455 29.3409 20.5773 26.9464 20.5773ZM10.6164 26.8427C10.6164 27.7127 11.16 28.2345 11.9764 28.1973C14.7727 28.0691 15.8755 24.3364 16.3109 21.0691C13.8609 22.2682 10.6164 24.5018 10.6164 26.8427ZM13.7727 15.3509C13.7727 13.5536 15.5455 10.1391 16.63 10.5C17.9091 10.9264 15.5691 14.3709 13.7727 15.3509ZM24.0618 14.5336C24.0618 12.3018 25.5727 10.1309 26.3982 10.5436C27.3382 11.0145 25.6955 13.1182 24.0618 14.5336Z" fill="#0870D8"/>
</svg>
