<svg width="61" height="21" viewBox="0 0 61 21" fill="none" xmlns="http://www.w3.org/2000/svg">
<path fill-rule="evenodd" clip-rule="evenodd" d="M21.0731 15.5961C23.8356 15.5961 26.0866 13.4758 26.0866 10.5983C26.0866 7.70064 23.8356 5.60059 21.0731 5.60059C18.3106 5.60059 16.0596 7.70064 16.0596 10.5983C16.0596 13.4758 18.3106 15.5961 21.0731 15.5961ZM21.0731 7.56994C22.5873 7.56994 23.8919 8.80024 23.8919 10.5983C23.8919 12.3762 22.5873 13.6267 21.0731 13.6267C19.5589 13.6267 18.2543 12.3784 18.2543 10.5983C18.2543 8.80024 19.5589 7.56994 21.0731 7.56994Z" fill="#EA4335"/>
<path fill-rule="evenodd" clip-rule="evenodd" d="M31.8885 15.5961C34.651 15.5961 36.902 13.4758 36.902 10.5983C36.902 7.70064 34.651 5.60059 31.8885 5.60059C29.126 5.60059 26.875 7.70289 26.875 10.5983C26.875 13.4758 29.126 15.5961 31.8885 15.5961ZM31.8885 7.56994C33.4027 7.56994 34.7073 8.80024 34.7073 10.5983C34.7073 12.3762 33.4027 13.6267 31.8885 13.6267C30.3743 13.6267 29.0697 12.3784 29.0697 10.5983C29.0697 8.80024 30.3743 7.56994 31.8885 7.56994Z" fill="#FBBC05"/>
<path fill-rule="evenodd" clip-rule="evenodd" d="M47.2669 14.875V5.90479H45.1826V6.71824H45.106C44.6126 6.13014 43.6662 5.60059 42.4742 5.60059C39.9753 5.60059 37.686 7.79529 37.686 10.6164C37.686 13.4172 39.9753 15.5938 42.4742 15.5938C43.6685 15.5938 44.6148 15.0643 45.106 14.4582H45.1826V15.177C45.1826 17.09 44.1619 18.1062 42.5148 18.1062C41.1718 18.1062 40.3381 17.1463 39.9979 16.3329L38.0871 17.1283C38.6369 18.4532 40.0948 20.0733 42.517 20.0733C45.0903 20.0733 47.2669 18.5659 47.2669 14.875ZM42.6703 7.56994C44.1642 7.56994 45.3381 8.85659 45.3381 10.6164C45.3381 12.3581 44.1642 13.6267 42.6703 13.6267C41.1561 13.6267 39.8875 12.3581 39.8875 10.6164C39.8875 8.85659 41.1561 7.56994 42.6703 7.56994Z" fill="#4285F4"/>
<path d="M50.7035 0.643555V15.2898H48.563V0.643555H50.7035Z" fill="#34A853"/>
<path fill-rule="evenodd" clip-rule="evenodd" d="M60.7485 13.3792L59.045 12.2435C58.4775 13.0772 57.702 13.627 56.5845 13.627C55.469 13.627 54.674 13.1155 54.1625 12.1128L60.8435 9.34583L60.6155 8.77798C60.201 7.66263 58.9325 5.59863 56.339 5.59863C53.7635 5.59863 51.625 7.62433 51.625 10.5964C51.625 13.3994 53.7455 15.5941 56.5845 15.5941C58.874 15.5941 60.199 14.1926 60.7485 13.3792ZM58.268 8.59098L53.802 10.4454C53.7455 8.51663 55.298 7.53193 56.4135 7.53193C57.283 7.53193 58.022 7.96683 58.268 8.59098Z" fill="#EA4335"/>
<path d="M7.95661 9.29809V7.17779H15.1017C15.1716 7.54734 15.2076 7.98444 15.2076 8.45764C15.2076 10.0484 14.7728 12.0155 13.3712 13.4171C12.008 14.8366 10.2662 15.5937 7.95886 15.5937C3.68215 15.5937 0.0859375 12.1102 0.0859375 7.83349C0.0859375 3.55679 3.68215 0.0732422 7.95886 0.0732422C10.3248 0.0732422 12.0102 1.00159 13.2766 2.21159L11.7804 3.70776C10.8723 2.85603 9.64206 2.19356 7.95661 2.19356C4.83357 2.19356 2.39103 4.71046 2.39103 7.83349C2.39103 10.9565 4.83357 13.4734 7.95661 13.4734C9.98231 13.4734 11.136 12.66 11.8751 11.9209C12.4744 11.3215 12.8687 10.4653 13.0242 9.29584L7.95661 9.29809Z" fill="#4285F4"/>
</svg>
