<svg width="81" height="16" viewBox="0 0 81 16" fill="none" xmlns="http://www.w3.org/2000/svg">
<path d="M7.0312 2.74841C6.0883 2.74841 5.8157 3.16661 5.8157 4.08898V5.61911H8.3307L8.07865 8.09111H5.8167V15.5932H2.79846V8.09111H0.765137V5.61911H2.79846V4.13099C2.79846 1.63746 3.80388 0.320351 6.6091 0.320351C7.1969 0.318983 7.78435 0.353865 8.36785 0.424899V2.75134L7.0312 2.74841Z" fill="#1877F2"/>
<path fill-rule="evenodd" clip-rule="evenodd" d="M12.6262 5.40625C9.86009 5.40625 8.54004 7.50505 8.54004 10.2917V10.918C8.54004 13.7076 9.86009 15.8034 12.6262 15.8034C14.1348 15.8034 15.0777 15.0492 15.4969 14.0848V15.5934H18.3881V5.6193H15.4969V7.1455C15.0562 6.1821 14.1348 5.40625 12.6262 5.40625ZM13.5056 13.435C12.1015 13.435 11.5573 12.4501 11.5573 10.963V10.2546C11.5573 8.76745 12.1015 7.78255 13.5056 7.78255C14.7426 7.78255 15.3709 8.6834 15.3709 10.108V11.1095C15.3709 12.5341 14.7426 13.435 13.5056 13.435Z" fill="#1877F2"/>
<path d="M24.6746 5.40918C25.8471 5.40918 26.9581 5.66128 27.5658 6.07948L26.8955 8.21733C26.2669 7.91793 25.58 7.76043 24.8837 7.75613C23.2491 7.75613 22.5387 8.69903 22.5387 10.3132V10.8994C22.5387 12.5136 23.251 13.4565 24.8837 13.4565C25.58 13.4521 26.2669 13.2947 26.8955 12.9953L27.5658 15.1322C26.9581 15.5513 25.8481 15.8034 24.6746 15.8034C21.1327 15.8034 19.5195 13.8962 19.5195 10.8369V10.3757C19.5195 7.31648 21.1327 5.40918 24.6746 5.40918Z" fill="#1877F2"/>
<path fill-rule="evenodd" clip-rule="evenodd" d="M27.9634 10.108V10.9874C27.9634 13.9186 29.388 15.8239 33.2074 15.8249C34.6525 15.8249 36.2872 15.5113 37.0835 15.0911L36.5314 13.0246C35.6511 13.4018 34.4571 13.6323 33.3246 13.6323C31.6509 13.6323 31.0431 13.0246 30.9796 11.6625H37.3307V10.0699C37.3307 7.30377 35.9686 5.41797 32.8674 5.41797C29.5765 5.41797 27.9634 7.27932 27.9634 10.108ZM34.6271 9.68782H30.9806V9.68392C30.9806 8.34337 31.5053 7.48352 32.8683 7.48257C34.1874 7.48257 34.6271 8.34727 34.6271 9.43672V9.68782Z" fill="#1877F2"/>
<path fill-rule="evenodd" clip-rule="evenodd" d="M44.4118 15.8062C47.175 15.8062 48.5156 13.7074 48.5156 10.9207L48.5166 10.2934C48.5166 7.50387 47.179 5.40802 44.4128 5.40802C43.0087 5.40802 42.0444 6.12127 41.6047 7.00067V0.336914L38.5874 0.610497V15.5961H41.4366V14.0875C41.8558 15.0519 42.9032 15.8062 44.4118 15.8062ZM43.508 7.77742C44.9541 7.77742 45.4984 8.82487 45.4984 10.229V10.9833C45.4984 12.3873 44.9541 13.4348 43.508 13.4348C42.271 13.4348 41.6008 12.5544 41.6008 11.1298V10.0824C41.6008 8.65682 42.271 7.77742 43.508 7.77742Z" fill="#1877F2"/>
<path fill-rule="evenodd" clip-rule="evenodd" d="M49.5249 10.3552V10.8574C49.5249 13.7281 51.1607 15.8034 54.4922 15.8034C57.8242 15.8034 59.4592 13.7281 59.4592 10.8574V10.3552C59.4592 7.48353 57.8232 5.40918 54.4912 5.40918C51.1597 5.40918 49.5249 7.48353 49.5249 10.3552ZM54.4867 7.77763C55.8957 7.77763 56.4407 8.82508 56.4407 10.1451V11.0675C56.4407 12.3875 55.8907 13.435 54.4867 13.435C53.0827 13.435 52.5372 12.3875 52.5372 11.0675V10.1451C52.5372 8.82508 53.0777 7.77763 54.4867 7.77763Z" fill="#1877F2"/>
<path fill-rule="evenodd" clip-rule="evenodd" d="M60.4619 10.3552V10.8574C60.4619 13.7281 62.0969 15.8034 65.4289 15.8034C68.7604 15.8034 70.3954 13.7281 70.3954 10.8574V10.3552C70.3954 7.48353 68.7604 5.40918 65.4289 5.40918C62.0969 5.40918 60.4619 7.48353 60.4619 10.3552ZM65.4289 7.77763C66.8329 7.77763 67.3779 8.82508 67.3779 10.1451V11.0675C67.3779 12.3875 66.8329 13.435 65.4289 13.435C64.0244 13.435 63.4804 12.3875 63.4804 11.0675V10.1451C63.4804 8.82508 64.0244 7.77763 65.4289 7.77763Z" fill="#1877F2"/>
<path d="M74.5439 10.3755L77.5189 5.61907H80.7249L77.6029 10.5436L80.8509 15.5932H77.6454L74.5439 10.7077V15.5932H71.5259V0.610497L74.5439 0.336914V10.3755Z" fill="#1877F2"/>
</svg>
