<svg width="70" height="18" viewBox="0 0 70 18" fill="none" xmlns="http://www.w3.org/2000/svg">
<path d="M22.4224 13.9858L23.2956 11.9576C24.2393 12.6618 25.4928 13.028 26.7322 13.028C27.6477 13.028 28.2252 12.6759 28.2252 12.1407C28.2111 10.6478 22.7463 11.8168 22.7041 8.0703C22.69 6.16889 24.3801 4.7041 26.7745 4.7041C28.197 4.7041 29.6195 5.05621 30.6336 5.85903L29.8167 7.92945C28.8872 7.3379 27.7322 6.91537 26.6336 6.91537C25.8872 6.91537 25.3942 7.26748 25.3942 7.71819C25.4083 9.18297 30.9153 8.38016 30.9717 11.9576C30.9717 13.9013 29.3238 15.2675 26.9576 15.2675C25.2252 15.2675 23.6336 14.859 22.4224 13.9858Z" fill="black"/>
<path d="M55.9296 11.2252C55.4929 11.9858 54.676 12.5069 53.7324 12.5069C52.338 12.5069 51.2112 11.3802 51.2112 9.98579C51.2112 8.59143 52.338 7.46467 53.7324 7.46467C54.676 7.46467 55.4929 7.98579 55.9296 8.74636L58.338 7.40833C57.4366 5.80269 55.7042 4.7041 53.7324 4.7041C50.8169 4.7041 48.4507 7.0703 48.4507 9.98579C48.4507 12.9013 50.8169 15.2675 53.7324 15.2675C55.7183 15.2675 57.4366 14.183 58.338 12.5633L55.9296 11.2252Z" fill="black"/>
<path d="M32.1831 0.324219H35.1972V15.0707H32.1831V0.324219Z" fill="black"/>
<path d="M59.521 0.324219V15.0707H62.5351V10.6482L66.1125 15.0707H69.9717L65.4224 9.81718L69.6337 4.91577H65.9435L62.5351 8.98619V0.324219H59.521Z" fill="black"/>
<path fill-rule="evenodd" clip-rule="evenodd" d="M44.1548 6.11255V4.91537H47.1688V15.0562H44.1548V13.859C43.6618 14.69 42.4364 15.2675 41.1548 15.2675C38.5069 15.2675 36.4224 12.9013 36.4224 9.97171C36.4224 7.04213 38.5069 4.7041 41.1548 4.7041C42.4364 4.7041 43.6618 5.28157 44.1548 6.11255ZM41.8026 12.5069C42.8167 12.5069 43.7181 11.9717 44.1548 11.2534V8.76044C43.7181 8.02805 42.8167 7.46466 41.8026 7.46466C40.4083 7.46466 39.2815 8.59143 39.2815 9.98579C39.2815 11.3802 40.4083 12.5069 41.8026 12.5069Z" fill="black"/>
<path d="M3.78862 11.24C3.78862 12.2682 2.95764 13.0992 1.92947 13.0992C0.901298 13.0992 0.0703125 12.2682 0.0703125 11.24C0.0703125 10.2118 0.901298 9.38086 1.92947 9.38086H3.78862V11.24Z" fill="#E01E5A"/>
<path d="M4.71826 11.24C4.71826 10.2118 5.54925 9.38086 6.57742 9.38086C7.60559 9.38086 8.43657 10.2118 8.43657 11.24V15.8879C8.43657 16.9161 7.60559 17.7471 6.57742 17.7471C5.54925 17.7471 4.71826 16.9161 4.71826 15.8879V11.24Z" fill="#E01E5A"/>
<path d="M6.57742 3.77495C5.54925 3.77495 4.71826 2.94396 4.71826 1.9158C4.71826 0.887626 5.54925 0.0566406 6.57742 0.0566406C7.60559 0.0566406 8.43657 0.887626 8.43657 1.9158V3.77495H6.57742Z" fill="#36C5F0"/>
<path d="M6.57728 4.71875C7.60545 4.71875 8.43643 5.54974 8.43643 6.5779C8.43643 7.60607 7.60545 8.43706 6.57728 8.43706H1.91531C0.887138 8.43706 0.0561523 7.60607 0.0561523 6.5779C0.0561523 5.54974 0.887138 4.71875 1.91531 4.71875H6.57728Z" fill="#36C5F0"/>
<path d="M14.0278 6.5779C14.0278 5.54974 14.8588 4.71875 15.887 4.71875C16.9152 4.71875 17.7461 5.54974 17.7461 6.5779C17.7461 7.60607 16.9152 8.43706 15.887 8.43706H14.0278V6.5779Z" fill="#2EB67D"/>
<path d="M13.0982 6.57777C13.0982 7.60594 12.2672 8.43692 11.239 8.43692C10.2109 8.43692 9.37988 7.60594 9.37988 6.57777V1.9158C9.37988 0.887626 10.2109 0.0566406 11.239 0.0566406C12.2672 0.0566406 13.0982 0.887626 13.0982 1.9158V6.57777Z" fill="#2EB67D"/>
<path d="M11.239 14.0283C12.2672 14.0283 13.0982 14.8593 13.0982 15.8875C13.0982 16.9156 12.2672 17.7466 11.239 17.7466C10.2109 17.7466 9.37988 16.9156 9.37988 15.8875V14.0283H11.239Z" fill="#ECB22E"/>
<path d="M11.239 13.0992C10.2109 13.0992 9.37988 12.2682 9.37988 11.24C9.37988 10.2118 10.2109 9.38086 11.239 9.38086H15.901C16.9292 9.38086 17.7602 10.2118 17.7602 11.24C17.7602 12.2682 16.9292 13.0992 15.901 13.0992H11.239Z" fill="#ECB22E"/>
</svg>
