<svg width="40" height="33" viewBox="0 0 40 33" fill="none" xmlns="http://www.w3.org/2000/svg">
<path d="M35.7814 8.14366C35.8057 8.49508 35.8057 8.84649 35.8057 9.20115C35.8057 20.0076 27.5789 32.4708 12.536 32.4708V32.4643C8.09231 32.4708 3.74089 31.1979 0 28.7979C0.646154 28.8756 1.29555 28.9145 1.94656 28.9161C5.62915 28.9194 9.20648 27.6837 12.1036 25.4084C8.60405 25.342 5.53522 23.0603 4.46316 19.7291C5.68907 19.9655 6.95223 19.9169 8.15547 19.5882C4.34008 18.8173 1.59514 15.4651 1.59514 11.572C1.59514 11.5364 1.59514 11.5024 1.59514 11.4684C2.73198 12.1016 4.00486 12.453 5.30688 12.4918C1.71336 10.0902 0.605668 5.30965 2.77571 1.572C6.92793 6.68131 13.0543 9.78738 19.6308 10.1161C18.9717 7.27564 19.8721 4.29913 21.9968 2.30237C25.2907 -0.793991 30.4713 -0.635286 33.5676 2.65702C35.3992 2.29589 37.1547 1.62382 38.7611 0.671596C38.1506 2.56471 36.8729 4.17281 35.166 5.19467C36.787 5.00358 38.3708 4.56957 39.8623 3.90722C38.7644 5.55257 37.3814 6.98577 35.7814 8.14366Z" fill="#1D9BF0"/>
</svg>
