<svg width="50" height="18" viewBox="0 0 50 18" fill="none" xmlns="http://www.w3.org/2000/svg">
<path fill-rule="evenodd" clip-rule="evenodd" d="M15.2709 0.0290679H15.27L15.2709 0.0273438V0.0290679ZM15.2709 0.0290679H17.7054V6.18941C18.8517 5.01224 20.4261 4.34977 22.0692 4.35321C23.7847 4.34166 25.4334 5.01738 26.6473 6.22955C27.8613 7.44172 28.5394 9.08943 28.5304 10.8049C28.5304 14.3567 25.6856 17.2317 22.0692 17.2317C20.4181 17.2359 18.8351 16.5739 17.6787 15.3954V16.9411H15.2675L15.2709 0.0290679ZM10.8571 10.4671C10.8571 13.149 9.04935 14.962 6.71056 14.962H6.7097C4.34677 14.962 2.56228 13.1973 2.56228 10.4671V0.03093H0.03125V10.6137C0.03125 14.599 2.80453 17.2327 6.42091 17.2327C8.18125 17.2327 9.74849 16.5568 10.8813 15.3723V16.943H13.389V0.0283438H10.8571V10.4671ZM21.9002 15.0825C24.2157 15.0825 26.12 13.173 26.12 10.8058C26.12 8.41355 24.2149 6.52821 21.9002 6.52821C19.5614 6.52821 17.6571 8.41355 17.6571 10.8058C17.6571 13.173 19.5373 15.0825 21.9002 15.0825ZM41.9614 10.7817C41.9614 7.10838 39.3563 4.37821 35.8131 4.37821C32.22 4.37821 29.4959 7.30148 29.4959 10.7817C29.4959 14.4541 32.3407 17.2084 36.0304 17.2084C38.2726 17.2084 40.1045 16.2179 41.3347 14.5748L39.5744 13.2704C38.6588 14.5023 37.4537 15.0825 36.0304 15.0825C33.958 15.0825 32.2942 13.5842 31.9563 11.5791H41.9614V10.7817ZM32.0037 9.64545H39.5028C39.0925 7.76096 37.5735 6.50407 35.7649 6.50407C33.9571 6.50407 32.4373 7.76096 32.0037 9.64545ZM45.7468 9.93596C45.7468 8.02734 46.9037 6.79459 48.495 6.79459L48.4942 6.79545L49.508 6.79631V4.52476H48.6649C47.314 4.52476 46.3261 5.15321 45.7226 6.14372V4.62045H43.3106V16.9429H45.7468V9.93596Z" fill="black"/>
</svg>
