<svg width="140" height="37" viewBox="0 0 140 37" fill="none" xmlns="http://www.w3.org/2000/svg">
<rect width="140" height="37" fill="#F2F2F2"/>
<g clip-path="url(#clip0_0_1)">
<rect width="1400" height="7215" transform="translate(-106 -1499)" fill="#FAFAFF"/>
<path d="M139.979 32.6523C139.979 34.433 138.536 35.8767 136.755 35.8767C134.975 35.8767 133.531 34.433 133.531 32.6523C133.531 30.8714 134.975 29.4277 136.755 29.4277C138.536 29.4277 139.979 30.8714 139.979 32.6523Z" fill="#F78D2F"/>
<path d="M49.8289 17.8872C48.6057 17.8872 47.4558 17.6671 46.3794 17.2268C45.3029 16.7865 44.3691 16.1709 43.5782 15.3798C42.787 14.5888 42.1593 13.651 41.6945 12.5663C41.2297 11.4818 40.9973 10.3032 40.9973 9.03115V8.98222C40.9973 7.74303 41.2254 6.58089 41.6822 5.49602C42.1386 4.41146 42.7667 3.46556 43.566 2.65811C44.3649 1.85087 45.3152 1.21886 46.416 0.762188C47.517 0.305618 48.7195 0.0771255 50.0246 0.0771255C50.9053 0.0771255 51.7042 0.162733 52.4221 0.334051C53.1396 0.505264 53.796 0.749929 54.3915 1.06805C54.9866 1.38606 55.5249 1.76516 56.0061 2.20566C56.487 2.64596 56.9151 3.12715 57.2905 3.64903L53.7187 6.41349C53.2294 5.79374 52.6911 5.30441 52.104 4.9456C51.5169 4.5871 50.8075 4.40734 49.9757 4.40734C49.372 4.40734 48.8216 4.52591 48.3243 4.76213C47.8267 4.99866 47.3985 5.321 47.0399 5.72833C46.681 6.13617 46.3997 6.61757 46.1959 7.1718C45.9917 7.72644 45.89 8.31353 45.89 8.93328V8.98222C45.89 9.61824 45.9917 10.2177 46.1959 10.7804C46.3997 11.3431 46.681 11.8286 47.0399 12.236C47.3985 12.6439 47.8267 12.9662 48.3243 13.2024C48.8216 13.4389 49.372 13.557 49.9757 13.557C50.416 13.557 50.8196 13.5082 51.1866 13.4104C51.5536 13.3123 51.8878 13.17 52.1897 12.9823C52.4914 12.7948 52.7768 12.5746 53.046 12.3216C53.3151 12.069 53.5799 11.7877 53.841 11.4777L57.4128 14.0218C57.005 14.5764 56.5604 15.0903 56.0796 15.5632C55.5983 16.0364 55.052 16.4438 54.4403 16.7865C53.8288 17.1289 53.1439 17.398 52.3854 17.5937C51.627 17.7894 50.7746 17.8872 49.8289 17.8872Z" fill="#2E2B2D"/>
<path d="M68.9599 0.297295H64.3851L57.0947 17.5448H62.0854L66.6358 5.9487L71.1617 17.5448L76.2503 17.5448L68.9599 0.297295Z" fill="#2E2B2D"/>
<path d="M93.5464 0.419577H107.295V4.45629L98.2194 4.45629V7.04944L106.439 7.04944V10.7926L98.2194 10.7926V13.5082L107.418 13.5082V17.5448H93.5464V0.419577Z" fill="#2E2B2D"/>
<path d="M108.886 0.419577H122.634V4.45629L113.559 4.45629V7.04944L121.778 7.04944V10.7926L113.559 10.7926V13.5082L122.757 13.5082V17.5448H108.886V0.419577Z" fill="#2E2B2D"/>
<path d="M93.6949 18.7516H98.7098L102.795 25.3814L106.881 18.7516L111.897 18.7516V35.8767H107.175V26.042L102.808 32.7453H102.71L98.3678 26.0909V35.8767H93.6949V18.7516Z" fill="#2E2B2D"/>
<path d="M124.446 18.6292H119.872L112.581 35.8767H117.572L122.122 24.2805L126.648 35.8767H131.737L124.446 18.6292Z" fill="#2E2B2D"/>
<path d="M69.1083 18.6292H64.5335L57.2431 35.8767H62.2339L66.7843 24.2805L71.3102 35.8767H76.3987L69.1083 18.6292Z" fill="#2E2B2D"/>
<path d="M41.7328 18.7516V35.8767H46.4789V18.7516H41.7328Z" fill="#2E2B2D"/>
<path d="M52.0318 25.5324L58.0016 18.7516H52.3747L46.4789 25.6994L52.5215 35.8767H58.2218L52.0318 25.5324Z" fill="#2E2B2D"/>
<path d="M88.6049 11.5756C89.6814 11.1191 90.5374 10.4585 91.1736 9.59385C91.8097 8.72954 92.1277 7.63663 92.1277 6.31554V6.26671C92.1277 4.58713 91.6221 3.25759 90.611 2.27903C90.0399 1.69184 89.2978 1.23547 88.3847 0.908907C87.4711 0.582962 86.3541 0.419577 85.033 0.419577H76.9352V17.5448H81.6815V12.3583V8.63971V4.52975L84.7884 4.52975C85.5873 4.52975 86.2154 4.69715 86.6722 5.03133C87.1287 5.36562 87.3572 5.87525 87.3572 6.56021V6.60914C87.3572 7.2292 87.137 7.72234 86.6965 8.08929C86.2563 8.45623 85.6283 8.63971 84.8129 8.63971L81.6815 8.63971L87.2103 17.5448L92.6905 17.5448L88.6049 11.5756Z" fill="#2E2B2D"/>
<path d="M88.7534 29.9075C89.8297 29.4509 90.6859 28.7904 91.322 27.9257C91.9581 27.0616 92.2761 25.9685 92.2761 24.6475V24.5987C92.2761 22.919 91.7704 21.5896 90.7594 20.6109C90.1884 20.0237 89.4463 19.5674 88.533 19.2409C87.6195 18.915 86.5025 18.7516 85.1814 18.7516H77.0837V35.8767H81.8298V30.6902V26.9717V22.8616H84.9368C85.7357 22.8616 86.3638 23.029 86.8206 23.363C87.2771 23.6975 87.5057 24.2072 87.5057 24.8921V24.9412C87.5057 25.5611 87.2855 26.0541 86.845 26.4212C86.4047 26.7881 85.7766 26.9717 84.9612 26.9717H81.8298L87.3589 35.8767H92.8388L88.7534 29.9075Z" fill="#2E2B2D"/>
<path d="M135.894 11.5756C136.97 11.1191 137.826 10.4585 138.463 9.59385C139.099 8.72954 139.417 7.63663 139.417 6.31554V6.26671C139.417 4.58713 138.911 3.25759 137.901 2.27903C137.329 1.69184 136.587 1.23547 135.673 0.908907C134.761 0.582962 133.643 0.419577 132.322 0.419577H124.224V17.5448H128.971V12.3583V8.63971V4.52975L132.078 4.52975C132.876 4.52975 133.505 4.69715 133.961 5.03133C134.418 5.36562 134.646 5.87525 134.646 6.56021V6.60914C134.646 7.2292 134.426 7.72234 133.986 8.08929C133.545 8.45623 132.918 8.63971 132.102 8.63971L128.971 8.63971L134.5 17.5448L139.979 17.5448L135.894 11.5756Z" fill="#2E2B2D"/>
<path d="M6.90574 32.1768L12.5922 22.7213C12.5922 22.7213 17.6134 12.2661 23.4351 23.1727L27.0223 29.2502C27.0223 29.2502 27.849 30.6731 28.7074 32.1768C32.8967 28.9228 35.593 23.8378 35.593 18.1225C35.593 8.29939 27.6298 0.336288 17.8067 0.336288C7.9835 0.336288 0.0203247 8.29939 0.0203247 18.1225C0.0203247 23.8378 2.7165 28.9227 6.90574 32.1768Z" fill="#2E2B2D"/>
<path d="M25.5693 34.1085L23.1048 30.4073L21.6529 28.3866C21.6529 28.3866 20.0993 26.3471 18.7914 26.1391C18.7914 26.1391 16.8227 25.4648 14.6834 27.8332C14.6834 27.8332 13.1292 29.8531 12.9632 30.1534L10.2421 34.2233C12.5378 35.3038 15.1014 35.9088 17.8067 35.9088C20.5939 35.9088 23.2312 35.267 25.5795 34.1241C25.5761 34.119 25.5726 34.1136 25.5693 34.1085Z" fill="#F78D2F"/>
</g>
<defs>
<clipPath id="clip0_0_1">
<rect width="1400" height="7215" fill="white" transform="translate(-106 -1499)"/>
</clipPath>
</defs>
</svg>
