<svg width="110" height="41" viewBox="0 0 110 41" fill="none" xmlns="http://www.w3.org/2000/svg">
<rect width="110" height="41" fill="#F2F2F2"/>
<g clip-path="url(#clip0_0_1)">
<rect width="1400" height="7215" transform="translate(-383 -1497)" fill="#FAFAFF"/>
<path fill-rule="evenodd" clip-rule="evenodd" d="M17.1473 15.6459C15.3354 17.6153 12.7095 18.8495 9.821 18.8495C4.49034 18.8495 0 14.5693 0 9.50122C0 4.4332 4.49034 0.179199 9.821 0.179199C12.7095 0.179199 15.3354 1.41339 17.1473 3.35657L13.3922 6.63898C12.5519 5.53609 11.239 4.80083 9.821 4.80083C7.35259 4.80083 5.25185 6.95409 5.25185 9.50122C5.25185 12.0747 7.35259 14.2279 9.821 14.2279C11.2652 14.2279 12.5519 13.4927 13.4185 12.3898L17.1473 15.6459ZM37.7871 9.50122C37.7871 14.5693 33.2967 18.8495 27.9661 18.8495C22.6355 18.8495 18.1452 14.5693 18.1452 9.50122C18.1452 4.4332 22.6355 0.179199 27.9661 0.179199C33.2967 0.179199 37.7871 4.4332 37.7871 9.50122ZM27.9661 14.2279C25.4977 14.2279 23.397 12.0747 23.397 9.50122C23.397 6.95409 25.4977 4.80083 27.9661 4.80083C30.4345 4.80083 32.5352 6.95409 32.5352 9.50122C32.5352 12.0747 30.4345 14.2279 27.9661 14.2279ZM57.2452 10.5253C57.2452 15.4096 53.7002 18.8495 48.6584 18.8495C43.6166 18.8495 40.0716 15.4096 40.0716 10.5253V0.49431H45.1659V10.2628C45.1659 12.5736 46.6102 14.2279 48.6584 14.2279C50.7066 14.2279 52.1509 12.5736 52.1509 10.2628V0.49431H57.2452V10.5253ZM65.3067 18.5344V13.0988H66.8823L70.6899 18.5344H76.4932L72.1866 12.416C74.3925 11.3919 75.7579 9.36995 75.7579 6.79653C75.7579 3.09398 72.8957 0.49431 68.8517 0.49431H60.2125V18.5344H65.3067ZM65.3067 8.47712H68.4316C69.6395 8.47712 70.5061 7.76812 70.5061 6.79653C70.5061 5.82494 69.6395 5.11594 68.4316 5.11594H65.3067V8.47712ZM85.7627 18.8495C90.2793 18.8495 93.1936 16.6175 93.1936 12.8099C93.1936 9.36995 90.5682 8.24079 86.3666 7.34798C83.7933 6.79653 83.1631 6.50768 83.1631 5.5886C83.1631 4.90587 83.767 4.40694 85.0012 4.40694C86.6293 4.40694 88.4675 5.0109 90.148 6.21882L92.6955 2.62131C90.6995 1.0195 88.2574 0.179199 85.1325 0.179199C80.8523 0.179199 78.0163 2.51628 78.0163 6.11379C78.0163 9.86886 81.0361 10.893 84.9487 11.7858L85.0714 11.8142C87.464 12.3681 88.0735 12.5092 88.0735 13.3613C88.0735 14.1491 87.3383 14.6218 85.9465 14.6218C83.8195 14.6218 81.8238 13.8603 79.9857 12.416L77.1496 15.8035C79.4343 17.8254 82.5065 18.8495 85.7627 18.8495ZM110 13.9916V18.5344H95.4791V0.49431H110V5.03716H100.573V7.05912H109.16V11.602H100.573V13.9916H110Z" fill="#50922F"/>
<path fill-rule="evenodd" clip-rule="evenodd" d="M73.6834 30.9943C73.6834 36.1265 69.1211 40.4609 63.7049 40.4609C58.2887 40.4609 53.7263 36.1265 53.7263 30.9943C53.7263 25.8621 58.2887 21.5542 63.7049 21.5542C69.1211 21.5542 73.6834 25.8621 73.6834 30.9943ZM5.85914 34.6597V40.1983H0.682678V21.8168H9.46134C13.5704 21.8168 16.4789 24.4657 16.4789 28.2383C16.4789 30.8604 15.0914 32.9207 12.8501 33.9641L17.226 40.1983H11.3292L7.46011 34.6597H5.85914ZM5.93453 29.9572H9.09097C10.3111 29.9572 11.1863 29.2371 11.1863 28.2504C11.1863 27.2636 10.3111 26.5435 9.09097 26.5435H5.93453V29.9572ZM34.032 40.1983V35.5695H24.4855V33.1347H33.181V28.5058H24.4855V26.4457H34.032V21.8168H19.3268V40.1983H34.032ZM41.821 34.6597V40.1983H36.6579V21.8168H45.4139C49.5124 21.8168 52.4134 24.4657 52.4134 28.2383C52.4134 32.0109 49.5124 34.6597 45.4139 34.6597H41.821ZM45.0662 29.9572H41.9097V26.5435H45.0662C46.2862 26.5435 47.1615 27.2636 47.1615 28.2504C47.1615 29.2371 46.2862 29.9572 45.0662 29.9572ZM63.8362 35.7342C61.3536 35.7342 59.2408 33.575 59.2408 30.9944C59.2408 28.4402 61.3536 26.2809 63.8362 26.2809C66.3187 26.2809 68.4315 28.4402 68.4315 30.9944C68.4315 33.575 66.3187 35.7342 63.8362 35.7342ZM81.4858 34.6597V40.1983H76.3093V21.8168H85.088C89.1971 21.8168 92.1054 24.4657 92.1054 28.2383C92.1054 30.8604 90.7181 32.9207 88.4767 33.9641L92.8527 40.1983H86.9558L83.0868 34.6597H81.4858ZM84.7176 29.9572H81.5611V26.5435H84.7176C85.9377 26.5435 86.8131 27.2636 86.8131 28.2504C86.8131 29.2371 85.9377 29.9572 84.7176 29.9572ZM104.502 26.4457V40.1983H99.3227V26.4457H93.9027V21.8168H109.921V26.4457H104.502Z" fill="#50922F"/>
</g>
<defs>
<clipPath id="clip0_0_1">
<rect width="1400" height="7215" fill="white" transform="translate(-383 -1497)"/>
</clipPath>
</defs>
</svg>
