<svg width="464" height="464" viewBox="0 0 464 464" fill="none" xmlns="http://www.w3.org/2000/svg">
<g clip-path="url(#clip0_0_1374)">
<path d="M66.5177 242.439C66.5177 242.439 63.8781 256.315 67.8375 262.217H85.875C85.875 262.217 82.3555 250.413 84.1152 243.331L66.5177 242.439Z" fill="#050E12"/>
<path d="M66.6143 243.331C67.3226 256.923 70.4769 262.217 70.4769 262.217H88.9544C86.3895 255.713 84.9333 247.976 84.2206 243.331H66.6143Z" fill="#F66F6F"/>
<path d="M76.6194 257.402C74.3796 252.176 75.0771 246.333 75.1079 246.087L76.5548 246.267C76.5478 246.324 75.8794 251.973 77.9597 256.826L76.6194 257.402Z" fill="white"/>
<path d="M431.013 407.112H0.820209C0.367101 407.112 0 406.744 0 406.291C0 405.839 0.367101 405.471 0.820209 405.471H431.013C431.466 405.471 431.833 405.839 431.833 406.291C431.833 406.744 431.466 407.112 431.013 407.112Z" fill="#050E12"/>
<path d="M296.687 133.019H305.331L301.009 125.532L296.687 118.046L292.365 125.532L288.042 133.019H296.687Z" fill="#050E12"/>
<path d="M392.789 58.269H275.382C275.078 58.269 274.83 58.0215 274.83 57.7167C274.83 57.4118 275.078 57.1643 275.382 57.1643H392.789C393.093 57.1643 393.341 57.4118 393.341 57.7167C393.341 58.0215 393.093 58.269 392.789 58.269Z" fill="#050E12"/>
<path d="M296.931 122.399C296.536 122.399 296.215 122.078 296.215 121.683V57.7166C296.215 57.4117 296.408 57.1404 296.696 57.0401C296.983 56.9396 297.303 57.0322 297.492 57.271C311.187 74.5081 325.401 82.8885 339.743 82.1467C362.204 81.0016 377.459 57.5669 377.61 57.3305C377.824 56.9977 378.266 56.9002 378.6 57.1131C378.933 57.3263 379.03 57.7695 378.817 58.1027C378.661 58.3453 363.025 82.389 339.825 83.5773C325.432 84.3243 311.26 76.2954 297.648 59.7427V121.683C297.648 122.078 297.327 122.399 296.931 122.399Z" fill="#050E12"/>
<path d="M237.509 115.102C237.509 115.102 234.577 130.512 238.975 137.067H259.007C259.007 137.067 255.098 123.958 257.052 116.092L237.509 115.102Z" fill="#050E12"/>
<path d="M237.616 116.092C238.403 131.188 241.906 137.067 241.906 137.067H262.426C259.578 129.844 257.961 121.251 257.169 116.092H237.616Z" fill="#4F76C6"/>
<path d="M257.052 116.092H237.509V110.802C237.509 110.104 238.075 109.537 238.773 109.537H255.788C256.486 109.537 257.052 110.104 257.052 110.802V116.092Z" fill="#4F76C6"/>
<path d="M257.052 116.593H237.509C237.233 116.593 237.009 116.369 237.009 116.092C237.009 115.816 237.233 115.591 237.509 115.591H257.052C257.329 115.591 257.553 115.816 257.553 116.092C257.553 116.369 257.329 116.593 257.052 116.593Z" fill="#050E12"/>
<path d="M54.8095 191.734C54.8095 191.734 58.1042 204.644 53.1621 210.135H30.6484C30.6484 210.135 35.0413 199.153 32.8449 192.564L54.8095 191.734Z" fill="#050E12"/>
<path d="M54.6883 192.564C53.8041 205.21 49.867 210.135 49.867 210.135H26.8042C30.0055 204.084 31.8231 196.885 32.7126 192.564H54.6883Z" fill="white"/>
<path d="M54.8093 192.564H32.8447V188.299C32.8447 187.622 33.394 187.073 34.0715 187.073H53.5826C54.2601 187.073 54.8093 187.622 54.8093 188.299V192.564Z" fill="white"/>
<path d="M54.8096 193.05H32.8448C32.5766 193.05 32.3589 192.832 32.3589 192.564C32.3589 192.295 32.5766 192.078 32.8448 192.078H54.8096C55.0778 192.078 55.2956 192.295 55.2956 192.564C55.2956 192.832 55.0778 193.05 54.8096 193.05Z" fill="#050E12"/>
<path d="M49.8674 210.852H26.8042C26.553 210.852 26.32 210.72 26.1904 210.505C26.0611 210.29 26.0535 210.022 26.171 209.8C29.2314 204.016 31.0363 197.156 32.0113 192.419C32.0798 192.086 32.3728 191.847 32.713 191.847H54.6884C54.8871 191.847 55.0769 191.93 55.2124 192.075C55.3479 192.22 55.417 192.415 55.4032 192.614C54.5135 205.336 50.5936 210.374 50.427 210.583C50.2911 210.753 50.0852 210.852 49.8674 210.852ZM27.9753 209.419H49.4962C50.2559 208.272 53.0881 203.39 53.9155 193.28H33.295C32.3376 197.786 30.6737 203.96 27.9753 209.419Z" fill="#050E12"/>
<path d="M54.8092 193.28H32.8444C32.4487 193.28 32.1279 192.959 32.1279 192.564V188.299C32.1279 187.228 32.9997 186.356 34.0712 186.356H53.5825C54.654 186.356 55.5257 187.228 55.5257 188.299V192.564C55.5257 192.959 55.2049 193.28 54.8092 193.28ZM33.561 191.847H54.0926V188.299C54.0926 188.018 53.8639 187.789 53.5825 187.789H34.0712C33.7898 187.789 33.561 188.018 33.561 188.299V191.847Z" fill="#050E12"/>
<path d="M464 140.296V179.472C464 190.786 454.828 199.958 443.515 199.958H367.761C358.857 199.958 350.393 203.833 344.575 210.573L338.111 218.061C335.34 221.271 330.07 219.311 330.07 215.07V140.296C330.07 128.982 339.242 119.811 350.555 119.811H443.515C454.828 119.811 464 128.982 464 140.296Z" fill="#D1E2DC"/>
<path d="M464 140.296V179.472C464 190.786 454.828 199.958 443.515 199.958H367.761C358.857 199.958 350.393 203.833 344.575 210.573L338.111 218.061C335.34 221.271 330.07 219.311 330.07 215.07V140.296C330.07 128.982 339.242 119.811 350.555 119.811H443.515C454.828 119.811 464 128.982 464 140.296Z" fill="#D1E2DC"/>
<path d="M159.595 281.104V403.919H155.773L151.644 391.976H123.029L120.551 403.919H108.05L104.908 390.268H67.3784V281.104H159.595Z" fill="#050E12"/>
<path d="M116.843 281.104V403.919H108.05L104.908 390.268H34.9663L28.1486 403.919H17.9141V281.104H116.843Z" fill="white"/>
<path d="M106.239 322.797H26.8127C25.251 322.797 23.9805 321.525 23.9805 319.964V289.151C23.9805 287.59 25.251 286.319 26.8127 286.319H106.239C107.8 286.319 109.071 287.59 109.071 289.151V319.964C109.071 321.525 107.8 322.797 106.239 322.797ZM26.8127 287.829C26.083 287.829 25.4895 288.422 25.4895 289.151V319.964C25.4895 320.694 26.083 321.287 26.8127 321.287H106.239C106.968 321.287 107.562 320.694 107.562 319.964V289.151C107.562 288.422 106.968 287.829 106.239 287.829H26.8127Z" fill="#050E12"/>
<path d="M106.239 364.587H26.8127C25.251 364.587 23.9805 363.316 23.9805 361.754V330.942C23.9805 329.38 25.251 328.11 26.8127 328.11H106.239C107.8 328.11 109.071 329.38 109.071 330.942V361.754C109.071 363.316 107.8 364.587 106.239 364.587ZM26.8127 329.62C26.083 329.62 25.4895 330.213 25.4895 330.942V361.754C25.4895 362.484 26.083 363.078 26.8127 363.078H106.239C106.968 363.078 107.562 362.484 107.562 361.754V330.942C107.562 330.213 106.968 329.62 106.239 329.62H26.8127Z" fill="#050E12"/>
<path d="M52.063 304.907C54.2991 305.289 56.4068 305.659 58.5099 305.89C59.565 305.976 60.6008 306.111 61.6469 306.125C62.6872 306.182 63.7269 306.207 64.7681 306.162C65.8002 306.168 66.877 306.09 67.9266 306.026C68.9805 305.991 70.0242 305.851 71.0866 305.764C73.2048 305.538 75.3296 305.201 77.5797 304.905L77.6022 304.903C77.6481 304.897 77.6901 304.929 77.6961 304.975C77.7011 305.013 77.6797 305.048 77.6461 305.063C75.6228 305.929 73.5172 306.61 71.3627 307.076C69.2076 307.548 67.0097 307.791 64.804 307.866C60.3856 307.939 55.9633 306.964 51.9905 305.061C51.9488 305.041 51.9311 304.991 51.9511 304.95C51.9677 304.915 52.0048 304.897 52.0407 304.903L52.063 304.907Z" fill="#050E12"/>
<path d="M52.063 346.698C54.2991 347.08 56.4068 347.45 58.5099 347.681C59.565 347.767 60.6008 347.902 61.6469 347.916C62.6872 347.973 63.7269 347.998 64.7681 347.953C65.8002 347.959 66.877 347.881 67.9266 347.817C68.9805 347.781 70.0242 347.642 71.0866 347.555C73.2048 347.328 75.3296 346.991 77.5797 346.696L77.6022 346.693C77.6481 346.687 77.6901 346.72 77.6961 346.766C77.7011 346.804 77.6797 346.839 77.6461 346.853C75.6228 347.72 73.5172 348.401 71.3627 348.867C69.2076 349.339 67.0097 349.582 64.804 349.657C60.3856 349.73 55.9633 348.755 51.9905 346.852C51.9488 346.832 51.9311 346.782 51.9511 346.74C51.9677 346.706 52.0048 346.688 52.0407 346.694L52.063 346.698Z" fill="#050E12"/>
<path d="M117.653 404.729H107.405L104.263 391.078H35.4675L28.6498 404.729H17.104V280.294H117.653V404.729ZM108.695 403.109H116.032V281.914H18.7244V403.109H27.6474L34.4652 389.457H105.553L108.695 403.109Z" fill="#050E12"/>
<path d="M377.734 137.067H386.583C387.694 137.067 388.594 137.967 388.594 139.078C388.594 140.189 387.694 141.089 386.583 141.089H377.734C376.623 141.089 375.723 140.189 375.723 139.078C375.723 137.967 376.623 137.067 377.734 137.067Z" fill="white"/>
<path d="M359.952 137.067H368.602C369.688 137.067 370.568 137.967 370.568 139.078C370.568 140.189 369.688 141.089 368.602 141.089H359.952C358.866 141.089 357.986 140.189 357.986 139.078C357.986 137.967 358.866 137.067 359.952 137.067Z" fill="white"/>
<path d="M433.646 139.078C433.646 140.189 432.746 141.089 431.635 141.089H396.237C395.127 141.089 394.226 140.189 394.226 139.078C394.226 137.967 395.127 137.067 396.237 137.067H431.635C432.746 137.067 433.646 137.967 433.646 139.078Z" fill="white"/>
<path d="M446.188 139.078C446.188 140.189 445.287 141.089 444.176 141.089H438.947C437.836 141.089 436.936 140.189 436.936 139.078C436.936 137.967 437.836 137.067 438.947 137.067H444.176C445.287 137.067 446.188 137.967 446.188 139.078Z" fill="white"/>
<path d="M350.26 139.078C350.26 140.189 349.359 141.089 348.249 141.089H343.02C341.909 141.089 341.008 140.189 341.008 139.078C341.008 137.967 341.909 137.067 343.02 137.067H348.249C349.359 137.067 350.26 137.967 350.26 139.078Z" fill="#F66F6F"/>
<path d="M350.26 150.345C350.26 151.455 349.359 152.356 348.249 152.356H343.02C341.909 152.356 341.008 151.455 341.008 150.345C341.008 149.234 341.909 148.333 343.02 148.333H348.249C349.359 148.333 350.26 149.234 350.26 150.345Z" fill="#F66F6F"/>
<path d="M350.26 161.612C350.26 162.722 349.359 163.623 348.249 163.623H343.02C341.909 163.623 341.008 162.722 341.008 161.612C341.008 160.501 341.909 159.6 343.02 159.6H348.249C349.359 159.6 350.26 160.501 350.26 161.612Z" fill="#F66F6F"/>
<path d="M350.26 172.878C350.26 173.989 349.359 174.889 348.249 174.889H343.02C341.909 174.889 341.008 173.989 341.008 172.878C341.008 171.767 341.909 170.867 343.02 170.867H348.249C349.359 170.867 350.26 171.767 350.26 172.878Z" fill="#F66F6F"/>
<path d="M350.26 184.145C350.26 185.256 349.359 186.156 348.249 186.156H343.02C341.909 186.156 341.008 185.256 341.008 184.145C341.008 183.034 341.909 182.134 343.02 182.134H348.249C349.359 182.134 350.26 183.034 350.26 184.145Z" fill="#F66F6F"/>
<path d="M382.884 159.593H397.365C398.476 159.593 399.376 160.493 399.376 161.604C399.376 162.715 398.476 163.615 397.365 163.615H382.884C381.774 163.615 380.873 162.715 380.873 161.604C380.873 160.493 381.774 159.593 382.884 159.593Z" fill="white"/>
<path d="M359.997 159.593H374.478C375.589 159.593 376.489 160.493 376.489 161.604C376.489 162.715 375.589 163.615 374.478 163.615H359.997C358.886 163.615 357.986 162.715 357.986 161.604C357.986 160.493 358.886 159.593 359.997 159.593Z" fill="white"/>
<path d="M446.188 161.604C446.188 162.715 445.287 163.615 444.177 163.615H406.366C405.255 163.615 404.354 162.715 404.354 161.604C404.354 160.493 405.255 159.593 406.366 159.593H444.177C445.287 159.593 446.188 160.493 446.188 161.604Z" fill="white"/>
<path d="M359.997 170.855H386.143C387.254 170.855 388.154 171.756 388.154 172.867C388.154 173.977 387.254 174.878 386.143 174.878H359.997C358.886 174.878 357.986 173.977 357.986 172.867C357.986 171.756 358.886 170.855 359.997 170.855Z" fill="white"/>
<path d="M446.188 172.867C446.188 173.977 445.287 174.878 444.176 174.878H412.801C411.69 174.878 410.79 173.977 410.79 172.867C410.79 171.756 411.69 170.855 412.801 170.855H444.176C445.287 170.855 446.188 171.756 446.188 172.867Z" fill="white"/>
<path d="M406.199 172.867C406.199 173.977 405.299 174.878 404.188 174.878H394.132C393.021 174.878 392.121 173.977 392.121 172.867C392.121 171.756 393.021 170.855 394.132 170.855H404.188C405.299 170.855 406.199 171.756 406.199 172.867Z" fill="white"/>
<path d="M444.176 148.33H420.846C419.735 148.33 418.835 149.23 418.835 150.341V150.341C418.835 151.452 419.735 152.352 420.846 152.352H444.176C445.287 152.352 446.188 151.452 446.188 150.341V150.341C446.188 149.23 445.287 148.33 444.176 148.33Z" fill="white"/>
<path d="M383.327 148.33H359.997C358.886 148.33 357.986 149.23 357.986 150.341C357.986 151.452 358.886 152.352 359.997 152.352H383.327C384.438 152.352 385.338 151.452 385.338 150.341C385.338 149.23 384.438 148.33 383.327 148.33Z" fill="white"/>
<path d="M410.778 150.341C410.778 151.452 409.667 152.352 408.297 152.352H395.89C394.519 152.352 393.408 151.452 393.408 150.341C393.408 149.23 394.519 148.33 395.89 148.33H408.297C409.667 148.33 410.778 149.23 410.778 150.341Z" fill="white"/>
<path d="M360.53 182.118H373.758C375.163 182.118 376.302 183.019 376.302 184.13C376.302 185.24 375.163 186.141 373.758 186.141H360.53C359.125 186.141 357.986 185.24 357.986 184.13C357.986 183.019 359.125 182.118 360.53 182.118Z" fill="white"/>
<path d="M382.206 182.118H410.637C411.924 182.118 412.968 183.019 412.968 184.13C412.968 185.24 411.924 186.141 410.637 186.141H382.206C380.919 186.141 379.875 185.24 379.875 184.13C379.875 183.019 380.919 182.118 382.206 182.118Z" fill="white"/>
<path d="M429.376 184.13C429.376 185.24 428.476 186.141 427.365 186.141H417.309C416.198 186.141 415.298 185.24 415.298 184.13C415.298 183.019 416.198 182.118 417.309 182.118H427.365C428.476 182.118 429.376 183.019 429.376 184.13Z" fill="white"/>
<path d="M446.188 184.13C446.188 185.24 445.324 186.141 444.258 186.141H434.61C433.545 186.141 432.681 185.24 432.681 184.13C432.681 183.019 433.545 182.118 434.61 182.118H444.258C445.324 182.118 446.188 183.019 446.188 184.13Z" fill="white"/>
<path d="M46.7441 95.4221V117.979C46.7441 124.493 52.0249 129.774 58.5392 129.774H102.156C107.283 129.774 112.156 132.005 115.506 135.886L119.228 140.197C120.823 142.046 123.858 140.917 123.858 138.475V95.4221C123.858 88.9078 118.577 83.627 112.063 83.627H58.5392C52.0249 83.627 46.7441 88.9078 46.7441 95.4221Z" fill="#D1E2DC"/>
<path d="M46.7441 95.4221V117.979C46.7441 124.493 52.0249 129.774 58.5392 129.774H102.156C107.283 129.774 112.156 132.005 115.506 135.886L119.228 140.197C120.823 142.046 123.858 140.917 123.858 138.475V95.4221C123.858 88.9078 118.577 83.627 112.063 83.627H58.5392C52.0249 83.627 46.7441 88.9078 46.7441 95.4221Z" fill="#D1E2DC"/>
<path d="M82.5092 94.3279L92.325 121.987C92.6667 122.95 91.9527 123.961 90.9311 123.961C90.305 123.961 89.7467 123.566 89.5373 122.976L79.7212 95.3172C79.3795 94.3545 80.0935 93.3435 81.1151 93.3435C81.7413 93.3435 82.2998 93.7378 82.5092 94.3279Z" fill="white"/>
<path d="M93.1841 105.046C93.1841 105.614 93.487 106.138 93.9787 106.422L98.0937 108.797L93.9821 111.156C93.4885 111.439 93.1841 111.965 93.1841 112.534V112.56C93.1841 113.801 94.5443 114.563 95.6028 113.914L101.74 110.153C102.752 109.533 102.752 108.062 101.739 107.443L95.6013 103.691C94.5428 103.044 93.1841 103.805 93.1841 105.046Z" fill="white"/>
<path d="M78.8616 112.56C78.8616 111.992 78.5587 111.468 78.067 111.184L73.9519 108.809L78.0635 106.45C78.5572 106.167 78.8616 105.641 78.8616 105.072V105.046C78.8616 103.805 77.5014 103.043 76.4429 103.692L70.3054 107.453C69.2934 108.073 69.2942 109.544 70.3068 110.163L76.4443 113.915C77.5029 114.562 78.8616 113.801 78.8616 112.56Z" fill="white"/>
<path d="M348.511 362.131V368.641H281.548C273.655 368.641 266.422 373.078 262.849 380.122L249.57 406.292H238.255L247.318 367.021L252.53 344.423L344.564 344.374L348.511 362.131Z" fill="#050E12"/>
<path d="M357.971 404.672H346.442C342.448 396.146 338.461 387.628 334.475 379.102C332.223 374.292 328.277 370.608 323.551 368.641C321.036 367.588 318.299 367.021 315.475 367.021H222.668C214.775 367.021 207.543 371.458 203.97 378.503L190.69 404.672H179.376L193.65 342.803L344.198 342.73L344.564 344.374L348.511 362.131L357.971 404.672Z" fill="white"/>
<path d="M358.982 405.483H345.927L345.708 405.016C341.713 396.49 337.727 387.972 333.741 379.446C331.61 374.892 327.88 371.321 323.24 369.389C320.771 368.355 318.159 367.831 315.474 367.831H222.668C215.033 367.831 208.146 372.061 204.693 378.869L191.188 405.483H178.357L193.006 341.993H193.65L344.848 341.919L358.982 405.483ZM346.957 403.862H356.961L343.549 343.541L194.295 343.613L180.395 403.862H190.193L203.247 378.136C206.978 370.78 214.419 366.211 222.668 366.211H315.474C318.375 366.211 321.198 366.777 323.864 367.894C328.876 369.98 332.906 373.839 335.209 378.758C339.123 387.129 343.036 395.492 346.957 403.862Z" fill="#050E12"/>
<path d="M201.851 318.614L179.376 214.757H275.677L300.881 318.704L201.851 318.614Z" fill="#050E12"/>
<path d="M204.452 318.618L203.133 320.059H188.671C185.522 306.132 182.372 292.197 179.23 278.27C175.498 261.785 171.773 245.291 168.048 228.806C171.967 224.126 175.878 219.438 179.789 214.758L193.003 270.4L204.452 318.618Z" fill="#050E12"/>
<path d="M358.068 273.048C356.619 280.513 355.17 287.971 353.72 295.436V295.452C352.214 303.201 350.708 310.95 349.202 318.699C349.153 318.933 349.113 319.168 349.064 319.403H276.459C276.41 319.168 276.353 318.933 276.305 318.699C272.945 303.484 269.592 288.27 266.224 273.048H358.068Z" fill="#050E12"/>
<path d="M358.068 273.048C356.619 280.513 355.17 287.971 353.72 295.436V295.452C352.214 303.201 350.708 310.95 349.202 318.699C349.154 318.933 349.113 319.168 349.064 319.403H334.32C334.368 319.168 334.409 318.933 334.458 318.699C337.413 303.484 340.368 288.27 343.316 273.048H358.068Z" fill="#050E12"/>
<path d="M188.104 318.698L188.266 319.403C190.261 328.067 192.256 336.73 194.25 345.394H344.749C346.347 336.496 347.944 327.597 349.542 318.698H188.104Z" fill="#050E12"/>
<path d="M316.904 365.47L300.065 400.433C296.822 402.447 292.844 402.345 290.316 400.313C286.962 397.617 286.406 391.72 290.068 387.667C295.001 374.817 299.934 361.966 304.867 349.115L316.904 365.47Z" fill="white"/>
<path d="M295.063 402.611C293.138 402.611 291.292 402.032 289.859 400.881C288.143 399.502 287.048 397.316 286.854 394.884C286.637 392.155 287.576 389.392 289.435 387.281L304.186 348.854C304.281 348.605 304.505 348.428 304.769 348.392C305.032 348.359 305.296 348.467 305.454 348.683L317.492 365.038C317.652 365.255 317.679 365.543 317.561 365.787L300.722 400.749C300.662 400.874 300.568 400.98 300.45 401.052C298.774 402.093 296.883 402.611 295.063 402.611ZM305.07 350.621L290.749 387.928C290.717 388.012 290.67 388.089 290.61 388.156C288.958 389.983 288.119 392.394 288.308 394.768C288.469 396.802 289.368 398.615 290.773 399.744C293.04 401.567 296.602 401.631 299.503 399.921L316.057 365.549L305.07 350.621Z" fill="#050E12"/>
<path d="M304.531 385.644C306.399 385.052 308.333 387.629 311.008 389.693C312.779 391.058 315.592 392.753 319.915 393.741C325.693 394.931 331.471 396.121 337.25 397.311C337.7 397.468 338.98 397.976 339.943 399.329C340.594 400.243 340.967 401.356 340.967 402.534V405.077H282.669L288.454 387.946C289.891 387.672 290.925 387.868 291.576 388.073C294.915 389.129 295.26 392.707 298.863 393.741C299.687 393.978 300.621 394.226 301.292 393.741C302.637 392.769 301.188 390.071 302.911 387.264C303.335 386.573 303.755 385.89 304.531 385.644Z" fill="#050E12"/>
<path d="M340.802 403.458H282.835C282.296 403.458 281.859 403.894 281.859 404.433V405.721C281.859 406.26 282.296 406.697 282.835 406.697H340.802C341.34 406.697 341.777 406.26 341.777 405.721V404.433C341.777 403.894 341.34 403.458 340.802 403.458Z" fill="#050E12"/>
<path d="M340.563 403.863H283.216C282.992 403.863 282.811 403.681 282.811 403.458C282.811 403.235 282.992 403.053 283.216 403.053H340.563C340.786 403.053 340.968 403.235 340.968 403.458C340.968 403.681 340.786 403.863 340.563 403.863Z" fill="white"/>
<path d="M313.873 392.265C313.781 392.265 313.689 392.248 313.6 392.212C313.33 392.104 313.151 391.845 313.144 391.555C313.111 390.265 312.927 378.89 316.462 376.779C317.079 376.411 318.102 376.133 319.467 376.914C320.609 377.567 321.27 378.523 321.431 379.757C322.042 384.443 314.698 391.747 314.385 392.055C314.246 392.193 314.061 392.265 313.873 392.265ZM317.775 377.871C317.524 377.871 317.344 377.95 317.21 378.031C315.355 379.139 314.66 385.184 314.594 389.719C316.907 387.157 320.342 382.683 319.984 379.945C319.884 379.177 319.478 378.6 318.744 378.18C318.337 377.948 318.022 377.871 317.775 377.871Z" fill="#050E12"/>
<path d="M314.197 393.445C313.937 393.445 313.694 393.307 313.563 393.078C313.419 392.825 313.439 392.511 313.613 392.279C314.387 391.246 321.31 382.201 325.38 382.746C326.093 382.839 327.067 383.257 327.654 384.716C328.145 385.936 328.07 387.096 327.431 388.164C325.003 392.218 314.713 393.393 314.276 393.441C314.25 393.444 314.223 393.445 314.197 393.445ZM324.984 384.179C322.782 384.179 318.664 388.331 315.889 391.739C319.292 391.164 324.762 389.783 326.18 387.414C326.577 386.75 326.617 386.045 326.301 385.261C325.95 384.387 325.499 384.232 325.191 384.192C325.124 384.183 325.054 384.179 324.984 384.179Z" fill="#050E12"/>
<path d="M277.229 365.47L260.391 400.433C257.147 402.447 253.169 402.345 250.641 400.313C247.287 397.617 246.731 391.72 250.393 387.667C255.326 374.817 260.259 361.966 265.192 349.115L277.229 365.47Z" fill="white"/>
<path d="M255.388 402.611C253.464 402.611 251.617 402.032 250.184 400.881C248.468 399.502 247.373 397.316 247.18 394.884C246.962 392.155 247.902 389.392 249.76 387.281L264.511 348.854C264.606 348.605 264.83 348.428 265.094 348.392C265.358 348.359 265.621 348.467 265.779 348.683L277.817 365.038C277.977 365.255 278.004 365.543 277.886 365.787L261.048 400.749C260.987 400.874 260.893 400.98 260.775 401.052C259.1 402.093 257.208 402.611 255.388 402.611ZM265.395 350.621L251.075 387.928C251.042 388.012 250.995 388.089 250.935 388.156C249.283 389.983 248.444 392.394 248.634 394.768C248.795 396.802 249.693 398.615 251.098 399.744C253.366 401.568 256.929 401.63 259.828 399.921L276.382 365.549L265.395 350.621Z" fill="#050E12"/>
<path d="M264.856 385.644C266.724 385.052 268.658 387.629 271.334 389.693C273.104 391.058 275.917 392.753 280.24 393.741C286.018 394.931 291.797 396.121 297.575 397.311C298.026 397.468 299.305 397.976 300.268 399.329C300.919 400.243 301.292 401.356 301.292 402.534V405.077H242.994L248.779 387.946C250.216 387.672 251.25 387.868 251.901 388.073C255.24 389.129 255.585 392.707 259.188 393.741C260.012 393.978 260.946 394.226 261.617 393.741C262.963 392.769 261.513 390.071 263.237 387.264C263.661 386.573 264.08 385.89 264.856 385.644Z" fill="#050E12"/>
<path d="M301.127 403.458H243.16C242.621 403.458 242.185 403.894 242.185 404.433V405.721C242.185 406.26 242.621 406.697 243.16 406.697H301.127C301.666 406.697 302.102 406.26 302.102 405.721V404.433C302.102 403.894 301.666 403.458 301.127 403.458Z" fill="#050E12"/>
<path d="M300.888 403.863H243.541C243.318 403.863 243.136 403.681 243.136 403.458C243.136 403.235 243.318 403.053 243.541 403.053H300.888C301.111 403.053 301.293 403.235 301.293 403.458C301.293 403.681 301.111 403.863 300.888 403.863Z" fill="white"/>
<path d="M274.198 392.265C274.106 392.265 274.014 392.248 273.925 392.212C273.656 392.104 273.477 391.845 273.469 391.555C273.436 390.265 273.253 378.89 276.787 376.779C277.404 376.411 278.428 376.133 279.792 376.914C280.934 377.567 281.595 378.523 281.756 379.757C282.367 384.443 275.023 391.747 274.711 392.055C274.572 392.193 274.386 392.265 274.198 392.265ZM278.101 377.871C277.85 377.871 277.669 377.95 277.535 378.031C275.68 379.139 274.985 385.184 274.919 389.719C277.232 387.157 280.667 382.683 280.309 379.945C280.209 379.177 279.803 378.6 279.069 378.18C278.663 377.948 278.347 377.871 278.101 377.871Z" fill="#050E12"/>
<path d="M274.522 393.445C274.262 393.445 274.019 393.307 273.889 393.078C273.744 392.825 273.764 392.511 273.938 392.279C274.712 391.246 281.64 382.201 285.705 382.746C286.419 382.839 287.392 383.257 287.98 384.716C288.47 385.936 288.395 387.096 287.756 388.164C285.328 392.218 275.038 393.393 274.601 393.441C274.575 393.444 274.548 393.445 274.522 393.445ZM285.309 384.179C283.107 384.179 278.989 388.331 276.214 391.739C279.617 391.164 285.087 389.783 286.505 387.414C286.903 386.75 286.942 386.045 286.626 385.261C286.275 384.387 285.824 384.232 285.516 384.192C285.449 384.183 285.38 384.179 285.309 384.179Z" fill="#050E12"/>
<path d="M301.697 402.648C301.528 402.648 301.37 402.541 301.313 402.371C301.305 402.348 300.516 400.017 299.151 398.696C298.034 397.613 291.483 396.361 289.054 395.969C288.833 395.934 288.683 395.726 288.719 395.505C288.754 395.284 288.964 395.135 289.182 395.17C290.103 395.318 298.212 396.659 299.714 398.114C301.223 399.576 302.047 402.012 302.082 402.115C302.152 402.328 302.038 402.557 301.825 402.627C301.783 402.642 301.74 402.648 301.697 402.648Z" fill="white"/>
<path d="M254.821 273.052C251.822 288.503 248.83 303.955 245.824 319.406H260.573C263.579 303.955 266.571 288.503 269.57 273.052H254.821Z" fill="#050E12"/>
<path d="M294.388 207.553C296.789 208.194 300.364 209.521 303.423 212.526C311.349 220.313 309.804 233.469 308.451 244.988C307.823 250.342 306.431 258.152 302.988 267.293C302.32 267.903 299.103 270.754 296.784 269.719C296.198 269.458 295.835 269.022 294.954 267.738C293.325 265.365 291.886 262.952 291.638 262.42C290.201 259.344 290.433 237.448 294.388 207.553Z" fill="#D1E2DC"/>
<path d="M300.853 253.767C302.781 253.69 307.127 253.675 318.028 257.531C321.574 258.786 326.424 260.665 332.061 263.38C331.023 267.121 329.944 270.9 328.822 274.716C328.02 277.443 327.21 280.142 326.393 282.813C322.956 282.416 318.106 281.722 312.373 280.433C302.167 278.138 296.967 276.927 293.28 272.86C289.641 268.846 286.685 261.832 289.422 257.615C291.681 254.134 296.936 253.924 300.853 253.767Z" fill="#D1E2DC"/>
<path d="M330.316 261.341C329.96 261.191 329.24 260.939 328.421 261.09C324.628 261.786 323.633 270.189 323.253 273.398C322.641 278.564 323.612 280.247 324.611 281.001C324.844 281.177 325.061 281.289 325.213 281.358L325.227 281.359L325.241 281.361C327.23 281.548 329.161 280.681 330.368 279.09C331.696 277.34 333.127 274.847 333.815 271.622C334.283 269.424 334.591 268.142 334.18 266.484C333.463 263.593 331.209 261.93 330.316 261.341Z" fill="#050E12"/>
<path d="M339.891 275.216C339.891 275.216 338.107 278.152 338.279 282.277C338.452 286.402 334.097 292.465 336.457 291.889C338.816 291.314 341.79 286.421 344.745 284.867C347.7 283.313 339.891 275.216 339.891 275.216Z" fill="white"/>
<path d="M336.178 292.656C335.741 292.656 335.47 292.468 335.311 292.286C334.688 291.57 335.17 290.349 335.968 288.327C336.707 286.456 337.626 284.129 337.55 282.307C337.371 278.011 339.19 274.965 339.267 274.837C339.385 274.644 339.585 274.516 339.811 274.491C340.029 274.469 340.259 274.547 340.416 274.71C341.447 275.779 346.567 281.255 346.111 284.084C346.009 284.719 345.654 285.213 345.085 285.513C343.788 286.194 342.432 287.631 341.12 289.021C339.556 290.679 338.078 292.244 336.63 292.597C336.462 292.638 336.312 292.656 336.178 292.656ZM340.078 276.484C339.597 277.605 338.901 279.693 339.007 282.246C339.097 284.376 338.114 286.864 337.325 288.863C337.033 289.602 336.657 290.553 336.527 291.102C337.527 290.703 338.813 289.341 340.059 288.021C341.453 286.543 342.895 285.016 344.406 284.221C344.568 284.136 344.642 284.033 344.671 283.853C344.897 282.452 342.314 278.95 340.078 276.484Z" fill="#050E12"/>
<path d="M346.435 269.29C340.709 267.4 334.982 265.509 329.255 263.619C329.255 263.619 325.988 270.554 328.416 277.955L339.214 278.084C341.621 275.153 344.028 272.221 346.435 269.29Z" fill="white"/>
<path d="M339.214 278.833H339.205L328.407 278.703C328.087 278.7 327.804 278.493 327.704 278.188C325.212 270.592 328.439 263.594 328.578 263.3C328.739 262.957 329.129 262.789 329.49 262.908L346.67 268.579C346.905 268.656 347.086 268.844 347.155 269.081C347.223 269.319 347.171 269.575 347.014 269.766L339.793 278.56C339.65 278.732 339.438 278.833 339.214 278.833ZM328.97 277.212L338.864 277.331L345.163 269.659L329.681 264.549C329.01 266.307 327.331 271.61 328.97 277.212Z" fill="#050E12"/>
<path d="M358.176 292.02L355.001 279.965L354.577 280.086C354.689 280.016 354.802 279.945 354.914 279.875C354.359 278.21 353.804 276.544 353.248 274.878C351.159 272.927 349.07 270.976 346.981 269.025C344.157 270.311 341.332 271.597 338.507 272.883C339.534 277.99 340.562 283.097 341.589 288.203L341.599 288.197L343.99 299.99C344.116 300.608 344.528 301.168 345.134 301.367C346.156 301.703 346.666 300.696 346.666 300.696L345.822 289.036L346.666 288.203L350.563 299.734C350.824 300.504 351.636 300.995 352.436 300.799C353.779 300.47 354.265 299.03 354.265 299.03L354.316 299.054C355.537 299.627 356.867 298.449 356.518 297.16L353.421 285.705C354.208 288.195 354.389 288.343 355.11 290.702C355.709 292.665 355.937 293.718 356.798 294.033C356.895 294.068 357.292 294.208 357.643 294.033C358.144 293.784 358.37 292.986 358.176 292.02Z" fill="white"/>
<path d="M345.547 302.168C345.347 302.168 345.134 302.134 344.906 302.06C344.087 301.791 343.462 301.053 343.276 300.134L340.91 288.469C340.895 288.43 340.882 288.39 340.874 288.348L338.634 277.289C338.46 276.398 338.2 274.1 339.535 271.908C340.971 269.55 343.702 268.174 346.671 268.319C346.807 268.326 346.939 268.371 347.052 268.449C349.352 270.051 351.321 272.02 352.902 274.3C354.062 275.971 354.998 277.794 355.687 279.719L358.881 291.834C358.885 291.848 358.888 291.863 358.891 291.876C359.152 293.174 358.789 294.277 357.967 294.686C357.575 294.881 357.1 294.899 356.619 294.743L357.222 296.971C357.462 297.857 357.168 298.782 356.453 299.382C355.934 299.817 355.283 299.997 354.647 299.908C354.31 300.475 353.672 301.247 352.609 301.507C351.461 301.787 350.259 301.112 349.873 299.967L346.656 290.45L347.394 300.643C347.403 300.775 347.377 300.907 347.317 301.026C347.091 301.471 346.471 302.167 345.547 302.168ZM342.278 287.931C342.293 287.97 342.306 288.01 342.314 288.052L344.705 299.845C344.786 300.244 345.043 300.57 345.361 300.674C345.626 300.759 345.811 300.633 345.921 300.502L345.095 289.089C345.079 288.876 345.158 288.667 345.31 288.517L346.154 287.684C346.333 287.508 346.59 287.434 346.835 287.494C347.079 287.552 347.277 287.732 347.357 287.969L351.254 299.5C351.398 299.926 351.846 300.192 352.262 300.09C353.191 299.864 353.571 298.807 353.575 298.796C353.641 298.598 353.79 298.439 353.982 298.358C354.174 298.278 354.393 298.283 354.581 298.372C355.051 298.594 355.39 298.37 355.515 298.265C355.731 298.085 355.922 297.75 355.814 297.351L352.717 285.895C352.613 285.512 352.835 285.116 353.216 285.005C353.599 284.894 353.997 285.107 354.116 285.485C354.49 286.668 354.723 287.309 354.949 287.929C355.195 288.606 355.428 289.246 355.807 290.489L355.984 291.073C356.413 292.503 356.638 293.198 357.049 293.349C357.205 293.405 357.298 293.39 357.318 293.38C357.421 293.329 357.607 292.913 357.465 292.184L354.295 280.15C353.668 278.406 352.79 276.697 351.704 275.131C350.262 273.052 348.475 271.249 346.393 269.769C344.015 269.729 341.906 270.819 340.781 272.667C339.711 274.422 339.923 276.285 340.064 277.004L342.278 287.931Z" fill="#050E12"/>
<path d="M346.911 333.346V334.86H346.635L346.911 333.346Z" fill="#D1E2DC"/>
<path d="M353.291 305.994C341.34 329.152 329.381 352.293 317.429 375.442L317.049 375.329C299.122 380.641 292.175 375.045 290.985 373.904C299.551 354.876 308.11 335.848 316.676 316.82L267.293 316.448C255.949 316.359 246.961 307.112 246.961 295.995C246.961 295.379 246.986 294.772 247.042 294.149C247.844 291.59 248.637 289.039 249.439 286.481C252.654 276.197 263.277 270.157 273.754 272.659C279.949 274.141 286.167 275.639 292.386 277.145C301.43 279.331 310.442 281.533 319.421 283.744C328.004 285.857 336.959 288.084 346.263 290.408C350.506 291.274 353.825 294.319 354.732 298.197C355.647 302.116 353.728 305.306 353.291 305.994Z" fill="#4F76C6"/>
<path d="M315.673 307.622C315.632 307.703 315.592 307.784 315.551 307.873C315.43 308.092 315.324 308.278 315.235 308.424C303.203 331.727 291.163 355.03 279.139 378.325C263.415 383.483 255.488 379.539 252.516 377.256C261.22 357.92 269.917 338.585 278.621 319.249L225.156 318.844C215.893 318.771 208.558 311.217 208.558 302.14C208.558 301.646 208.582 301.144 208.622 300.642C208.865 297.938 209.392 295.274 210.201 292.683C210.736 290.991 211.262 289.298 211.788 287.614C214.776 278.06 224.638 272.449 234.371 274.772C241.01 276.359 247.666 277.963 254.33 279.574C263.374 281.76 272.386 283.963 281.366 286.173C284.362 286.91 287.406 287.663 290.491 288.432C296.24 289.849 302.143 291.323 308.207 292.837C310.167 293.355 311.891 294.294 313.284 295.517C313.3 295.525 313.308 295.533 313.324 295.549C315.09 297.128 316.296 299.177 316.677 301.436C317.122 304.092 316.312 306.343 315.673 307.622Z" fill="#4F76C6"/>
<path d="M413.031 282.003H311.818C312.628 285.509 313.438 289.023 314.247 292.529C330.306 292.392 346.365 292.256 362.424 292.119C378.484 292.256 394.543 292.392 410.602 292.529C411.411 289.023 412.221 285.509 413.031 282.003Z" fill="#050E12"/>
<path d="M316.022 405.604C315.956 405.604 315.888 405.597 315.821 405.582C315.318 405.471 315.001 404.974 315.112 404.471L340.058 291.518C340.168 291.016 340.664 290.695 341.168 290.81C341.671 290.92 341.988 291.418 341.877 291.921L316.932 404.874C316.835 405.308 316.45 405.604 316.022 405.604Z" fill="#050E12"/>
<path d="M409.791 405.604C409.363 405.604 408.978 405.308 408.882 404.874L383.936 291.921C383.825 291.418 384.142 290.92 384.645 290.81C385.147 290.695 385.644 291.016 385.756 291.518L410.701 404.471C410.813 404.974 410.495 405.471 409.993 405.582C409.925 405.597 409.857 405.604 409.791 405.604Z" fill="#050E12"/>
<path d="M393.809 338.303H332.004C331.508 338.303 331.105 337.901 331.105 337.405C331.105 336.908 331.508 336.506 332.004 336.506H393.809C394.306 336.506 394.708 336.908 394.708 337.405C394.708 337.901 394.306 338.303 393.809 338.303Z" fill="#050E12"/>
<path d="M344.965 405.571C344.95 405.571 344.935 405.57 344.919 405.57C344.423 405.545 344.042 405.122 344.067 404.627L349.787 291.674C349.812 291.179 350.219 290.807 350.73 290.822C351.225 290.847 351.606 291.269 351.581 291.765L345.862 404.718C345.837 405.198 345.441 405.571 344.965 405.571Z" fill="#050E12"/>
<path d="M381.451 405.571C380.976 405.571 380.579 405.198 380.555 404.718L374.835 291.765C374.81 291.269 375.191 290.847 375.687 290.822C376.19 290.798 376.605 291.178 376.63 291.674L382.349 404.627C382.374 405.122 381.993 405.545 381.498 405.57C381.482 405.57 381.467 405.571 381.451 405.571Z" fill="#050E12"/>
<path d="M410.601 289.956H313.467C313.02 289.956 312.657 289.594 312.657 289.146C312.657 288.699 313.02 288.337 313.467 288.337H410.601C411.048 288.337 411.411 288.699 411.411 289.146C411.411 289.594 411.048 289.956 410.601 289.956Z" fill="white"/>
<path d="M279.141 379.136C278.932 379.136 278.723 379.058 278.565 378.899C278.288 378.621 278.248 378.198 278.451 377.882L279.248 376.343C279.538 375.787 279.837 375.205 280.153 374.591C289.582 356.391 310.463 316.05 314.823 307.501C314.851 307.436 314.897 307.344 314.943 307.254C314.986 307.176 314.998 307.151 315.01 307.127C315.032 307.08 315.054 307.035 315.078 306.992C317.001 303.192 316.53 299.803 313.662 296.946C313.399 296.682 313.123 296.435 312.841 296.209L312.771 296.154C311.423 295.069 309.808 294.28 307.97 293.806L266.019 282.924C265.582 282.811 265.319 282.364 265.433 281.927C265.547 281.49 265.993 281.232 266.429 281.341L308.38 292.223C310.411 292.747 312.21 293.622 313.726 294.824L313.853 294.925C314.186 295.191 314.511 295.481 314.818 295.79C317.171 298.134 319.379 302.116 316.523 307.756L316.481 307.839C316.449 307.906 316.415 307.973 316.374 308.041C316.367 308.061 316.331 308.132 316.296 308.21C311.917 316.797 291.035 357.142 281.606 375.341C281.291 375.955 280.99 376.539 280.698 377.099L279.815 378.805L279.725 378.895C279.564 379.056 279.352 379.136 279.141 379.136Z" fill="#050E12"/>
<path d="M276.597 320.472C276.333 320.472 276.074 320.344 275.916 320.108C275.666 319.732 275.767 319.224 276.143 318.974L285.859 312.496C286.236 312.246 286.743 312.347 286.993 312.723C287.243 313.098 287.142 313.606 286.766 313.856L277.05 320.334C276.91 320.427 276.752 320.472 276.597 320.472Z" fill="#050E12"/>
<path d="M314.653 318.043C314.389 318.043 314.13 317.915 313.972 317.678C313.722 317.303 313.824 316.795 314.199 316.545L323.915 310.067C324.292 309.817 324.798 309.918 325.049 310.294C325.299 310.669 325.197 311.177 324.822 311.427L315.106 317.905C314.966 317.998 314.809 318.043 314.653 318.043Z" fill="#050E12"/>
<path d="M287.528 274.716C285.294 275.84 281.67 277.483 277.002 278.764C262.774 282.668 250.259 280.074 240.565 277.954C236.626 277.093 230.99 275.635 224.371 273.096C226.39 265.487 229.722 253.069 234.087 237.47C239.042 219.767 241.851 210.391 250.281 201.843C253.704 198.373 257.473 194.652 263.237 193.746C268.665 192.892 274.555 196.015 286.546 201.357C292.7 204.098 295.777 205.469 297.312 207.283C302.35 213.237 300.025 222.015 295.062 242.734C293.7 248.42 291.047 259.547 287.528 274.716Z" fill="#D1E2DC"/>
<path d="M287.596 275.748C287.526 275.748 287.455 275.74 287.384 275.722C286.92 275.605 286.639 275.135 286.756 274.671L299.89 222.515C300.006 222.052 300.474 221.771 300.941 221.887C301.404 222.004 301.685 222.474 301.569 222.938L288.434 275.094C288.336 275.486 287.983 275.748 287.596 275.748Z" fill="#050E12"/>
<path d="M293.176 199.702C293.176 199.702 294.166 200.07 293.711 205.78C293.711 205.78 292.348 208.717 285.416 203.426C278.483 198.135 274.671 193.712 274.671 193.712L282.108 192.659L293.176 199.702Z" fill="#050E12"/>
<path d="M288.102 205.854C288.932 204.684 289.441 203.661 289.75 202.951C290.364 201.54 290.525 200.592 291.398 200.048C292.017 199.662 292.711 199.655 293.175 199.702C291.245 197.818 287.825 194.954 282.813 192.931C277.304 190.707 272.425 190.529 269.645 190.632C268.401 193.088 267.158 195.543 265.914 197.999C268.812 199.345 271.976 200.681 275.402 201.94C279.912 203.599 284.178 204.871 288.102 205.854Z" fill="#D1E2DC"/>
<path d="M312.008 174.55C311.655 174.55 311.341 174.3 311.273 173.941C311.196 173.535 311.463 173.143 311.87 173.067C312.174 173.009 312.496 172.935 312.831 172.841C313.542 172.641 314.238 172.37 314.9 172.035C315.271 171.849 315.719 171.996 315.906 172.364C316.093 172.733 315.945 173.184 315.576 173.37C314.827 173.749 314.041 174.056 313.236 174.282C312.881 174.382 312.514 174.468 312.147 174.537C312.1 174.546 312.054 174.55 312.008 174.55Z" fill="#050E12"/>
<path d="M313.468 180.912C313.452 180.912 313.436 180.911 313.42 180.91C312.58 180.857 311.746 180.723 310.94 180.511C310.581 180.417 310.222 180.306 309.872 180.181C309.483 180.042 309.28 179.614 309.42 179.225C309.559 178.836 309.987 178.633 310.377 178.772C310.669 178.876 310.984 178.975 311.32 179.064C312.032 179.251 312.771 179.37 313.514 179.416C313.927 179.442 314.24 179.798 314.213 180.21C314.189 180.607 313.86 180.912 313.468 180.912Z" fill="#050E12"/>
<path d="M277.819 177.219C275.907 180.772 274.001 184.431 272.107 188.194C270.76 190.872 269.46 193.523 268.204 196.144C268.309 197.402 268.712 199.798 270.5 201.844C273.288 205.035 278.277 206.043 283.093 204.369L289.848 183.887L277.819 177.219Z" fill="white"/>
<path d="M278.442 205.925C275.067 205.925 271.983 204.678 269.937 202.337C268.14 200.281 267.597 197.868 267.458 196.206L267.442 196.004L267.53 195.821C268.8 193.167 270.116 190.487 271.439 187.857C273.285 184.188 275.21 180.49 277.16 176.864L277.519 176.196L290.752 183.533L283.688 204.954L283.339 205.076C281.694 205.647 280.036 205.925 278.442 205.925ZM268.969 196.281C269.115 197.708 269.604 199.681 271.063 201.352C273.606 204.261 278.064 205.195 282.5 203.778L288.943 184.24L278.119 178.241C276.299 181.64 274.503 185.098 272.776 188.53C271.488 191.09 270.208 193.697 268.969 196.281Z" fill="#050E12"/>
<path d="M304.037 165.718C303.985 168.999 303.632 173.327 302.401 178.268C302.106 179.447 301.792 180.522 301.462 181.544C300.309 185.115 299.054 187.908 298.178 189.663C297.958 190.104 297.743 190.53 297.541 190.935C297.542 190.942 297.535 190.943 297.535 190.95C293.354 198.303 290.491 198.847 289.623 198.952C289.038 199.023 288.468 198.996 287.894 198.879C284.747 197.874 282.429 196.505 280.911 195.449C278.855 194.016 277.286 192.924 276.165 190.868C275.069 188.859 275.008 187.044 274.936 183.7C274.872 180.742 275.122 178.11 275.546 175.465C276.676 168.421 277.359 164.163 280.867 161.097C281.122 160.874 282.505 159.696 284.392 158.953C292.875 155.614 303.259 164.995 304.037 165.718Z" fill="white"/>
<path d="M288.983 199.74C288.572 199.74 288.163 199.697 287.745 199.612C285.9 199.26 284.055 198.119 281.502 196.54C278.712 194.814 276.732 193.589 275.501 191.212L275.448 191.108C275.418 191.048 275.387 190.987 275.358 190.923C274.684 189.511 274.533 187.48 274.26 183.794C274.085 181.418 274.013 179.455 273.984 178.226C273.974 177.813 274.301 177.47 274.714 177.46L274.732 177.46C275.137 177.46 275.47 177.783 275.48 178.19C275.509 179.402 275.58 181.338 275.753 183.684C276.012 187.189 276.155 189.12 276.717 190.295L276.84 190.546C277.871 192.533 279.61 193.609 282.241 195.237C284.706 196.762 286.453 197.842 288.034 198.144C288.549 198.248 289.037 198.27 289.534 198.209C291.592 197.96 294.158 195.322 296.774 190.775L296.787 190.661L296.924 190.508C299.934 185.178 301.943 179.194 302.894 172.719C302.954 172.311 303.332 172.027 303.743 172.088C304.152 172.148 304.435 172.528 304.375 172.937C303.405 179.535 301.365 185.643 298.31 191.097L298.319 191.192L298.152 191.38C295.186 196.577 292.348 199.375 289.713 199.695C289.469 199.725 289.225 199.74 288.983 199.74Z" fill="#050E12"/>
<path d="M294.944 186.322C294.2 186.322 293.191 186.078 291.841 185.586C291.453 185.444 291.252 185.015 291.394 184.626C291.536 184.238 291.964 184.038 292.354 184.18C294.119 184.823 294.835 184.85 295.088 184.822C295.081 184.768 295.072 184.709 295.064 184.659C295.005 184.283 294.916 183.714 295.071 182.972C295.209 182.316 295.457 181.918 295.657 181.598C295.744 181.458 295.833 181.319 295.91 181.148C296.262 180.364 296.131 179.299 295.52 177.984C295.346 177.609 295.509 177.164 295.884 176.99C296.262 176.816 296.705 176.98 296.878 177.354C297.68 179.08 297.813 180.563 297.275 181.761C297.162 182.012 297.037 182.213 296.927 182.39C296.755 182.665 296.619 182.883 296.537 183.279C296.437 183.753 296.491 184.096 296.543 184.428C296.608 184.844 296.689 185.362 296.288 185.819C295.995 186.154 295.561 186.322 294.944 186.322Z" fill="#050E12"/>
<path d="M300.567 178.486C300.353 179.469 299.731 180.161 299.186 180.035C298.639 179.916 298.384 179.022 298.599 178.039C298.623 177.92 298.654 177.811 298.7 177.706C299.032 177.689 299.387 177.654 299.752 177.579C300.054 177.52 300.345 177.441 300.605 177.354C300.665 177.681 300.657 178.074 300.567 178.486Z" fill="#050E12"/>
<path d="M298.444 178.317C297.374 178.317 296.282 178.091 295.262 177.659C294.953 177.528 294.81 177.173 294.94 176.864C295.071 176.556 295.426 176.413 295.735 176.543C296.684 176.945 297.696 177.134 298.677 177.1C299.021 177.083 299.335 177.045 299.631 176.985C299.897 176.933 300.165 176.863 300.411 176.779C300.762 176.663 301.109 176.51 301.475 176.312C301.77 176.153 302.137 176.261 302.297 176.555C302.457 176.85 302.347 177.218 302.053 177.377C301.624 177.61 301.213 177.79 300.796 177.929C300.502 178.028 300.18 178.113 299.868 178.174C299.517 178.246 299.143 178.291 298.731 178.311C298.635 178.315 298.54 178.317 298.444 178.317Z" fill="#050E12"/>
<path d="M291.769 176.879C291.555 177.861 290.933 178.554 290.388 178.427C289.842 178.309 289.586 177.414 289.801 176.432C289.834 176.281 289.873 176.141 289.934 176.015C290.638 175.992 291.265 175.881 291.805 175.754C291.873 176.084 291.857 176.474 291.769 176.879Z" fill="#050E12"/>
<path d="M291.974 190.302C290.766 190.302 288.534 189.787 286.246 186.614C286.005 186.279 286.081 185.811 286.416 185.569C286.75 185.328 287.219 185.403 287.46 185.739C290.091 189.388 292.345 188.785 292.439 188.758C292.833 188.644 293.249 188.865 293.369 189.254C293.489 189.644 293.281 190.057 292.893 190.184C292.852 190.198 292.516 190.302 291.974 190.302Z" fill="#050E12"/>
<path d="M297.741 168.194C298.167 168.734 300.663 171.797 304.328 171.708C305.104 171.689 306.94 171.645 308.099 170.236C309.325 168.747 309.123 166.479 308.264 165.197C307.373 163.867 305.718 163.69 305.718 163.69C305.842 163.479 306.964 161.496 306.101 159.679C305.198 157.775 302.452 156.753 299.783 157.836C300.026 155.286 298.652 152.874 296.405 151.854C294.418 150.95 292.046 151.272 290.294 152.674C289.743 150.808 287.827 149.692 285.985 150.113C284.227 150.515 283.003 152.211 283.185 154.058C281.747 152.951 279.829 152.745 278.288 153.535C276.463 154.472 275.479 156.645 275.988 158.779C274.083 158.493 272.205 159.295 271.219 160.814C270.017 162.668 270.344 165.285 272.106 166.951C272.106 166.951 266.363 166.186 268.96 171.952C268.795 172.256 267.198 175.325 268.784 178.626C270.443 182.079 274.084 182.662 274.373 182.703C275.496 182.139 277.049 181.198 278.579 179.671C279.826 178.426 280.668 177.18 281.224 176.205C283.205 173.114 285.186 170.023 287.166 166.932C288.049 169.378 290.306 171.006 292.756 171.009C295.876 171.013 297.625 168.377 297.741 168.194Z" fill="#050E12"/>
<path d="M280.922 175.484C280.822 175.174 280.397 173.969 279.139 173.252C278.87 173.099 277.722 172.445 276.589 172.83C274.998 173.371 274.337 175.659 274.607 177.349C275.032 179.998 277.731 181.098 277.893 181.161C279.473 181.112 280.847 180.152 281.353 178.762C281.954 177.107 281.031 175.65 280.922 175.484Z" fill="white"/>
<path d="M276.456 178.989C276.178 178.989 275.912 178.834 275.782 178.568C275.446 177.878 275.406 177.092 275.674 176.412C275.899 175.84 276.324 175.399 276.838 175.201C277.587 174.913 278.507 175.147 279.183 175.792C279.482 176.078 279.493 176.551 279.208 176.85C278.922 177.149 278.447 177.159 278.15 176.875C277.868 176.606 277.548 176.532 277.374 176.598C277.254 176.644 277.136 176.783 277.067 176.96C276.952 177.251 276.974 177.598 277.127 177.912C277.309 178.283 277.154 178.731 276.783 178.913C276.677 178.964 276.565 178.989 276.456 178.989Z" fill="#050E12"/>
<path d="M289.465 176.632C288.527 176.632 287.589 176.504 286.675 176.249C286.353 176.16 286.164 175.826 286.253 175.503C286.343 175.181 286.673 174.991 287 175.082C287.949 175.346 288.928 175.46 289.905 175.409C290.47 175.391 291.043 175.311 291.666 175.164C292.752 174.909 293.426 174.537 293.433 174.534C293.724 174.372 294.094 174.475 294.257 174.766C294.421 175.057 294.318 175.426 294.027 175.59C293.995 175.609 293.209 176.047 291.944 176.344C291.241 176.509 290.59 176.6 289.953 176.621C289.791 176.628 289.628 176.632 289.465 176.632Z" fill="#050E12"/>
<path d="M282.634 219.461C283.131 217.235 283.57 214.265 283.478 210.766C283.391 207.471 282.86 204.681 282.295 202.557C282.295 202.557 271.68 195.401 269.645 190.632L262.496 195.811C264.272 198.848 266.433 202.13 269.061 205.505C273.675 211.432 278.452 216.01 282.634 219.461Z" fill="#D1E2DC"/>
<path d="M272.015 212.4L271.718 212.157C268.901 209.852 266.47 207.149 264.49 204.124C262.986 201.825 261.75 199.344 260.815 196.75C260.661 196.325 260.881 195.857 261.306 195.704C261.73 195.553 262.199 195.771 262.352 196.195C263.244 198.67 264.424 201.036 265.859 203.229C267.673 206.003 269.888 208.494 272.445 210.636C275.51 209.786 278.125 205.908 279.406 204.007C279.854 203.344 280.433 202.936 281.083 202.827C282.228 202.634 283.428 203.388 284.646 205.069C284.911 205.435 284.83 205.946 284.464 206.211C284.099 206.475 283.587 206.394 283.323 206.029C282.409 204.769 281.719 204.379 281.354 204.439C281.16 204.472 280.949 204.643 280.761 204.921C279.307 207.079 276.28 211.57 272.392 212.327L272.015 212.4Z" fill="#050E12"/>
<path d="M269.568 273.048C266.621 288.48 263.665 303.921 260.71 319.346C260.661 319.581 260.621 319.824 260.572 320.059H188.266L188.104 319.346C185.149 305.654 182.185 291.962 179.23 278.27C178.623 275.469 178.015 272.659 177.408 269.857C182.606 270.036 187.805 270.214 193.003 270.4C218.525 271.283 244.046 272.165 269.568 273.048Z" fill="#050E12"/>
<path d="M245.828 320.464C245.591 320.464 245.365 320.36 245.211 320.179C245.052 319.992 244.987 319.744 245.032 319.503L253.755 273.507L193.637 273.857H193.632C193.258 273.857 192.933 273.602 192.845 273.239L178.645 214.584C178.54 214.149 178.807 213.712 179.242 213.606C179.676 213.502 180.114 213.768 180.22 214.203L194.268 272.234L254.729 271.882H254.734C254.975 271.882 255.202 271.988 255.356 272.173C255.511 272.359 255.575 272.604 255.53 272.842L246.811 318.818L260.785 318.439C261.236 318.431 261.605 318.78 261.617 319.227C261.628 319.674 261.276 320.046 260.829 320.058L245.85 320.464H245.828Z" fill="white"/>
<path d="M318.913 276.113L320.712 274.026H328.12L329.154 276.225L318.913 276.113Z" fill="#050E12"/>
<path d="M327.985 276.131L329.784 274.044H337.192L338.226 276.242L327.985 276.131Z" fill="#050E12"/>
<path d="M337.469 276.131L339.268 274.044H346.676L347.71 276.242L337.469 276.131Z" fill="#050E12"/>
<path d="M346.679 276.131L348.477 274.044H355.886L356.92 276.242L346.679 276.131Z" fill="#050E12"/>
<path d="M430.2 238.989L414.605 273.819C413.608 276.044 411.398 277.476 408.96 277.476H348.193C343.675 277.476 340.682 272.789 342.582 268.69L358.865 233.572C359.883 231.378 362.086 229.978 364.505 229.99L424.586 230.277C429.056 230.298 432.027 234.909 430.2 238.989Z" fill="#D1E2DC"/>
<path d="M345.821 268.69L362.104 233.572C363.091 231.443 365.197 230.074 367.53 230.004L364.505 229.99C362.086 229.978 359.883 231.378 358.865 233.572L342.582 268.69C340.682 272.789 343.675 277.476 348.193 277.476H351.432C346.913 277.476 343.92 272.789 345.821 268.69Z" fill="#050E12"/>
<path d="M409.676 274.852H318.601C316.69 274.852 315.141 276.401 315.141 278.312V278.623C315.141 280.534 316.69 282.083 318.601 282.083H409.676C411.587 282.083 413.136 280.534 413.136 278.623V278.312C413.136 276.401 411.587 274.852 409.676 274.852Z" fill="#D1E2DC"/>
<path d="M413.84 276.36C413.728 276.36 413.614 276.337 413.505 276.289C413.083 276.103 412.892 275.611 413.078 275.19L429.341 238.23C429.982 236.761 429.973 235.161 429.313 233.843C429.08 233.386 428.816 232.999 428.508 232.651C427.565 231.585 426.139 230.973 424.596 230.973H395.805C395.345 230.973 394.972 230.6 394.972 230.139C394.972 229.678 395.345 229.305 395.805 229.305H424.596C426.617 229.305 428.498 230.122 429.758 231.546C430.159 231.999 430.501 232.502 430.777 233.041C431.687 234.859 431.71 236.974 430.868 238.899L414.604 275.861C414.467 276.174 414.161 276.36 413.84 276.36Z" fill="#050E12"/>
<path d="M413.841 275.929H343.454C343.087 275.929 342.788 275.631 342.788 275.263C342.788 274.895 343.087 274.596 343.454 274.596H413.841C414.208 274.596 414.507 274.895 414.507 275.263C414.507 275.631 414.208 275.929 413.841 275.929Z" fill="#050E12"/>
<path d="M319.511 282.669H318.296C316.589 282.669 315.201 281.28 315.201 279.573V277.144C315.201 275.438 316.589 274.049 318.296 274.049C318.664 274.049 318.963 274.347 318.963 274.715C318.963 275.083 318.664 275.382 318.296 275.382C317.324 275.382 316.533 276.172 316.533 277.144V279.573C316.533 280.545 317.324 281.336 318.296 281.336H319.511C319.879 281.336 320.177 281.635 320.177 282.003C320.177 282.37 319.879 282.669 319.511 282.669Z" fill="#050E12"/>
<path d="M242.022 272.961C241.959 272.961 241.895 272.954 241.831 272.94C241.365 272.834 241.073 272.371 241.178 271.905L248.628 238.898C248.733 238.433 249.194 238.139 249.662 238.245C250.128 238.35 250.421 238.813 250.316 239.28L242.866 272.286C242.775 272.688 242.418 272.961 242.022 272.961Z" fill="#050E12"/>
<path d="M260.808 211.559C265.163 212.777 266.884 217.672 269.714 224.514C272.184 230.483 275.856 238.8 281.05 248.805C293.196 247.996 305.341 247.186 317.487 246.376C317.756 252.314 318.026 258.252 318.296 264.19C314.817 265.457 309.505 267.274 302.912 269.048C283.718 274.212 274.121 276.794 266.475 273.096C261.14 270.516 256.981 261.66 248.662 243.947C245.306 236.8 243.133 231.048 244.614 224.514C245.015 222.742 246.124 218.156 250.282 214.798C250.953 214.256 255.967 210.206 260.808 211.559Z" fill="#D1E2DC"/>
<path d="M280.542 249.659L266.858 219.802C266.67 219.391 266.85 218.906 267.26 218.718C267.671 218.531 268.155 218.71 268.344 219.121L281.558 247.953L314.598 245.749C315.054 245.713 315.438 246.061 315.468 246.511C315.498 246.961 315.157 247.351 314.707 247.381L280.542 249.659Z" fill="#050E12"/>
<path d="M270.354 275.042C268.985 275.042 267.862 274.932 267.05 274.689C258.676 272.177 247.565 245.398 247.097 244.258C246.924 243.841 247.124 243.363 247.541 243.192C247.958 243.018 248.436 243.219 248.608 243.636C251.721 251.193 261.185 271.222 267.52 273.123C275.298 275.454 316.412 263.969 316.826 263.852C317.26 263.73 317.712 263.983 317.835 264.418C317.956 264.853 317.702 265.304 317.268 265.427C315.726 265.859 282.854 275.042 270.354 275.042Z" fill="#050E12"/>
<path d="M276.192 256.958C275.714 256.958 275.326 256.57 275.326 256.092C275.326 252.551 279.967 248.582 280.496 248.141C280.864 247.834 281.408 247.886 281.714 248.251C282.021 248.618 281.971 249.164 281.604 249.47C280.339 250.526 277.057 253.774 277.057 256.092C277.057 256.57 276.669 256.958 276.192 256.958Z" fill="#050E12"/>
<path d="M315.057 246.376C313.989 246.529 312.449 246.916 311.009 247.996C306.883 251.087 306.554 257.626 308.58 261.761C308.93 262.476 310.515 265.71 313 265.842C314.065 265.898 314.896 265.364 315.238 265.138C319.52 262.308 320.323 252.215 315.867 247.186C315.52 246.794 315.21 246.511 315.057 246.376Z" fill="#050E12"/>
<path d="M339.343 246.741C338.655 246.93 337.963 247.119 337.275 247.308C339.105 248.149 346.021 251.409 346.772 253.833C346.853 254.085 347.056 254.746 346.772 255.137C346.386 255.677 345.302 255.412 344.393 255.137C344.263 255.097 344.119 255.052 343.975 255.007C344.807 255.722 345.428 256.442 345.621 257.103C345.693 257.355 345.887 258.011 345.621 258.407C345.257 258.946 344.241 258.681 343.391 258.407C342.136 258.002 340.243 257.256 337.819 255.794H337.814C338.642 257.053 339.474 258.308 340.31 259.563C340.333 260.75 339.923 262.414 337.414 262.234H337.409L335.318 260.3C334.986 259.994 334.536 259.859 334.091 259.927C333.191 260.062 332.728 260.053 332.305 260.197C330.974 260.646 328.294 260.426 324.211 260.516C323.176 260.538 322.043 260.583 320.824 260.664C319.583 260.745 318.778 260.831 317.523 260.79C317.447 260.79 317.371 260.786 317.294 260.781C316.849 260.759 316.408 260.727 316.174 260.709C316.138 260.705 316.107 260.7 316.071 260.7C315.936 260.682 315.801 260.669 315.671 260.655C315.45 260.633 315.252 260.606 315.077 260.579C314.331 260.48 313.71 260.354 313.233 260.251C313.148 260.165 313.062 260.08 312.977 259.994C312.667 259.684 312.388 259.378 312.131 259.081C310.18 256.828 309.667 254.931 309.887 253.379C309.887 253.357 309.892 253.334 309.896 253.312C309.901 253.294 309.901 253.28 309.905 253.262C309.923 253.163 309.941 253.064 309.964 252.97C309.977 252.902 309.991 252.839 310.009 252.776C310.018 252.741 310.027 252.705 310.04 252.669C310.895 249.817 314.182 248.342 314.438 248.23C314.452 248.23 314.456 248.225 314.456 248.225C317.838 247.474 321.22 246.723 324.602 245.972C324.606 245.977 324.606 245.981 324.611 245.986C343.314 241.745 347.991 241.718 348.243 242.73C348.378 243.27 347.33 244.344 346.759 244.817C345.999 245.446 345.248 245.689 342.716 246.166C341.803 246.337 340.661 246.539 339.343 246.741Z" fill="white"/>
<path d="M337.873 256.509C337.856 256.509 337.84 256.508 337.824 256.507L330.392 256.011C329.991 255.984 329.687 255.636 329.714 255.234C329.741 254.832 330.078 254.54 330.491 254.555L337.92 255.051C338.323 255.078 338.626 255.426 338.6 255.828C338.574 256.213 338.254 256.509 337.873 256.509Z" fill="#050E12"/>
<path d="M343.868 255.643C343.74 255.643 343.61 255.609 343.491 255.538L337.002 251.612C336.695 251.426 336.342 251.337 335.988 251.359L328.884 251.961C328.484 252.002 328.13 251.697 328.096 251.296C328.062 250.895 328.359 250.542 328.761 250.508L335.885 249.905C336.559 249.863 337.197 250.025 337.757 250.363L344.246 254.29C344.591 254.498 344.701 254.947 344.493 255.291C344.355 255.518 344.115 255.643 343.868 255.643Z" fill="#050E12"/>
<path d="M329.916 248.431C329.527 248.431 329.204 248.125 329.188 247.732C329.171 247.33 329.484 246.99 329.887 246.974L339.661 246.571C340.033 246.544 340.403 246.866 340.42 247.27C340.436 247.672 340.124 248.012 339.721 248.028L329.946 248.431C329.936 248.431 329.926 248.431 329.916 248.431Z" fill="#050E12"/>
<path d="M337.775 262.976C337.643 262.976 337.506 262.971 337.362 262.961C337.197 262.949 337.036 262.881 336.915 262.769L335.018 261.016C334.398 260.986 333.518 260.949 332.472 260.931L332.362 260.928C328.781 260.867 326.281 261.076 324.271 261.242L324.029 261.263C321.822 261.452 319.915 261.616 317.494 261.519C317.441 261.521 317.363 261.515 317.284 261.511C316.804 261.486 316.357 261.455 316.118 261.437C316.09 261.437 316.014 261.428 315.985 261.425L315.608 261.383C315.362 261.356 315.152 261.328 314.966 261.3C314.612 261.245 314.351 261.193 314.228 261.168C314.223 261.167 314.151 261.153 314.147 261.152C313.454 261 312.492 260.411 311.635 259.616C309.722 257.832 308.823 255.519 309.167 253.269C309.171 253.227 309.178 253.185 309.183 253.16C309.187 253.131 309.194 253.101 309.201 253.073C309.208 253.021 309.229 252.91 309.254 252.804C309.267 252.737 309.284 252.657 309.308 252.576C309.317 252.535 309.335 252.471 309.359 252.406C309.984 250.165 311.807 248.321 314.212 247.536C314.236 247.529 314.259 247.523 314.283 247.517L314.298 247.514L324.444 245.26C324.492 245.25 324.541 245.243 324.59 245.243C348.282 239.878 348.67 241.423 348.951 242.554C349.219 243.626 347.697 244.987 347.224 245.379C346.307 246.139 345.374 246.407 342.851 246.882C341.698 247.098 340.6 247.285 339.495 247.455L339.362 247.493C343.03 249.3 346.846 251.606 347.469 253.618C347.566 253.918 347.872 254.862 347.363 255.566C347.037 256.02 346.534 256.173 346.001 256.179C346.146 256.424 346.252 256.663 346.321 256.897C346.422 257.251 346.677 258.143 346.227 258.813C345.52 259.86 343.93 259.348 343.166 259.101C342.152 258.774 341.104 258.349 340.034 257.83C340.161 258.023 340.29 258.216 340.419 258.409C341.067 259.384 341.131 260.623 340.583 261.567C340.199 262.225 339.405 262.976 337.775 262.976ZM337.708 261.516C337.719 261.517 337.73 261.517 337.74 261.517C338.925 261.517 339.219 261.009 339.322 260.834C339.593 260.367 339.547 259.732 339.205 259.217C338.535 258.211 337.868 257.204 337.205 256.194C337.058 255.97 337.045 255.683 337.173 255.447C337.363 255.095 337.851 254.961 338.195 255.169C340.078 256.305 341.901 257.16 343.614 257.713C344.682 258.057 344.974 258.004 345.05 257.968H345.049C345.029 257.968 345.065 257.813 344.924 257.315C344.828 256.986 344.505 256.423 343.5 255.56C343.238 255.335 343.17 254.956 343.337 254.653C343.505 254.35 343.864 254.211 344.193 254.311L344.611 254.442C345.786 254.795 346.113 254.736 346.199 254.692C346.187 254.688 346.229 254.522 346.078 254.058C345.653 252.685 342.164 250.356 336.971 247.971C336.692 247.843 336.523 247.555 336.548 247.249C336.572 246.944 336.786 246.687 337.081 246.605L339.15 246.038C339.177 246.031 339.205 246.025 339.232 246.02C340.336 245.851 341.431 245.664 342.582 245.449C345.135 244.968 345.694 244.752 346.294 244.255C346.8 243.836 347.26 243.306 347.444 242.994C346.465 242.7 342.258 242.732 324.772 246.697C324.722 246.708 324.671 246.714 324.62 246.715L314.633 248.933C312.707 249.572 311.254 251.04 310.743 252.865L310.71 252.977C310.697 253.022 310.688 253.067 310.678 253.116C310.654 253.219 310.639 253.306 310.623 253.393C310.622 253.399 310.618 253.419 310.614 253.438C310.613 253.456 310.611 253.472 310.609 253.489C310.239 255.907 311.716 257.697 312.629 258.548C313.432 259.294 314.165 259.663 314.46 259.728C314.627 259.76 314.865 259.808 315.188 259.858C315.353 259.883 315.539 259.909 315.746 259.93L316.082 259.97L316.106 259.972C316.162 259.973 316.214 259.979 316.272 259.986C316.46 260 316.894 260.03 317.331 260.053C317.417 260.057 317.47 260.061 317.524 260.061C319.883 260.156 321.746 259.995 323.904 259.81L324.149 259.789C326.193 259.621 328.733 259.412 332.316 259.467L332.422 259.47L332.499 259.472C333.723 259.494 334.725 259.54 335.356 259.572C335.526 259.581 335.688 259.649 335.813 259.764L337.708 261.516Z" fill="#050E12"/>
<path d="M370.925 220.474C370.782 220.474 370.637 220.436 370.505 220.357C370.118 220.125 369.993 219.623 370.225 219.236L372.654 215.187C372.887 214.8 373.388 214.674 373.776 214.907C374.163 215.139 374.288 215.641 374.056 216.028L371.627 220.077C371.474 220.332 371.203 220.474 370.925 220.474Z" fill="#050E12"/>
<path d="M376.595 222.093C376.385 222.093 376.177 222.013 376.017 221.854C375.697 221.535 375.697 221.017 376.017 220.698L379.256 217.459C379.575 217.139 380.092 217.139 380.411 217.459C380.731 217.778 380.731 218.296 380.411 218.615L377.173 221.854C377.014 222.013 376.804 222.093 376.595 222.093Z" fill="#050E12"/>
<path d="M169.462 132.213C169.462 132.213 153.927 135.447 145.02 154.07C136.114 172.694 128.017 184.029 128.017 184.029C117.761 181.06 107.504 178.092 97.2482 175.123C94.8191 180.251 92.39 185.379 89.9609 190.507C105.267 211.679 129.483 221.599 147.449 215.608C171.799 207.488 188.714 168.793 169.462 132.213Z" fill="#F66F6F"/>
<path d="M170.673 122.492C170.673 122.492 169.62 122.581 168.527 128.205C168.527 128.205 169.053 131.399 177.15 128.16C185.247 124.921 190.105 121.683 190.105 121.683L183.223 118.674L170.673 122.492Z" fill="#050E12"/>
<path d="M119.661 355.686L104.277 391.312C104.88 395.082 107.563 398.021 110.754 398.6C114.988 399.367 119.808 395.925 120.471 390.503C126.948 378.357 133.426 366.212 139.904 354.066L119.661 355.686Z" fill="white"/>
<path d="M111.945 399.435C111.5 399.435 111.058 399.396 110.624 399.317C107.104 398.679 104.198 395.434 103.557 391.428C103.535 391.291 103.553 391.15 103.608 391.023L118.992 355.397C119.099 355.149 119.334 354.981 119.603 354.958L139.846 353.339C140.113 353.32 140.368 353.443 140.514 353.666C140.66 353.889 140.673 354.174 140.547 354.409L121.177 390.728C120.8 393.516 119.328 396.036 117.124 397.659C115.553 398.816 113.723 399.435 111.945 399.435ZM105.033 391.403C105.64 394.713 108.022 397.363 110.885 397.882C112.66 398.202 114.617 397.695 116.259 396.485C118.177 395.072 119.448 392.859 119.747 390.414C119.758 390.325 119.785 390.239 119.827 390.16L138.633 354.899L120.157 356.378L105.033 391.403Z" fill="#050E12"/>
<path d="M105.896 384.835C104.028 384.243 102.094 386.82 99.4188 388.883C97.6486 390.249 94.8356 391.943 90.5122 392.932C84.734 394.122 78.9558 395.312 73.1777 396.502C72.7269 396.658 71.447 397.167 70.4843 398.519C69.8331 399.434 69.46 400.547 69.46 401.724V404.267H127.758L121.974 387.136C120.536 386.863 119.502 387.058 118.852 387.264C115.512 388.32 115.168 391.897 111.564 392.932C110.741 393.168 109.806 393.417 109.135 392.932C107.79 391.959 109.239 389.262 107.516 386.454C107.092 385.764 106.672 385.081 105.896 384.835Z" fill="#4F76C6"/>
<path d="M69.6256 405.887H127.592C128.131 405.887 128.568 405.45 128.568 404.911V403.623C128.568 403.085 128.131 402.648 127.592 402.648H69.6256C69.0869 402.648 68.6502 403.085 68.6502 403.623V404.911C68.6502 405.45 69.0869 405.887 69.6256 405.887Z" fill="#050E12"/>
<path d="M127.211 403.053H69.8647C69.6411 403.053 69.46 402.871 69.46 402.648C69.46 402.425 69.6411 402.243 69.8647 402.243H127.211C127.435 402.243 127.616 402.424 127.616 402.648C127.616 402.871 127.435 403.053 127.211 403.053Z" fill="white"/>
<path d="M155.582 353.773L175.462 387.101C178.872 388.819 182.825 388.363 185.163 386.114C188.263 383.131 188.294 377.208 184.285 373.497C178.229 361.136 172.174 348.775 166.118 336.413L155.582 353.773Z" fill="white"/>
<path d="M179.772 388.864C178.22 388.864 176.618 388.499 175.134 387.752C175.011 387.69 174.907 387.594 174.836 387.474L154.956 354.147C154.818 353.915 154.819 353.626 154.959 353.395L165.495 336.035C165.633 335.808 165.883 335.671 166.151 335.685C166.417 335.697 166.656 335.853 166.773 336.093L184.881 373.057C186.92 374.994 188.102 377.663 188.128 380.4C188.152 382.839 187.255 385.113 185.668 386.64C184.146 388.105 182.011 388.864 179.772 388.864ZM175.978 386.541C179.018 387.988 182.56 387.605 184.657 385.589C185.956 384.339 186.689 382.453 186.67 380.414C186.647 378.032 185.597 375.706 183.79 374.032C183.724 373.971 183.67 373.899 183.63 373.818L166.05 337.931L156.433 353.777L175.978 386.541Z" fill="#050E12"/>
<path d="M164.106 405.773L164.527 406.324L164.575 406.397L167.239 406.365L171.579 403.069L200.939 380.802C201.328 380.511 201.401 379.96 201.109 379.572L200.21 378.389C199.919 378.001 199.368 377.928 198.98 378.219L198.858 378.309L198.599 378.503L182.778 390.503L166.227 403.061L166.13 403.134L164.308 404.518L164.276 404.543C164.211 404.591 164.163 404.648 164.114 404.705C163.871 405.012 163.863 405.45 164.106 405.773Z" fill="#050E12"/>
<path d="M144.924 399.255C145.872 397.887 147.143 397.361 147.588 397.191C152.625 396.081 157.677 394.956 162.713 393.838C162.972 393.539 163.232 393.247 163.491 392.948C166.333 389.547 167.555 386.495 168.138 384.341C169.021 381.078 169.005 377.855 170.851 377.199C171.62 376.924 172.365 377.215 173.118 377.515C176.187 378.705 176.664 381.733 178.324 381.693C179.15 381.677 179.749 380.916 180.26 380.227C182.502 377.223 180.616 374.163 182.64 371.305C183.037 370.746 183.741 369.969 185.053 369.321L200.016 379.466L182.988 392.389L168.972 403.012V403.02L166.794 404.664L164.616 406.324L151.677 406.518C151.734 406.413 151.791 406.332 151.831 406.267C152.236 405.806 152.641 405.336 153.054 404.875L143.993 405.012L143.969 403.417L143.953 402.47C143.936 401.296 144.293 400.178 144.924 399.255Z" fill="#4F76C6"/>
<path d="M143.167 404.381L143.199 405.668C143.208 406.211 143.782 406.64 144.471 406.632L154.106 406.518L164.575 406.397L167.239 406.365L171.579 403.069L168.867 403.102H168.859L166.13 403.134L157.717 403.239H157.709L154.446 403.28L144.722 403.393H144.374C144.309 403.393 144.252 403.401 144.195 403.417C144.114 403.425 144.042 403.442 143.969 403.466C143.491 403.604 143.159 403.968 143.167 404.381Z" fill="#050E12"/>
<path d="M144.374 403.798C144.153 403.798 143.972 403.62 143.969 403.399C143.965 403.175 144.144 402.991 144.367 402.988L166.221 402.656C166.455 402.667 166.629 402.832 166.632 403.055C166.636 403.279 166.457 403.463 166.234 403.466L144.38 403.798H144.374Z" fill="white"/>
<path d="M166.228 403.413C166.121 403.413 166.016 403.365 165.947 403.274C165.83 403.119 165.86 402.898 166.015 402.78L198.645 378.028C198.801 377.91 199.022 377.941 199.139 378.095C199.256 378.25 199.226 378.472 199.071 378.589L166.441 403.342C166.377 403.39 166.302 403.413 166.228 403.413Z" fill="white"/>
<path d="M169.863 128.16C166.418 133.502 161.346 141.821 156.098 152.451C147.166 170.54 130.997 223.705 130.997 223.705C130.997 223.705 141.683 237.733 167.513 244.079C193.344 250.425 183.385 126.235 183.385 126.235C178.878 126.877 174.37 127.518 169.863 128.16Z" fill="#050E12"/>
<path d="M173.911 129.78C173.424 128.43 173.209 127.308 173.101 126.541C172.888 125.017 172.988 124.061 172.292 123.302C171.799 122.764 171.132 122.572 170.672 122.492C173.037 121.195 177.1 119.353 182.471 118.748C188.374 118.082 193.123 119.218 195.773 120.063C196.313 122.762 196.853 125.461 197.392 128.16C194.24 128.681 190.833 129.119 187.195 129.414C182.406 129.803 177.954 129.884 173.911 129.78Z" fill="#050E12"/>
<path d="M138.637 203.253C138.549 203.253 138.458 203.239 138.37 203.208C137.943 203.06 137.717 202.595 137.865 202.168C137.934 201.968 144.896 181.872 153.15 158.772C161.465 135.501 167.691 129.178 167.952 128.92C168.274 128.604 168.791 128.607 169.108 128.928C169.425 129.248 169.422 129.765 169.103 130.082C169.041 130.144 162.842 136.507 154.689 159.322C146.439 182.414 139.479 202.503 139.41 202.703C139.293 203.041 138.976 203.253 138.637 203.253Z" fill="#050E12"/>
<path d="M219.255 250.425C219.255 250.425 212.777 264.19 144.762 235.04L173.893 132.688C174.37 131.013 175.994 129.932 177.724 130.14L194.964 132.209L219.255 250.425Z" fill="#050E12"/>
<path d="M122.042 294.788C123.856 298.974 125.669 303.168 127.491 307.355C133.855 322.051 140.228 336.755 146.6 351.451C149.183 357.41 151.766 363.378 154.349 369.345C166.089 366.09 174.373 359.208 178.875 354.6C173.344 340.666 167.822 326.723 162.292 312.78C159.733 306.334 157.183 299.889 154.624 293.436C161.919 278.262 169.174 262.578 176.34 246.376C181.417 234.895 186.275 223.551 190.915 212.369C187.741 210.588 183.611 208.717 178.599 207.454C175.692 206.725 172.899 206.296 170.251 206.102C162.243 205.478 155.612 206.887 151.628 208.029C150.908 209.422 150.187 210.822 149.483 212.239C137.596 235.907 128.382 259.752 121.362 283.42C120.244 287.177 120.487 291.193 122.042 294.788Z" fill="#D1E2DC"/>
<path d="M196.091 125.7C196.091 125.7 199.425 123.37 200.795 124.511C202.166 125.652 203.374 130 198.989 131.92C194.605 133.84 196.091 125.7 196.091 125.7Z" fill="white"/>
<path d="M198.269 130.037C198.039 130.037 197.826 129.887 197.757 129.655C197.672 129.372 197.834 129.074 198.117 128.989C198.975 128.734 199.338 127.937 199.212 127.5C199.144 127.265 198.912 127.036 198.607 126.901C198.183 126.713 197.688 126.728 197.249 126.943C196.983 127.073 196.663 126.962 196.533 126.697C196.403 126.432 196.513 126.111 196.779 125.981C197.502 125.628 198.326 125.605 199.041 125.922C199.644 126.189 200.081 126.656 200.24 127.202C200.526 128.191 199.85 129.59 198.423 130.015C198.372 130.03 198.32 130.037 198.269 130.037Z" fill="#050E12"/>
<path d="M198.946 152.744C198.6 152.744 198.309 152.474 198.288 152.124L197.259 135.285C197.236 134.92 197.514 134.607 197.878 134.585C198.249 134.566 198.555 134.839 198.578 135.204L199.606 152.043C199.629 152.407 199.351 152.721 198.987 152.743C198.974 152.744 198.96 152.744 198.946 152.744Z" fill="#050E12"/>
<path d="M198.177 141.117C197.992 141.117 197.808 141.04 197.677 140.89C197.439 140.614 197.468 140.198 197.742 139.959C197.891 139.829 201.42 136.814 204.7 138.728C205.016 138.912 205.122 139.316 204.938 139.632C204.755 139.947 204.351 140.054 204.035 139.869C201.575 138.434 198.638 140.931 198.609 140.956C198.484 141.064 198.33 141.117 198.177 141.117Z" fill="#050E12"/>
<path d="M105.306 366.05C120.957 375.701 137.086 373.807 137.54 373.75H137.548L146.6 351.451L162.292 312.78L164.098 308.342C174.494 289.655 184.883 270.967 195.279 252.279C200.405 243.056 203.441 232.822 204.178 222.304C205.077 209.438 205.975 196.58 206.874 183.714L175.749 193.551L170.252 206.102L137.524 280.796L127.491 307.355L105.306 366.05Z" fill="#D1E2DC"/>
<path d="M146.907 207.439C146.56 208.787 146.976 210.246 148.038 211.147C148.49 211.531 148.972 211.895 149.482 212.239C156.608 217.114 169.11 218.555 180.502 218.693C190.008 218.814 198.744 218.021 202.947 217.567L202.997 217.561C204.542 217.381 205.815 216.255 206.17 214.74C209.92 198.762 211.784 185.183 212.777 175.123C213.14 171.458 213.404 168.107 213.58 165.038C214.385 150.964 209.812 137.112 200.738 126.323L200.617 126.18C200.274 125.772 199.851 125.436 199.367 125.214C198.364 124.756 197.429 124.401 196.599 124.12C196.593 124.115 196.588 124.112 196.583 124.112L180.503 126.409C179.888 126.497 179.307 126.733 178.81 127.107C177.679 127.959 176.252 129.117 174.721 130.589C165.045 139.869 162.057 151.059 160.146 158.119C156.416 171.913 151.833 188.297 146.907 207.439Z" fill="white"/>
<path d="M119.796 254.439C119.675 254.439 119.551 254.412 119.435 254.354C119.103 254.191 118.772 254.009 118.451 253.814C117.734 253.379 117.054 252.87 116.429 252.301C116.096 251.996 116.072 251.479 116.376 251.145C116.68 250.811 117.196 250.787 117.531 251.092C118.078 251.591 118.672 252.037 119.298 252.416C119.594 252.595 119.882 252.752 120.159 252.889C120.564 253.089 120.73 253.579 120.53 253.984C120.387 254.272 120.098 254.439 119.796 254.439Z" fill="#050E12"/>
<path d="M119.218 260.442C119.154 260.442 119.09 260.442 119.026 260.44C118.188 260.428 117.344 260.333 116.517 260.158C116.076 260.065 115.794 259.631 115.887 259.189C115.981 258.748 116.415 258.469 116.856 258.559C117.58 258.712 118.318 258.795 119.051 258.806C119.396 258.81 119.723 258.8 120.031 258.778C120.484 258.733 120.873 259.084 120.906 259.533C120.939 259.984 120.601 260.375 120.15 260.408C119.843 260.431 119.53 260.442 119.218 260.442Z" fill="#050E12"/>
<path d="M84.9794 160.506C84.8592 160.506 84.7369 160.479 84.6214 160.422C84.2868 160.257 83.9557 160.075 83.6374 159.882C82.9226 159.448 82.243 158.94 81.6178 158.37C81.2873 158.068 81.2635 157.556 81.5649 157.226C81.8659 156.895 82.3785 156.871 82.7086 157.173C83.2565 157.672 83.8517 158.118 84.4773 158.497C84.7735 158.677 85.0621 158.834 85.339 158.971C85.7399 159.169 85.9041 159.654 85.706 160.055C85.565 160.341 85.2777 160.506 84.9794 160.506Z" fill="#F66F6F"/>
<path d="M84.3972 166.509C84.3343 166.509 84.2717 166.509 84.2092 166.508C83.3713 166.496 82.528 166.401 81.7019 166.226C81.2643 166.133 80.9847 165.704 81.0773 165.266C81.1696 164.829 81.5975 164.548 82.0371 164.642C82.7609 164.795 83.4999 164.878 84.2333 164.889C84.5804 164.895 84.9074 164.883 85.215 164.861C85.667 164.817 86.0483 165.164 86.0811 165.61C86.1133 166.056 85.7777 166.443 85.3318 166.476C85.0207 166.498 84.7072 166.509 84.3972 166.509Z" fill="#F66F6F"/>
<path d="M127.758 307.922C127.662 307.922 127.564 307.904 127.468 307.868C127.046 307.708 126.834 307.236 126.994 306.814C135.805 283.584 163.694 219.038 163.975 218.389C164.154 217.975 164.636 217.784 165.05 217.963C165.464 218.142 165.655 218.624 165.476 219.038C165.195 219.687 137.321 284.198 128.522 307.394C128.399 307.721 128.088 307.922 127.758 307.922Z" fill="#050E12"/>
<path d="M146.381 352.455C146.276 352.455 146.17 352.435 146.067 352.392C145.65 352.218 145.453 351.739 145.627 351.322L161.821 312.457C161.994 312.04 162.473 311.843 162.89 312.017C163.306 312.191 163.504 312.669 163.33 313.086L147.136 351.951C147.005 352.265 146.701 352.455 146.381 352.455Z" fill="#050E12"/>
<path d="M175.771 143.023C175.613 143.365 175.544 143.741 175.568 144.118C177.216 168.971 178.855 193.832 180.502 218.693C180.959 225.621 181.416 232.542 181.873 239.469C181.949 240.622 182.877 241.53 184.031 241.578C188.017 241.74 192.519 242.192 197.392 243.137C206.372 244.886 213.74 247.761 219.254 250.425C217.961 216.339 216.674 182.254 215.381 148.169C215.267 145.161 214.15 142.277 212.208 139.977L212.177 139.941C208.153 135.148 204.129 130.354 200.097 125.561L199.359 124.681C198.682 123.874 197.537 123.641 196.599 124.12L181.478 131.796C181.024 132.027 180.661 132.404 180.448 132.866L175.771 143.023Z" fill="#F66F6F"/>
<path d="M199.454 139.654C193.976 141.013 192.069 146.83 186.999 155.3C183.908 160.463 179.198 167.355 172.115 174.855C158.514 171.299 144.914 167.744 131.314 164.188C129.984 170.825 128.653 177.462 127.322 184.099C132.614 187.828 140.894 192.919 151.908 196.799C165.142 201.462 175.564 205.134 186.483 200.9C198.866 196.097 204.229 184.093 208.314 174.951C211.084 168.749 218.702 151.698 211.229 143.497C208.433 140.429 203.56 138.636 199.454 139.654Z" fill="#F66F6F"/>
<path d="M175.176 204.125C173.673 204.125 172.107 204.035 170.472 203.844C170.023 203.791 169.702 203.385 169.755 202.937C169.806 202.488 170.215 202.166 170.661 202.22C183.253 203.692 193.168 199.273 200.127 189.089C205.366 181.422 206.881 173.186 206.896 173.104C206.975 172.66 207.399 172.366 207.844 172.443C208.288 172.522 208.584 172.946 208.505 173.39C208.448 173.715 202.709 204.125 175.176 204.125Z" fill="#050E12"/>
<path d="M173.872 188.852C173.459 188.852 173.105 188.54 173.06 188.121L171.612 174.551L188.389 151.261C188.653 150.895 189.164 150.813 189.53 151.076C189.896 151.339 189.979 151.85 189.715 152.217L173.305 174.999L174.686 187.947C174.733 188.396 174.409 188.799 173.96 188.847C173.93 188.85 173.901 188.852 173.872 188.852Z" fill="#050E12"/>
<path d="M150.296 169.968C150.23 169.968 150.163 169.96 150.097 169.943L129.508 164.79C129.07 164.681 128.804 164.237 128.914 163.799C129.023 163.361 129.467 163.093 129.905 163.204L150.493 168.357C150.931 168.467 151.198 168.91 151.088 169.348C150.995 169.72 150.662 169.968 150.296 169.968Z" fill="#050E12"/>
<path d="M135.404 191.58C141.277 183.308 138.742 163.438 138.742 163.438L125.877 161.912L123.207 184.426L135.404 191.58Z" fill="#F66F6F"/>
<path d="M135.637 192.665L122.332 184.86L125.161 161.004L139.472 162.701L139.553 163.335C139.658 164.159 142.06 183.618 136.071 192.054L135.637 192.665ZM124.082 183.991L135.15 190.483C139.704 183.086 138.353 167.502 138.002 164.174L126.592 162.82L124.082 183.991Z" fill="#050E12"/>
<path d="M184.324 101.099C185.164 100.83 192.294 124.432 192.294 124.432C191.335 129.723 186.852 133.142 182.623 132.699C178.102 132.226 175.865 127.549 175.759 127.319L171.598 106.216L184.324 101.099Z" fill="white"/>
<path d="M156.193 88.0326C155.988 91.2984 156 95.6293 156.838 100.637C157.038 101.832 157.266 102.927 157.515 103.968C158.382 107.609 159.411 110.483 160.145 112.297C160.33 112.753 160.509 113.193 160.678 113.612C160.677 113.619 160.684 113.62 160.683 113.626C164.265 121.264 167.069 122.029 167.924 122.202C168.5 122.318 169.069 122.335 169.649 122.264C171.893 121.697 174.349 120.246 176.978 118.698C179.11 117.441 180.64 116.532 181.937 115.217C182.305 114.846 182.656 114.439 182.994 113.982C186.149 109.753 185.626 104.576 185.113 99.5338C184.686 95.2886 184.097 89.5401 179.59 85.2496C179.056 84.7423 177.865 83.6213 176.253 82.8428C168.079 78.8594 157.022 87.3739 156.193 88.0326Z" fill="white"/>
<path d="M158.171 98.2504C162.901 106.441 176.193 111.239 182.987 106.257C183.267 106.052 183.533 105.832 183.779 105.603L183.786 105.594C184.778 104.685 185.525 103.609 186.083 102.545C187.158 100.501 187.554 98.4954 187.709 97.7128C187.935 96.5661 188.824 92.0518 186.466 87.8678C185.858 86.7919 185.096 85.8459 184.219 85.0247C179.873 80.9535 172.673 79.9442 167.202 81.3043C165.985 81.605 158.268 83.5247 156.544 89.5376C155.415 93.4747 157.471 97.0348 158.171 98.2504Z" fill="white"/>
<path d="M168.969 123.053C168.57 123.053 168.175 123.014 167.777 122.933C165.182 122.409 162.579 119.406 160.038 114.007L159.896 113.823L159.909 113.727C157.295 108.063 155.741 101.825 155.292 95.1834C155.264 94.7721 155.575 94.4161 155.986 94.3885C156.404 94.3563 156.754 94.6712 156.781 95.0825C157.222 101.593 158.75 107.699 161.325 113.232L161.466 113.415L161.453 113.509C163.698 118.236 166.045 121.06 168.072 121.47C168.561 121.568 169.047 121.585 169.558 121.523C171.164 121.346 172.986 120.408 175.508 119.109C178.298 117.672 180.111 116.739 181.304 114.822L181.423 114.623C182.058 113.523 182.337 111.83 182.909 108.106C183.265 105.784 183.486 103.866 183.61 102.666C183.651 102.255 184.016 101.954 184.428 101.999C184.838 102.042 185.137 102.408 185.094 102.818C184.97 104.035 184.745 105.98 184.384 108.332C183.825 111.974 183.517 113.981 182.726 115.351C182.703 115.394 182.667 115.452 182.632 115.51L182.585 115.588C181.161 117.877 179.096 118.94 176.238 120.412C173.527 121.808 171.602 122.799 169.731 123.006C169.475 123.037 169.221 123.053 168.969 123.053Z" fill="#050E12"/>
<path d="M168.209 99.5865C168.35 100.578 168.912 101.318 169.463 101.239C170.013 101.16 170.345 100.293 170.203 99.3013C170.061 98.3099 169.5 97.57 168.949 97.6488C168.398 97.7275 168.067 98.5951 168.209 99.5865Z" fill="#050E12"/>
<path d="M163.928 109.24C163.144 109.24 162.633 109.035 162.326 108.624C161.963 108.138 162.084 107.629 162.181 107.22C162.258 106.894 162.338 106.558 162.277 106.078C162.226 105.678 162.107 105.451 161.958 105.163C161.862 104.979 161.754 104.771 161.661 104.512C161.22 103.278 161.469 101.814 162.401 100.161C162.603 99.8023 163.058 99.6747 163.418 99.8773C163.777 100.08 163.904 100.535 163.701 100.894C162.991 102.153 162.778 103.201 163.066 104.009C163.129 104.185 163.207 104.33 163.282 104.475C163.456 104.809 163.672 105.225 163.758 105.888C163.854 106.637 163.721 107.196 163.633 107.566C163.62 107.62 163.605 107.684 163.593 107.741C163.799 107.772 164.501 107.819 166.365 107.301C166.761 107.19 167.173 107.423 167.284 107.82C167.394 108.218 167.162 108.629 166.765 108.739C165.565 109.073 164.635 109.24 163.928 109.24Z" fill="#050E12"/>
<path d="M172.567 99.364C172.459 99.364 172.349 99.3349 172.25 99.2738C169.83 97.7803 166.539 98.5963 166.506 98.605C166.182 98.6869 165.854 98.4926 165.771 98.1698C165.688 97.8466 165.882 97.5176 166.205 97.4343C166.359 97.3942 170.02 96.4779 172.885 98.2452C173.169 98.4204 173.257 98.7926 173.082 99.0768C172.968 99.262 172.77 99.364 172.567 99.364Z" fill="#050E12"/>
<path d="M159.432 100.841C159.574 101.833 160.135 102.573 160.686 102.494C161.237 102.415 161.569 101.548 161.427 100.556C161.285 99.5648 160.724 98.825 160.173 98.9037C159.622 98.9825 159.29 99.85 159.432 100.841Z" fill="#050E12"/>
<path d="M163.791 100.619C163.683 100.619 163.573 100.59 163.474 100.529C161.054 99.036 157.763 99.8513 157.73 99.86C157.406 99.9429 157.078 99.7473 156.995 99.4248C156.912 99.1017 157.106 98.7726 157.429 98.6893C157.583 98.6489 161.244 97.7322 164.109 99.5001C164.393 99.6754 164.481 100.048 164.306 100.332C164.192 100.517 163.994 100.619 163.791 100.619Z" fill="#050E12"/>
<path d="M177.809 87.019C177.083 87.1118 176.387 87.4229 175.473 87.7602C171.559 89.205 169.258 91.1789 167.951 92.0924C164.184 94.7241 156.97 96.7251 153.533 93.7471C150.587 91.1945 150.627 85.1652 153.36 81.1525C155.978 77.3094 160.8 75.5851 164.928 76.6488C167.382 77.2811 169.015 78.7504 169.83 79.6115C172.506 78.6967 174.744 78.6179 176.212 78.6988C180.069 78.9113 185.973 80.6306 186.916 84.3192C187.007 84.6765 187.296 85.8065 177.809 87.019Z" fill="#050E12"/>
<path d="M170.857 89.6415C172.628 89.8578 175.199 90.465 177.354 92.3761C178.848 93.7003 179.404 94.9968 181.002 97.9605C182.006 99.822 183.499 102.488 185.493 105.684L185.5 105.675C185.59 105.564 186.638 104.262 187.94 102.354C189.079 100.127 189.495 97.9389 189.658 97.0851C189.894 95.8342 190.826 90.9097 188.295 86.3338C187.643 85.157 186.827 84.1216 185.888 83.2219C184.678 83.0254 177.916 82.0398 173.25 86.4498C172.166 87.4746 171.401 88.5957 170.857 89.6415Z" fill="#050E12"/>
<path d="M180.432 96.8209C180.432 96.8209 183.623 93.5151 185.39 94.4836C187.157 95.4522 189.437 100.011 184.992 103.089C180.547 106.167 180.432 96.8209 180.432 96.8209Z" fill="white"/>
<path d="M183.671 101.168C183.454 101.168 183.243 101.05 183.135 100.844C182.98 100.549 183.095 100.183 183.39 100.028C184.286 99.5593 184.516 98.5971 184.281 98.1404C184.155 97.8951 183.849 97.6904 183.482 97.6068C182.971 97.49 182.425 97.6148 181.985 97.9479C181.719 98.1491 181.34 98.0972 181.138 97.8304C180.937 97.5643 180.989 97.1851 181.255 96.9836C181.981 96.4347 182.89 96.2308 183.75 96.4281C184.477 96.5937 185.063 97.0165 185.356 97.5874C185.888 98.6219 185.442 100.318 183.951 101.099C183.862 101.146 183.766 101.168 183.671 101.168Z" fill="#050E12"/>
<path d="M175.836 91.5134C176.105 92.5301 176.361 93.5828 176.602 94.6707C177.062 96.7475 177.416 98.7396 177.688 100.631C178.195 100.608 179.355 100.794 179.644 100.002C179.953 99.1552 181.395 90.4731 181.395 90.4731C181.357 90.2337 181.059 88.5292 179.975 88.1272C178.777 87.6831 176.718 88.8657 175.836 91.5134Z" fill="#050E12"/>
<path d="M192.088 125.202C191.769 125.202 191.474 124.996 191.375 124.675L185.779 106.458C185.658 106.064 185.879 105.647 186.273 105.526C186.666 105.405 187.084 105.626 187.205 106.02L192.802 124.237C192.923 124.631 192.702 125.048 192.308 125.169C192.235 125.192 192.161 125.202 192.088 125.202Z" fill="#050E12"/>
<path d="M156.793 87.635C156.235 87.635 155.672 87.505 155.202 87.0944C154.298 86.3057 154.085 84.761 154.738 83.7217C155.392 82.6809 156.758 82.4438 157.821 82.571C158.556 82.6585 159.408 82.9481 159.592 83.498C159.763 84.0071 159.292 84.4987 159.138 84.6601C159.006 84.7987 158.788 84.8025 158.65 84.6704C158.512 84.5387 158.507 84.3199 158.639 84.1824C158.956 83.8516 158.938 83.7189 158.938 83.7175C158.904 83.619 158.508 83.3456 157.728 83.255C156.881 83.1579 155.803 83.3245 155.323 84.0888C154.857 84.8308 155.016 86.0156 155.656 86.5746C156.345 87.176 157.441 86.9081 158.24 86.7114C160.793 86.0841 162.549 84.1433 163.573 82.6257C163.68 82.468 163.894 82.4265 164.053 82.5326C164.211 82.6395 164.252 82.8541 164.146 83.0121C163.053 84.63 161.171 86.7018 158.406 87.3816C157.95 87.4936 157.375 87.635 156.793 87.635Z" fill="white"/>
<path d="M185.222 88.2347C185.095 88.2347 184.972 88.1642 184.912 88.0425C180.688 79.5128 173.272 82.0799 172.959 82.1943C172.78 82.2579 172.582 82.1663 172.517 81.9876C172.452 81.8086 172.544 81.6105 172.723 81.5456C172.806 81.5155 181.028 78.6439 185.531 87.7363C185.616 87.9071 185.545 88.1141 185.375 88.1988C185.326 88.223 185.273 88.2347 185.222 88.2347Z" fill="white"/>
<path d="M178.55 94.6296C178.477 95.1968 178.877 95.7158 179.444 95.7889C180.012 95.862 180.531 95.4614 180.604 94.8943C180.677 94.327 180.276 93.808 179.709 93.7349C179.142 93.6619 178.623 94.0624 178.55 94.6296Z" fill="#050E12"/>
<path d="M143.865 89.5244C143.8 89.5244 143.734 89.5158 143.669 89.4982C143.312 89.4013 142.955 89.2873 142.606 89.1587C141.826 88.8718 141.067 88.5055 140.351 88.07C139.999 87.8556 139.887 87.3966 140.101 87.0445C140.315 86.6926 140.775 86.5813 141.126 86.7945C141.76 87.1802 142.432 87.5042 143.121 87.7579C143.447 87.8781 143.761 87.9766 144.06 88.0575C144.458 88.1657 144.692 88.5756 144.585 88.9735C144.494 89.3056 144.193 89.5244 143.865 89.5244Z" fill="#050E12"/>
<path d="M142.112 95.7364C142.043 95.7364 141.974 95.7357 141.904 95.7346C141.492 95.728 141.164 95.3887 141.17 94.9763C141.177 94.5643 141.534 94.2346 141.928 94.2421C142.663 94.2525 143.411 94.1934 144.136 94.0635C144.478 94.0019 144.799 93.928 145.097 93.8467C145.498 93.7396 145.905 93.9743 146.013 94.3714C146.121 94.7693 145.886 95.1792 145.488 95.2874C145.131 95.3845 144.765 95.4667 144.401 95.5324C143.649 95.6679 142.88 95.7364 142.112 95.7364Z" fill="#050E12"/>
<path d="M176.843 95.7974C176.843 95.7974 176.64 104.291 174.423 106.509C172.205 108.727 167.946 106.495 163.792 108.72C159.638 110.944 160.746 109.452 158.714 108.72C158.714 108.72 160.377 124.989 167.03 127.207C173.683 129.425 186.989 122.033 185.511 116.858C184.033 111.683 179.597 96.1598 179.597 96.1598L176.843 95.7974Z" fill="#050E12"/>
<path d="M165.617 112.78C166.3 112.634 167.098 112.405 167.954 112.039C169.441 111.403 170.555 110.59 171.316 109.93C171.556 110.396 172.072 111.488 171.783 112.778C171.506 114.016 170.5 115.434 167.783 116.541L166.7 114.66C166.7 114.66 167.84 114.09 168.524 113.178C168.407 113.249 168.281 113.318 168.146 113.385C167.729 113.592 167.332 113.722 166.985 113.806C166.529 113.464 166.073 113.122 165.617 112.78Z" fill="white"/>
<path d="M175.531 144.354C175.649 142.076 176.022 139.098 177.049 135.751C178.016 132.6 179.276 130.054 180.389 128.16C180.389 128.16 192.534 124.112 195.773 120.063L201.272 126.969C198.747 129.419 195.785 132.001 192.349 134.548C186.314 139.021 180.485 142.151 175.531 144.354Z" fill="#F66F6F"/>
<path d="M187.654 140.399L187.31 140.227C183.769 138.456 182.056 133.318 181.233 130.849C181.127 130.53 180.97 130.309 180.791 130.225C180.468 130.073 179.688 130.258 178.469 131.229C178.115 131.511 177.601 131.452 177.32 131.099C177.039 130.746 177.097 130.231 177.451 129.95C179.074 128.657 180.432 128.253 181.484 128.745C182.083 129.025 182.532 129.574 182.784 130.332C183.509 132.507 184.988 136.943 187.713 138.584C190.749 137.206 193.55 135.4 196.043 133.213C198.013 131.487 199.784 129.523 201.308 127.378C201.569 127.009 202.08 126.923 202.447 127.184C202.815 127.446 202.902 127.956 202.64 128.324C201.043 130.573 199.186 132.632 197.121 134.443C194.403 136.828 191.336 138.779 188.005 140.244L187.654 140.399Z" fill="#050E12"/>
<path d="M111.45 169.82C112.138 170.009 112.831 170.198 113.519 170.387C111.688 171.228 104.772 174.488 104.021 176.912C103.94 177.164 103.738 177.825 104.021 178.216C104.408 178.756 105.492 178.49 106.4 178.216C106.53 178.176 106.674 178.131 106.818 178.086C105.986 178.801 105.366 179.52 105.172 180.181C105.1 180.433 104.907 181.09 105.172 181.485C105.536 182.025 106.553 181.76 107.403 181.485C108.657 181.081 110.551 180.334 112.975 178.873H112.979C112.152 180.132 111.32 181.387 110.483 182.641C110.461 183.828 110.87 185.492 113.379 185.312H113.384L115.475 183.379C115.808 183.073 116.258 182.938 116.703 183.005C117.602 183.14 118.065 183.131 118.488 183.275C119.819 183.725 122.5 183.505 126.583 183.595C127.617 183.617 128.75 183.662 129.969 183.743C131.21 183.824 132.015 183.909 133.27 183.869C133.346 183.869 133.423 183.864 133.499 183.86C133.945 183.837 134.385 183.806 134.619 183.788C134.655 183.783 134.687 183.779 134.723 183.779C134.857 183.761 134.992 183.748 135.123 183.734C135.343 183.712 135.541 183.684 135.716 183.658C136.463 183.559 137.084 183.433 137.56 183.329C137.646 183.244 137.731 183.158 137.817 183.073C138.127 182.763 138.406 182.457 138.662 182.16C140.614 179.907 141.126 178.009 140.906 176.458C140.906 176.435 140.902 176.413 140.897 176.39C140.893 176.372 140.893 176.359 140.888 176.341C140.87 176.242 140.852 176.143 140.83 176.048C140.816 175.981 140.803 175.918 140.785 175.855C140.776 175.819 140.767 175.783 140.753 175.747C139.899 172.896 136.611 171.421 136.355 171.309C136.341 171.309 136.337 171.304 136.337 171.304C132.955 170.553 129.573 169.802 126.192 169.051C126.187 169.056 126.187 169.06 126.183 169.065C107.479 164.824 102.802 164.797 102.55 165.809C102.415 166.348 103.463 167.423 104.035 167.895C104.794 168.525 105.545 168.768 108.077 169.244C108.99 169.415 110.133 169.618 111.45 169.82Z" fill="white"/>
<path d="M112.921 179.587C112.54 179.587 112.22 179.292 112.194 178.907C112.167 178.505 112.471 178.157 112.873 178.13L120.303 177.634C120.702 177.61 121.052 177.912 121.079 178.313C121.106 178.715 120.802 179.063 120.4 179.089L112.97 179.586C112.954 179.587 112.937 179.587 112.921 179.587Z" fill="#050E12"/>
<path d="M106.925 178.722C106.678 178.722 106.438 178.597 106.301 178.37C106.092 178.025 106.203 177.577 106.547 177.369L113.037 173.442C113.596 173.103 114.235 172.941 114.89 172.982L122.033 173.587C122.434 173.621 122.732 173.973 122.698 174.375C122.664 174.776 122.317 175.081 121.91 175.04L114.786 174.437C114.446 174.417 114.098 174.504 113.792 174.69L107.302 178.616C107.184 178.688 107.054 178.722 106.925 178.722Z" fill="#050E12"/>
<path d="M120.878 171.51L120.847 171.51L111.073 171.107C110.67 171.091 110.358 170.751 110.374 170.349C110.391 169.946 110.739 169.632 111.133 169.65L120.908 170.053C121.31 170.069 121.623 170.408 121.606 170.811C121.59 171.204 121.267 171.51 120.878 171.51Z" fill="#050E12"/>
<path d="M112.988 186.056C111.391 186.057 110.595 185.305 110.211 184.645C109.662 183.702 109.727 182.462 110.375 181.488C110.504 181.294 110.632 181.101 110.761 180.908C109.69 181.427 108.642 181.852 107.627 182.179C106.863 182.425 105.273 182.939 104.568 181.893C104.116 181.219 104.372 180.326 104.469 179.99C104.539 179.75 104.647 179.507 104.795 179.258C104.26 179.251 103.756 179.098 103.428 178.641C102.924 177.944 103.227 176.999 103.327 176.689C103.948 174.685 107.763 172.379 111.432 170.571L111.298 170.534C110.195 170.365 109.097 170.177 107.944 169.961C105.419 169.486 104.487 169.217 103.569 168.457C103.097 168.066 101.575 166.706 101.843 165.632C102.124 164.503 102.509 162.956 126.205 168.322C126.254 168.323 126.302 168.328 126.35 168.339L136.495 170.592L136.523 170.599C136.542 170.604 136.562 170.609 136.581 170.615C138.987 171.399 140.809 173.244 141.456 175.55C141.46 175.555 141.477 175.617 141.492 175.678C141.509 175.736 141.527 175.818 141.545 175.905C141.564 175.985 141.585 176.096 141.605 176.207C141.618 176.275 141.627 176.329 141.631 176.376C141.963 178.617 141.063 180.918 139.16 182.693C138.302 183.491 137.339 184.079 136.645 184.231C136.467 184.267 136.199 184.321 135.829 184.378C135.641 184.407 135.431 184.436 135.197 184.459L134.869 184.499C134.841 184.502 134.814 184.504 134.786 184.504L134.71 184.512C134.437 184.533 133.989 184.565 133.536 184.588C133.452 184.593 133.361 184.598 133.27 184.598C130.879 184.696 128.972 184.531 126.764 184.342L126.521 184.321C124.515 184.156 122.014 183.95 118.5 184.005L118.308 184.009C117.275 184.029 116.395 184.064 115.776 184.094L113.88 185.848C113.745 185.973 113.568 186.042 113.384 186.042C113.247 186.052 113.115 186.056 112.988 186.056ZM112.975 178.143C113.243 178.143 113.492 178.291 113.619 178.526C113.746 178.762 113.736 179.049 113.589 179.273C112.925 180.283 112.259 181.29 111.59 182.296C111.247 182.811 111.201 183.445 111.472 183.912C111.577 184.092 111.865 184.599 113.085 184.596L114.98 182.843C115.106 182.727 115.268 182.659 115.439 182.65C116.069 182.619 117.071 182.573 118.295 182.551L118.488 182.546C122.066 182.491 124.603 182.7 126.643 182.867L126.888 182.889C129.047 183.074 130.912 183.234 133.241 183.14C133.333 183.14 133.394 183.135 133.457 183.132C133.9 183.109 134.333 183.078 134.563 183.061C134.595 183.056 134.639 183.051 134.69 183.05L134.714 183.049L135.032 183.01C135.256 182.987 135.441 182.962 135.606 182.937C135.943 182.884 136.188 182.835 136.293 182.814C136.63 182.741 137.361 182.374 138.166 181.626C139.078 180.775 140.554 178.986 140.185 176.568C140.183 176.553 140.181 176.539 140.18 176.525C140.177 176.51 140.174 176.49 140.171 176.469C140.155 176.383 140.14 176.298 140.12 176.217C140.105 176.144 140.096 176.1 140.084 176.056L140.051 175.944C139.539 174.117 138.085 172.648 136.157 172.011L126.172 169.794C126.122 169.793 126.072 169.787 126.021 169.776C108.536 165.811 104.328 165.777 103.349 166.073C103.534 166.384 103.994 166.915 104.5 167.333C105.099 167.83 105.659 168.047 108.212 168.528C109.364 168.743 110.459 168.93 111.561 169.099C111.589 169.103 111.616 169.109 111.643 169.117L113.712 169.683C114.007 169.764 114.221 170.021 114.246 170.327C114.271 170.633 114.102 170.921 113.824 171.049C108.629 173.435 105.14 175.765 104.718 177.127C104.556 177.632 104.611 177.783 104.618 177.798C104.672 177.815 104.987 177.881 106.189 177.518L106.601 177.389C106.932 177.286 107.289 177.429 107.457 177.732C107.624 178.035 107.556 178.413 107.294 178.639C106.289 179.502 105.966 180.065 105.872 180.386C105.725 180.899 105.766 181.051 105.782 181.085C105.785 181.084 105.811 181.087 105.852 181.087C105.99 181.087 106.351 181.059 107.179 180.791C108.894 180.238 110.717 179.382 112.598 178.248C112.712 178.18 112.842 178.143 112.975 178.143Z" fill="#050E12"/>
<path d="M90.3561 164.686C90.3539 164.852 90.3756 165.022 90.4084 165.191L96.9554 198.929C97.2556 200.476 98.763 201.585 100.608 201.606L151.999 202.133C152.536 202.135 153.047 202.056 153.519 201.896C155.336 201.3 156.56 199.652 156.227 197.936L149.68 164.198C149.38 162.651 147.873 161.542 146.027 161.521L94.6371 160.994C92.263 160.959 90.3155 162.709 90.3561 164.686Z" fill="#D1E2DC"/>
<path d="M152.022 203.102H151.994L100.598 202.576C98.2824 202.549 96.3935 201.126 96.0029 199.114L89.4558 165.376C89.4061 165.117 89.3832 164.888 89.386 164.674L89.3947 163.987L90.0451 163.767C90.6186 163.573 91.212 163.48 91.8811 163.479L143.277 164.005C145.592 164.032 147.481 165.455 147.872 167.467L154.419 201.205C154.469 201.462 154.492 201.692 154.489 201.908L154.48 202.595L153.83 202.814C153.265 203.006 152.657 203.102 152.022 203.102ZM91.4443 165.439L97.9074 198.744C98.1207 199.842 99.2357 200.62 100.619 200.637L152.008 201.163C152.151 201.163 152.292 201.157 152.43 201.143L145.968 167.837C145.754 166.739 144.639 165.961 143.256 165.945L91.8666 165.419C91.726 165.417 91.5822 165.425 91.4443 165.439Z" fill="#050E12"/>
<path d="M94.6369 160.994L146.027 161.521C147.872 161.542 149.38 162.651 149.68 164.198L156.227 197.936C156.56 199.652 155.336 201.3 153.519 201.896C153.265 201.982 152.998 202.04 152.724 202.08C152.77 201.757 152.78 201.427 152.715 201.092L146.168 167.354C145.868 165.806 144.361 164.698 142.516 164.676L91.1253 164.15C90.8789 164.147 90.6408 164.173 90.4053 164.206C90.6589 162.436 92.4585 160.962 94.6369 160.994Z" fill="#050E12"/>
<path d="M87.7368 184.438C86.7475 180.262 89.6878 176.168 93.9527 175.696C101.487 174.863 112.801 173.902 113.809 175.511C115.333 177.943 108.945 178.558 108.945 178.558L97.5707 180.942C97.5707 180.942 115.333 177.944 116.856 180.376C118.38 182.808 115.825 183.054 115.825 183.054C115.825 183.054 117.348 185.486 114.916 187.009C112.484 188.532 100.986 189.639 100.986 189.639C103.484 189.189 111.671 187.824 112.607 189.81C112.927 190.489 112.73 191.087 112.73 191.087C112.404 192.077 111.018 192.435 110.298 192.611C103.31 194.321 99.9446 194.125 96.5514 194.241C93.7569 194.336 91.1626 192.813 89.9015 190.318C89.1004 188.732 88.2814 186.736 87.7368 184.438Z" fill="white"/>
<path d="M96.3081 195.241C93.2395 195.241 90.3976 193.508 89.0127 190.767C88.0131 188.789 87.2579 186.737 86.7677 184.667C86.2351 182.418 86.6972 180.038 88.0366 178.138C89.3915 176.216 91.5079 174.965 93.843 174.707C113.141 172.571 114.162 174.2 114.653 174.982C115.096 175.69 115.16 176.445 114.833 177.11C114.551 177.681 113.992 178.123 113.322 178.464C115.524 178.582 117.162 178.988 117.7 179.847C118.374 180.923 118.516 181.875 118.121 182.678C117.889 183.148 117.518 183.459 117.145 183.663C117.202 183.876 117.249 184.113 117.273 184.365C117.41 185.789 116.761 187.028 115.445 187.853C114.931 188.174 114.093 188.474 113.072 188.749C113.319 188.984 113.428 189.216 113.508 189.385C113.983 190.395 113.709 191.299 113.675 191.399C113.17 192.933 111.323 193.385 110.534 193.578C104.452 195.066 101.054 195.137 98.0557 195.199C97.5589 195.209 97.0723 195.22 96.5853 195.236C96.493 195.239 96.4 195.241 96.3081 195.241ZM88.7054 184.208C89.1599 186.125 89.8612 188.03 90.7903 189.869C91.8684 192.001 94.1154 193.32 96.5176 193.246C97.0135 193.229 97.5085 193.218 98.0145 193.208C100.91 193.148 104.191 193.079 110.061 191.643C111.098 191.39 111.678 191.098 111.784 190.775L111.784 190.776C111.782 190.776 111.841 190.522 111.706 190.234C111.541 190.005 110.536 189.659 107.898 189.777C104.724 190.269 101.691 190.571 101.082 190.63C100.546 190.677 100.072 190.304 99.9999 189.775C99.927 189.246 100.284 188.754 100.81 188.659C103.719 188.134 105.947 187.875 107.658 187.794C110.691 187.32 113.472 186.738 114.387 186.165C115.836 185.257 115.205 183.954 114.976 183.575C114.799 183.283 114.783 182.916 114.937 182.61C115.09 182.304 115.388 182.095 115.729 182.062C115.975 182.033 116.285 181.899 116.334 181.797C116.361 181.742 116.359 181.458 116.012 180.904C114.955 179.858 105.703 180.579 97.7366 181.924C97.1954 182.011 96.6928 181.66 96.5922 181.127C96.4913 180.595 96.8356 180.079 97.3665 179.968L108.741 177.583C108.776 177.576 108.813 177.57 108.849 177.567C110.954 177.362 112.917 176.657 113.049 176.223C113.048 176.223 113.044 176.181 112.998 176.096C112.668 175.893 110.162 174.904 94.0621 176.686C92.2939 176.882 90.6911 177.829 89.6646 179.285C88.6536 180.72 88.3038 182.514 88.7054 184.208Z" fill="#050E12"/>
</g>
<defs>
<clipPath id="clip0_0_1374">
<rect width="464" height="350.112" fill="white" transform="translate(0 57)"/>
</clipPath>
</defs>
</svg>
