<svg width="420" height="419" viewBox="0 0 420 419" fill="none" xmlns="http://www.w3.org/2000/svg">
<g clip-path="url(#clip0_0_1880)">
<path d="M243.813 44.5342C182.966 57.3897 192.029 128.463 87.2732 168.346C-25.0053 211.094 42.9984 372.364 170.744 381.545C297.89 390.682 356.527 333.352 369.58 224.399C379.395 142.473 334.235 25.4314 243.813 44.5342Z" fill="#E6E6E6"/>
<path d="M100.799 153.734C128.088 144.357 169.452 100.533 154.493 51.45C139.535 2.36655 20.2346 181.416 100.799 153.734Z" fill="#E6E6E6"/>
<mask id="mask0_0_1880" style="mask-type:luminance" maskUnits="userSpaceOnUse" x="30" y="42" width="341" height="341">
<path d="M243.813 44.5342C182.966 57.3897 192.029 128.463 87.2732 168.346C-25.0053 211.094 42.9984 372.364 170.744 381.545C297.89 390.682 356.527 333.352 369.58 224.399C379.395 142.473 334.235 25.4314 243.813 44.5342Z" fill="white"/>
</mask>
<g mask="url(#mask0_0_1880)">
<path d="M0.00489907 234.491C0.00932435 293.474 44.9858 348.929 137.095 366.535C258.705 389.779 415.004 391.316 415.004 275.255C415.004 231.674 419.377 112.622 394.542 96.5534H330.905V243.638L296.011 300.543V183.524H272.417V135.584L206.113 85.1971V151.923H149.928V65.4634C133.027 67.597 116.866 75.2865 102.613 87.4114V212.279H77.1807V183.947L1.90642 145.695C-0.184038 157.681 0.00347398 221.41 0.00489907 234.491ZM140.61 270.76H184.375V299.091H140.61V270.76ZM167.705 167.476H187.882V249.253H167.705V167.476ZM138.185 108.597H115.118V91.1627H138.185V108.597ZM138.185 130.712H115.118V113.277H138.185V130.712ZM138.185 152.826H115.118V135.392H138.185V152.826ZM138.185 174.941H115.118V157.506H138.185V174.941ZM369.022 146.325H340.54V104.79H369.022V146.325ZM369.022 199.009H340.54V157.473H369.022V199.009ZM369.022 251.693H340.54V210.157H369.022V251.693ZM369.022 304.377H340.54V262.842H369.022V304.377ZM113.937 209.151H146.884V246.847H113.937V209.151Z" fill="#F5F5F5"/>
<path d="M336.536 94.2476H335.771V349.986H336.536V94.2476Z" fill="white"/>
<path d="M262.353 36H261.587V349.986H262.353V36Z" fill="white"/>
<path d="M188.169 36H187.403V349.986H188.169V36Z" fill="white"/>
<path d="M113.984 36H113.22V349.986H113.984V36Z" fill="white"/>
<path d="M38.2544 94.1616H37.4883V349.986H38.2544V94.1616Z" fill="white"/>
<path d="M369.131 350.396H9.41504V382.929H369.131V350.396Z" fill="#DBDBDB"/>
<path d="M369.131 346.5H9.41504V350.369H369.131V346.5Z" fill="white"/>
<path d="M369.131 297.753H9.41504V298.519H369.131V297.753Z" fill="white"/>
<path d="M369.131 245.904H9.41504V246.67H369.131V245.904Z" fill="white"/>
<path d="M369.131 194.055H9.41504V194.82H369.131V194.055Z" fill="white"/>
<path d="M369.131 140.501H9.41504V141.267H369.131V140.501Z" fill="white"/>
<path d="M369.131 86.9478H9.41504V87.7128H369.131V86.9478Z" fill="white"/>
</g>
<path d="M301.612 97.7979H414.94C417.556 97.7979 419.679 99.9213 419.679 102.537V209.953C419.679 213.762 416.587 216.854 412.778 216.854H303.773C299.964 216.854 296.872 213.762 296.872 209.954V102.537C296.872 99.9215 298.996 97.7979 301.612 97.7979Z" fill="white"/>
<path d="M414.872 97.7979H301.812C299.157 97.7979 297.004 99.9503 297.004 102.605V108.212H419.679V102.605C419.679 99.9503 417.527 97.7979 414.872 97.7979Z" fill="#E6E6E6"/>
<path d="M420 108.533H296.683V102.605C296.683 99.7777 298.984 97.4771 301.812 97.4771H414.872C417.699 97.4771 420 99.7777 420 102.605V108.533ZM297.325 107.891H419.358V102.605C419.358 100.132 417.346 98.1187 414.872 98.1187H301.812C299.338 98.1187 297.325 100.132 297.325 102.605V107.891Z" fill="#34234D"/>
<path d="M402.515 102.137C401.88 102.137 401.365 102.651 401.365 103.287C401.365 103.921 401.88 104.435 402.515 104.435C403.15 104.435 403.664 103.921 403.664 103.287C403.664 102.651 403.15 102.137 402.515 102.137Z" fill="#2B1D40"/>
<path d="M407.365 102.137C406.731 102.137 406.216 102.651 406.216 103.287C406.216 103.921 406.731 104.435 407.365 104.435C407.999 104.435 408.514 103.921 408.514 103.287C408.514 102.651 407.999 102.137 407.365 102.137Z" fill="#FF5168"/>
<path d="M412.215 102.137C411.58 102.137 411.066 102.651 411.066 103.287C411.066 103.921 411.58 104.435 412.215 104.435C412.85 104.435 413.364 103.921 413.364 103.287C413.364 102.651 412.85 102.137 412.215 102.137Z" fill="#00B5F4"/>
<path d="M414.94 97.5112H301.613C298.84 97.5112 296.581 99.765 296.581 102.538V209.951C296.581 213.921 299.806 217.146 303.776 217.146H412.778C416.741 217.146 419.966 213.921 419.966 209.951V102.538C419.966 99.765 417.713 97.5112 414.94 97.5112ZM419.392 209.951C419.392 213.597 416.424 216.566 412.778 216.566H303.776C300.129 216.566 297.161 213.597 297.161 209.951V102.538C297.161 100.083 299.158 98.0855 301.613 98.0855H414.94C417.395 98.0855 419.392 100.083 419.392 102.538V209.951Z" fill="#2B1D40"/>
<path d="M346.864 79.323L344.843 81.5969L341.545 85.3073L340.861 86.0778L312.135 118.405L303.53 128.089L303.526 128.089L303.527 128.092L297.398 134.987L297.043 134.8L296.011 134.257L287.197 129.623L262.698 116.75L255.999 113.228L239.469 163.047L239.47 163.05L236.589 171.73L233.656 173.207L228.4 175.853L202.732 188.78L197.857 191.234L195.099 195.585L194.448 196.612L192.669 199.42L192.666 199.421L167.259 239.495L160.958 249.432L160.654 249.222L151.052 242.532L124.063 223.736L122.507 222.653L117.405 219.101L117.004 218.82L115.049 221.804L113.823 223.677L87.4294 263.972L82.7291 271.145L82.3095 271.422L75.5488 275.93L45.864 295.729L42.105 291.727L72.4095 271.515L78.7534 267.285L80.1076 265.218L82.9071 260.945L83.3994 260.191L109.605 220.184L115.366 211.391L116.31 212.048L125.363 218.356L125.365 218.355L153.13 237.691L155.126 239.082L159.177 241.903L159.259 241.958L163.148 235.827L163.996 234.488L188 196.62L193.831 187.423L194.019 187.128L199.595 184.32L204.481 181.862L225.784 171.131L232.151 167.926L234.389 161.174L252.794 105.703L289.805 125.154L295.973 128.396L299.68 124.225L301.107 122.621L306.757 116.261L336.776 82.4854L340.757 78.0079L342.777 75.7339L346.864 79.323Z" fill="#FF5168"/>
<path d="M363.276 105.774L374.34 44.3145L314.366 62.7921L363.276 105.774Z" fill="#FF5168"/>
<path d="M89.3968 268.339C90.1366 273.1 86.8551 277.352 82.0685 277.836C77.2817 278.32 72.802 274.853 72.0629 270.092C71.3239 265.331 74.6053 261.079 79.3912 260.595C84.1787 260.111 88.6577 263.578 89.3968 268.339Z" fill="#00B5F4"/>
<path d="M125.548 214.846C126.287 219.607 123.006 223.859 118.219 224.344C113.432 224.828 108.952 221.361 108.213 216.6C107.474 211.839 110.755 207.587 115.542 207.103C120.329 206.619 124.809 210.086 125.548 214.846Z" fill="#00B5F4"/>
<path d="M168.459 242.776C169.198 247.537 165.916 251.789 161.13 252.274C156.343 252.758 151.863 249.29 151.124 244.529C150.385 239.768 153.666 235.516 158.453 235.032C163.24 234.548 167.719 238.015 168.459 242.776Z" fill="#00B5F4"/>
<path d="M203.057 190.144C203.796 194.905 200.516 199.157 195.729 199.641C190.942 200.125 186.463 196.658 185.724 191.897C184.985 187.136 188.265 182.884 193.052 182.4C197.839 181.915 202.318 185.383 203.057 190.144Z" fill="#00B5F4"/>
<path d="M243.039 168.95C243.778 173.711 240.496 177.963 235.71 178.447C230.923 178.931 226.443 175.465 225.704 170.703C224.965 165.943 228.246 161.69 233.032 161.206C237.819 160.722 242.299 164.189 243.039 168.95Z" fill="#00B5F4"/>
<path d="M304.462 130.905C305.201 135.666 301.92 139.918 297.134 140.402C292.347 140.886 287.867 137.419 287.128 132.658C286.388 127.897 289.67 123.645 294.456 123.161C299.243 122.676 303.723 126.143 304.462 130.905Z" fill="#00B5F4"/>
<path d="M264.68 111.377C265.42 116.138 262.139 120.39 257.352 120.874C252.565 121.358 248.085 117.891 247.346 113.13C246.607 108.37 249.888 104.117 254.675 103.633C259.461 103.149 263.941 106.616 264.68 111.377Z" fill="#00B5F4"/>
<path d="M358.854 382.165H41.6348V382.929H358.854V382.165Z" fill="#34234D"/>
<path d="M232.838 261.947H191.969V382.492H232.838V261.947Z" fill="#34234D"/>
<path d="M293.791 203.189H252.922V382.492H293.791V203.189Z" fill="#34234D"/>
<path d="M354.744 245.658H313.874V382.492H354.744V245.658Z" fill="#34234D"/>
<path d="M110.932 298.486H70.0625V382.492H110.932V298.486Z" fill="#34234D"/>
<path d="M171.885 310.908H131.016V382.492H171.885V310.908Z" fill="#34234D"/>
<path d="M226.527 261.947H185.658V382.492H226.527V261.947Z" fill="#00B5F4"/>
<path d="M287.479 203.189H246.61V382.492H287.479V203.189Z" fill="#FF5168"/>
<path d="M348.433 245.658H307.563V382.492H348.433V245.658Z" fill="#00B5F4"/>
<path d="M104.621 298.486H63.7515V382.492H104.621V298.486Z" fill="#00B5F4"/>
<path d="M165.574 310.908H124.705V382.492H165.574V310.908Z" fill="#FF5168"/>
<path d="M255.145 104.764C255.145 104.764 263.554 99.2985 260.46 87.1985C257.366 75.0981 248.42 72.0188 245.158 72.2928C241.897 72.5667 234.86 81.661 234.86 81.661L235.896 98.0683C235.896 98.0683 238.615 100.412 240.49 101.631C242.365 102.85 241.053 102.013 243.584 102.994C246.116 103.975 255.145 104.764 255.145 104.764Z" fill="#34234D"/>
<path d="M131.032 285.174L145.974 287.279L152.479 268.419L133.765 265.782L131.032 285.174Z" fill="white"/>
<path d="M133.573 265.526L132.136 275.728L131.544 279.94L130.78 285.367L141.262 286.84L141.885 286.927L146.127 287.526L147.834 282.576L150.102 275.991L152.778 268.237L133.573 265.526ZM142.064 286.503L141.44 286.41L131.284 284.983L131.985 280.015L132.581 275.788L133.959 266.037L152.177 268.603L149.61 276.05L147.411 282.432L145.823 287.03L142.064 286.503Z" fill="#34234D"/>
<path d="M149.095 283.233C149.095 283.233 145.853 280.686 141.069 283.283C136.285 285.879 135.529 282.291 134.637 281.449C133.744 280.607 132.454 279.807 130.511 279.907C130.511 279.907 126.397 297.359 127.772 310.682L173.962 310.326C173.962 310.326 175.354 305.673 171.35 303.561C167.345 301.449 150.902 297.398 148.547 292.892C146.19 288.386 149.095 283.233 149.095 283.233Z" fill="#34234D"/>
<path d="M135.953 307.345C135.887 298.805 128.854 296.337 128.776 296.31L128.974 295.732C129.056 295.76 136.495 298.359 136.564 307.341L135.953 307.345Z" fill="white"/>
<path d="M127.45 306.459C127.415 308.121 127.715 309.578 127.772 310.682L173.962 310.326C173.962 310.326 174.61 308.152 173.744 306.102L127.45 306.459Z" fill="white"/>
<path d="M173.95 306.011L173.894 305.873H173.638L136.501 306.165H135.89L127.589 306.233H127.228V306.455C127.2 307.531 127.318 308.515 127.422 309.382C127.478 309.854 127.526 310.304 127.547 310.693L127.561 310.908L174.13 310.547L174.179 310.388C174.207 310.298 174.838 308.113 173.95 306.011ZM127.984 310.457C127.956 310.11 127.915 309.729 127.866 309.334C127.776 308.536 127.665 307.649 127.672 306.685L135.925 306.622L136.535 306.615L173.59 306.331C174.214 307.926 173.908 309.59 173.784 310.104L127.984 310.457Z" fill="#34234D"/>
<path d="M151.693 300.097L151.623 300.084C151.197 300.009 141.162 298.173 140.082 293.752C139.013 289.375 142.488 284.399 142.634 284.214L143.115 284.591C143.081 284.634 139.681 289.534 140.677 293.607C141.619 297.466 150.777 299.301 151.663 299.47L156.999 297.959L157.165 298.548L151.693 300.097Z" fill="white"/>
<path d="M151.437 295.113L146.629 296.803L146.832 297.38L151.64 295.69L151.437 295.113Z" fill="white"/>
<path d="M147.442 292.241L142.634 293.933L142.837 294.51L147.645 292.817L147.442 292.241Z" fill="white"/>
<path d="M122.327 276.311C122.327 276.311 125.8 277.091 130.847 277.646C130.923 277.66 130.997 277.668 131.073 277.675C131.148 277.683 131.222 277.69 131.29 277.705C136.136 278.216 142.338 278.508 148.324 277.743C148.406 277.728 148.489 277.721 148.571 277.713C148.654 277.698 148.736 277.683 148.818 277.675C153.319 277.053 157.669 275.808 161.202 273.595C161.202 273.595 167.044 249.698 173.278 223.875H173.285C175.513 214.634 177.793 205.153 179.878 196.43C181.431 189.927 182.871 183.852 184.101 178.609C184.176 178.294 184.251 177.979 184.318 177.664C185.916 170.801 187.131 165.476 187.709 162.663C191.421 144.647 157.594 140.537 153.004 147.1C151.054 149.89 146.704 166.608 141.873 187.152C141.183 190.092 140.478 193.115 139.773 196.175C131.342 232.785 122.327 276.311 122.327 276.311Z" fill="#00B5F4"/>
<path d="M159.716 238.95C159.301 238.755 158.892 238.516 158.499 238.227C156.623 236.839 155.553 234.581 155.32 231.514C154.576 221.691 154.627 206.322 154.627 206.168L155.198 206.17C155.197 206.324 155.147 221.671 155.889 231.47C156.108 234.365 157.101 236.484 158.838 237.767C161.699 239.881 165.659 239.02 165.699 239.01L165.824 239.568C165.674 239.601 162.55 240.282 159.716 238.95Z" fill="#34234D"/>
<path d="M154.627 184.988C154.627 184.988 156.649 194.158 179.713 196.416C179.773 196.423 179.826 196.423 179.878 196.431C181.431 189.927 182.871 183.852 184.101 178.609C184.176 178.294 184.251 177.979 184.318 177.664C182.353 176.742 180.973 176.112 180.846 176.082C180.373 175.984 172.632 175.894 172.632 175.894L159.844 177.304L150.656 178.609L154.627 184.988Z" fill="#34234D"/>
<path d="M212.666 214.756L212.069 214.626C213.625 207.399 217.553 199.375 221.019 192.297C224.243 185.709 227.028 180.02 226.227 177.99C226.102 177.675 225.889 177.464 225.575 177.344C224.012 176.75 220.11 177.294 215.171 177.983C205.03 179.399 189.705 181.538 179.715 175.487L180.031 174.964C189.836 180.902 205.031 178.781 215.086 177.378C220.309 176.649 224.083 176.123 225.793 176.773C226.27 176.954 226.607 177.288 226.796 177.766C227.696 180.046 224.992 185.571 221.567 192.565C218.117 199.613 214.208 207.6 212.666 214.756Z" fill="#34234D"/>
<path d="M162.8 188.133C171.512 186.55 215.314 193.875 228.524 181.494C235.613 174.849 234.998 158.357 220.621 153.689C211.207 150.633 179.677 146.689 152.839 156.62C135.254 163.125 132.921 193.564 162.8 188.133Z" fill="#00B5F4"/>
<path d="M179.149 236.619L194.01 239.239L201.161 220.614L182.549 217.333L179.149 236.619Z" fill="white"/>
<path d="M194.154 239.492L178.889 236.802L182.366 217.074L201.469 220.439L194.154 239.492ZM179.409 236.437L193.866 238.985L200.854 220.788L182.731 217.594L179.409 236.437Z" fill="#34234D"/>
<path d="M197.268 235.303C197.268 235.303 194.116 232.646 189.245 235.076C184.375 237.506 183.743 233.894 182.88 233.022C182.017 232.149 180.756 231.306 178.81 231.338C178.81 231.338 174.452 248.51 175.827 261.832L222.016 261.476C222.016 261.476 223.409 256.823 219.404 254.71C215.4 252.598 197.861 247.674 195.505 243.168C193.148 238.663 197.268 235.303 197.268 235.303Z" fill="#34234D"/>
<path d="M184.008 258.495C183.942 249.955 176.226 247.204 176.148 247.177L176.346 246.599C176.428 246.626 184.55 249.509 184.619 258.491L184.008 258.495Z" fill="#34234D"/>
<path d="M175.505 257.608C175.47 259.271 175.771 260.727 175.827 261.832L222.016 261.476C222.016 261.476 222.665 259.302 221.798 257.251L175.505 257.608Z" fill="white"/>
<path d="M175.613 262.058L175.602 261.844C175.582 261.452 175.53 261.006 175.474 260.532C175.372 259.665 175.257 258.682 175.28 257.604L175.284 257.385L221.947 257.025L222.005 257.164C222.893 259.265 222.26 261.448 222.232 261.54L222.184 261.699L175.613 262.058ZM175.727 257.831C175.723 258.795 175.828 259.686 175.921 260.48C175.968 260.877 176.012 261.257 176.037 261.605L221.841 261.252C221.961 260.739 222.265 259.075 221.647 257.477L175.727 257.831Z" fill="#34234D"/>
<path d="M199.747 251.246L199.677 251.235C199.252 251.158 189.217 249.323 188.137 244.902C187.067 240.525 190.625 236.24 190.776 236.06L191.245 236.454C191.209 236.497 187.736 240.683 188.731 244.757C189.674 248.617 198.831 250.452 199.717 250.619L205.054 249.109L205.22 249.698L199.747 251.246Z" fill="white"/>
<path d="M199.492 246.263L194.684 247.953L194.886 248.53L199.695 246.84L199.492 246.263Z" fill="white"/>
<path d="M195.497 243.392L190.688 245.082L190.891 245.659L195.699 243.969L195.497 243.392Z" fill="white"/>
<path d="M232.168 174.618C230.471 183.117 226.344 197.802 222.663 208.726C218.98 219.65 213.999 235.267 213.999 235.267C213.999 235.267 189.543 233.222 177.458 215.966C177.458 215.966 192.114 183.553 195.805 173.791C199.497 164.028 235.207 159.397 232.168 174.618Z" fill="#00B5F4"/>
<path d="M181.96 220.336L181.361 220.207C182.919 212.979 186.846 204.956 190.311 197.877C193.536 191.29 196.321 185.601 195.519 183.571C195.396 183.256 195.182 183.045 194.868 182.925C193.306 182.331 189.404 182.875 184.464 183.565C174.323 184.98 158.998 187.119 149.008 181.067L149.324 180.545C159.13 186.483 174.325 184.362 184.38 182.959C189.602 182.229 193.376 181.704 195.086 182.353C195.563 182.535 195.9 182.869 196.088 183.346C196.989 185.627 194.285 191.152 190.861 198.146C187.411 205.194 183.5 213.182 181.96 220.336Z" fill="#34234D"/>
<path d="M197.513 209.961L197.032 209.582C197.097 209.501 203.507 201.423 210.316 196.418L210.679 196.911C203.938 201.866 197.576 209.881 197.513 209.961Z" fill="#34234D"/>
<path d="M216.821 227.692L216.246 227.479C220.477 216.045 224.059 203.652 226.674 194.602C227.763 190.836 228.702 187.585 229.488 185.085C229.646 184.581 229.815 184.063 229.989 183.53C231.66 178.424 233.74 172.068 231.062 163.072C228.165 153.345 206.312 151.386 206.092 151.367L206.144 150.758C207.061 150.836 228.634 152.775 231.648 162.898C234.38 172.077 232.268 178.532 230.572 183.72C230.397 184.251 230.228 184.766 230.071 185.269C229.288 187.762 228.349 191.01 227.262 194.772C224.644 203.83 221.059 216.237 216.821 227.692Z" fill="#34234D"/>
<path d="M253.905 104.792C238.723 108.572 217.287 111.28 208.309 110.11C199.031 108.902 189.131 98.3419 189.22 93.9614C189.319 89.1312 196.811 81.3007 205.227 78.5631C211.73 76.4478 232.041 73.8526 240.929 72.7876C240.637 72.9078 240.382 73.0502 240.186 73.2153C237.554 75.3904 233.129 84.2108 239.639 95.4915C244.311 103.577 250.68 104.77 253.905 104.792Z" fill="white"/>
<path d="M213.512 110.644C211.481 110.644 209.71 110.555 208.275 110.368C199.059 109.168 188.862 98.7744 188.96 93.9563C189.056 89.2256 196.298 81.1941 205.146 78.3158C211.746 76.169 232.347 73.5541 240.898 72.5294L242.794 72.3022L241.028 73.0281C240.747 73.1431 240.521 73.2732 240.354 73.4142C237.562 75.7211 233.565 84.4473 239.864 95.3615C244.445 103.288 250.628 104.509 253.906 104.532L255.968 104.546L253.967 105.044C240.523 108.392 223.733 110.644 213.512 110.644ZM239.828 73.1824C230.729 74.2858 211.589 76.7671 205.307 78.8103C196.653 81.6251 189.573 89.4036 189.48 93.9665C189.397 98.0668 199.013 108.638 208.343 109.852C216.648 110.937 236.382 108.701 252.196 104.94C248.64 104.499 243.419 102.553 239.414 95.6215C233.093 84.6686 236.946 75.805 239.828 73.1824Z" fill="#34234D"/>
<path d="M218.222 102.482C219.664 115.658 210.321 145.645 213.41 152.017C213.41 152.017 200.804 155.914 192.081 152.642C170.533 144.56 154.787 185.17 140.239 174.646C140.557 130.752 156.484 87.9131 172.12 81.6367C188.025 75.2517 215.604 78.5555 218.222 102.482Z" fill="white"/>
<path d="M145.331 176.648C143.561 176.649 141.814 176.106 140.087 174.857L139.979 174.778L139.979 174.644C140.285 132.451 155.557 88.0049 172.022 81.3955C181.063 77.7657 195.709 76.8073 206.503 83.2772C213.419 87.4237 217.562 94.0547 218.481 102.454C219.186 108.9 217.362 119.137 215.599 129.036C213.797 139.152 212.095 148.707 213.644 151.904L213.776 152.176L213.487 152.266C213.36 152.305 200.695 156.152 191.99 152.886C180.946 148.741 171.267 157.733 162.727 165.664C156.687 171.274 150.9 176.648 145.331 176.648ZM140.5 174.513C147.283 179.295 154.28 172.801 162.374 165.283C171.025 157.249 180.828 148.144 192.173 152.399C200.001 155.337 211.152 152.391 213.053 151.851C211.644 148.27 213.318 138.876 215.087 128.945C216.844 119.082 218.661 108.882 217.964 102.51C217.063 94.2792 213.007 87.783 206.235 83.7233C195.594 77.3446 181.141 78.295 172.216 81.8782C157.533 87.7723 140.865 128.625 140.5 174.513Z" fill="#34234D"/>
<path d="M202.599 143.879C202.476 143.933 190.159 149.09 181.563 140.488L181.997 140.056C190.301 148.367 202.238 143.369 202.358 143.318L202.599 143.879Z" fill="#34234D"/>
<path d="M199.719 92.3254L199.751 91.7145C203.869 91.935 206.228 88.1583 206.252 88.1206L206.773 88.4388C206.671 88.6073 204.207 92.5652 199.719 92.3254Z" fill="white"/>
<path d="M203.842 72.7974L199.389 87.1981C199.389 87.1981 186.825 86.7525 186.42 78.7902L189.626 68.9956L203.842 72.7974Z" fill="white"/>
<path d="M199.553 87.4289L199.38 87.4227C199.253 87.4183 186.606 86.8766 186.195 78.8019L186.207 78.7202L189.479 68.7231L204.126 72.6403L199.553 87.4289ZM186.647 78.8206C187.051 85.9508 197.735 86.8711 199.225 86.9641L203.558 72.9542L189.774 69.2678L186.647 78.8206Z" fill="#34234D"/>
<path d="M202.737 76.3506L201.251 80.9022C192.138 80.3902 192.869 72.4872 192.904 72.5059C202.342 76.1444 202.737 76.3506 202.737 76.3506Z" fill="#34234D"/>
<path d="M204.934 78.6422C200.892 79.3098 192.581 75.0806 190.311 71.6698C189.502 70.4539 189.129 66.9194 189.368 65.1406C190.128 59.5614 190.64 54.5316 194.499 52.3723C196.126 51.4666 200.615 50.3077 202.265 50.3627C207.705 50.5572 208.991 55.6065 209.947 60.9608C211.021 66.9681 212.059 77.4648 204.934 78.6422Z" fill="white"/>
<path d="M204.345 78.9301C199.958 79.1527 192.272 75.0219 190.124 71.794C189.234 70.4565 188.916 66.8172 189.146 65.1106L189.245 64.3763C189.974 58.9666 190.603 54.295 194.39 52.1759C196.066 51.2427 200.567 50.0818 202.273 50.1382C207.821 50.3363 209.174 55.3516 210.168 60.9208C211.481 68.2624 211.115 73.4465 209.078 76.3294C208.093 77.7241 206.711 78.5766 204.971 78.8641C204.771 78.8971 204.562 78.919 204.345 78.9301ZM201.896 50.5923C200.055 50.6857 196.096 51.7408 194.609 52.5685C191.019 54.5777 190.403 59.1461 189.691 64.4364L189.591 65.1707C189.347 66.9916 189.743 70.41 190.498 71.5453C192.638 74.7616 200.875 79.0813 204.898 78.4202C206.515 78.1529 207.798 77.3625 208.711 76.0701C210.675 73.2889 211.017 68.2184 209.726 61.0003C208.765 55.6193 207.471 50.7736 202.258 50.5876C202.148 50.5839 202.028 50.5857 201.896 50.5923Z" fill="#34234D"/>
<path d="M208.355 54.8449C205.774 49.8414 205.861 55.2301 201.74 53.9256C197.269 52.5097 192.97 54.4599 193.288 57.8974C193.897 64.5148 191.401 63.9128 191.401 63.9128L188.574 72.1285C188.574 72.1285 183.437 66.8112 182.931 56.832C182.577 49.8754 190.087 48.4625 195.558 45.2151C202.024 41.3769 210.787 45.7322 208.355 54.8449Z" fill="#34234D"/>
<path d="M205.976 68.6487L205.717 68.0942C206.501 67.7287 207.634 67.0087 207.702 66.5513C207.711 66.4956 207.705 66.4319 207.605 66.3425C205.415 64.3835 205.49 61.2632 205.495 61.1314L205.497 61.0578L205.532 60.9933C205.544 60.9735 206.656 59.0299 209.097 59.4076L209.004 60.0125C207.198 59.7305 206.298 60.931 206.105 61.2277C206.11 61.7049 206.219 64.2814 208.013 65.8869C208.309 66.1524 208.336 66.4436 208.307 66.641C208.168 67.5833 206.34 68.4792 205.976 68.6487Z" fill="#34234D"/>
<path d="M192.432 65.122C192.793 67.2059 191.394 69.1854 189.311 69.5451C187.227 69.9039 185.247 68.5064 184.889 66.4233C184.528 64.3394 185.927 62.3595 188.009 62.0002C190.094 61.6406 192.073 63.0385 192.432 65.122Z" fill="white"/>
<path d="M188.858 69.8213C187.957 69.8671 187.072 69.6122 186.323 69.0837C185.438 68.4596 184.85 67.5283 184.666 66.4615C184.483 65.3946 184.724 64.3201 185.348 63.4353C185.973 62.5512 186.904 61.9627 187.971 61.7788C189.036 61.596 190.113 61.8366 190.997 62.4614C191.882 63.0856 192.47 64.0173 192.654 65.0841C192.839 66.1509 192.595 67.2254 191.971 68.1099C191.347 68.9944 190.416 69.5829 189.349 69.7664C189.185 69.795 189.021 69.8133 188.858 69.8213ZM188.484 62.1733C188.339 62.1805 188.193 62.1967 188.048 62.2216C187.099 62.3853 186.271 62.9086 185.717 63.695C185.162 64.4812 184.946 65.4367 185.11 66.3853C185.273 67.3334 185.796 68.1616 186.582 68.7164C187.369 69.2716 188.328 69.4855 189.272 69.3236C190.221 69.1599 191.048 68.6369 191.604 67.8506C192.16 67.064 192.375 66.1088 192.211 65.1603C192.048 64.212 191.525 63.384 190.738 62.8288C190.072 62.3589 189.285 62.1326 188.484 62.1733Z" fill="#34234D"/>
<path d="M188.497 68.5947C187.887 68.6258 187.269 68.1552 187.197 68.0984L187.575 67.6179C187.716 67.7267 188.184 68.0306 188.508 67.9794C188.61 67.9647 188.683 67.9175 188.747 67.8271C188.856 67.6717 188.85 67.6369 188.653 67.3645C188.441 67.0704 188.12 66.6258 188.35 65.8622C188.508 65.3385 188.823 64.9862 189.076 64.703C189.465 64.2665 189.525 64.1995 189.145 63.8516C188.386 63.1528 186.646 64.5782 186.628 64.5928L186.235 64.1244C186.322 64.0508 188.39 62.3317 189.559 63.4004C190.384 64.1566 189.891 64.7078 189.532 65.1103C189.308 65.3612 189.054 65.645 188.936 66.0387C188.793 66.513 188.957 66.7419 189.149 67.0067C189.335 67.2648 189.617 67.6549 189.247 68.1794C189.087 68.406 188.861 68.5463 188.596 68.5851C188.563 68.5899 188.53 68.5932 188.497 68.5947Z" fill="#34234D"/>
<path d="M208.223 70.0729C208.223 70.0729 205.34 71.4133 201.618 69.8418C201.618 69.8418 200.735 73.8257 202.942 74.3117C205.149 74.7977 208.223 70.0729 208.223 70.0729Z" fill="#34234D"/>
<path d="M199.196 62.1208L198.827 61.633C202.156 59.1162 203.561 60.6819 203.619 60.7492L203.154 61.1474L203.386 60.9482L203.158 61.151C203.146 61.1386 202.03 59.9783 199.196 62.1208Z" fill="#34234D"/>
<path d="M206.673 62.3359C206.766 62.8761 207.279 63.238 207.819 63.145C208.358 63.0522 208.721 62.5388 208.628 61.999C208.535 61.4591 208.021 61.0966 207.481 61.19C206.942 61.2833 206.58 61.7961 206.673 62.3359Z" fill="#34234D"/>
<path d="M200.786 63.22C200.879 63.7601 201.392 64.122 201.932 64.029C202.472 63.9363 202.835 63.4228 202.742 62.8827C202.648 62.3431 202.135 61.9806 201.595 62.0737C201.055 62.167 200.693 62.6801 200.786 63.22Z" fill="#34234D"/>
<path d="M128.931 162.094C128.459 149.783 146.105 124.155 146.861 121.08L152.183 115.867C152.183 115.867 152.743 109.02 152.318 108.273C151.892 107.527 145.84 97.1497 145.84 97.1497C145.84 97.1497 138.06 94.841 126.091 104.986C114.842 114.382 120.032 160.915 120.087 161.282L128.931 162.094Z" fill="white"/>
<path d="M129.202 162.38L119.861 161.522L119.831 161.321C119.76 160.865 114.621 114.228 125.924 104.786C137.863 94.6667 145.589 96.8044 145.914 96.9004L146.013 96.9297L146.065 97.0187C146.125 97.1227 152.122 107.405 152.543 108.145C152.986 108.922 152.537 114.732 152.442 115.889L152.434 115.985L147.093 121.216C146.826 122.133 145.492 124.436 143.5 127.873C138.02 137.329 128.849 153.155 129.191 162.084L129.202 162.38ZM120.321 161.042L128.663 161.808C128.521 152.683 137.601 137.014 143.05 127.612C144.929 124.369 146.414 121.808 146.608 121.018L146.626 120.946L146.679 120.894L151.932 115.749C152.198 112.449 152.33 108.822 152.091 108.402C151.694 107.703 146.281 98.4221 145.671 97.3757C144.748 97.1674 137.259 95.8614 126.259 105.184C115.524 114.151 119.951 157.691 120.321 161.042Z" fill="#34234D"/>
<path d="M185.747 88.6512C184.31 84.5142 179.591 78.7358 170.471 80.8248C161.35 82.9134 141.225 89.6924 128.321 98.7178C128.321 98.7178 136.741 113.46 153.849 121.488C153.849 121.488 172.593 111.248 179.533 105.761C186.473 100.273 187.333 93.2144 185.747 88.6512Z" fill="white"/>
<path d="M153.857 121.78L153.738 121.724C136.753 113.752 128.181 98.9949 128.097 98.8466L127.979 98.6408L128.173 98.5045C140.964 89.5574 160.87 82.7564 170.413 80.5711C179.166 78.566 184.278 83.6244 185.993 88.5657C187.555 93.0597 186.841 100.313 179.694 105.965C172.817 111.403 154.161 121.614 153.973 121.716L153.857 121.78ZM128.669 98.7927C129.762 100.592 138.173 113.797 153.84 121.197C155.432 120.323 172.812 110.743 179.372 105.557C186.305 100.075 187.007 93.0692 185.502 88.7363C183.856 83.998 178.944 79.1483 170.529 81.078C161.074 83.2432 141.407 89.9563 128.669 98.7927Z" fill="#34234D"/>
<path d="M145.178 101.001C145.178 100.9 145.315 90.8359 155.905 87.4717L156.09 88.0539C145.921 91.2845 145.789 100.905 145.789 101.003L145.178 101.001Z" fill="#34234D"/>
<path d="M126.634 175.232C126.634 175.232 128.024 174.115 128.891 173.311C129.758 172.507 130.094 171.768 129.872 169.795C129.65 167.821 129.975 163.181 128.671 161.723C127.366 160.267 123.768 156.426 119.349 159.539C114.928 162.651 112.762 171.059 116.071 169.997C116.071 169.997 114.968 173.259 118.325 172.956C118.325 172.956 118.728 176.75 121.591 175.181C121.591 175.181 122.615 180.181 126.634 175.232Z" fill="white"/>
<path d="M123.555 177.599C123.424 177.599 123.297 177.584 123.172 177.553C122.098 177.29 121.624 175.983 121.472 175.446C120.735 175.802 120.085 175.839 119.541 175.554C118.561 175.041 118.251 173.643 118.17 173.149C117.215 173.202 116.529 172.97 116.121 172.454C115.572 171.757 115.703 170.748 115.817 170.246C115.225 170.345 114.767 170.128 114.514 169.621C113.602 167.79 115.637 161.931 119.245 159.391C122.329 157.218 125.546 157.964 128.806 161.603C129.807 162.722 129.887 165.515 129.95 167.76C129.973 168.563 129.993 169.257 130.052 169.775C130.286 171.859 129.904 172.618 129.014 173.443C128.201 174.198 126.915 175.237 126.762 175.36C125.55 176.848 124.475 177.599 123.555 177.599ZM121.719 174.906L121.768 175.145C121.772 175.163 122.149 176.932 123.259 177.203C124.102 177.411 125.22 176.687 126.494 175.118L126.521 175.091C126.535 175.08 127.916 173.969 128.768 173.179C129.584 172.422 129.911 171.757 129.693 169.815C129.633 169.283 129.613 168.582 129.59 167.77C129.531 165.7 129.45 162.864 128.536 161.844C127.374 160.546 123.838 156.597 119.453 159.686C116.041 162.089 113.997 167.771 114.837 169.46C115.053 169.892 115.439 170.011 116.016 169.826L116.356 169.717L116.242 170.055C116.237 170.069 115.785 171.445 116.406 172.231C116.756 172.676 117.399 172.859 118.309 172.776L118.486 172.76L118.505 172.937C118.507 172.955 118.706 174.71 119.71 175.234C120.188 175.485 120.792 175.414 121.505 175.023L121.719 174.906Z" fill="#34234D"/>
<path d="M121.591 175.182C122.196 174.73 122.681 174.19 123.141 173.627C123.59 173.056 124.008 172.462 124.316 171.772C123.715 172.218 123.227 172.761 122.766 173.326C122.318 173.901 121.895 174.497 121.591 175.182Z" fill="#34234D"/>
<path d="M118.319 172.947C119.037 172.26 119.65 171.505 120.253 170.743C120.848 169.971 121.421 169.197 121.959 168.363C121.547 168.644 121.183 168.981 120.839 169.334C120.493 169.685 120.18 170.063 119.875 170.447C119.278 171.226 118.729 172.04 118.319 172.947Z" fill="#34234D"/>
<path d="M116.032 170.004C116.403 169.414 116.709 168.839 117.043 168.271C117.203 167.984 117.373 167.704 117.54 167.418C117.705 167.129 117.885 166.85 118.044 166.535C117.438 166.889 116.972 167.435 116.626 168.031C116.457 168.334 116.31 168.649 116.208 168.98C116.103 169.309 116.029 169.652 116.032 170.004Z" fill="#34234D"/>
<path d="M129.07 162.866C129.07 162.866 128.574 161.098 128.765 159.964C128.956 158.83 125.635 155.55 125.635 155.55C125.635 155.55 122.55 155.285 122.353 155.438C122.154 155.591 120.142 158.917 120.142 158.917C120.142 158.917 119.829 159.393 118.985 160.051C118.142 160.71 121.845 163.299 121.845 163.299C121.845 163.299 125.319 165.385 125.663 165.179C126.008 164.973 129.07 162.866 129.07 162.866Z" fill="white"/>
<path d="M217.152 49.0728C217.327 49.5111 229.089 54.3451 229.171 54.7468C229.716 55.1368 230.096 55.413 230.113 55.4368C236.629 59.7931 263.588 79.0969 264.214 88.2887C264.807 96.9988 242.709 102.966 239.337 95.204C237.544 91.075 232.474 74.7172 224.593 62.0144C224.569 62.0271 224.541 62.0429 224.518 62.055C222.798 62.986 218.36 61.5931 216.389 61.3515C214.418 61.1094 206.075 56.5644 205.494 55.5342L217.152 49.0728Z" fill="white"/>
<path d="M247.169 98.9675C243.53 98.9679 240.319 97.9165 239.172 95.2755C238.763 94.3347 238.182 92.7551 237.447 90.7555C234.871 83.7436 230.566 72.0303 224.528 62.2525C223.175 62.907 220.505 62.3492 218.35 61.8999C217.564 61.7354 216.883 61.5937 216.367 61.5303C214.435 61.293 205.981 56.7656 205.336 55.6226L205.247 55.4644L217.244 48.8154L217.311 48.9828C217.613 49.2589 220.73 50.6359 223.24 51.7453C227.99 53.8438 229.063 54.3591 229.292 54.6114C229.967 55.0952 230.159 55.2381 230.223 55.2934C230.966 55.7944 263.695 78.0094 264.394 88.2764C264.722 93.0972 258.498 96.8452 252.575 98.2878C250.797 98.7207 248.933 98.9675 247.169 98.9675ZM224.657 61.7757L224.746 61.9189C230.849 71.7567 235.192 83.5718 237.786 90.631C238.519 92.6251 239.098 94.2003 239.503 95.1319C241.122 98.8595 247.191 99.2268 252.489 97.9369C258.27 96.5291 264.348 92.9133 264.034 88.3005C263.45 79.7329 239.277 61.7808 230.012 55.5867L229.965 55.541C229.959 55.541 229.806 55.423 229.066 54.8934L229.002 54.8238C228.655 54.5324 225.577 53.1725 223.094 52.0753C218.959 50.2481 217.546 49.5966 217.13 49.2912L205.765 55.59C206.893 56.7726 214.478 60.9348 216.411 61.1722C216.943 61.2373 217.629 61.3805 218.424 61.5464C220.452 61.9691 223.229 62.5466 224.433 61.8962L224.657 61.7757Z" fill="#34234D"/>
<path d="M204.961 51.6182C204.961 51.6182 202.579 49.2725 200.714 53.3563C198.848 57.4405 201.287 59.1988 202.524 58.4341C203.761 57.6691 204.612 57.2706 204.606 54.7985C204.606 54.7985 205.549 56.7308 207.063 56.0796C208.578 55.4288 209 53.8441 209 53.8441C209 53.8441 209.483 55.7335 210.323 55.7921C211.162 55.8504 212.862 54.5748 213.047 52.4404C213.047 52.4404 214.228 54.2851 215.983 52.369C217.738 50.4532 217.16 49.4921 217.16 49.4921C217.16 49.4921 217.472 46.0569 213.47 48.7553C213.47 48.7553 210.904 46.9721 209.52 50.366C209.52 50.366 206.248 47.5936 204.961 51.6182Z" fill="white"/>
<path d="M201.896 58.7952C201.496 58.7952 201.076 58.6348 200.727 58.3264C199.869 57.5698 199.37 55.8463 200.543 53.2787C201.216 51.8053 202.039 50.9696 202.99 50.7941C203.832 50.6381 204.531 51.0461 204.872 51.3003C205.27 50.2155 205.866 49.5533 206.644 49.3303C207.792 49.0017 208.982 49.736 209.443 50.07C209.904 49.0519 210.527 48.4209 211.297 48.1931C212.269 47.906 213.16 48.3513 213.466 48.5319C214.893 47.5888 215.961 47.3123 216.637 47.7123C217.371 48.1462 217.363 49.2036 217.351 49.4559C217.458 49.7097 217.729 50.741 216.122 52.4956C215.511 53.1629 214.883 53.4786 214.277 53.4211C213.786 53.379 213.412 53.1109 213.176 52.8817C212.814 54.834 211.224 55.9811 210.371 55.9811C210.351 55.9811 210.33 55.9807 210.31 55.9793C209.643 55.9327 209.202 55.0204 208.982 54.4114C208.722 54.9607 208.173 55.8068 207.137 56.2517C206.107 56.6942 205.266 56.0631 204.774 55.4204C204.644 57.3534 203.854 57.8383 202.795 58.4872L202.623 58.5934C202.404 58.729 202.154 58.7949 201.896 58.7952ZM203.358 51.1354C203.26 51.1354 203.158 51.1443 203.055 51.1636C202.233 51.3167 201.502 52.0807 200.884 53.4347C199.796 55.8156 200.218 57.3775 200.975 58.0451C201.424 58.4418 202.007 58.5334 202.425 58.2744L202.6 58.1675C203.737 57.4699 204.423 57.0486 204.418 54.7989L204.416 53.9873L204.774 54.7161C204.809 54.7883 205.657 56.4773 206.989 55.9075C208.404 55.2995 208.815 53.8108 208.819 53.7958L209.004 53.1021L209.182 53.7976C209.299 54.254 209.762 55.565 210.336 55.6049C210.349 55.6061 210.363 55.6064 210.378 55.6064C211.083 55.6064 212.683 54.4586 212.86 52.4242L212.908 51.8796L213.204 52.3389C213.209 52.3455 213.634 52.9912 214.311 53.048C214.819 53.0889 215.318 52.8179 215.845 52.2422C217.461 50.4788 217.003 49.5947 216.998 49.5859L216.971 49.5357L216.974 49.4757C216.974 49.4647 217.061 48.3971 216.445 48.0346C215.898 47.7093 214.904 48.0133 213.573 48.9109L213.467 48.9823L213.362 48.9095C213.353 48.9025 212.397 48.2543 211.401 48.5535C210.691 48.7648 210.117 49.3984 209.694 50.4367L209.596 50.6759L209.399 50.5092C209.385 50.4975 207.993 49.3332 206.745 49.691C206.036 49.895 205.496 50.5627 205.14 51.6753L205.047 51.9646L204.83 51.7518C204.823 51.7452 204.188 51.1354 203.358 51.1354Z" fill="#34234D"/>
<path d="M208.996 53.7063C208.97 53.4378 208.961 53.1704 208.958 52.9039C208.958 52.6376 208.969 52.3717 208.997 52.108C209.019 51.8436 209.068 51.5828 209.127 51.3243C209.186 51.0646 209.275 50.8141 209.371 50.561C209.229 50.7896 209.103 51.0342 209.026 51.2957C208.944 51.555 208.888 51.8234 208.862 52.0945C208.811 52.6351 208.844 53.187 208.996 53.7063Z" fill="#34234D"/>
<path d="M212.995 52.2174C212.97 51.949 212.96 51.6817 212.957 51.4154C212.957 51.1488 212.968 50.8829 212.996 50.6192C213.018 50.3548 213.068 50.0941 213.127 49.8354C213.185 49.5758 213.274 49.3253 213.37 49.0723C213.228 49.3007 213.102 49.5458 213.025 49.8069C212.943 50.0662 212.887 50.3347 212.861 50.6057C212.81 51.1466 212.843 51.6985 212.995 52.2174Z" fill="#34234D"/>
<path d="M204.606 54.7985C204.58 54.5301 204.572 54.2627 204.569 53.9961C204.569 53.7295 204.58 53.4639 204.607 53.2003C204.629 52.9358 204.679 52.6747 204.738 52.4162C204.796 52.1565 204.886 51.9064 204.981 51.6533C204.839 51.8819 204.714 52.1265 204.636 52.388C204.554 52.6473 204.498 52.9157 204.473 53.1867C204.421 53.7273 204.454 54.2792 204.606 54.7985Z" fill="#34234D"/>
<path d="M178.119 80.0669C178.119 80.0669 174.463 80.5357 172.752 80.6998C171.041 80.8638 170.455 87.4718 170.455 87.4718L172.142 102.475L176.08 117.1L188.661 109.412L193.706 94.2372L188.661 85.036L178.119 80.0669Z" fill="white"/>
<path d="M201.332 81.6753L201.596 80.8224L208.144 80.5049L219.207 88.5203V95.1619L212.738 102.381L201.332 81.6753Z" fill="white"/>
</g>
<defs>
<clipPath id="clip0_0_1880">
<rect width="420" height="346.929" fill="white" transform="translate(0 36)"/>
</clipPath>
</defs>
</svg>
